<svg width="24" height="24" viewBox="0 0 24 24" fill="none" xmlns="http://www.w3.org/2000/svg">
<path d="M12 2C6.486 2 2 6.486 2 12C2 17.514 6.486 22 12 22C17.514 22 22 17.514 22 12C22 6.486 17.514 2 12 2ZM12 20C7.589 20 4 16.411 4 12C4 7.589 7.589 4 12 4C16.411 4 20 7.589 20 12C20 16.411 16.411 20 12 20ZM10.5 7.796C10.5 6.968 11.172 6.296 12 6.296C12.828 6.296 13.5 6.968 13.5 7.796C13.5 8.624 12.828 9.296 12 9.296C11.172 9.296 10.5 8.624 10.5 7.796ZM16.78 10.035C16.926 10.567 16.613 11.118 16.08 11.264L13.25 12.041V13.451L15.561 16.039C15.929 16.451 15.894 17.083 15.481 17.451C15.291 17.621 15.052 17.705 14.815 17.705C14.54 17.705 14.266 17.593 14.069 17.371L12 15.053L9.93 17.37C9.563 17.783 8.93 17.817 8.518 17.45C8.106 17.082 8.07 16.45 8.438 16.038L10.75 13.45V12.04L7.92 11.263C7.387 11.117 7.074 10.567 7.22 10.034C7.366 9.501 7.915 9.185 8.449 9.335L12 10.31L15.551 9.335C16.083 9.187 16.633 9.502 16.78 10.035Z" fill="#464454"/>
</svg>
