<svg width="24" height="24" viewBox="0 0 24 24" fill="none" xmlns="http://www.w3.org/2000/svg">
<path d="M20 12.9704H18.11V10.9914H20C20.2652 10.9914 20.5196 10.8872 20.7071 10.7016C20.8946 10.5161 21 10.2644 21 10.002C21 9.73956 20.8946 9.48789 20.7071 9.30233C20.5196 9.11677 20.2652 9.01252 20 9.01252H18.11H18.05C17.9469 8.54107 17.7093 8.10875 17.3655 7.76679C17.0216 7.42482 16.5859 7.18755 16.11 7.08308V5.61867L17 4.78753C17.1863 4.60214 17.2908 4.35136 17.2908 4.08996C17.2908 3.82856 17.1863 3.57778 17 3.39239C16.907 3.29965 16.7964 3.22604 16.6746 3.17581C16.5527 3.12557 16.422 3.09971 16.29 3.09971C16.158 3.09971 16.0273 3.12557 15.9054 3.17581C15.7836 3.22604 15.673 3.29965 15.58 3.39239L14.4 4.51048C14.3073 4.60293 14.234 4.71258 14.1842 4.83314C14.1345 4.95369 14.1092 5.08278 14.11 5.213V7.0336H13.11V6.61803C13.1302 5.79527 12.8594 4.99137 12.3443 4.34512C11.8293 3.69888 11.1024 3.25086 10.2891 3.07842C9.47577 2.90597 8.62713 3.01993 7.8897 3.40062C7.15227 3.78131 6.57232 4.40483 6.25 5.16352C5.81919 5.2452 5.41108 5.41728 5.05314 5.66816C4.69521 5.91904 4.39576 6.24291 4.17498 6.61794C3.9542 6.99298 3.8172 7.41047 3.77321 7.8423C3.72923 8.27414 3.77928 8.71028 3.92 9.12136C3.44103 9.58141 3.13081 10.1864 3.03844 10.8405C2.94606 11.4946 3.07682 12.1606 3.41 12.7329C3.14483 13.2303 3.00422 13.7834 3 14.3457C3.0006 15.1382 3.27592 15.9066 3.78 16.5225C3.74466 16.6953 3.72459 16.8707 3.72 17.0469C3.72264 17.8019 4.02691 18.5252 4.56644 19.0591C5.10598 19.5929 5.83699 19.894 6.6 19.8966C6.94294 19.8933 7.28219 19.8262 7.6 19.6987C7.96594 20.2321 8.49746 20.6332 9.11419 20.8412C9.73093 21.0493 10.3994 21.053 11.0184 20.8518C11.6375 20.6506 12.1735 20.2554 12.5454 19.7261C12.9174 19.1967 13.105 18.5619 13.08 17.9177V16.9282H14.08V18.7884C14.0811 19.048 14.1853 19.2967 14.37 19.481L15.5 20.609C15.593 20.7017 15.7036 20.7753 15.8254 20.8256C15.9473 20.8758 16.078 20.9017 16.21 20.9017C16.342 20.9017 16.4727 20.8758 16.5946 20.8256C16.7164 20.7753 16.827 20.7017 16.92 20.609C17.0137 20.517 17.0881 20.4076 17.1389 20.287C17.1897 20.1664 17.2158 20.0371 17.2158 19.9065C17.2158 19.7759 17.1897 19.6465 17.1389 19.5259C17.0881 19.4054 17.0137 19.2959 16.92 19.204L16.08 18.3728V16.8688C16.5601 16.7702 17.0013 16.5366 17.3508 16.1962C17.7002 15.8557 17.9429 15.4228 18.05 14.9493H18.11H20C20.2652 14.9493 20.5196 14.845 20.7071 14.6595C20.8946 14.4739 21 14.2222 21 13.9598C21 13.6974 20.8946 13.4457 20.7071 13.2602C20.5196 13.0746 20.2652 12.9704 20 12.9704ZM11.08 7.62728C10.8745 7.57208 10.6629 7.54217 10.45 7.53823C10.1848 7.53823 9.93043 7.64247 9.74289 7.82803C9.55536 8.01359 9.45 8.26526 9.45 8.52769C9.45 8.79011 9.55536 9.04178 9.74289 9.22734C9.93043 9.4129 10.1848 9.51715 10.45 9.51715C10.5862 9.5157 10.7193 9.5573 10.83 9.63588C10.908 9.6886 10.9735 9.75752 11.0219 9.83784C11.0702 9.91815 11.1003 10.0079 11.11 10.1009V11.0904C10.6831 11.0294 10.2478 11.0701 9.84 11.2091C9.62182 10.8548 9.31538 10.5618 8.95 10.3582C8.71926 10.227 8.4453 10.1918 8.18837 10.2605C7.93145 10.3291 7.71261 10.496 7.58 10.7243C7.44739 10.9526 7.41188 11.2237 7.48126 11.4779C7.55065 11.7321 7.71926 11.9486 7.95 12.0798C8.05731 12.1419 8.13914 12.2394 8.18118 12.3552C8.22323 12.4709 8.22281 12.5976 8.18 12.7131C8.1057 12.8912 8.05203 13.0771 8.02 13.2672C7.97659 13.5256 8.03854 13.7906 8.19226 14.0039C8.34598 14.2172 8.57892 14.3615 8.84 14.4051H9C9.23823 14.4085 9.46987 14.3277 9.65321 14.1771C9.83654 14.0265 9.95952 13.8161 10 13.5838C10.0294 13.4081 10.1281 13.2511 10.2743 13.1473C10.4205 13.0434 10.6023 13.0011 10.78 13.0297C10.9003 13.0497 11.0117 13.1048 11.1 13.188V15.0383H11.05C10.9246 14.9948 10.7917 14.9761 10.659 14.9834C10.5263 14.9907 10.3964 15.0237 10.2766 15.0807C10.0347 15.1958 9.84885 15.4012 9.76 15.6518C9.71601 15.7759 9.69715 15.9073 9.7045 16.0386C9.71184 16.1699 9.74526 16.2985 9.80283 16.417C9.8604 16.5356 9.94101 16.6417 10.04 16.7294C10.1391 16.8171 10.2546 16.8847 10.38 16.9282C10.5635 16.9883 10.7266 17.0973 10.8515 17.2433C10.9763 17.3893 11.058 17.5665 11.0876 17.7554C11.1172 17.9444 11.0935 18.1378 11.0191 18.3143C10.9448 18.4908 10.8226 18.6436 10.6661 18.7558C10.5096 18.868 10.3249 18.9353 10.1322 18.9502C9.93953 18.9652 9.74643 18.9273 9.57415 18.8406C9.40188 18.7539 9.25711 18.6219 9.15581 18.4591C9.05451 18.2962 9.00059 18.1089 9 17.9177C8.99467 17.8749 8.99467 17.8317 9 17.789C9.02917 17.5266 8.9518 17.2635 8.78489 17.0575C8.70224 16.9555 8.60011 16.8706 8.48431 16.8077C8.36851 16.7448 8.24132 16.705 8.11 16.6907C7.84478 16.6619 7.57884 16.7384 7.37068 16.9036C7.16251 17.0687 7.02917 17.3089 7 17.5713C7 17.6703 7 17.7692 7 17.8682C6.8729 17.9174 6.73542 17.9344 6.6 17.9177C6.36833 17.9177 6.146 17.8273 5.98126 17.6661C5.81651 17.505 5.72263 17.286 5.72 17.0568C5.71896 16.9262 5.74984 16.7972 5.81 16.6808C5.86867 16.5534 5.89934 16.4152 5.9 16.2752C5.90352 16.1331 5.87375 15.9922 5.81303 15.8635C5.75231 15.7347 5.66228 15.6216 5.55 15.5331C5.36866 15.3934 5.22399 15.2126 5.12825 15.0059C5.03251 14.7993 4.98852 14.5728 5 14.3457C4.9905 14.2602 4.9905 14.1739 5 14.0884C5.32121 14.2017 5.65905 14.2618 6 14.2666C6.26522 14.2666 6.51957 14.1623 6.70711 13.9767C6.89464 13.7912 7 13.5395 7 13.2771C7 13.0147 6.89464 12.763 6.70711 12.5774C6.51957 12.3919 6.26522 12.2876 6 12.2876C5.76607 12.2792 5.54153 12.1944 5.36143 12.0464C5.18133 11.8985 5.05579 11.6957 5.0044 11.4697C4.95302 11.2438 4.97868 11.0073 5.07737 10.7973C5.17607 10.5873 5.34226 10.4155 5.55 10.3087C5.79387 10.2062 5.98665 10.0121 6.08602 9.76911C6.18539 9.52608 6.18323 9.25397 6.08 9.01252C6.05807 8.94478 6.03133 8.87865 6 8.81463C6 8.81463 6 8.72558 5.95 8.686C5.85164 8.52117 5.79984 8.33322 5.8 8.1418C5.79731 7.86794 5.90402 7.60411 6.09691 7.4077C6.2898 7.21128 6.55326 7.09817 6.83 7.09297C7.09649 7.09338 7.35324 7.19217 7.55 7.37002C7.74361 7.54978 8.00146 7.64607 8.26682 7.63772C8.39821 7.63359 8.5275 7.60389 8.64729 7.55031C8.76709 7.49674 8.87504 7.42035 8.965 7.32549C9.05496 7.23064 9.12515 7.11918 9.17157 6.99749C9.21799 6.87579 9.23973 6.74624 9.23556 6.61623C9.23138 6.48622 9.20136 6.3583 9.14722 6.23976C9.09307 6.12123 9.01586 6.01441 8.92 5.92541C8.75497 5.78182 8.57764 5.6527 8.39 5.53952C8.53372 5.3878 8.70711 5.26658 8.89965 5.18323C9.09219 5.09988 9.29985 5.05615 9.51 5.05468C9.71702 5.05468 9.922 5.09519 10.1131 5.17387C10.3043 5.25256 10.4778 5.36787 10.6237 5.51317C10.7696 5.65847 10.8851 5.83089 10.9634 6.02051C11.0417 6.21013 11.0813 6.4132 11.08 6.61803V7.62728ZM16.08 14.4051C16.08 14.5503 16.0224 14.6898 15.9195 14.7934C15.8167 14.8971 15.6768 14.9566 15.53 14.9592H13.1V13.9598H14.1C14.3652 13.9598 14.6196 13.8556 14.8071 13.67C14.9946 13.4845 15.1 13.2328 15.1 12.9704V10.9914C15.1 10.729 14.9946 10.4773 14.8071 10.2918C14.6196 10.1062 14.3652 10.002 14.1 10.002H13.1V9.01252H15.55C15.6968 9.01512 15.8367 9.07464 15.9395 9.17827C16.0424 9.2819 16.1 9.42136 16.1 9.56662L16.08 14.4051Z" fill="#464454"/>
</svg>
