<svg width="24" height="24" viewBox="0 0 24 24" fill="none" xmlns="http://www.w3.org/2000/svg">
<path d="M20 2H4C2.3 2 1 3.3 1 5V15C1 16.7 2.3 18 4 18H5C5.6 18 6 17.6 6 17C6 16.4 5.6 16 5 16H4C3.4 16 3 15.6 3 15V5C3 4.4 3.4 4 4 4H20C20.6 4 21 4.4 21 5V15C21 15.6 20.6 16 20 16H19C18.4 16 18 16.4 18 17C18 17.6 18.4 18 19 18H20C21.7 18 23 16.7 23 15V5C23 3.3 21.7 2 20 2Z" fill="#464454"/>
<path d="M12.7 14.2998C12.4 13.7998 11.6 13.7998 11.2 14.2998L6.19998 20.2998C5.99998 20.5998 5.89998 20.9998 6.09998 21.3998C6.29998 21.7998 6.59998 21.9998 6.99998 21.9998H17C17.4 21.9998 17.7 21.7998 17.8 21.3998C18 20.9998 17.9 20.5998 17.7 20.2998L12.7 14.2998ZM9.09998 19.9998L12 16.5998L14.8 19.9998H9.09998Z" fill="#464454"/>
</svg>
