<svg width="24" height="24" viewBox="0 0 24 24" fill="none" xmlns="http://www.w3.org/2000/svg">
<path d="M23 17.4999L14.6 3.3999C14.1 2.6999 13.5 2.1999 12.7 1.9999C11.9 1.7999 11.1 1.8999 10.4 2.2999C9.99999 2.4999 9.59999 2.8999 9.39999 3.2999L0.899987 17.4999C0.0999871 18.8999 0.599987 20.7999 1.99999 21.5999C2.49999 21.8999 2.99999 21.9999 3.49999 21.9999H20.5C21.3 21.9999 22 21.6999 22.5 21.0999C23.1 20.5999 23.4 19.7999 23.4 18.9999C23.4 18.4999 23.3 17.9999 23 17.4999ZM21.1 19.6999C20.9 19.8999 20.7 19.9999 20.4 19.9999H3.49999C3.39999 19.9999 3.19999 19.9999 3.09999 19.8999C2.59999 19.5999 2.39999 18.9999 2.69999 18.4999L11.1 4.3999C11.2 4.1999 11.3 4.0999 11.5 3.9999C12 3.7999 12.6 3.8999 12.9 4.3999L21.3 18.4999C21.4 18.6999 21.4 18.7999 21.4 18.9999C21.4 19.2999 21.3 19.4999 21.1 19.6999Z" fill="#464454"/>
<path d="M12 8C11.4 8 11 8.4 11 9V13C11 13.6 11.4 14 12 14C12.6 14 13 13.6 13 13V9C13 8.4 12.6 8 12 8Z" fill="#464454"/>
<path d="M12.7 16.3C12.3 15.9 11.7 15.9 11.3 16.3C11.2 16.4 11.2 16.5 11.1 16.6C11 16.7 11 16.9 11 17C11 17.3 11.1 17.5 11.3 17.7C11.5 17.9 11.7 18 12 18C12.3 18 12.5 17.9 12.7 17.7C12.8 17.6 12.8 17.5 12.9 17.4C13 17.3 13 17.2 13 17C13 16.8 12.9 16.7 12.9 16.6C12.9 16.5 12.8 16.4 12.7 16.3Z" fill="#464454"/>
</svg>
