<svg width="24" height="24" viewBox="0 0 24 24" fill="none" xmlns="http://www.w3.org/2000/svg">
<path fill-rule="evenodd" clip-rule="evenodd" d="M22.8 7.2L16.9 1.3C16.7 1.1 16.5 1 16.2 1H7.9C7.6 1 7.3 1.1 7.2 1.3L1.3 7.2C1.1 7.4 1 7.6 1 7.9V16.1C1 16.4 1.1 16.7 1.3 16.8L7.2 22.7C7.4 22.9 7.6 23 7.9 23H16.1C16.4 23 16.7 22.9 16.8 22.8L22.7 16.9C22.9 16.7 23 16.5 23 16.2V7.9C23 7.6 22.9 7.3 22.8 7.2ZM21.1 15.7L15.8 21H8.3L3 15.8V8.3L8.3 3H15.7L21.1 8.3V15.7ZM12 7C11.4 7 11 7.4 11 8V12C11 12.6 11.4 13 12 13C12.6 13 13 12.6 13 12V8C13 7.4 12.6 7 12 7ZM12.7 15.3L12.7 15.3C12.8 15.4 12.9 15.5 12.9 15.6C12.9 15.6414 12.9172 15.6829 12.9373 15.7314C12.9657 15.8 13 15.8829 13 16C13 16.3 12.9 16.5 12.7 16.7C12.5 16.9 12.3 17 12 17C11.9 17 11.7 17 11.6 16.9C11.5 16.9 11.4 16.8 11.3 16.7C11.1 16.5 11 16.3 11 16C11 15.9 11 15.7 11.1 15.6C11.15 15.55 11.175 15.5 11.2 15.45C11.225 15.4 11.25 15.35 11.3 15.3L11.3 15.3C11.4 15.2 11.5 15.1 11.6 15.1C11.8 15 12.1 15 12.4 15.1C12.5 15.1 12.6 15.2 12.7 15.3Z" fill="#464454"/>
</svg>
