<svg width="24" height="24" viewBox="0 0 24 24" fill="none" xmlns="http://www.w3.org/2000/svg">
<path fill-rule="evenodd" clip-rule="evenodd" d="M12 1C5.9 1 1 5.9 1 12C1 18.1 5.9 23 12 23C18.1 23 23 18.1 23 12C23 5.9 18.1 1 12 1ZM12 21C7 21 3 17 3 12C3 7 7 3 12 3C17 3 21 7 21 12C21 17 17 21 12 21ZM12 7C11.4 7 11 7.4 11 8V12C11 12.6 11.4 13 12 13C12.6 13 13 12.6 13 12V8C13 7.4 12.6 7 12 7ZM12.7 15.3L12.7 15.3C12.8 15.4 12.9 15.5 12.9 15.6C12.9 15.6414 12.9172 15.6829 12.9373 15.7314C12.9657 15.8 13 15.8829 13 16C13 16.3 12.9 16.5 12.7 16.7C12.5 16.9 12.3 17 12 17C11.9 17 11.7 17 11.6 16.9C11.5 16.9 11.4 16.8 11.3 16.7C11.1 16.5 11 16.3 11 16C11 15.9 11 15.7 11.1 15.6C11.15 15.55 11.175 15.5 11.2 15.45C11.225 15.4 11.25 15.35 11.3 15.3L11.3 15.3C11.4 15.2 11.5 15.1 11.6 15.1C11.8 15 12.1 15 12.4 15.1C12.5 15.1 12.6 15.2 12.7 15.3Z" fill="#464454"/>
</svg>
