<svg width="24" height="24" viewBox="0 0 24 24" fill="none" xmlns="http://www.w3.org/2000/svg">
<path fill-rule="evenodd" clip-rule="evenodd" d="M21 7H3C2.4 7 2 6.6 2 6C2 5.4 2.4 5 3 5H21C21.6 5 22 5.4 22 6C22 6.6 21.6 7 21 7ZM7 9H21C21.6 9 22 9.4 22 10C22 10.6 21.6 11 21 11H7C6.4 11 6 10.6 6 10C6 9.4 6.4 9 7 9ZM21 13H3C2.4 13 2 13.4 2 14C2 14.6 2.4 15 3 15H21C21.6 15 22 14.6 22 14C22 13.4 21.6 13 21 13ZM7 17H21C21.6 17 22 17.4 22 18C22 18.6 21.6 19 21 19H7C6.4 19 6 18.6 6 18C6 17.4 6.4 17 7 17Z" fill="#464454"/>
</svg>
