<svg width="24" height="24" viewBox="0 0 24 24" fill="none" xmlns="http://www.w3.org/2000/svg">
<path d="M6 9C5.4 9 5 9.4 5 10C5 10.6 5.4 11 6 11H18C18.6 11 19 10.6 19 10C19 9.4 18.6 9 18 9H6Z" fill="#464454"/>
<path d="M3 7H21C21.6 7 22 6.6 22 6C22 5.4 21.6 5 21 5H3C2.4 5 2 5.4 2 6C2 6.6 2.4 7 3 7Z" fill="#464454"/>
<path d="M21 13H3C2.4 13 2 13.4 2 14C2 14.6 2.4 15 3 15H21C21.6 15 22 14.6 22 14C22 13.4 21.6 13 21 13Z" fill="#464454"/>
<path d="M18 17H6C5.4 17 5 17.4 5 18C5 18.6 5.4 19 6 19H18C18.6 19 19 18.6 19 18C19 17.4 18.6 17 18 17Z" fill="#464454"/>
</svg>
