<svg width="24" height="24" viewBox="0 0 24 24" fill="none" xmlns="http://www.w3.org/2000/svg">
<path d="M22 11H19C18.4 11 18 11.4 18 12C18 12.6 18.4 13 19 13H20.9C20.4 17.2 17.1 20.5 13 20.9V8.9C14.7 8.5 16 6.9 16 5C16 2.8 14.2 1 12 1C9.8 1 8 2.8 8 5C8 6.9 9.3 8.4 11 8.9V21C6.8 20.5 3.5 17.2 3.1 13.1H5C5.6 13.1 6 12.7 6 12.1C6 11.5 5.6 11.1 5 11.1H2C1.4 11.1 1 11.5 1 12.1C1 18.2 5.9 23.1 12 23.1C18.1 23.1 23 18.2 23 12.1C23 11.4 22.6 11 22 11ZM10 5C10 3.9 10.9 3 12 3C13.1 3 14 3.9 14 5C14 6.1 13.1 7 12 7C10.9 7 10 6.1 10 5Z" fill="#464454"/>
</svg>
