<svg width="24" height="24" viewBox="0 0 24 24" fill="none" xmlns="http://www.w3.org/2000/svg">
<path d="M20.9 18.4C22.2 16.6 23 14.4 23 12C23 10.5 22.7 9 22.1 7.7V7.6C20.6 4.1 17.3 1.6 13.3 1.1H13.2C12.8 1 12.4 1 12 1C8.4 1 5.2 2.7 3.2 5.4C3.2 5.5 3.1 5.5 3.1 5.6C1.8 7.4 1 9.6 1 12C1 13.5 1.3 15 1.9 16.4V16.5C3.4 19.9 6.7 22.5 10.6 23H10.7C11.1 23 11.5 23.1 11.9 23.1C15.5 23.1 18.7 21.4 20.7 18.7C20.8 18.6 20.9 18.5 20.9 18.4ZM13.7 15H10.2L8.5 12L10.2 9H13.7L15.4 12L13.7 15ZM3 12C3 10.6 3.3 9.2 3.9 8L7.9 15H3.5C3.2 14.1 3 13.1 3 12ZM16 9H20.4C20.7 9.9 20.9 10.9 20.9 12C20.9 13.4 20.6 14.8 20 16L16 9ZM19.5 7H11.4L13.6 3.2C16.1 3.6 18.2 5 19.5 7ZM11.4 3L7.4 10L5.2 6.2C6.7 4.4 8.9 3.2 11.4 3ZM4.5 17H12.6L10.4 20.8C7.9 20.4 5.8 19 4.5 17ZM12.6 21L16.6 14L18.8 17.8C17.3 19.6 15.1 20.8 12.6 21Z" fill="#464454"/>
</svg>
