<svg width="24" height="24" viewBox="0 0 24 24" fill="none" xmlns="http://www.w3.org/2000/svg">
<path d="M10.8079 18C10.8079 18.1978 10.7489 18.3911 10.6385 18.5556C10.528 18.72 10.371 18.8482 10.1873 18.9239C10.0037 18.9996 9.80155 19.0194 9.60656 18.9808C9.41157 18.9422 9.23246 18.847 9.09188 18.7071C8.95129 18.5673 8.85556 18.3891 8.81677 18.1951C8.77798 18.0011 8.79789 17.8 8.87397 17.6173C8.95006 17.4346 9.0789 17.2784 9.2442 17.1685C9.40951 17.0586 9.60385 17 9.80267 17C10.0693 17 10.3249 17.1054 10.5135 17.2929C10.702 17.4804 10.8079 17.7348 10.8079 18ZM16.0048 11.78L15.844 11.93V10.36C15.844 10.1611 15.7645 9.97032 15.6232 9.82967C15.4818 9.68902 15.29 9.61 15.0901 9.61C14.8901 9.61 14.6984 9.68902 14.557 9.82967C14.4156 9.97032 14.3362 10.1611 14.3362 10.36V11.94L14.1552 11.77C14.0051 11.6408 13.8107 11.5739 13.6124 11.5832C13.4141 11.5926 13.227 11.6773 13.0897 11.82C12.9575 11.9683 12.8887 12.1621 12.8981 12.3602C12.9075 12.5582 12.9943 12.7447 13.14 12.88L14.5573 14.19C14.5926 14.2234 14.6334 14.2505 14.6779 14.27L14.7785 14.33C14.8672 14.3688 14.963 14.3892 15.0599 14.39C15.1537 14.3902 15.2464 14.3698 15.3313 14.33C15.3766 14.3167 15.418 14.2927 15.4519 14.26C15.4923 14.2427 15.5297 14.2191 15.5625 14.19L16.9899 12.88C17.061 12.8111 17.1176 12.7286 17.1562 12.6376C17.1948 12.5466 17.2147 12.4488 17.2147 12.35C17.2147 12.2512 17.1948 12.1534 17.1562 12.0624C17.1176 11.9714 17.061 11.8889 16.9899 11.82C16.8579 11.6968 16.6857 11.6249 16.5048 11.6176C16.324 11.6103 16.1465 11.6679 16.0048 11.78ZM16.0852 17.27V20C16.0852 20.5304 15.8734 21.0391 15.4964 21.4142C15.1194 21.7893 14.608 22 14.0748 22H5.51042C4.97722 22 4.46587 21.7893 4.08884 21.4142C3.71181 21.0391 3.5 20.5304 3.5 20V4C3.5 3.46957 3.71181 2.96086 4.08884 2.58579C4.46587 2.21071 4.97722 2 5.51042 2H14.0849C14.6181 2 15.1294 2.21071 15.5064 2.58579C15.8835 2.96086 16.0953 3.46957 16.0953 4V6.73C17.3326 6.95845 18.4504 7.61053 19.255 8.57313C20.0595 9.53573 20.5 10.7481 20.5 12C20.5 13.2519 20.0595 14.4643 19.255 15.4269C18.4504 16.3895 17.3326 17.0416 16.0953 17.27H16.0852ZM14.0748 20V17.27C12.8375 17.0416 11.7197 16.3895 10.9151 15.4269C10.1106 14.4643 9.67009 13.2519 9.67009 12C9.67009 10.7481 10.1106 9.53573 10.9151 8.57313C11.7197 7.61053 12.8375 6.95845 14.0748 6.73V4H5.51042V20H14.0748ZM18.4676 12C18.4676 11.3311 18.2681 10.6772 17.8943 10.1211C17.5205 9.56508 16.9893 9.13187 16.3678 8.87634C15.7464 8.62081 15.0628 8.55447 14.4034 8.6857C13.7441 8.81693 13.1387 9.13983 12.6639 9.61354C12.1892 10.0872 11.8664 10.6904 11.7364 11.3467C11.6065 12.0031 11.6752 12.683 11.9339 13.3004C12.1926 13.9179 12.6296 14.445 13.1897 14.8152C13.7497 15.1854 14.4076 15.382 15.08 15.38C15.5262 15.38 15.968 15.2926 16.3802 15.1227C16.7924 14.9529 17.167 14.7039 17.4825 14.39C17.798 14.0762 18.0483 13.7036 18.219 13.2935C18.3897 12.8834 18.4776 12.4439 18.4776 12H18.4676Z" fill="#464454"/>
</svg>
