<svg width="24" height="24" viewBox="0 0 24 24" fill="none" xmlns="http://www.w3.org/2000/svg">
<path d="M12 1C5.9 1 1 5.9 1 12C1 18.1 5.9 23 12 23C18.1 23 23 18.1 23 12C23 5.9 18.1 1 12 1ZM12 21C7 21 3 17 3 12C3 7 7 3 12 3C17 3 21 7 21 12C21 17 17 21 12 21Z" fill="#464454"/>
<path d="M12.7 7.2999C12.6 7.1999 12.5 7.0999 12.4 7.0999C12.2 6.9999 11.9 6.9999 11.6 7.0999C11.5 7.1999 11.4 7.1999 11.3 7.2999L7.3 11.2999C6.9 11.6999 6.9 12.2999 7.3 12.6999C7.7 13.0999 8.3 13.0999 8.7 12.6999L11 10.3999V15.9999C11 16.5999 11.4 16.9999 12 16.9999C12.6 16.9999 13 16.5999 13 15.9999V10.3999L15.3 12.6999C15.5 12.8999 15.8 12.9999 16 12.9999C16.2 12.9999 16.5 12.8999 16.7 12.6999C17.1 12.2999 17.1 11.6999 16.7 11.2999L12.7 7.2999Z" fill="#464454"/>
</svg>
