<svg width="24" height="24" viewBox="0 0 24 24" fill="none" xmlns="http://www.w3.org/2000/svg">
<path fill-rule="evenodd" clip-rule="evenodd" d="M7.62505 13H16.3749C16.5442 13 16.6907 13.0659 16.8144 13.1979C16.938 13.3298 17 13.4861 17 13.6666C17 13.8472 16.938 14.0033 16.8144 14.1354L12.4394 18.8021C12.3158 18.9339 12.1694 19 12 19C11.8306 19 11.6842 18.9339 11.5605 18.8021L7.18552 14.1354C7.06181 14.0035 7 13.8472 7 13.6666C7 13.4861 7.06181 13.3298 7.18552 13.1979C7.30938 13.0659 7.4558 13 7.62505 13Z" fill="#464454"/>
<path fill-rule="evenodd" clip-rule="evenodd" d="M16.3749 11H7.62505C7.45567 11 7.30924 10.934 7.18552 10.8022C7.06181 10.6702 7 10.514 7 10.3335C7 10.1529 7.06181 9.99661 7.18552 9.86472L11.5605 5.19804C11.6843 5.06608 11.8308 5 12 5C12.1692 5 12.3158 5.06608 12.4394 5.19804L16.8144 9.86475C16.938 9.99661 17 10.1529 17 10.3335C17 10.514 16.938 10.6702 16.8144 10.8022C16.6908 10.9342 16.5442 11 16.3749 11Z" fill="#464454"/>
</svg>
