<svg width="24" height="24" viewBox="0 0 24 24" fill="none" xmlns="http://www.w3.org/2000/svg">
<path d="M12 1C5.9 1 1 5.9 1 12C1 18.1 5.9 23 12 23C18.1 23 23 18.1 23 12C23 5.9 18.1 1 12 1ZM12 21C7 21 3 17 3 12C3 7 7 3 12 3C17 3 21 7 21 12C21 17 17 21 12 21Z" fill="#464454"/>
<path d="M15.3 11.3L13 13.6V8C13 7.4 12.6 7 12 7C11.4 7 11 7.4 11 8V13.6L8.7 11.3C8.3 10.9 7.7 10.9 7.3 11.3C6.9 11.7 6.9 12.3 7.3 12.7L11.3 16.7C11.4 16.8 11.5 16.9 11.6 16.9C11.7 17 11.9 17 12 17C12.1 17 12.3 17 12.4 16.9C12.5 16.8 12.6 16.8 12.7 16.7L16.7 12.7C17.1 12.3 17.1 11.7 16.7 11.3C16.3 10.9 15.7 10.9 15.3 11.3Z" fill="#464454"/>
</svg>
