<svg width="24" height="24" viewBox="0 0 24 24" fill="none" xmlns="http://www.w3.org/2000/svg">
<path d="M12 1C9.1 1 6.3 2.1 4.2 4.2C2.1 6.3 1 9.1 1 12C1 18.1 5.9 23 12 23C14.4 23 16.8 22.2 18.7 20.7C19.2 20.4 19.2 19.7 18.9 19.3C18.6 18.8 17.9 18.8 17.5 19.1C15.9 20.3 14 21 12 21C7 21 3 17 3 12C3 9.6 3.9 7.3 5.6 5.6C7.3 3.9 9.6 3 12 3C17 3 21 7 21 12V13C21 14.1 20.1 15 19 15C17.9 15 17 14.1 17 13V8C17 7.4 16.6 7 16 7C15.4 7 15 7.4 15 8C14.2 7.4 13.1 7 12 7C9.2 7 7 9.2 7 12C7 14.8 9.2 17 12 17C13.5 17 14.8 16.3 15.7 15.3C16.4 16.3 17.6 17 19 17C21.2 17 23 15.2 23 13V12C23 5.9 18.1 1 12 1ZM12 15C10.3 15 9 13.7 9 12C9 10.3 10.3 9 12 9C13.7 9 15 10.3 15 12C15 13.7 13.7 15 12 15Z" fill="#464454"/>
</svg>
