<svg width="24" height="25" viewBox="0 0 24 25" fill="none" xmlns="http://www.w3.org/2000/svg">
<path d="M20 8C20 3.6 16.4 0 12 0C7.6 0 4 3.6 4 8C4 10.6 5.2 12.9 7.1 14.3L6 22.9C5.9 23.3 6.1 23.7 6.4 23.9C6.7 24.1 7.1 24.1 7.5 23.9L12 21.2L16.5 23.9C16.6 24 16.8 24 17 24C17.2 24 17.4 23.9 17.5 23.8C17.8 23.6 18 23.2 17.9 22.8L16.8 14.3C18.8 12.9 20 10.6 20 8ZM6 8C6 4.7 8.7 2 12 2C15.3 2 18 4.7 18 8C18 11.3 15.3 14 12 14C8.7 14 6 11.3 6 8ZM15.7 21.1L12.5 19.2C12.2 19 11.8 19 11.5 19.2L8.3 21.1L9 15.4C9.9 15.8 10.9 16 12 16C13.1 16 14.1 15.8 15 15.4L15.7 21.1Z" fill="#464454"/>
</svg>
