<svg width="24" height="24" viewBox="0 0 24 24" fill="none" xmlns="http://www.w3.org/2000/svg">
<path d="M17 5H15C14.4 5 14 5.4 14 6C14 6.6 14.4 7 15 7H17C17.6 7 18 7.4 18 8V16C18 16.6 17.6 17 17 17H13.8C13.2 17 12.8 17.4 12.8 18C12.8 18.6 13.2 19 13.8 19H17C18.7 19 20 17.7 20 16V8C20 6.3 18.7 5 17 5Z" fill="#464454"/>
<path d="M5 17H3C2.4 17 2 16.6 2 16V8C2 7.4 2.4 7 3 7H6.2C6.8 7 7.2 6.6 7.2 6C7.2 5.4 6.8 5 6.2 5H3C1.3 5 0 6.3 0 8V16C0 17.7 1.3 19 3 19H5C5.6 19 6 18.6 6 18C6 17.4 5.6 17 5 17Z" fill="#464454"/>
<path d="M23 10C22.4 10 22 10.4 22 11V13C22 13.6 22.4 14 23 14C23.6 14 24 13.6 24 13V11C24 10.4 23.6 10 23 10Z" fill="#464454"/>
<path d="M13.9 11.5C13.7 11.2 13.4 11 13 11H8.89999L11.9 6.6C12.2 6.1 12.1 5.5 11.6 5.2C11.1 4.9 10.5 5 10.2 5.5L6.19999 11.5C5.99999 11.8 5.99999 12.2 6.19999 12.5C6.29999 12.8 6.59999 13 6.99999 13H11.1L8.09999 17.4C7.79999 17.9 7.89999 18.5 8.39999 18.8C8.59999 18.9 8.79999 19 8.99999 19C9.29999 19 9.59999 18.8 9.79999 18.6L13.8 12.6C14 12.2 14.1 11.9 13.9 11.5Z" fill="#464454"/>
</svg>
