<svg width="24" height="24" viewBox="0 0 24 24" fill="none" xmlns="http://www.w3.org/2000/svg">
<path d="M18.51 10.9886C19.1985 10.9846 19.8705 10.7768 20.4414 10.3913C21.0122 10.0058 21.4564 9.45992 21.7181 8.82224C21.9798 8.18457 22.0472 7.48364 21.9119 6.80769C21.7766 6.13173 21.4446 5.51095 20.9577 5.02347C20.4709 4.536 19.8508 4.20361 19.1757 4.06814C18.5006 3.93268 17.8005 4.00019 17.1636 4.26218C16.5268 4.52417 15.9815 4.96893 15.5965 5.54048C15.2115 6.11204 15.004 6.78485 15 7.47423C14.996 7.93686 15.0841 8.39564 15.259 8.82383C15.434 9.25202 15.6924 9.64103 16.0191 9.96816C16.3459 10.2953 16.7344 10.554 17.1621 10.7292C17.5897 10.9044 18.0479 10.9926 18.51 10.9886ZM18.51 5.9824C18.707 5.9824 18.902 6.02125 19.084 6.09672C19.266 6.17219 19.4314 6.28282 19.5707 6.42228C19.7099 6.56174 19.8204 6.7273 19.8958 6.90951C19.9712 7.09173 20.01 7.28702 20.01 7.48425C20.01 7.68147 19.9712 7.87676 19.8958 8.05898C19.8204 8.24119 19.7099 8.40675 19.5707 8.54621C19.4314 8.68567 19.266 8.7963 19.084 8.87177C18.902 8.94725 18.707 8.98609 18.51 8.98609C18.1122 8.98609 17.7306 8.82786 17.4493 8.54621C17.168 8.26456 17.01 7.88256 17.01 7.48425C17.01 7.08593 17.168 6.70393 17.4493 6.42228C17.7306 6.14063 18.1122 5.9824 18.51 5.9824ZM15.33 15.9947C15.8641 15.9958 16.3889 15.8541 16.85 15.5842L17.67 15.1136C17.822 15.0258 17.9945 14.9795 18.17 14.9795C18.3455 14.9795 18.518 15.0258 18.67 15.1136L19.47 15.5842C19.9325 15.8596 20.462 16.0016 21 15.9947C21.2652 15.9947 21.5196 15.8892 21.7071 15.7015C21.8946 15.5137 22 15.259 22 14.9935C22 14.7279 21.8946 14.4733 21.7071 14.2855C21.5196 14.0977 21.2652 13.9922 21 13.9922C20.8214 13.9952 20.6453 13.9503 20.49 13.8621L19.69 13.3915C19.2339 13.1279 18.7166 12.9891 18.19 12.9891C17.6634 12.9891 17.1461 13.1279 16.69 13.3915L15.87 13.8721C15.7147 13.9603 15.5386 14.0052 15.36 14.0023C15.1814 14.0052 15.0053 13.9603 14.85 13.8721L14 13.3515C13.6076 13.1244 13.1689 13.0229 12.7168 12.99H11C11 12.99 10.4683 12.9949 10 12.991H8.13L7.68 10.3878L10.12 9.98732C10.3796 9.93491 10.6109 9.78882 10.77 9.57682C10.8447 9.46835 10.8973 9.34618 10.9248 9.21732C10.9522 9.08846 10.954 8.95545 10.93 8.82589C10.7271 7.65352 10.0674 6.60986 9.09594 5.92451C8.1245 5.23916 6.92093 4.96826 5.75 5.1714C4.57907 5.37454 3.53669 6.03509 2.85219 7.00772C2.16768 7.98035 1.89711 9.18541 2.1 10.3578C2.1426 10.591 2.26649 10.8016 2.44961 10.9519C2.63274 11.1023 2.86321 11.1827 3.1 11.1788H3.27L5.72 10.7382L6.1 12.991H4C3.46957 12.991 2.96086 13.202 2.58579 13.5775C2.21071 13.9531 2 14.4624 2 14.9935V17.9972C2 18.5283 2.21071 19.0376 2.58579 19.4131C2.96086 19.7887 3.46957 19.9996 4 19.9996C4.53119 20.0024 5.05314 19.8605 5.51 19.5891L6.33 19.1186C6.48202 19.0307 6.65446 18.9844 6.83 18.9844C7.00554 18.9844 7.17798 19.0307 7.33 19.1186L8.13 19.5891C8.59406 19.8607 9.12248 20.0025 9.66 19.9996C10.1945 20.0037 10.72 19.8618 11.18 19.5891L12 19.1186C12.152 19.0307 12.3245 18.9844 12.5 18.9844C12.6755 18.9844 12.848 19.0307 13 19.1186L13.8 19.5891C14.26 19.8618 14.7855 20.0037 15.32 19.9996C15.8541 20.0007 16.3789 19.859 16.84 19.5891L17.66 19.1186C17.812 19.0307 17.9845 18.9844 18.16 18.9844C18.3355 18.9844 18.508 19.0307 18.66 19.1186L19.46 19.5891C19.9254 19.8663 20.4586 20.0084 21 19.9996C21.2652 19.9996 21.5196 19.8941 21.7071 19.7064C21.8946 19.5186 22 19.2639 22 18.9984C22 18.7329 21.8946 18.4782 21.7071 18.2904C21.5196 18.1027 21.2652 17.9972 21 17.9972C20.8214 18.0002 20.6453 17.9552 20.49 17.867L19.69 17.3964C19.2339 17.1328 18.7166 16.994 18.19 16.994C17.6634 16.994 17.1461 17.1328 16.69 17.3964L15.87 17.877C15.7412 17.2046 15.494 16.5605 15.14 15.9747C15.14 15.9747 15.2344 15.9945 15.33 15.9947ZM4.48 8.14506C4.86387 7.61187 5.4425 7.25203 6.09 7.14383C6.23316 7.13396 6.37684 7.13396 6.52 7.14383C6.92298 7.13749 7.32138 7.22998 7.68045 7.41323C8.03952 7.59648 8.34835 7.86491 8.58 8.19512L4.11 8.98609C4.17885 8.68476 4.30442 8.39932 4.48 8.14506ZM11 17.3464L10.18 17.827C10.0247 17.9152 9.84856 17.9601 9.67 17.9571C9.49144 17.9601 9.31534 17.9152 9.16 17.827L8.37 17.3564C7.91394 17.0928 7.39661 16.954 6.87 16.954C6.34339 16.954 5.82606 17.0928 5.37 17.3564L4.56 17.837C4.39334 17.9448 4.19841 18.0006 4 17.9972V14.9935H10C10.7212 15 11.4273 15.2016 12.0434 15.5771C12.6596 15.9525 13.1628 16.4877 13.5 17.1261C13.0921 16.9799 12.6575 16.9239 12.2259 16.9619C11.7943 16.9999 11.3761 17.1311 11 17.3464Z" fill="#464454"/>
</svg>
