<svg width="24" height="24" viewBox="0 0 24 24" fill="none" xmlns="http://www.w3.org/2000/svg">
<path d="M14.2 20.0999C13.7 19.7999 13.1 19.9999 12.8 20.4999C12.5 20.9999 11.9 21.0999 11.4 20.8999C11.2 20.7999 11.1 20.6999 11 20.4999C10.7 19.9999 10.1 19.8999 9.60003 20.0999C9.10003 20.3999 9.00003 20.9999 9.20003 21.4999C9.50003 21.9999 9.80003 22.2999 10.3 22.5999C10.8 22.8999 11.3 22.9999 11.8 22.9999C12.8 22.9999 13.8 22.4999 14.4 21.4999C14.9 20.9999 14.7 20.3999 14.2 20.0999Z" fill="#464454"/>
<path d="M22 16C20.9 16 20 15.1 20 14V9C20 4.6 16.4 1 12 1C7.6 1 4 4.6 4 9V14C4 15.1 3.1 16 2 16C1.4 16 1 16.4 1 17C1 17.6 1.4 18 2 18H22C22.6 18 23 17.6 23 17C23 16.4 22.6 16 22 16ZM5.5 16C5.8 15.4 6 14.7 6 14V9C6 5.7 8.7 3 12 3C15.3 3 18 5.7 18 9V14C18 14.7 18.2 15.4 18.5 16H5.5Z" fill="#464454"/>
</svg>
