<svg width="24" height="24" viewBox="0 0 24 24" fill="none" xmlns="http://www.w3.org/2000/svg">
<path d="M9.09998 3.80017C12 2.20017 15.6 3.20017 17.3 6.10017C17.7 6.90017 18 8.00017 18 9.00017V13.0002C18 13.6002 18.4 14.0002 19 14.0002C19.6 14.0002 20 13.6002 20 13.0002V9.00017C20 7.60017 19.6 6.30017 19 5.10017C16.8 1.30017 11.9 -0.0998278 8.09998 2.10017C7.59998 2.30017 7.39997 2.90017 7.69997 3.40017C7.99997 3.90017 8.59998 4.00017 9.09998 3.80017Z" fill="#464454"/>
<path d="M14.2 20.0999C13.7 19.7999 13.1 19.9999 12.8 20.4999C12.5 20.9999 11.9 21.0999 11.4 20.8999C11.2 20.7999 11.1 20.6999 11 20.4999C10.7 19.9999 10.1 19.8999 9.60003 20.0999C9.10003 20.3999 9.00003 20.9999 9.20003 21.4999C9.50003 21.9999 9.80003 22.2999 10.3 22.5999C10.8 22.8999 11.3 22.9999 11.8 22.9999C12.8 22.9999 13.8 22.4999 14.4 21.4999C14.9 20.9999 14.7 20.3999 14.2 20.0999Z" fill="#464454"/>
<path d="M23.7 22.3L17.7 16.3L1.7 0.3C1.3 -0.1 0.7 -0.1 0.3 0.3C-0.1 0.7 -0.1 1.3 0.3 1.7L4.6 6C4.2 7 4 8 4 9V14C4 15.1 3.1 16 2 16C1.4 16 1 16.4 1 17C1 17.6 1.4 18 2 18H16.6L22.3 23.7C22.5 23.9 22.8 24 23 24C23.2 24 23.5 23.9 23.7 23.7C24.1 23.3 24.1 22.7 23.7 22.3ZM5.5 16C5.8 15.4 6 14.7 6 14V9C6 8.5 6.1 8 6.2 7.6L14.6 16H5.5Z" fill="#464454"/>
</svg>
