<svg width="24" height="24" viewBox="0 0 24 24" fill="none" xmlns="http://www.w3.org/2000/svg">
<path d="M13.4 12.0001L18.2 7.20015C18.6 6.80015 18.6 6.20015 18.2 5.80015L12.7 0.300146C12.4 0.000145584 12 -0.0998544 11.6 0.100146C11.2 0.200146 11 0.600146 11 1.00015V9.60015L7.2 5.80015C6.8 5.40015 6.2 5.40015 5.8 5.80015C5.4 6.20015 5.4 6.80015 5.8 7.20015L10.6 12.0001L5.8 16.8001C5.4 17.2001 5.4 17.8001 5.8 18.2001C6.2 18.6001 6.8 18.6001 7.2 18.2001L11 14.4001V23.0001C11 23.4001 11.2 23.8001 11.6 23.9001C11.7 24.0001 11.9 24.0001 12 24.0001C12.3 24.0001 12.5 23.9001 12.7 23.7001L18.2 18.2001C18.6 17.8001 18.6 17.2001 18.2 16.8001L13.4 12.0001ZM13 3.40015L16.1 6.50015L13 9.60015V3.40015ZM13 20.6001V14.4001L16.1 17.5001L13 20.6001Z" fill="#464454"/>
</svg>
