<svg width="24" height="24" viewBox="0 0 24 24" fill="none" xmlns="http://www.w3.org/2000/svg">
<path d="M17 15.3C17 15.9 16.6 16.3 16 16.3C15.4 16.3 15 15.9 15 15.3C15 14.7 15.4 14.3 16 14.3C16.6 14.3 17 14.7 17 15.3ZM8 14.3C7.4 14.3 7 14.7 7 15.3C7 15.9 7.4 16.3 8 16.3C8.6 16.3 9 15.9 9 15.3C9 14.7 8.6 14.3 8 14.3ZM22.5 9.7V10.7C22.5 11.3 22.1 11.7 21.5 11.7H20.5V17.8C20.5 18.9 19.6 19.8 18.5 19.8H17.6V21.5C17.6 22.1 17.2 22.5 16.6 22.5H16.1C15.5 22.5 15.1 22.1 15.1 21.5V19.8H8.9V21.5C8.9 22.1 8.5 22.5 7.9 22.5H7.4C6.8 22.5 6.4 22.1 6.4 21.5V19.8H5.5C4.4 19.8 3.5 18.9 3.5 17.8V11.7H2.5C1.9 11.7 1.5 11.3 1.5 10.7V9.7C1.5 9.1 1.9 8.7 2.5 8.7H3.5V3.5C3.5 2.4 4.4 1.5 5.5 1.5H18.5C19.6 1.5 20.5 2.4 20.5 3.5V8.7H21.5C22.1 8.7 22.5 9.2 22.5 9.7ZM13 3.5V10.8H18.5V3.5H13ZM5.5 10.8H11V3.5H5.5V10.8ZM18.5 17.8V12.8H5.5V17.8H10V16.8C10 16.2 10.4 15.8 11 15.8H13C13.6 15.8 14 16.2 14 16.8V17.8H18.5Z" fill="#464454"/>
</svg>
