<svg width="24" height="24" viewBox="0 0 24 24" fill="none" xmlns="http://www.w3.org/2000/svg">
<path d="M20 9C20 4.6 16.4 1 12 1C7.6 1 4 4.6 4 9C4 12 5.6 14.5 8 15.9V20C8 20.6 8.4 21 9 21H10C10 22.1 10.9 23 12 23C13.1 23 14 22.1 14 21.1H15C15.6 21.1 16 20.7 16 20.1V16C18.4 14.5 20 12 20 9ZM14 19.1H10V16.8C10.6 16.9 11.3 17 12 17C12.7 17 13.4 16.9 14 16.7V19.1ZM12 15C8.7 15 6 12.3 6 9C6 5.7 8.7 3 12 3C15.3 3 18 5.7 18 9C18 12.3 15.3 15 12 15ZM13.2 8.2H12.8V7.2H14.1C14.6 7.2 14.9 6.8 14.9 6.4C14.9 5.9 14.5 5.6 14.1 5.6H12.8V4.8C12.8 4.4 12.5 4 12 4C11.5 4 11.2 4.4 11.2 4.8V5.5H10.8C9.6 5.5 8.6 6.5 8.6 7.7C8.6 8.9 9.6 9.9 10.8 9.9H11.1V10.9H9.5C9 10.9 8.7 11.3 8.7 11.7C8.7 12.1 9.1 12.5 9.5 12.5H11.1V13.2C11.2 13.6 11.5 14 12 14C12.5 14 12.8 13.6 12.8 13.2V12.5H13.1C14.3 12.5 15.3 11.5 15.3 10.3C15.3 9.1 14.4 8.2 13.2 8.2ZM11.2 8.2H10.8C10.5 8.2 10.3 8 10.3 7.7C10.3 7.4 10.5 7.2 10.8 7.2H11.1V8.2H11.2ZM13.2 10.8H12.8V9.8H13.1C13.4 9.8 13.6 10 13.6 10.3C13.6 10.6 13.4 10.8 13.2 10.8Z" fill="#464454"/>
</svg>
