<svg width="24" height="24" viewBox="0 0 24 24" fill="none" xmlns="http://www.w3.org/2000/svg">
<path d="M21 5H17.5L15.8 2.4C15.6 2.2 15.3 2 15 2H9C8.7 2 8.4 2.2 8.2 2.4L6.5 5H3C1.3 5 0 6.3 0 8V19C0 20.7 1.3 22 3 22H21C22.7 22 24 20.7 24 19V8C24 6.3 22.7 5 21 5ZM22 19C22 19.6 21.6 20 21 20H3C2.4 20 2 19.6 2 19V8C2 7.4 2.4 7 3 7H7C7.3 7 7.6 6.8 7.8 6.6L9.5 4H14.4L16.1 6.6C16.4 6.8 16.7 7 17 7H21C21.6 7 22 7.4 22 8V19Z" fill="#464454"/>
<path d="M12 8C9.2 8 7 10.2 7 13C7 15.8 9.2 18 12 18C14.8 18 17 15.8 17 13C17 10.2 14.8 8 12 8ZM12 16C10.3 16 9 14.7 9 13C9 11.3 10.3 10 12 10C13.7 10 15 11.3 15 13C15 14.7 13.7 16 12 16Z" fill="#464454"/>
</svg>
