<svg width="24" height="24" viewBox="0 0 24 24" fill="none" xmlns="http://www.w3.org/2000/svg">
<path d="M21.9705 14.09L21.4912 11.55C21.3976 10.8986 21.0928 10.2961 20.6236 9.83535C20.1545 9.37456 19.5471 9.08104 18.895 9L17.8964 5.47C17.7823 5.05387 17.5369 4.68586 17.1967 4.42092C16.8566 4.15598 16.44 4.00833 16.0092 4H7.91096C7.48013 4.00833 7.06354 4.15598 6.7234 4.42092C6.38327 4.68586 6.13782 5.05387 6.02371 5.47L5.02516 9C4.37124 9.07899 3.76155 9.37161 3.29043 9.83257C2.8193 10.2935 2.51301 10.8971 2.41896 11.55L2.02952 14.09C1.96912 14.5177 2.00165 14.9534 2.1249 15.3674C2.24815 15.7813 2.4592 16.1637 2.74364 16.4885C3.02807 16.8132 3.37918 17.0726 3.77294 17.2489C4.16671 17.4252 4.59385 17.5143 5.02516 17.51H5.24484V19C5.24484 19.2652 5.35004 19.5196 5.53731 19.7071C5.72457 19.8946 5.97855 20 6.24339 20H6.62283C6.88766 20 7.14165 19.8946 7.32891 19.7071C7.51618 19.5196 7.62138 19.2652 7.62138 19V17.51H16.3786V19C16.3786 19.2652 16.4838 19.5196 16.6711 19.7071C16.8584 19.8946 17.1123 20 17.3772 20H17.7566C18.0214 20 18.2754 19.8946 18.4627 19.7071C18.65 19.5196 18.7552 19.2652 18.7552 19V17.51H18.9748C19.4061 17.5143 19.8333 17.4252 20.2271 17.2489C20.6208 17.0726 20.9719 16.8132 21.2564 16.4885C21.5408 16.1637 21.7519 15.7813 21.8751 15.3674C21.9984 14.9534 22.0309 14.5177 21.9705 14.09ZM16.0092 6L16.818 9H7.09215L7.91096 6H16.0092ZM19.6439 15.17C19.5492 15.2779 19.4324 15.3642 19.3014 15.4229C19.1705 15.4815 19.0284 15.5113 18.885 15.51H5.02516C4.8817 15.5113 4.73966 15.4815 4.6087 15.4229C4.47774 15.3642 4.36095 15.2779 4.26627 15.17C4.17286 15.061 4.10399 14.9331 4.06436 14.7951C4.02473 14.657 4.01526 14.512 4.0366 14.37L4.39608 11.83C4.42999 11.5897 4.54999 11.37 4.7337 11.2118C4.91742 11.0535 5.15232 10.9676 5.39462 10.97H18.5255C18.7678 10.9676 19.0027 11.0535 19.1864 11.2118C19.3701 11.37 19.4901 11.5897 19.524 11.83L19.8835 14.37C19.9035 14.5128 19.8925 14.6582 19.8511 14.7963C19.8097 14.9343 19.739 15.0618 19.6439 15.17ZM18.2659 13.24C18.2659 13.4378 18.2073 13.6311 18.0976 13.7956C17.9879 13.96 17.8319 14.0882 17.6495 14.1639C17.467 14.2396 17.2662 14.2594 17.0725 14.2208C16.8788 14.1822 16.7009 14.087 16.5613 13.9471C16.4216 13.8073 16.3265 13.6291 16.288 13.4351C16.2494 13.2411 16.2692 13.04 16.3448 12.8573C16.4204 12.6746 16.5484 12.5184 16.7126 12.4085C16.8768 12.2986 17.0698 12.24 17.2673 12.24C17.5322 12.24 17.7861 12.3454 17.9734 12.5329C18.1607 12.7204 18.2659 12.9748 18.2659 13.24ZM7.64135 13.24C7.64135 13.4378 7.58279 13.6311 7.47306 13.7956C7.36334 13.96 7.20739 14.0882 7.02493 14.1639C6.84247 14.2396 6.6417 14.2594 6.448 14.2208C6.2543 14.1822 6.07637 14.087 5.93673 13.9471C5.79708 13.8073 5.70197 13.6291 5.66345 13.4351C5.62492 13.2411 5.64469 13.04 5.72027 12.8573C5.79585 12.6746 5.92383 12.5184 6.08804 12.4085C6.25225 12.2986 6.44531 12.24 6.6428 12.24C6.90763 12.24 7.16162 12.3454 7.34888 12.5329C7.53615 12.7204 7.64135 12.9748 7.64135 13.24ZM14.9507 13.24C14.9507 13.5052 14.8455 13.7596 14.6582 13.9471C14.471 14.1346 14.217 14.24 13.9522 14.24H9.95798C9.69314 14.24 9.43916 14.1346 9.2519 13.9471C9.06463 13.7596 8.95943 13.5052 8.95943 13.24C8.95943 12.9748 9.06463 12.7204 9.2519 12.5329C9.43916 12.3454 9.69314 12.24 9.95798 12.24H13.9522C14.217 12.24 14.471 12.3454 14.6582 12.5329C14.8455 12.7204 14.9507 12.9748 14.9507 13.24Z" fill="#464454"/>
</svg>
