<svg width="24" height="24" viewBox="0 0 24 24" fill="none" xmlns="http://www.w3.org/2000/svg">
<path d="M20 3H4C2.3 3 1 4.3 1 6V8C1 8.6 1.4 9 2 9C2.6 9 3 8.6 3 8V6C3 5.4 3.4 5 4 5H20C20.6 5 21 5.4 21 6V18C21 18.6 20.6 19 20 19H14C13.4 19 13 19.4 13 20C13 20.6 13.4 21 14 21H20C21.7 21 23 19.7 23 18V6C23 4.3 21.7 3 20 3Z" fill="#464454"/>
<path d="M2.20003 15.0999C1.70003 14.9999 1.10003 15.3999 1.00003 15.8999C0.900029 16.3999 1.20003 16.9999 1.80003 17.0999C3.40003 17.3999 4.60003 18.5999 4.90003 20.1999C5.00003 20.6999 5.40003 20.9999 5.90003 20.9999C6.00003 20.9999 6.00003 20.9999 6.10003 20.9999C6.60003 20.8999 7.00003 20.3999 6.90003 19.7999C6.40003 17.3999 4.60003 15.5999 2.20003 15.0999Z" fill="#464454"/>
<path d="M2.10006 11.0998C1.60006 10.9998 1.10006 11.3998 1.00006 11.9998C0.900056 12.4998 1.30006 12.9998 1.90006 13.0998C5.60006 13.4998 8.50006 16.3998 9.00006 20.1998C9.00006 20.5998 9.40005 20.9998 9.90005 20.9998H10.0001C10.5001 20.8998 10.9001 20.3998 10.9001 19.8998C10.4001 15.1998 6.80006 11.5998 2.10006 11.0998Z" fill="#464454"/>
<path d="M2.4 19.1001C2 18.9001 1.6 19.0001 1.3 19.3001C1.2 19.4001 1.1 19.5001 1.1 19.6001C1 19.7001 1 19.9001 1 20.0001C1 20.1001 1 20.3001 1.1 20.4001C1.2 20.5001 1.2 20.6001 1.3 20.7001C1.5 20.9001 1.7 21.0001 2 21.0001C2.3 21.0001 2.5 20.9001 2.7 20.7001C2.8 20.6001 2.9 20.5001 2.9 20.4001C3 20.3001 3 20.1001 3 20.0001C3 19.7001 2.9 19.5001 2.7 19.3001C2.6 19.2001 2.5 19.1001 2.4 19.1001Z" fill="#464454"/>
</svg>
