<svg width="24" height="24" viewBox="0 0 24 24" fill="none" xmlns="http://www.w3.org/2000/svg">
<path d="M22 19C22 19.6 21.6 20 21 20H4C2.9 20 2 19.1 2 18V5C2 4.4 2.4 4 3 4C3.6 4 4 4.4 4 5V18H21C21.5 18 22 18.4 22 19ZM7 14.8H11.6C11.9 14.8 12.1 14.7 12.3 14.5L14.8 12H18.6L17.6 13C17.2 13.4 17.2 14 17.6 14.4C17.8 14.6 18.1 14.7 18.3 14.7C18.5 14.7 18.8 14.6 19 14.4L21.7 11.7C21.9 11.5 22 11.2 22 10.9C22 10.6 21.9 10.4 21.7 10.2L19 7.5C18.6 7.1 18 7.1 17.6 7.5C17.2 7.9 17.2 8.5 17.6 8.9L18.6 9.9H14.4C14.1 9.9 13.9 10 13.7 10.2L11.1 12.8H7C6.4 12.8 6 13.2 6 13.8C6 14.4 6.4 14.8 7 14.8Z" fill="#464454"/>
</svg>
