<svg width="24" height="24" viewBox="0 0 24 24" fill="none" xmlns="http://www.w3.org/2000/svg">
<mask id="mask0_336_6731" style="mask-type:alpha" maskUnits="userSpaceOnUse" x="0" y="0" width="24" height="24">
<rect width="24" height="24" fill="#D9D9D9"/>
</mask>
<g mask="url(#mask0_336_6731)">
<path d="M10.45 12.7416L11.8667 14.1583C12.0174 14.3083 12.2092 14.3833 12.4422 14.3833C12.6752 14.3833 12.8722 14.3083 13.0333 14.1583L16.1667 11.025V12.025C16.1667 12.2528 16.2465 12.4444 16.4062 12.6C16.5659 12.7555 16.7639 12.8333 17 12.8333C17.2278 12.8333 17.4236 12.7535 17.5875 12.5937C17.7514 12.434 17.8333 12.2361 17.8333 12V8.99999C17.8333 8.77221 17.7514 8.57637 17.5875 8.41249C17.4236 8.24861 17.2278 8.16666 17 8.16666H13.975C13.7472 8.16666 13.5555 8.24861 13.4 8.41249C13.2444 8.57637 13.1667 8.77498 13.1667 9.00831C13.1667 9.24165 13.2465 9.43748 13.4062 9.59581C13.5659 9.75415 13.7639 9.83331 14 9.83331H14.975L12.45 12.3833L11.0333 10.9667C10.8722 10.8 10.6752 10.7167 10.4422 10.7167C10.2092 10.7167 10.0174 10.8 9.86666 10.9667L6.81666 14.0167C6.64999 14.1778 6.56666 14.3751 6.56666 14.6088C6.56666 14.8424 6.65216 15.0348 6.82318 15.1859C6.97993 15.3509 7.17479 15.4333 7.40776 15.4333C7.64072 15.4333 7.83257 15.35 7.98331 15.1833L10.45 12.7416ZM4.72643 21.1674C4.20986 21.1674 3.76508 20.9809 3.39208 20.6079C3.01908 20.2349 2.83258 19.7901 2.83258 19.2735V4.72644C2.83258 4.20877 3.01908 3.76306 3.39208 3.38929C3.76508 3.01551 4.20986 2.82861 4.72643 2.82861H19.2735C19.7912 2.82861 20.2369 3.01551 20.6107 3.38929C20.9845 3.76306 21.1714 4.20877 21.1714 4.72644V19.2735C21.1714 19.7901 20.9845 20.2349 20.6107 20.6079C20.2369 20.9809 19.7912 21.1674 19.2735 21.1674H4.72643ZM4.72643 19.2735H19.2735V4.72644H4.72643V19.2735Z" fill="#464454"/>
</g>
</svg>
