<svg width="24" height="24" viewBox="0 0 24 24" fill="none" xmlns="http://www.w3.org/2000/svg">
<path d="M22 19C22 19.6 21.6 20 21 20H4C2.9 20 2 19.1 2 18V5C2 4.4 2.4 4 3 4C3.6 4 4 4.4 4 5V18H21C21.5 18 22 18.4 22 19ZM21 5.7H17.2C16.6 5.7 16.2 6.1 16.2 6.7C16.2 7.3 16.6 7.7 17.2 7.7H18.6L16.2 10L15.5 9.3C15.1 8.9 14.5 8.9 14.1 9.3L11.2 12.2L10.5 11.5C10.1 11.1 9.5 11.1 9.1 11.5L6.3 14.3C5.9 14.7 5.9 15.3 6.3 15.7C6.5 15.9 6.7 16 7 16C7.3 16 7.5 15.9 7.7 15.7L9.8 13.6L10.5 14.3C10.7 14.5 11 14.6 11.2 14.6C11.4 14.6 11.7 14.5 11.9 14.3L14.7 11.5L15.4 12.2C15.6 12.4 15.9 12.5 16.1 12.5C16.3 12.5 16.6 12.4 16.8 12.2L20 9.1V10.5C20 11.1 20.4 11.5 21 11.5C21.6 11.5 22 11.1 22 10.5V6.7C22 6.1 21.5 5.7 21 5.7Z" fill="#464454"/>
</svg>
