<svg width="24" height="24" viewBox="0 0 24 24" fill="none" xmlns="http://www.w3.org/2000/svg">
<path d="M22 19C22 19.2652 21.8946 19.5196 21.7071 19.7071C21.5196 19.8946 21.2652 20 21 20H4C3.46957 20 2.96086 19.7893 2.58579 19.4142C2.21071 19.0391 2 18.5304 2 18V5C2 4.73478 2.10536 4.48043 2.29289 4.29289C2.48043 4.10536 2.73478 4 3 4C3.26522 4 3.51957 4.10536 3.70711 4.29289C3.89464 4.48043 4 4.73478 4 5V18H21C21.2652 18 21.5196 18.1054 21.7071 18.2929C21.8946 18.4804 22 18.7348 22 19ZM21.92 6.83C21.845 6.64738 21.7176 6.49105 21.5539 6.38072C21.3901 6.27039 21.1974 6.21099 21 6.21H17.18C16.9148 6.21 16.6604 6.31536 16.4729 6.50289C16.2854 6.69043 16.18 6.94478 16.18 7.21C16.18 7.47522 16.2854 7.72957 16.4729 7.91711C16.6604 8.10464 16.9148 8.21 17.18 8.21H18.59L15 11.84L12.48 9.37C12.2926 9.18375 12.0392 9.07921 11.775 9.07921C11.5108 9.07921 11.2574 9.18375 11.07 9.37L6.29 14.14C6.19627 14.233 6.12188 14.3436 6.07111 14.4654C6.02034 14.5873 5.9942 14.718 5.9942 14.85C5.9942 14.982 6.02034 15.1127 6.07111 15.2346C6.12188 15.3564 6.19627 15.467 6.29 15.56C6.38296 15.6537 6.49356 15.7281 6.61542 15.7789C6.73728 15.8297 6.86799 15.8558 7 15.8558C7.13201 15.8558 7.26272 15.8297 7.38458 15.7789C7.50644 15.7281 7.61704 15.6537 7.71 15.56L11.77 11.49L14.25 14C14.4374 14.1863 14.6908 14.2908 14.955 14.2908C15.2192 14.2908 15.4726 14.1863 15.66 14L20 9.63V11C20 11.2652 20.1054 11.5196 20.2929 11.7071C20.4804 11.8946 20.7348 12 21 12C21.2652 12 21.5196 11.8946 21.7071 11.7071C21.8946 11.5196 22 11.2652 22 11V7.21C21.9984 7.07932 21.9712 6.95022 21.92 6.83Z" fill="#464454"/>
</svg>
