<svg width="24" height="24" viewBox="0 0 24 24" fill="none" xmlns="http://www.w3.org/2000/svg">
<path fill-rule="evenodd" clip-rule="evenodd" d="M21 20C21.6 20 22 19.6 22 19C22 18.4 21.5 18 21 18H4V5C4 4.4 3.6 4 3 4C2.4 4 2 4.4 2 5V18C2 19.1 2.9 20 4 20H21ZM17.16 4.27002H21C21.2565 4.28286 21.4981 4.39386 21.675 4.58002C21.8519 4.76618 21.9503 5.01324 21.95 5.27002V9.09002C21.95 9.35524 21.8446 9.60959 21.6571 9.79713C21.4696 9.98466 21.2152 10.09 20.95 10.09C20.6848 10.09 20.4304 9.98466 20.2429 9.79713C20.0554 9.60959 19.95 9.35524 19.95 9.09002V7.71002L11.95 15.71C11.8566 15.8027 11.7457 15.876 11.6239 15.9258C11.5021 15.9756 11.3716 16.0008 11.24 16C10.9777 15.9989 10.7263 15.8948 10.54 15.71L8.41 13.58L7.71 14.29C7.61704 14.3837 7.50644 14.4581 7.38458 14.5089C7.26272 14.5597 7.13201 14.5858 7 14.5858C6.86799 14.5858 6.73728 14.5597 6.61542 14.5089C6.49356 14.4581 6.38296 14.3837 6.29 14.29C6.10375 14.1027 5.99921 13.8492 5.99921 13.585C5.99921 13.3208 6.10375 13.0674 6.29 12.88L7.71 11.46C7.89736 11.2738 8.15081 11.1692 8.415 11.1692C8.67918 11.1692 8.93264 11.2738 9.12 11.46L11.24 13.58L18.56 6.27002H17.16C16.8948 6.27002 16.6404 6.16466 16.4529 5.97713C16.2654 5.78959 16.16 5.53524 16.16 5.27002C16.16 5.0048 16.2654 4.75045 16.4529 4.56291C16.6404 4.37538 16.8948 4.27002 17.16 4.27002Z" fill="#464454"/>
</svg>
