<svg width="24" height="24" viewBox="0 0 24 24" fill="none" xmlns="http://www.w3.org/2000/svg">
<path d="M21 20H4C2.9 20 2 19.1 2 18V5C2 4.4 2.4 4 3 4C3.6 4 4 4.4 4 5V18H21C21.6 18 22 18.4 22 19C22 19.6 21.6 20 21 20ZM7 12V15C7 15.6 7.4 16 8 16C8.6 16 9 15.6 9 15V12C9 11.4 8.6 11 8 11C7.4 11 7 11.4 7 12ZM11.5 8V15C11.5 15.6 11.9 16 12.5 16C13.1 16 13.5 15.6 13.5 15V8C13.5 7.4 13.1 7 12.5 7C11.9 7 11.5 7.4 11.5 8ZM16 10V15C16 15.6 16.4 16 17 16C17.6 16 18 15.6 18 15V10C18 9.4 17.6 9 17 9C16.4 9 16 9.4 16 10Z" fill="#464454"/>
</svg>
