<svg width="24" height="24" viewBox="0 0 24 24" fill="none" xmlns="http://www.w3.org/2000/svg">
<path d="M22 19C22 19.6 21.6 20 21 20H4C2.9 20 2 19.1 2 18V5C2 4.4 2.4 4 3 4C3.6 4 4 4.4 4 5V18H21C21.5 18 22 18.4 22 19ZM7 12H18.6L17.6 13C17.2 13.4 17.2 14 17.6 14.4C17.8 14.6 18.1 14.7 18.3 14.7C18.5 14.7 18.8 14.6 19 14.4L21.7 11.7C21.9 11.5 22 11.3 22 11C22 10.7 21.9 10.5 21.7 10.3L19 7.6C18.6 7.2 18 7.2 17.6 7.6C17.2 8 17.2 8.6 17.6 9L18.6 10H7C6.4 10 6 10.4 6 11C6 11.6 6.4 12 7 12Z" fill="#464454"/>
</svg>
