<svg width="24" height="24" viewBox="0 0 24 24" fill="none" xmlns="http://www.w3.org/2000/svg">
<path d="M12 2C10.0222 2 8.08879 2.58649 6.4443 3.6853C4.79981 4.78412 3.51809 6.3459 2.76121 8.17317C2.00433 10.0004 1.8063 12.0111 2.19215 13.9509C2.578 15.8907 3.53041 17.6725 4.92894 19.0711C6.32746 20.4696 8.10929 21.422 10.0491 21.8079C11.9889 22.1937 13.9996 21.9957 15.8268 21.2388C17.6541 20.4819 19.2159 19.2002 20.3147 17.5557C21.4135 15.9112 22 13.9778 22 12C22 9.34784 20.9464 6.8043 19.0711 4.92893C17.1957 3.05357 14.6522 2 12 2V2ZM13 4.07C14.4224 4.24804 15.7701 4.80784 16.9 5.69L13 9.59V4.07ZM11 4.07V11H4.07C4.2932 9.23998 5.0951 7.60408 6.34959 6.34959C7.60408 5.0951 9.23998 4.29319 11 4.07ZM12 20C10.0527 19.9982 8.17292 19.2863 6.71304 17.9976C5.25315 16.7089 4.31342 14.932 4.07 13H12C12.1307 12.9984 12.2598 12.9712 12.38 12.92C12.5036 12.8742 12.6161 12.8026 12.71 12.71L18.31 7.1C19.407 8.49755 20.0022 10.2233 20 12C20 14.1217 19.1572 16.1566 17.6569 17.6569C16.1566 19.1571 14.1217 20 12 20Z" fill="#464454"/>
</svg>
