<svg width="24" height="24" viewBox="0 0 24 24" fill="none" xmlns="http://www.w3.org/2000/svg">
<path d="M22.7 3.3C22.3 2.9 21.7 2.9 21.3 3.3L12 12.6L9.7 10.3C9.3 9.9 8.7 9.9 8.3 10.3C7.9 10.7 7.9 11.3 8.3 11.7L11.3 14.7C11.5 14.9 11.8 15 12 15C12.2 15 12.5 14.9 12.7 14.7L22.7 4.7C23.1 4.3 23.1 3.7 22.7 3.3Z" fill="#464454"/>
<path d="M21 11C20.4 11 20 11.4 20 12V19C20 19.6 19.6 20 19 20H5C4.4 20 4 19.6 4 19V5C4 4.4 4.4 4 5 4H16C16.6 4 17 3.6 17 3C17 2.4 16.6 2 16 2H5C3.3 2 2 3.3 2 5V19C2 20.7 3.3 22 5 22H19C20.7 22 22 20.7 22 19V12C22 11.4 21.6 11 21 11Z" fill="#464454"/>
</svg>
