<svg width="24" height="24" viewBox="0 0 24 24" fill="none" xmlns="http://www.w3.org/2000/svg">
<path d="M22 10.1C21.4 10.1 21 10.5 21 11.1V12C21 17 17 21 12 21C7 21 3 17 3 12C3 7 7 3 12 3C13.3 3 14.5 3.3 15.7 3.8C16.2 4 16.8 3.8 17 3.3C17.2 2.8 17 2.2 16.5 2C15.1 1.4 13.6 1 12 1C5.9 1 1 5.9 1 12C1 18.1 5.9 23 12 23C18.1 23 23 18.1 23 12V11.1C23 10.5 22.6 10.1 22 10.1Z" fill="#464454"/>
<path d="M9.7 10.3C9.3 9.9 8.7 9.9 8.3 10.3C7.9 10.7 7.9 11.3 8.3 11.7L11.3 14.7C11.5 14.9 11.7 15 12 15C12.3 15 12.5 14.9 12.7 14.7L22.7 4.7C23.1 4.3 23.1 3.7 22.7 3.3C22.3 2.9 21.7 2.9 21.3 3.3L12 12.6L9.7 10.3Z" fill="#464454"/>
</svg>
