<svg width="24" height="24" viewBox="0 0 24 24" fill="none" xmlns="http://www.w3.org/2000/svg">
<path d="M16.9254 3.3C16.7264 3.3 16.4279 3.3 16.2289 3.4C15.3333 1.9 13.7413 1 11.9502 1C10.1592 1 8.56716 1.9 7.67164 3.4C4.68657 2.9 2 5.3 2 8.3C2 10.3 3.19403 12.1 4.98507 12.9V21.1C4.98507 22.2 5.78109 23 6.87562 23H17.1244C18.2189 23 19.0149 22.2 19.0149 21.1V12.9C20.806 12.1 22 10.4 22 8.3C21.9005 5.6 19.7114 3.3 16.9254 3.3ZM16.9254 21H14.9353V17C14.9353 16.4 14.5373 16 13.9403 16C13.3433 16 12.9453 16.4 12.9453 17V21H10.9552V17C10.9552 16.4 10.5572 16 9.9602 16C9.36318 16 8.96517 16.4 8.96517 17V21H6.97512V13.3C7.87065 13.3 8.66667 13.1 9.46269 12.6C10.9552 13.5 12.9453 13.5 14.4378 12.6C15.2338 13.1 16.0299 13.3 16.9254 13.3V21ZM16.9254 11.3C16.2289 11.3 15.6318 11.1 15.0348 10.6L14.4378 10.1L13.8408 10.6C12.7463 11.5 11.2537 11.5 10.1592 10.6L9.46269 10.2L8.86567 10.7C8.36816 11.1 7.67164 11.4 6.97512 11.4C5.28358 11.4 3.99005 10.1 3.99005 8.4C3.99005 6.7 5.28358 5.4 6.97512 5.4C7.27363 5.4 7.57214 5.5 7.97015 5.6L8.86567 5.9L9.16418 5C9.66169 3.8 10.7562 3 11.9502 3C13.1443 3 14.2388 3.8 14.7363 4.9L15.0348 5.8L15.9303 5.5C16.2289 5.4 16.6269 5.3 16.9254 5.3C18.6169 5.3 19.9104 6.6 19.9104 8.3C19.9104 10 18.6169 11.3 16.9254 11.3Z" fill="#464454"/>
</svg>
