<svg width="24" height="24" viewBox="0 0 24 24" fill="none" xmlns="http://www.w3.org/2000/svg">
<path d="M18.7 11.3L13.7 6.3C13.3 5.9 12.7 5.9 12.3 6.3C11.9 6.7 11.9 7.3 12.3 7.7L16.6 12L12.3 16.3C11.9 16.7 11.9 17.3 12.3 17.7C12.5 17.9 12.8 18 13 18C13.2 18 13.5 17.9 13.7 17.7L18.7 12.7C19.1 12.3 19.1 11.7 18.7 11.3Z" fill="#464454"/>
<path d="M11.7 11.3L6.7 6.3C6.3 5.9 5.7 5.9 5.3 6.3C4.9 6.7 4.9 7.3 5.3 7.7L9.6 12L5.3 16.3C4.9 16.7 4.9 17.3 5.3 17.7C5.5 17.9 5.7 18 6 18C6.3 18 6.5 17.9 6.7 17.7L11.7 12.7C12.1 12.3 12.1 11.7 11.7 11.3Z" fill="#464454"/>
</svg>
