<svg width="24" height="24" viewBox="0 0 24 24" fill="none" xmlns="http://www.w3.org/2000/svg">
<path d="M16.3 12.3L12 16.6L7.7 12.3C7.3 11.9 6.7 11.9 6.3 12.3C5.9 12.7 5.9 13.3 6.3 13.7L11.3 18.7C11.5 18.9 11.8 19 12 19C12.2 19 12.5 18.9 12.7 18.7L17.7 13.7C18.1 13.3 18.1 12.7 17.7 12.3C17.3 11.9 16.7 11.9 16.3 12.3Z" fill="#464454"/>
<path d="M11.3 11.7C11.5 11.9 11.8 12 12 12C12.2 12 12.5 11.9 12.7 11.7L17.7 6.7C18.1 6.3 18.1 5.7 17.7 5.3C17.3 4.9 16.7 4.9 16.3 5.3L12 9.6L7.7 5.3C7.3 4.9 6.7 4.9 6.3 5.3C5.9 5.7 5.9 6.3 6.3 6.7L11.3 11.7Z" fill="#464454"/>
</svg>
