<svg width="24" height="24" viewBox="0 0 24 24" fill="none" xmlns="http://www.w3.org/2000/svg">
<path d="M7.4 12L11.7 7.7C12.1 7.3 12.1 6.7 11.7 6.3C11.3 5.9 10.7 5.9 10.3 6.3L5.3 11.3C4.9 11.7 4.9 12.3 5.3 12.7L10.3 17.7C10.5 17.9 10.8 18 11 18C11.2 18 11.5 17.9 11.7 17.7C12.1 17.3 12.1 16.7 11.7 16.3L7.4 12Z" fill="#464454"/>
<path d="M14.4 12L18.7 7.7C19.1 7.3 19.1 6.7 18.7 6.3C18.3 5.9 17.7 5.9 17.3 6.3L12.3 11.3C11.9 11.7 11.9 12.3 12.3 12.7L17.3 17.7C17.5 17.9 17.8 18 18 18C18.2 18 18.5 17.9 18.7 17.7C19.1 17.3 19.1 16.7 18.7 16.3L14.4 12Z" fill="#464454"/>
</svg>
