<svg width="24" height="24" viewBox="0 0 24 24" fill="none" xmlns="http://www.w3.org/2000/svg">
<path d="M22.1 7.7C22.1 7.6 22.1 7.6 22.1 7.7C20.3 3.7 16.5 1 12 1C8.4 1 5.2 2.7 3.2 5.4C3.2 5.5 3.1 5.5 3.1 5.6C1.8 7.4 1 9.6 1 12C1 17.6 5.2 22.2 10.6 22.9H10.7C11.1 22.9 11.5 23 11.9 23C18 23 22.9 18.1 22.9 12C23 10.5 22.7 9 22.1 7.7ZM12 3C15.1 3 17.9 4.6 19.5 7H12C9.9 7 8.2 8.3 7.4 10L5.2 6.2C6.8 4.2 9.3 3 12 3ZM15 12C15 13.7 13.7 15 12 15C10.3 15 9 13.7 9 12C9 10.3 10.3 9 12 9C13.7 9 15 10.3 15 12ZM3 12C3 10.6 3.3 9.2 3.9 8L7.6 14.5C7.6 14.5 7.6 14.6 7.7 14.6C8.6 16 10.2 17 12 17C12.2 17 12.4 17 12.6 16.9L10.3 20.8C6.2 20.1 3 16.4 3 12ZM12.6 21L16.3 14.5V14.4C16.7 13.7 16.9 12.9 16.9 12C16.9 10.9 16.5 9.8 15.9 9H20.4C20.7 9.9 20.9 10.9 20.9 12C21 16.8 17.3 20.7 12.6 21Z" fill="#464454"/>
</svg>
