<svg width="24" height="24" viewBox="0 0 24 24" fill="none" xmlns="http://www.w3.org/2000/svg">
<path d="M18.1 8.9L18.7 8.3C19.2 7.8 19.2 7 18.7 6.5C18.2 6 17.4 6 16.9 6.5L16.2 7.2C15.2 6.6 14.1 6.2 13 6.1V5H13.5C14.1 5 14.5 4.6 14.5 4V3C14.5 2.4 14.1 2 13.5 2H10.5C9.9 2 9.5 2.4 9.5 3V4C9.5 4.6 9.9 5 10.5 5H11V6.1C9.8 6.2 8.7 6.6 7.8 7.2L7.1 6.5C6.6 6 5.8 6 5.3 6.5C4.8 7 4.8 7.8 5.3 8.3L5.9 8.9C4.7 10.2 4 12 4 14C4 18.4 7.6 22 12 22C16.4 22 20 18.4 20 14C20 12 19.3 10.2 18.1 8.9ZM12 20C8.7 20 6 17.3 6 14C6 10.7 8.7 8 12 8C15.3 8 18 10.7 18 14C18 17.3 15.3 20 12 20ZM8.8 10.8C9.6 10 10.8 9.5 12 9.5V14H7.5C7.5 12.8 8 11.7 8.8 10.8Z" fill="#464454"/>
</svg>
