<svg width="26" height="24" viewBox="0 0 26 24" fill="none" xmlns="http://www.w3.org/2000/svg">
<path d="M24.5 10.6001C23.5 8.40006 21.4 7.00006 19 7.00006H18.5C17 2.60006 12.3 0.100061 7.79998 1.30006C2.89998 2.50006 -1.72257e-05 7.40006 1.29998 12.3001C1.79998 14.2001 2.89998 15.9001 4.39998 17.1001C4.79998 17.4001 5.49998 17.4001 5.79998 16.9001C6.09998 16.5001 6.09998 15.8001 5.59998 15.5001C4.39998 14.6001 3.59998 13.2001 3.19998 11.8001C2.19998 8.10006 4.49998 4.20006 8.19998 3.30006C11.9 2.30006 15.8 4.60006 16.7 8.30006C16.8 8.70006 17.2 9.10006 17.7 9.10006H19C20.6 9.10006 22 10.0001 22.7 11.5001C23.1 12.5001 23.2 13.6001 22.8 14.6001C22.4 15.6001 21.7 16.4001 20.7 16.8001C20.2 17.0001 20 17.6001 20.2 18.1001C20.4 18.5001 20.7 18.7001 21.1 18.7001C21.2 18.7001 21.4 18.7001 21.5 18.6001C23 18.0001 24.1 16.8001 24.7 15.3001C25.2 13.7001 25.1 12.1001 24.5 10.6001Z" fill="#464454"/>
<path d="M9.7 15.3001C9.6 15.2001 9.5 15.1001 9.4 15.1001C9 14.9001 8.6 15.0001 8.3 15.3001C8.2 15.4001 8.1 15.5001 8.1 15.6001C8 15.7001 8 15.9001 8 16.0001C8 16.3001 8.1 16.5001 8.3 16.7001C8.5 16.9001 8.7 17.0001 9 17.0001C9.3 17.0001 9.5 16.9001 9.7 16.7001C9.9 16.5001 10 16.3001 10 16.0001C10 15.9001 10 15.7001 9.9 15.6001C9.9 15.5001 9.8 15.4001 9.7 15.3001Z" fill="#464454"/>
<path d="M8.3 19.3C8.1 19.5 8 19.7 8 20C8 20.1 8 20.3 8.1 20.4C8.2 20.5 8.2 20.6 8.3 20.7C8.5 20.9 8.7 21 9 21C9.3 21 9.5 20.9 9.7 20.7C9.8 20.6 9.9 20.5 9.9 20.4C10 20.3 10 20.1 10 20C10 19.7 9.9 19.5 9.7 19.3C9.3 18.9 8.7 18.9 8.3 19.3Z" fill="#464454"/>
<path d="M13.7 17.3C13.5 17.1 13.1 17 12.8 17C12.7 17 12.7 17 12.6 17.1C12.5 17.1 12.5 17.1 12.4 17.2C12.3 17.2 12.3 17.3 12.3 17.3C12.2 17.4 12.1 17.5 12.1 17.6C12.1 17.7 12 17.8 12 18C12 18.3 12.1 18.5 12.3 18.7C12.5 18.9 12.7 19 13 19C13.3 19 13.5 18.9 13.7 18.7C13.9 18.5 14 18.3 14 18C14 17.9 14 17.7 13.9 17.6C13.9 17.5 13.8 17.4 13.7 17.3Z" fill="#464454"/>
<path d="M12.3 21.3C12.2 21.4 12.1 21.5 12.1 21.6C12.1 21.7 12 21.8 12 22C12 22.3 12.1 22.5 12.3 22.7C12.4 22.8 12.5 22.9 12.6 22.9C12.7 22.9 12.8 23 13 23C13.3 23 13.5 22.9 13.7 22.7C13.9 22.5 14 22.3 14 22C14 21.7 13.9 21.5 13.7 21.3C13.3 20.9 12.7 20.9 12.3 21.3Z" fill="#464454"/>
<path d="M17.7 15.2999C17.7 15.2999 17.6 15.1999 17.5 15.1999C17.4 15.1999 17.4 15.0999 17.3 15.0999C17.2 15.0999 17.2 15.0999 17.1 14.9999C16.8 14.8999 16.4 14.9999 16.2 15.2999C16.1 15.3999 16 15.4999 16 15.5999C16 15.6999 15.9 15.7999 15.9 15.9999C15.9 16.2999 16 16.4999 16.2 16.6999C16.4 16.8999 16.6 16.9999 16.9 16.9999C17.2 16.9999 17.4 16.8999 17.6 16.6999C17.8 16.4999 17.9 16.2999 17.9 15.9999C17.9 15.8999 17.9 15.6999 17.8 15.5999C17.9 15.4999 17.8 15.3999 17.7 15.2999Z" fill="#464454"/>
<path d="M16.3 19.3C16.1 19.5 16 19.7 16 20C16 20.1 16 20.3 16.1 20.4C16.2 20.5 16.2 20.6 16.3 20.7C16.5 20.9 16.7 21 17 21C17.3 21 17.5 20.9 17.7 20.7C17.8 20.6 17.9 20.5 17.9 20.4C17.9 20.3 18 20.1 18 20C18 19.7 17.9 19.5 17.7 19.3C17.3 18.9 16.7 18.9 16.3 19.3Z" fill="#464454"/>
</svg>
