<svg width="26" height="24" viewBox="0 0 26 24" fill="none" xmlns="http://www.w3.org/2000/svg">
<path d="M9 18C8.4 18 8 18.4 8 19V21C8 21.6 8.4 22 9 22C9.6 22 10 21.6 10 21V19C10 18.4 9.6 18 9 18Z" fill="#464454"/>
<path d="M9 12C8.4 12 8 12.4 8 13V15C8 15.6 8.4 16 9 16C9.6 16 10 15.6 10 15V13C10 12.4 9.6 12 9 12Z" fill="#464454"/>
<path d="M17 18C16.4 18 16 18.4 16 19V21C16 21.6 16.4 22 17 22C17.6 22 18 21.6 18 21V19C18 18.4 17.6 18 17 18Z" fill="#464454"/>
<path d="M17 12C16.4 12 16 12.4 16 13V15C16 15.6 16.4 16 17 16C17.6 16 18 15.6 18 15V13C18 12.4 17.6 12 17 12Z" fill="#464454"/>
<path d="M13 20C12.4 20 12 20.4 12 21V23C12 23.6 12.4 24 13 24C13.6 24 14 23.6 14 23V21C14 20.4 13.6 20 13 20Z" fill="#464454"/>
<path d="M13 14C12.4 14 12 14.4 12 15V17C12 17.6 12.4 18 13 18C13.6 18 14 17.6 14 17V15C14 14.4 13.6 14 13 14Z" fill="#464454"/>
<path d="M24.5 9.60006C23.5 7.40006 21.4 6.00006 19 6.00006H18.5C17 1.60006 12.3 -0.899939 7.79998 0.300061C2.89998 1.50006 -1.72257e-05 6.40006 1.29998 11.3001C1.79998 13.2001 2.89998 14.9001 4.39998 16.1001C4.79998 16.4001 5.49998 16.4001 5.79998 15.9001C6.09998 15.5001 6.09998 14.8001 5.59998 14.5001C4.39998 13.6001 3.59998 12.2001 3.19998 10.8001C2.19998 7.10006 4.49998 3.20006 8.19998 2.30006C11.9 1.30006 15.8 3.60006 16.7 7.30006C16.8 7.70006 17.2 8.10006 17.7 8.10006H19C20.6 8.10006 22 9.00006 22.7 10.5001C23.1 11.5001 23.2 12.6001 22.8 13.6001C22.4 14.6001 21.7 15.4001 20.7 15.8001C20.2 16.0001 20 16.6001 20.2 17.1001C20.4 17.5001 20.7 17.7001 21.1 17.7001C21.2 17.7001 21.4 17.7001 21.5 17.6001C23 17.0001 24.1 15.8001 24.7 14.3001C25.2 12.7001 25.1 11.1001 24.5 9.60006Z" fill="#464454"/>
</svg>
