<svg width="25" height="24" viewBox="0 0 25 24" fill="none" xmlns="http://www.w3.org/2000/svg">
<path d="M19 8.99998H18.5C17.8 6.99998 16.4 5.29997 14.6 4.19997C12.5 2.99997 10.1 2.59998 7.79998 3.19998C5.39998 3.89998 3.49998 5.39998 2.19998 7.39998C0.999975 9.49998 0.599975 11.9 1.19998 14.2C2.19998 18.2 5.79997 21 9.89997 21H18.9C22.2 21 24.9 18.3 24.9 15C24.9 11.7 22.3 8.99998 19 8.99998ZM19 19H9.99998C6.79998 19 3.99998 16.8 3.19998 13.8C2.69998 11.9 2.99998 10.1 3.99998 8.39997C4.99998 6.69997 6.49998 5.59998 8.29998 5.19998C8.79998 5.09998 9.39997 4.99998 9.99998 4.99998C13.1 4.99998 16 7.09998 16.8 10.3C16.9 10.7 17.3 11.1 17.8 11.1H19C21.2 11.1 23 12.9 23 15.1C23 17.2 21.2 19 19 19Z" fill="#464454"/>
</svg>
