<svg width="25" height="24" viewBox="0 0 25 24" fill="none" xmlns="http://www.w3.org/2000/svg">
<path d="M24.9 10.8001C24.3 8.00006 21.8 6.00006 19 6.00006H18.5C17 1.60006 12.3 -0.899939 7.79998 0.300061C5.39998 0.900061 3.49998 2.40006 2.19998 4.40006C0.999975 6.50006 0.599975 8.90006 1.19998 11.2001C1.79998 13.6001 3.39998 15.6001 5.59998 16.8001C6.09998 17.1001 6.69998 17.0001 6.99998 16.5001C7.29998 16.0001 7.09998 15.4001 6.59998 15.1001C4.89998 14.2001 3.69998 12.6001 3.19998 10.7001C2.69998 8.90006 2.99998 7.10006 3.99998 5.40006C4.89998 3.80006 6.49998 2.60006 8.29998 2.20006C12 1.20006 15.9 3.50006 16.8 7.20006C16.9 7.60006 17.3 8.00006 17.8 8.00006H19C20.9 8.00006 22.5 9.30006 22.9 11.2001C23.3 13.4001 21.9 15.5001 19.8 15.9001C19.3 16.0001 18.9 16.5001 19 17.1001C19.1 17.6001 19.5 17.9001 20 17.9001C20.1 17.9001 20.1 17.9001 20.2 17.9001C23.4 17.2001 25.5 14.0001 24.9 10.8001Z" fill="#464454"/>
<path d="M16 16H11.9L14.9 11.6C15.2 11.1 15.1 10.5 14.6 10.2C14.1 9.9 13.5 10 13.2 10.5L9.19999 16.5C8.99999 16.8 8.99999 17.2 9.19999 17.5C9.29999 17.8 9.59999 18 9.99999 18H14.1L11.1 22.4C10.8 22.9 10.9 23.5 11.4 23.8C11.6 23.9 11.8 24 12 24C12.3 24 12.6 23.8 12.8 23.6L16.8 17.6C17 17.3 17 16.9 16.8 16.6C16.6 16.3 16.4 16 16 16Z" fill="#464454"/>
</svg>
