<svg width="25" height="24" viewBox="0 0 25 24" fill="none" xmlns="http://www.w3.org/2000/svg">
<path d="M10.6 5C13.6 5.3 16 7.4 16.8 10.2C16.9 10.6 17.3 11 17.8 11H19C19.5 11 20.1 11.1 20.6 11.3C22.6 12.2 23.6 14.5 22.7 16.5C22.5 17 22.7 17.6 23.2 17.8C23.3 17.9 23.5 17.9 23.6 17.9C24 17.9 24.4 17.7 24.5 17.3C25.8 14.3 24.4 10.7 21.3 9.4C20.6 9.2 19.8 9 19 9H18.5C17.3 5.7 14.3 3.3 10.8 3C10.2 3 9.8 3.4 9.7 3.9C9.6 4.5 10.1 4.9 10.6 5Z" fill="#464454"/>
<path d="M2.70003 0.3C2.30003 -0.1 1.70003 -0.1 1.30003 0.3C0.900029 0.7 0.900029 1.3 1.30003 1.7L4.40003 4.8C2.90003 6 1.80003 7.6 1.20003 9.5C0.500029 11.8 0.800029 14.2 2.00003 16.3C3.60003 19.2 6.60003 21 9.90003 21H10H19C19.5 21 19.9 20.9 20.4 20.8L23.3 23.7C23.5 23.9 23.8 24 24 24C24.2 24 24.5 23.9 24.7 23.7C25.1 23.3 25.1 22.7 24.7 22.3L2.70003 0.3ZM10 19C7.40003 19.1 5.00003 17.7 3.80003 15.4C2.90003 13.8 2.70003 11.9 3.20003 10.1C3.60003 8.5 4.60003 7.2 5.90003 6.3L18.6 19H10Z" fill="#464454"/>
</svg>
