<svg width="24" height="24" viewBox="0 0 24 24" fill="none" xmlns="http://www.w3.org/2000/svg">
<path d="M23 15.7C23 15.6 23 15.6 23 15.5V8.5C23 8.4 23 8.4 23 8.3C23 8.3 23 8.3 23 8.2C23 8.1 22.9 8 22.9 7.9C22.8 7.8 22.8 7.7 22.7 7.7L12.7 1.2H12.6H12.5C12.3 1.1 12 1.1 11.8 1.2H11.7H11.6L1.6 7.7C1.4 7.7 1.3 7.8 1.2 7.9C1.1 8.1 1.1 8.2 1 8.3C1 8.3 1 8.3 1 8.4C1 8.5 1 8.5 1 8.6V15.6C1 15.7 1 15.7 1 15.8C1 15.8 1 15.8 1 15.9C1 16 1.1 16.1 1.1 16.2C1.2 16.3 1.2 16.4 1.3 16.4L11.3 22.9H11.4H11.5C11.6 22.9 11.7 23 11.8 23C11.9 23 12 23 12.1 22.9H12.2H12.3L22.3 16.4C22.4 16.3 22.5 16.2 22.6 16.2C22.9 15.9 22.9 15.8 23 15.7ZM3 10.4L5.3 12L3 13.6V10.4ZM12 14.3L8.7 12L12 9.7L15.3 12L12 14.3ZM13 8V3.8L20.2 8.5L17 10.8L13 8ZM11 8L7 10.8L3.8 8.5L11 3.8V8ZM7 13.2L11 16V20.1L3.8 15.4L7 13.2ZM13 16L17 13.2L20.2 15.4L13 20.2V16ZM18.7 12L21 10.4V13.6L18.7 12Z" fill="#464454"/>
</svg>
