<svg width="24" height="24" viewBox="0 0 24 24" fill="none" xmlns="http://www.w3.org/2000/svg">
<path d="M19 7H18H2C1.4 7 1 7.4 1 8V17C1 19.8 3.2 22 6 22H14C16.8 22 19 19.8 19 17C21.8 17 24 14.8 24 12C24 9.2 21.8 7 19 7ZM17 17C17 18.7 15.7 20 14 20H6C4.3 20 3 18.7 3 17V9H17V17ZM19 15V9C20.7 9 22 10.3 22 12C22 13.7 20.7 15 19 15Z" fill="#464454"/>
<path d="M6 5C6.6 5 7 4.6 7 4V1C7 0.4 6.6 0 6 0C5.4 0 5 0.4 5 1V4C5 4.6 5.4 5 6 5Z" fill="#464454"/>
<path d="M10 5C10.6 5 11 4.6 11 4V1C11 0.4 10.6 0 10 0C9.4 0 9 0.4 9 1V4C9 4.6 9.4 5 10 5Z" fill="#464454"/>
<path d="M14 5C14.6 5 15 4.6 15 4V1C15 0.4 14.6 0 14 0C13.4 0 13 0.4 13 1V4C13 4.6 13.4 5 14 5Z" fill="#464454"/>
</svg>
