<svg width="24" height="24" viewBox="0 0 24 24" fill="none" xmlns="http://www.w3.org/2000/svg">
<path d="M21.7902 17.5999L20.6154 15.2316V8.51821C20.6154 7.71977 20.298 6.95404 19.7331 6.38946C19.1681 5.82488 18.4019 5.50771 17.603 5.50771H14.189C14.3676 5.29724 14.467 5.03103 14.4701 4.75508C14.4701 4.4224 14.3379 4.10334 14.1025 3.8681C13.8671 3.63286 13.5479 3.50071 13.215 3.50071C12.9342 3.50948 12.6647 3.61368 12.4511 3.79612C12.2375 3.97856 12.0926 4.22833 12.0402 4.50421C11.9852 4.21477 11.8285 3.95451 11.5983 3.77048C11.3681 3.58644 11.0796 3.49075 10.785 3.50071C10.4521 3.50071 10.1329 3.63286 9.89748 3.8681C9.6621 4.10334 9.52986 4.4224 9.52986 4.75508C9.53697 5.03027 9.63594 5.29518 9.81101 5.50771H6.37691C5.57798 5.50771 4.81177 5.82488 4.24684 6.38946C3.68192 6.95404 3.36454 7.71977 3.36454 8.51821V15.2818L2.2098 17.5999C2.0577 17.9058 1.98624 18.2454 2.00219 18.5867C2.01814 18.9279 2.12098 19.2594 2.30096 19.5498C2.48094 19.8402 2.73211 20.0799 3.03069 20.2462C3.32927 20.4125 3.66537 20.4998 4.00718 20.5H19.9928C20.3346 20.4998 20.6707 20.4125 20.9693 20.2462C21.2679 20.0799 21.5191 19.8402 21.699 19.5498C21.879 19.2594 21.9819 18.9279 21.9978 18.5867C22.0138 18.2454 21.9423 17.9058 21.7902 17.5999ZM5.37279 8.51821C5.37279 8.25206 5.47858 7.99682 5.66689 7.80862C5.8552 7.62043 6.1106 7.51471 6.37691 7.51471H17.603C17.8693 7.51471 18.1247 7.62043 18.313 7.80862C18.5013 7.99682 18.6071 8.25206 18.6071 8.51821V11.2176L18.085 10.2141C17.9187 9.87974 17.6624 9.59834 17.3449 9.40157C17.0274 9.20479 16.6612 9.10043 16.2876 9.10024H7.72244C7.353 9.09667 6.98974 9.19502 6.67263 9.38446C6.35551 9.5739 6.09683 9.8471 5.92506 10.174L5.37279 11.2678V8.51821ZM4.00718 18.493L7.72244 11.0671H16.2876L20.0029 18.493H4.00718Z" fill="#464454"/>
</svg>
