<svg width="24" height="24" viewBox="0 0 24 24" fill="none" xmlns="http://www.w3.org/2000/svg">
<path d="M12 1C5.9 1 1 5.9 1 12C1 18.1 5.9 23 12 23C18.1 23 23 18.1 23 12C23 5.9 18.1 1 12 1ZM12 21C7 21 3 17 3 12C3 7 7 3 12 3C17 3 21 7 21 12C21 17 17 21 12 21ZM13.4 11H13V9.2H14.7C15.3 9.2 15.7 8.8 15.7 8.2C15.7 7.6 15.3 7.2 14.7 7.2H13V6C13 5.4 12.6 5 12 5C11.4 5 11 5.4 11 6V7.2H10.6C9 7.2 7.7 8.5 7.7 10.1C7.7 11.7 9 13 10.6 13H11V14.8H8.7C8.1 14.8 7.7 15.2 7.7 15.8C7.7 16.4 8.1 16.8 8.7 16.8H11V18C11 18.6 11.4 19 12 19C12.6 19 13 18.6 13 18V16.8H13.4C15 16.8 16.3 15.5 16.3 13.9C16.3 12.3 15 11 13.4 11ZM11 11H10.6C10.1 11 9.7 10.6 9.7 10.1C9.7 9.6 10.1 9.2 10.6 9.2H11V11ZM13.4 14.8H13V13H13.4C13.9 13 14.3 13.4 14.3 13.9C14.3 14.4 13.9 14.8 13.4 14.8Z" fill="#464454"/>
</svg>
