<svg width="24" height="24" viewBox="0 0 24 24" fill="none" xmlns="http://www.w3.org/2000/svg">
<path d="M18 14H16V10H18C20.2 10 22 8.2 22 6C22 3.8 20.2 2 18 2C15.8 2 14 3.8 14 6V8H10V6C10 3.8 8.2 2 6 2C3.8 2 2 3.8 2 6C2 8.2 3.8 10 6 10H8V14H6C3.8 14 2 15.8 2 18C2 20.2 3.8 22 6 22C8.2 22 10 20.2 10 18V16H14V18C14 20.2 15.8 22 18 22C20.2 22 22 20.2 22 18C22 15.8 20.2 14 18 14ZM16 6C16 4.9 16.9 4 18 4C19.1 4 20 4.9 20 6C20 7.1 19.1 8 18 8H16V6ZM8 18C8 19.1 7.1 20 6 20C4.9 20 4 19.1 4 18C4 16.9 4.9 16 6 16H8V18ZM8 8H6C4.9 8 4 7.1 4 6C4 4.9 4.9 4 6 4C7.1 4 8 4.9 8 6V8ZM14 14H10V10H14V14ZM18 20C16.9 20 16 19.1 16 18V16H18C19.1 16 20 16.9 20 18C20 19.1 19.1 20 18 20Z" fill="#464454"/>
</svg>
