<svg width="24" height="24" viewBox="0 0 24 24" fill="none" xmlns="http://www.w3.org/2000/svg">
<path d="M12 1C5.9 1 1 5.9 1 12C1 18.1 5.9 23 12 23C18.1 23 23 18.1 23 12C23 5.9 18.1 1 12 1ZM12 21C7 21 3 17 3 12C3 7 7 3 12 3C17 3 21 7 21 12C21 17 17 21 12 21Z" fill="#464454"/>
<path d="M15.9 6.8002L9.59997 8.90019C9.29997 9.00019 8.99997 9.3002 8.89997 9.6002L6.79997 16.0002C6.69997 16.4002 6.79997 16.8002 6.99997 17.0002C7.19997 17.2002 7.39997 17.3002 7.69997 17.3002C7.79997 17.3002 7.89997 17.3002 7.99997 17.2002L14.4 15.1002C14.7 15.0002 14.9 14.8002 15 14.5002L17.1 8.1002C17.2 7.7002 17.1 7.3002 16.9 7.1002C16.7 6.8002 16.3 6.7002 15.9 6.8002ZM13.3 13.3002L9.29997 14.6002L10.6 10.6002L14.6 9.3002L13.3 13.3002Z" fill="#464454"/>
</svg>
