<svg width="24" height="24" viewBox="0 0 24 24" fill="none" xmlns="http://www.w3.org/2000/svg">
<path d="M19.9999 9.67017V9.50017C20.006 7.79911 19.4663 6.14096 18.4601 4.76938C17.4539 3.3978 16.0343 2.38513 14.4099 1.88017H14.3499C13.511 1.6244 12.6369 1.5029 11.7599 1.52017C9.67177 1.63476 7.70604 2.54192 6.26394 4.05649C4.82184 5.57107 4.01208 7.57889 3.99994 9.67017C3.41395 9.87631 2.9064 10.2593 2.54736 10.7662C2.18832 11.2731 1.99548 11.879 1.99548 12.5002C1.99548 13.1214 2.18832 13.7272 2.54736 14.2341C2.9064 14.7411 3.41395 15.124 3.99994 15.3302C4.20591 17.3049 5.13886 19.1326 6.61742 20.4577C8.09598 21.7829 10.0145 22.5109 11.9999 22.5002H12.2299C14.1499 22.4072 15.9748 21.637 17.3808 20.3262C18.7868 19.0155 19.6828 17.2489 19.9099 15.3402C20.5028 15.1457 21.0203 14.7712 21.3904 14.2688C21.7604 13.7664 21.9646 13.1611 21.9745 12.5372C21.9844 11.9133 21.7995 11.3019 21.4456 10.788C21.0917 10.2741 20.5864 9.88337 19.9999 9.67017ZM12.1799 20.5002C10.7323 20.542 9.31844 20.0589 8.19915 19.14C7.07985 18.221 6.33071 16.9282 6.08994 15.5002H17.8599C17.6159 16.8521 16.9219 18.0817 15.8908 18.9894C14.8596 19.8971 13.5519 20.4295 12.1799 20.5002ZM18.9999 13.5002H4.99994C4.73473 13.5002 4.48037 13.3948 4.29284 13.2073C4.1053 13.0197 3.99994 12.7654 3.99994 12.5002C3.99994 12.235 4.1053 11.9806 4.29284 11.7931C4.48037 11.6055 4.73473 11.5002 4.99994 11.5002H6.99994C7.26516 11.5002 7.51951 11.3948 7.70705 11.2073C7.89459 11.0197 7.99994 10.7654 7.99994 10.5002C7.99994 10.235 7.89459 9.9806 7.70705 9.79306C7.51951 9.60552 7.26516 9.50017 6.99994 9.50017H5.99994C6.04471 8.46278 6.34121 7.45186 6.86386 6.55463C7.38652 5.65741 8.11963 4.90083 8.99994 4.35017V7.50017C8.99994 7.76538 9.1053 8.01974 9.29284 8.20727C9.48037 8.39481 9.73473 8.50017 9.99994 8.50017C10.2652 8.50017 10.5195 8.39481 10.7071 8.20727C10.8946 8.01974 10.9999 7.76538 10.9999 7.50017V3.59017C11.2714 3.54482 11.5451 3.51477 11.8199 3.50017H11.9999C12.3351 3.50489 12.6694 3.53497 12.9999 3.59017V7.50017C12.9999 7.76538 13.1053 8.01974 13.2928 8.20727C13.4804 8.39481 13.7347 8.50017 13.9999 8.50017C14.2652 8.50017 14.5195 8.39481 14.7071 8.20727C14.8946 8.01974 14.9999 7.76538 14.9999 7.50017V4.32017C15.4241 4.56579 15.8199 4.85756 16.1799 5.19017C16.7565 5.75007 17.2147 6.42009 17.5273 7.16047C17.84 7.90084 18.0007 8.69649 17.9999 9.50017H16.9999C16.7347 9.50017 16.4804 9.60552 16.2928 9.79306C16.1053 9.9806 15.9999 10.235 15.9999 10.5002C15.9999 10.7654 16.1053 11.0197 16.2928 11.2073C16.4804 11.3948 16.7347 11.5002 16.9999 11.5002H18.9999C19.2652 11.5002 19.5195 11.6055 19.7071 11.7931C19.8946 11.9806 19.9999 12.235 19.9999 12.5002C19.9999 12.7654 19.8946 13.0197 19.7071 13.2073C19.5195 13.3948 19.2652 13.5002 18.9999 13.5002Z" fill="#464454"/>
</svg>
