<svg width="24" height="24" viewBox="0 0 24 24" fill="none" xmlns="http://www.w3.org/2000/svg">
<path d="M20.7 8.2999L15.7 3.2999C15.6 3.1999 15.5 3.0999 15.4 3.0999C15.2 2.9999 14.9 2.9999 14.6 3.0999C14.5 3.1999 14.4 3.1999 14.3 3.2999L9.3 8.2999C8.9 8.6999 8.9 9.2999 9.3 9.6999C9.7 10.0999 10.3 10.0999 10.7 9.6999L14 6.3999V15.9999C14 17.6999 12.7 18.9999 11 18.9999H4C3.4 18.9999 3 19.3999 3 19.9999C3 20.5999 3.4 20.9999 4 20.9999H11C13.8 20.9999 16 18.7999 16 15.9999V6.3999L19.3 9.6999C19.5 9.8999 19.7 9.9999 20 9.9999C20.3 9.9999 20.5 9.8999 20.7 9.6999C21.1 9.2999 21.1 8.6999 20.7 8.2999Z" fill="#464454"/>
</svg>
