<svg width="24" height="24" viewBox="0 0 24 24" fill="none" xmlns="http://www.w3.org/2000/svg">
<path d="M20 18.9999H13C11.3 18.9999 10 17.6999 10 15.9999V6.3999L13.3 9.6999C13.5 9.8999 13.7 9.9999 14 9.9999C14.3 9.9999 14.5 9.8999 14.7 9.6999C15.1 9.2999 15.1 8.6999 14.7 8.2999L9.7 3.2999C9.6 3.1999 9.5 3.0999 9.4 3.0999C9.1 2.9999 8.9 2.9999 8.6 3.0999C8.5 3.0999 8.4 3.1999 8.3 3.2999L3.3 8.2999C2.9 8.6999 2.9 9.2999 3.3 9.6999C3.7 10.0999 4.3 10.0999 4.7 9.6999L8 6.3999V15.9999C8 18.7999 10.2 20.9999 13 20.9999H20C20.6 20.9999 21 20.5999 21 19.9999C21 19.3999 20.6 18.9999 20 18.9999Z" fill="#464454"/>
</svg>
