<svg width="24" height="24" viewBox="0 0 24 24" fill="none" xmlns="http://www.w3.org/2000/svg">
<path d="M16 8H6.40002L9.70002 4.7C10.1 4.3 10.1 3.7 9.70002 3.3C9.30002 2.9 8.70002 2.9 8.30002 3.3L3.30002 8.3C3.20002 8.4 3.10002 8.5 3.10002 8.6C3.00002 8.9 3.00002 9.1 3.10002 9.4C3.20002 9.5 3.20002 9.6 3.30002 9.7L8.30002 14.7C8.50002 14.9 8.70002 15 9.00002 15C9.30002 15 9.50002 14.9 9.70002 14.7C10.1 14.3 10.1 13.7 9.70002 13.3L6.40002 10H16C17.7 10 19 11.3 19 13V20C19 20.6 19.4 21 20 21C20.6 21 21 20.6 21 20V13C21 10.2 18.8 8 16 8Z" fill="#464454"/>
</svg>
