<svg width="24" height="24" viewBox="0 0 24 24" fill="none" xmlns="http://www.w3.org/2000/svg">
<path d="M20 3C19.4 3 19 3.4 19 4V11C19 12.7 17.7 14 16 14H6.40002L9.70002 10.7C10.1 10.3 10.1 9.7 9.70002 9.3C9.30002 8.9 8.70002 8.9 8.30002 9.3L3.30002 14.3C3.20002 14.4 3.10002 14.5 3.10002 14.6C3.00002 14.8 3.00002 15.1 3.10002 15.4C3.20002 15.5 3.20002 15.6 3.30002 15.7L8.30002 20.7C8.50002 20.9 8.70002 21 9.00002 21C9.30002 21 9.50002 20.9 9.70002 20.7C10.1 20.3 10.1 19.7 9.70002 19.3L6.40002 16H16C18.8 16 21 13.8 21 11V4C21 3.4 20.6 3 20 3Z" fill="#464454"/>
</svg>
