<svg width="24" height="24" viewBox="0 0 24 24" fill="none" xmlns="http://www.w3.org/2000/svg">
<path d="M15 8H9C8.4 8 8 8.4 8 9V15C8 15.6 8.4 16 9 16H15C15.6 16 16 15.6 16 15V9C16 8.4 15.6 8 15 8ZM14 14H10V10H14V14Z" fill="#464454"/>
<path d="M23 13H21V10H23C23.6 10 24 9.6 24 9C24 8.4 23.6 8 23 8H21V6C21 4.3 19.7 3 18 3H16V1C16 0.4 15.6 0 15 0C14.4 0 14 0.4 14 1V3H10V1C10 0.4 9.6 0 9 0C8.4 0 8 0.4 8 1V3H6C4.3 3 3 4.3 3 6V8H1C0.4 8 0 8.4 0 9C0 9.6 0.4 10 1 10H3V13H1C0.4 13 0 13.4 0 14C0 14.6 0.4 15 1 15H3V18C3 19.7 4.3 21 6 21H8V23C8 23.6 8.4 24 9 24C9.6 24 10 23.6 10 23V21H14V23C14 23.6 14.4 24 15 24C15.6 24 16 23.6 16 23V21H18C19.7 21 21 19.7 21 18V15H23C23.6 15 24 14.6 24 14C24 13.4 23.6 13 23 13ZM19 18C19 18.6 18.6 19 18 19H6C5.4 19 5 18.6 5 18V6C5 5.4 5.4 5 6 5H18C18.6 5 19 5.4 19 6V18Z" fill="#464454"/>
</svg>
