<svg width="24" height="24" viewBox="0 0 24 24" fill="none" xmlns="http://www.w3.org/2000/svg">
<path d="M12 1C5.9 1 1 5.9 1 12C1 18.1 5.9 23 12 23C18.1 23 23 18.1 23 12C23 5.9 18.1 1 12 1ZM13 20.9V18C13 17.4 12.6 17 12 17C11.4 17 11 17.4 11 18V20.9C6.8 20.4 3.5 17.1 3.1 13H6C6.6 13 7 12.6 7 12C7 11.4 6.6 11 6 11H3.1C3.5 6.8 6.8 3.5 11 3.1V6C11 6.6 11.4 7 12 7C12.6 7 13 6.6 13 6V3.1C17.2 3.6 20.5 6.9 20.9 11H18C17.4 11 17 11.4 17 12C17 12.6 17.4 13 18 13H20.9C20.5 17.2 17.2 20.5 13 20.9Z" fill="#464454"/>
</svg>
