<svg width="24" height="24" viewBox="0 0 24 24" fill="none" xmlns="http://www.w3.org/2000/svg">
<path d="M18 2H10.9H6C4.9 2 4 2.9 4 4V5C4 6.1 4.8 6.9 5.9 7V12.4C5.9 12.7 6 12.9 6.2 13.1L8.7 15.5V19C8.1 19 7.7 19.4 7.7 20V21C7.7 21.6 8.1 22 8.7 22H10.7C11.3 22 11.7 21.6 11.7 21V20C11.7 19.4 11.3 19 10.7 19V15.5L12.1 14.2L13.5 15.5V19C12.9 19 12.5 19.4 12.5 20V21C12.5 21.6 12.9 22 13.5 22H15.5C16.1 22 16.5 21.6 16.5 21V20C16.5 19.4 16.1 19 15.5 19V15.5L18 13.1C18.2 12.9 18.3 12.6 18.3 12.4V7C19.3 6.9 20 6 20 5V4C20 2.9 19.1 2 18 2ZM18 4V5H17.3H12.5H11.6H10.9V4H18ZM16.3 9H12.6V7H16.3V9ZM7.9 7H10.7V9H7.9V7ZM6 4H8.9V5H6.9H6V4ZM7.9 11H10.7V12.4C10.7 12.5 10.7 12.6 10.8 12.7L9.8 13.7L7.9 11.9V11ZM14.5 13.7L12.6 11.9V11H16.3V11.9L14.5 13.7Z" fill="#464454"/>
</svg>
