<svg width="24" height="24" viewBox="0 0 24 24" fill="none" xmlns="http://www.w3.org/2000/svg">
<mask id="mask0_336_6614" style="mask-type:alpha" maskUnits="userSpaceOnUse" x="0" y="0" width="24" height="24">
<rect width="24" height="24" fill="#D9D9D9"/>
</mask>
<g mask="url(#mask0_336_6614)">
<path d="M11.9941 23.1536C10.1274 23.1536 8.35517 22.6519 6.67739 21.6485C4.9996 20.6451 3.65407 19.4437 2.64079 18.0443V20.2405C2.64079 20.5007 2.55398 20.7179 2.38036 20.8922C2.20676 21.0664 1.99122 21.1536 1.73374 21.1536C1.47624 21.1536 1.26069 21.0664 1.08709 20.8922C0.913468 20.7179 0.82666 20.5007 0.82666 20.2405V15.8733C0.82666 15.6039 0.917118 15.3787 1.09804 15.1978C1.27895 15.0169 1.50414 14.9264 1.77359 14.9264H6.14079C6.40092 14.9264 6.61813 15.0132 6.79241 15.1868C6.96668 15.3604 7.05381 15.576 7.05381 15.8335C7.05381 16.0909 6.96668 16.3065 6.79241 16.4801C6.61813 16.6537 6.40092 16.7405 6.14079 16.7405H3.94546C4.77879 17.9748 5.9332 19.0489 7.40869 19.9627C8.88419 20.8766 10.4126 21.3335 11.994 21.3335C14.4119 21.3335 16.5083 20.526 18.2834 18.911C20.0584 17.296 21.0593 15.2994 21.2861 12.9211C21.3123 12.669 21.4125 12.4591 21.5868 12.2914C21.7611 12.1238 21.9743 12.04 22.2265 12.04C22.4959 12.04 22.7168 12.1333 22.8891 12.3199C23.0613 12.5065 23.1337 12.7222 23.1062 12.967C22.982 14.3985 22.6054 15.7329 21.9762 16.9702C21.347 18.2075 20.5355 19.2845 19.5417 20.2012C18.5478 21.1179 17.4035 21.8391 16.1088 22.3649C14.8141 22.8907 13.4425 23.1536 11.9941 23.1536ZM1.77356 11.9603C1.50811 11.9603 1.28759 11.867 1.11199 11.6804C0.936385 11.4938 0.861685 11.2781 0.887885 11.0333C1.01095 9.61106 1.38402 8.2813 2.00709 7.04398C2.63017 5.80666 3.43829 4.72867 4.43146 3.81C5.42464 2.89134 6.56993 2.16779 7.86734 1.63935C9.16474 1.1109 10.5423 0.84668 12 0.84668C13.8667 0.84668 15.6409 1.3497 17.3227 2.35575C19.0045 3.36179 20.348 4.56185 21.3533 5.95593V3.75973C21.3533 3.49958 21.4401 3.28237 21.6137 3.1081C21.7873 2.93382 22.0029 2.84668 22.2604 2.84668C22.5205 2.84668 22.7377 2.93382 22.912 3.1081C23.0863 3.28237 23.1734 3.49958 23.1734 3.75973V8.12695C23.1734 8.39639 23.083 8.62156 22.902 8.80248C22.7211 8.9834 22.4959 9.07385 22.2265 9.07385H17.8533C17.5958 9.07385 17.3803 8.98705 17.2066 8.81345C17.033 8.63984 16.9462 8.42429 16.9462 8.1668C16.9462 7.90932 17.033 7.69377 17.2066 7.52015C17.3803 7.34654 17.5958 7.25973 17.8533 7.25973H20.0546C19.2093 6.01348 18.0484 4.93643 16.5718 4.02858C15.0952 3.12071 13.5713 2.66678 12 2.66678C9.58215 2.66678 7.48571 3.47427 5.71071 5.08925C3.93571 6.70424 2.93614 8.69953 2.71199 11.0751C2.68577 11.33 2.58552 11.5412 2.41124 11.7088C2.23697 11.8765 2.02439 11.9603 1.77356 11.9603ZM11.975 19.1168C11.7657 19.1168 11.5804 19.0412 11.419 18.89C11.2576 18.7388 11.1769 18.5559 11.1769 18.3413V17.8114C10.5608 17.6625 10.0237 17.4144 9.56544 17.0672C9.10722 16.7199 8.72056 16.2652 8.40546 15.703C8.28638 15.498 8.26857 15.2922 8.35204 15.0858C8.43549 14.8794 8.59563 14.7312 8.83246 14.6413C9.01796 14.5748 9.19836 14.5835 9.37366 14.6673C9.54896 14.751 9.69126 14.8822 9.80056 15.0608C10.041 15.5126 10.3691 15.8588 10.7846 16.0994C11.2002 16.34 11.6609 16.4603 12.1667 16.4603C12.7887 16.4603 13.307 16.2955 13.7216 15.9661C14.1362 15.6366 14.3435 15.2035 14.3435 14.6668C14.3435 14.1608 14.1533 13.7506 13.773 13.4364C13.3926 13.1221 12.6549 12.7604 11.5598 12.3512C10.4242 11.9324 9.63202 11.4766 9.18328 10.984C8.73455 10.4914 8.51019 9.83563 8.51019 9.01678C8.51019 8.28901 8.74853 7.66347 9.22521 7.14015C9.70191 6.61686 10.3691 6.28177 11.2269 6.1349V5.6677C11.2269 5.44245 11.3086 5.25821 11.472 5.11498C11.6354 4.97175 11.8197 4.90013 12.025 4.90013C12.2304 4.90013 12.4119 4.97175 12.5698 5.11498C12.7276 5.25821 12.8066 5.44245 12.8066 5.6677V6.1349C13.305 6.18732 13.7516 6.33343 14.1464 6.57323C14.5412 6.81301 14.8788 7.1308 15.1593 7.52658C15.2868 7.70653 15.3179 7.90088 15.2524 8.10963C15.1869 8.31838 15.0474 8.47385 14.8339 8.57603C14.6635 8.66866 14.4827 8.68913 14.2915 8.63743C14.1004 8.58575 13.9334 8.47549 13.7908 8.30665C13.5757 8.03467 13.3219 7.83056 13.0295 7.69433C12.737 7.5581 12.4012 7.48998 12.0221 7.48998C11.4196 7.48998 10.9469 7.62322 10.6041 7.8897C10.2613 8.15619 10.0899 8.52325 10.0899 8.99088C10.0899 9.49535 10.281 9.90247 10.6633 10.2123C11.0455 10.5221 11.7513 10.8492 12.7806 11.1936C13.9677 11.5936 14.7883 12.0674 15.2422 12.6149C15.6962 13.1624 15.9232 13.8464 15.9232 14.6668C15.9232 15.5936 15.6302 16.3265 15.0442 16.8654C14.4583 17.4042 13.6957 17.7362 12.7566 17.8614V18.3326C12.7566 18.5538 12.6786 18.7398 12.5228 18.8906C12.3669 19.0414 12.1843 19.1168 11.975 19.1168Z" fill="#464454"/>
</g>
</svg>
