<svg width="24" height="24" viewBox="0 0 24 24" fill="none" xmlns="http://www.w3.org/2000/svg">
<path d="M22.335 12.3291L18.335 10.3291C18.124 10.2236 17.876 10.2236 17.665 10.3291L13.665 12.3291C13.4102 12.456 13.25 12.7158 13.25 13C13.25 16.3652 14.8574 19.5801 17.5498 21.6001C17.6836 21.7002 17.8418 21.75 18 21.75C18.1582 21.75 18.3164 21.7002 18.4502 21.6001C21.1426 19.5801 22.75 16.3652 22.75 13C22.75 12.7158 22.5898 12.456 22.335 12.3291ZM18 20.0395C16.0713 18.3921 14.8896 15.9936 14.7617 13.458L18 11.8384L21.2383 13.458C21.1103 15.9936 19.9287 18.3921 18 20.0395ZM6 6.49999C6 7.05224 5.55231 7.49999 5 7.49999C4.44769 7.49999 4 7.05224 4 6.49999C4 5.94768 4.44769 5.49999 5 5.49999C5.55231 5.49999 6 5.94768 6 6.49999ZM14.9093 20.8135C13.5613 21.0895 11.8365 21.25 10 21.25C5.6792 21.25 3.01123 20.3931 2.75 20V15.6802C5.07568 16.71 9.35303 16.75 10 16.75C10.8856 16.75 11.7571 16.71 12.5899 16.6407C12.4352 16.1585 12.313 15.6671 12.2201 15.167C11.5033 15.2201 10.7574 15.25 10 15.25C5.6792 15.25 3.01123 14.3931 2.75 14V9.67004C5.07336 10.7042 9.35217 10.75 10 10.75C10.457 10.75 12.7196 10.7255 14.829 10.3492L17.1055 9.21094C17.6215 8.95288 18.2199 8.94324 18.75 9.15869V5C18.75 2.53809 14.3486 1.25 10 1.25C5.65186 1.24999 1.25 2.53808 1.25 4.99999V20C1.25 22.6728 9.10449 22.75 10 22.75C12.3955 22.75 14.5834 22.4946 16.1553 22.0536C15.7101 21.667 15.2895 21.2576 14.9093 20.8135ZM2.75 4.99999C2.75 4.10448 5.6416 2.74999 10 2.74999C14.3584 2.74999 17.25 4.10448 17.25 4.99999L17.2676 7.91295C16.9882 8.39293 14.3202 9.24998 10 9.24998C5.6792 9.24998 3.01123 8.39305 2.75 7.99998V4.99999ZM5 11.5C5.55231 11.5 6 11.9477 6 12.5C6 13.0522 5.55231 13.5 5 13.5C4.44769 13.5 4 13.0522 4 12.5C4 11.9477 4.44769 11.5 5 11.5ZM5 17.5C5.55231 17.5 6 17.9477 6 18.5C6 19.0522 5.55231 19.5 5 19.5C4.44769 19.5 4 19.0522 4 18.5C4 17.9477 4.44769 17.5 5 17.5Z" fill="#464454" stroke="#464454" stroke-width="0.3"/>
</svg>
