<svg width="25" height="24" viewBox="0 0 25 24" fill="none" xmlns="http://www.w3.org/2000/svg">
<path d="M22 3H8.99998C8.69998 3 8.39998 3.1 8.19998 3.3L1.19998 11.3C0.899976 11.7 0.899976 12.2 1.19998 12.6L8.19998 20.6C8.39998 20.9 8.69998 21 8.99998 21H22C23.7 21 25 19.7 25 18V6C25 4.3 23.7 3 22 3ZM23 18C23 18.6 22.6 19 22 19H9.49998L3.39998 12L9.49998 5H22C22.6 5 23 5.4 23 6V18Z" fill="#464454"/>
<path d="M19.7 8.3C19.3 7.9 18.7 7.9 18.3 8.3L16 10.6L13.7 8.3C13.3 7.9 12.7 7.9 12.3 8.3C11.9 8.7 11.9 9.3 12.3 9.7L14.6 12L12.3 14.3C11.9 14.7 11.9 15.3 12.3 15.7C12.5 15.9 12.8 16 13 16C13.2 16 13.5 15.9 13.7 15.7L16 13.4L18.3 15.7C18.5 15.9 18.8 16 19 16C19.2 16 19.5 15.9 19.7 15.7C20.1 15.3 20.1 14.7 19.7 14.3L17.4 12L19.7 9.7C20.1 9.3 20.1 8.7 19.7 8.3Z" fill="#464454"/>
</svg>
