<svg width="24" height="24" viewBox="0 0 24 24" fill="none" xmlns="http://www.w3.org/2000/svg">
<path d="M22.7168 13.0568L22.4369 12.4078C22.3714 12.2724 22.3373 12.1239 22.3373 11.9735C22.3373 11.8231 22.3714 11.6746 22.4369 11.5392L22.7168 10.9002C23.0406 10.162 23.0776 9.32976 22.8207 8.5657C22.5639 7.80163 22.0315 7.16039 21.3272 6.76682L20.7074 6.41737C20.5754 6.34142 20.4604 6.23937 20.3693 6.11749C20.2782 5.9956 20.213 5.85644 20.1776 5.7085L19.9976 4.98965C19.7962 4.20009 19.3187 3.50849 18.6513 3.03976C17.984 2.57103 17.1708 2.35608 16.3587 2.43372L15.6289 2.50361C15.4764 2.5186 15.3224 2.50243 15.1763 2.45609C15.0302 2.40975 14.8951 2.3342 14.7792 2.23404L14.2493 1.81471C13.6183 1.28834 12.8222 1 12 1C11.1778 1 10.3817 1.28834 9.75067 1.81471L9.20084 2.27398C8.96381 2.47139 8.65874 2.56817 8.35109 2.54355L7.62131 2.47366C6.81815 2.40108 6.01508 2.61353 5.35322 3.07368C4.69136 3.53382 4.21307 4.21222 4.00239 4.98965L3.84244 5.66857C3.80864 5.81586 3.74394 5.95431 3.6526 6.07479C3.56127 6.19526 3.44538 6.29501 3.3126 6.36745L2.69279 6.72688C1.97527 7.11789 1.43169 7.76463 1.17043 8.53813C0.909177 9.31163 0.949445 10.1551 1.28321 10.9002L1.56312 11.5492C1.62708 11.6833 1.66027 11.83 1.66027 11.9785C1.66027 12.1271 1.62708 12.2737 1.56312 12.4078L1.28321 13.0568C0.95945 13.7951 0.922396 14.6273 1.17926 15.3913C1.43613 16.1554 1.96853 16.7966 2.67279 17.1902L3.29261 17.5396C3.42455 17.6156 3.53959 17.7177 3.6307 17.8395C3.7218 17.9614 3.78705 18.1006 3.82245 18.2485L4.00239 18.9674C4.20567 19.7559 4.68361 20.4463 5.35049 20.9147C6.01736 21.3831 6.82953 21.5989 7.6413 21.5233L8.37109 21.4534C8.67874 21.4288 8.9838 21.5256 9.22083 21.723L9.77067 22.1823C10.4009 22.7105 11.1973 23 12.02 23C12.8427 23 13.6391 22.7105 14.2693 22.1823L14.8192 21.723C15.0562 21.5256 15.3612 21.4288 15.6689 21.4534L16.3987 21.5233C17.2036 21.587 18.0052 21.3658 18.6632 20.8985C19.3212 20.4312 19.7936 19.7476 19.9976 18.9674L20.1576 18.2885C20.193 18.1405 20.2582 18.0014 20.3493 17.8795C20.4404 17.7576 20.5555 17.6555 20.6874 17.5796L21.3072 17.2301C22.0247 16.8391 22.5683 16.1924 22.8296 15.4189C23.0908 14.6454 23.0506 13.802 22.7168 13.0568ZM20.1676 15.2932L19.5377 15.6527C19.1533 15.8834 18.819 16.1886 18.5546 16.5504C18.2902 16.9123 18.101 17.3233 17.9982 17.7593L17.8383 18.4482C17.7685 18.711 17.6076 18.9405 17.3842 19.0959C17.1609 19.2513 16.8896 19.3225 16.6186 19.2969L15.8988 19.227C14.9724 19.1493 14.0527 19.44 13.3396 20.0357L12.7898 20.4949C12.5786 20.6686 12.3135 20.7635 12.04 20.7635C11.7664 20.7635 11.5014 20.6686 11.2902 20.4949L10.7404 20.0357C10.1112 19.5056 9.31419 19.2155 8.49105 19.217H8.14115L7.42137 19.2869C7.15039 19.3125 6.87908 19.2413 6.65575 19.0859C6.43241 18.9305 6.27153 18.701 6.20174 18.4382L6.00179 17.7593C5.89422 17.3187 5.69777 16.9046 5.42447 16.5423C5.15116 16.1801 4.80674 15.8774 4.41227 15.6527L3.79246 15.3032C3.57659 15.1672 3.41598 14.9591 3.33911 14.716C3.26225 14.4729 3.2741 14.2105 3.37258 13.9753L3.6525 13.3264C3.83562 12.9181 3.93028 12.4758 3.93028 12.0284C3.93028 11.5811 3.83562 11.1388 3.6525 10.7305L3.37258 10.0815C3.26361 9.83594 3.25036 9.55856 3.33542 9.30372C3.42048 9.04887 3.59772 8.83491 3.83244 8.70373L4.46226 8.35429C4.85199 8.11799 5.18947 7.80493 5.45415 7.43417C5.71883 7.06341 5.90516 6.64272 6.00179 6.19772L6.16175 5.50882C6.23154 5.24607 6.39242 5.01656 6.61576 4.86116C6.8391 4.70576 7.1104 4.63454 7.38138 4.66017L8.10117 4.73006C8.56645 4.77387 9.03581 4.72494 9.48201 4.58611C9.9282 4.44728 10.3423 4.22132 10.7004 3.92135L11.2502 3.46208C11.4614 3.28844 11.7265 3.1935 12 3.1935C12.2735 3.1935 12.5386 3.28844 12.7498 3.46208L13.2996 3.92135C14.0132 4.51611 14.9325 4.8066 15.8588 4.73006L16.5786 4.66017C16.8496 4.63454 17.1209 4.70576 17.3443 4.86116C17.5676 5.01656 17.7285 5.24607 17.7983 5.50882L17.9582 6.19772C18.0658 6.63837 18.2622 7.05246 18.5355 7.41468C18.8089 7.7769 19.1533 8.07964 19.5477 8.30437L20.1676 8.65381C20.4023 8.78499 20.5795 8.99895 20.6646 9.2538C20.7496 9.50864 20.7364 9.78602 20.6274 10.0316L20.3475 10.6806C20.1644 11.0888 20.0697 11.5312 20.0697 11.9785C20.0697 12.4259 20.1644 12.8682 20.3475 13.2764L20.6274 13.9254C20.7358 14.1695 20.7488 14.4454 20.6636 14.6986C20.5785 14.9518 20.4015 15.1639 20.1676 15.2932ZM10.1705 11.3595C10.5163 11.1491 10.8021 10.8534 11.0003 10.5009C11.2027 10.141 11.3093 9.73544 11.3102 9.32275C11.3183 8.90578 11.2111 8.49465 11.0003 8.13464C10.7916 7.79466 10.5034 7.51031 10.1606 7.30596C9.80443 7.09705 9.39891 6.98691 8.9859 6.98691C8.57289 6.98691 8.16737 7.09705 7.81125 7.30596C7.47571 7.50961 7.19717 7.79467 7.0015 8.13464C6.78833 8.4946 6.6745 8.90455 6.67159 9.32275C6.66846 9.74176 6.78273 10.1533 7.0015 10.5109C7.20479 10.8637 7.49797 11.1565 7.85124 11.3595C8.20935 11.5625 8.6141 11.6693 9.02589 11.6693C9.43768 11.6693 9.84243 11.5625 10.2005 11.3595H10.1705ZM8.25112 9.75206C8.17115 9.62322 8.12954 9.47432 8.13116 9.32275C8.13089 9.17449 8.17247 9.02915 8.25112 8.90341C8.32541 8.77743 8.43252 8.67392 8.56103 8.60389C8.69267 8.52163 8.84567 8.47996 9.0009 8.48408C9.15267 8.48247 9.30177 8.52402 9.43077 8.60389C9.55604 8.67834 9.66029 8.78337 9.73374 8.90912C9.80719 9.03487 9.84742 9.1772 9.85064 9.32275C9.85088 9.47283 9.81305 9.62053 9.74068 9.75206C9.66386 9.87866 9.55754 9.98485 9.43077 10.0616C9.29906 10.1338 9.15118 10.1716 9.0009 10.1714C8.85395 10.1704 8.7096 10.1326 8.58102 10.0616C8.44696 9.98746 8.33356 9.88107 8.25112 9.75206ZM15.6589 7.42577L10.4405 16.8208C10.3995 16.892 10.3394 16.9503 10.267 16.9892C10.1945 17.028 10.1126 17.0457 10.0306 17.0404H8.63101C8.58708 17.0462 8.54245 17.0424 8.5001 17.0294C8.45776 17.0164 8.41869 16.9946 8.38553 16.9652C8.35237 16.9359 8.32589 16.8998 8.30788 16.8594C8.28987 16.819 8.28074 16.7752 8.28111 16.7309C8.26493 16.662 8.26493 16.5902 8.28111 16.5213L13.5095 7.13623C13.5555 7.05074 13.6284 6.98283 13.717 6.94309C13.8056 6.90336 13.9049 6.89404 13.9994 6.91658H15.399C15.4706 6.92198 15.5396 6.94608 15.5989 6.98647C15.6368 7.0138 15.6674 7.04987 15.6883 7.09159C15.7092 7.13331 15.7197 7.17945 15.7189 7.22609C15.716 7.29663 15.6954 7.36531 15.6589 7.42577ZM16.1987 12.6075C15.8354 12.3941 15.4206 12.2837 14.9991 12.288C14.5949 12.2906 14.1983 12.3977 13.8479 12.5989C13.4975 12.8001 13.2052 13.0886 12.9997 13.4362C12.7819 13.7942 12.6677 14.2054 12.6698 14.6243C12.6737 15.0424 12.7874 15.4521 12.9997 15.8124C13.2071 16.1628 13.5038 16.4522 13.8594 16.6511C14.2139 16.8543 14.6153 16.9618 15.024 16.9627C15.4327 16.9636 15.8346 16.8581 16.19 16.6564C16.5453 16.4548 16.8419 16.164 17.0503 15.8129C17.2587 15.4618 17.3718 15.0624 17.3784 14.6543C17.3658 14.2212 17.2344 13.7998 16.9985 13.4362C16.8067 13.0966 16.5314 12.8115 16.1987 12.6075ZM15.7489 15.0536C15.6813 15.1813 15.5768 15.2856 15.449 15.3531C15.3187 15.429 15.1698 15.467 15.0191 15.463C14.8716 15.4668 14.726 15.4287 14.5992 15.3531C14.4688 15.2858 14.361 15.1816 14.2893 15.0536C14.2103 14.9243 14.1688 14.7757 14.1694 14.6243C14.1691 14.476 14.2107 14.3307 14.2893 14.205C14.3634 14.0762 14.4703 13.9694 14.5992 13.8955C14.7275 13.8238 14.8721 13.7861 15.0191 13.7861C15.1661 13.7861 15.3107 13.8238 15.439 13.8955C15.5657 13.9722 15.6721 14.0784 15.7489 14.205C15.8275 14.3307 15.8691 14.476 15.8688 14.6243C15.8694 14.7757 15.8279 14.9243 15.7489 15.0536Z" fill="#464454"/>
</svg>
