<svg width="26" height="24" viewBox="0 0 26 24" fill="none" xmlns="http://www.w3.org/2000/svg">
<path d="M16.3 16.3L14 18.6V12C14 11.4 13.6 11 13 11C12.4 11 12 11.4 12 12V18.6L9.7 16.3C9.3 15.9 8.7 15.9 8.3 16.3C7.9 16.7 7.9 17.3 8.3 17.7L12.3 21.7C12.4 21.8 12.5 21.9 12.6 21.9C12.7 22 12.9 22 13 22C13.1 22 13.3 22 13.4 21.9C13.5 21.8 13.6 21.8 13.7 21.7L17.7 17.7C18.1 17.3 18.1 16.7 17.7 16.3C17.3 15.9 16.7 15.9 16.3 16.3Z" fill="#464454"/>
<path d="M23.9 10.5001C22.8 9.00006 21 8.00006 19 8.00006H18.5C17 3.60006 12.3 1.10006 7.79998 2.30006C5.39998 2.90006 3.49998 4.30006 2.19998 6.40006C0.999975 8.50006 0.599975 10.9001 1.19998 13.2001C1.59998 14.6001 2.19998 15.9001 3.19998 16.9001C3.59998 17.3001 4.19998 17.4001 4.59998 17.0001C4.99998 16.6001 5.09998 16.0001 4.69998 15.6001C3.99998 14.8001 3.39998 13.8001 3.19998 12.7001C2.69998 10.9001 2.99998 9.00006 3.99998 7.40006C4.99998 5.80006 6.49998 4.60006 8.29998 4.20006C12 3.20006 15.9 5.50006 16.8 9.20006C16.9 9.60006 17.3 10.0001 17.8 10.0001H19C20.3 10.0001 21.5 10.6001 22.3 11.7001C22.9 12.6001 23.2 13.6001 23 14.7001C22.8 15.8001 22.2 16.7001 21.4 17.3001C20.9 17.6001 20.8 18.2001 21.2 18.7001C21.4 19.0001 21.7 19.1001 22 19.1001C22.2 19.1001 22.4 19.0001 22.6 18.9001C23.9 18.0001 24.8 16.6001 25.1 15.0001C25.4 13.4001 24.8 11.9001 23.9 10.5001Z" fill="#464454"/>
</svg>
