<svg width="24" height="24" viewBox="0 0 24 24" fill="none" xmlns="http://www.w3.org/2000/svg">
<path d="M18.4 7.60019L12.7 2.0002C12.5 1.8002 12.3 1.7002 12 1.7002C11.7 1.7002 11.5 1.8002 11.3 2.0002L5.7 7.60019C3.9 9.30019 3 11.6002 3 14.0002C3 16.4002 3.9 18.7002 5.6 20.4002C7.3 22.1002 9.6 23.0002 12 23.0002C14.4 23.0002 16.7 22.1002 18.4 20.4002C21.9 16.9002 21.9 11.2002 18.4 7.60019ZM17 19.0002C15.6 20.3002 13.9 21.0002 12 21.0002C10.1 21.0002 8.4 20.3002 7.1 19.0002C5.7 17.6002 5 15.9002 5 14.0002C5 12.1002 5.7 10.4002 7 9.1002L11.9 4.1002L16.9 9.1002C19.7 11.8002 19.7 16.2002 17 19.0002Z" fill="#464454"/>
</svg>
