<svg width="24" height="24" viewBox="0 0 24 24" fill="none" xmlns="http://www.w3.org/2000/svg">
<path d="M3 4.80874V19.1343C3 19.1913 3.03995 19.2401 3.09587 19.2482L13.2024 20.9972C13.2743 21.0135 13.3382 20.9565 13.3382 20.8833V3.11668C13.3382 3.04347 13.2743 2.98653 13.2024 3.0028L3.09587 4.69486C3.03995 4.70299 3 4.7518 3 4.80874Z" stroke="#464454" stroke-width="1.7" stroke-miterlimit="10"/>
<path d="M13.4825 18.5567L20.8887 18.5323C20.9526 18.5323 21.0005 18.4753 21.0005 18.4103V4.33687C21.0005 4.27179 20.9446 4.21484 20.8807 4.21484L13.3387 4.23925" stroke="#464454" stroke-width="1.7" stroke-miterlimit="10"/>
<path d="M13.3369 7.11914H20.9428" stroke="#464454" stroke-width="1.7" stroke-miterlimit="10"/>
<path d="M13.3369 9.96631H20.9428" stroke="#464454" stroke-width="1.7" stroke-miterlimit="10"/>
<path d="M13.3369 12.8135H20.9428" stroke="#464454" stroke-width="1.7" stroke-miterlimit="10"/>
<path d="M13.3369 15.6606H20.9428" stroke="#464454" stroke-width="1.7" stroke-miterlimit="10"/>
<path d="M16.9487 3.86523V18.5081" stroke="#464454" stroke-width="1.7" stroke-miterlimit="10"/>
<path d="M5.7478 7.94092L10.5494 15.2542" stroke="#464454" stroke-width="1.7" stroke-miterlimit="10" stroke-linecap="round" stroke-linejoin="round"/>
<path d="M10.5435 7.93262L5.75793 15.254" stroke="#464454" stroke-width="1.7" stroke-miterlimit="10" stroke-linecap="round" stroke-linejoin="round"/>
</svg>
