<svg width="24" height="24" viewBox="0 0 24 24" fill="none" xmlns="http://www.w3.org/2000/svg">
<path d="M18 12C17.4 12 17 12.4 17 13V19C17 19.6 16.6 20 16 20H5C4.4 20 4 19.6 4 19V8C4 7.4 4.4 7 5 7H11C11.6 7 12 6.6 12 6C12 5.4 11.6 5 11 5H5C3.3 5 2 6.3 2 8V19C2 20.7 3.3 22 5 22H16C17.7 22 19 20.7 19 19V13C19 12.4 18.6 12 18 12Z" fill="#464454"/>
<path d="M21.9 2.6C21.8 2.4 21.6 2.2 21.4 2.1C21.3 2 21.1 2 21 2H15C14.4 2 14 2.4 14 3C14 3.6 14.4 4 15 4H18.6L9.3 13.3C8.9 13.7 8.9 14.3 9.3 14.7C9.5 14.9 9.7 15 10 15C10.3 15 10.5 14.9 10.7 14.7L20 5.4V9C20 9.6 20.4 10 21 10C21.6 10 22 9.6 22 9V3C22 2.9 22 2.7 21.9 2.6Z" fill="#464454"/>
</svg>
