<svg width="26" height="24" viewBox="0 0 26 24" fill="none" xmlns="http://www.w3.org/2000/svg">
<path d="M11.1 5.2C11.7 5.1 12.4 5 13 5C18.4 5 21.9 10.4 22.9 12C22.4 12.9 21.8 13.8 21.1 14.5C20.7 14.9 20.8 15.6 21.2 15.9C21.4 16.1 21.6 16.1 21.8 16.1C22.1 16.1 22.4 16 22.6 15.7C23.5 14.7 24.2 13.5 24.9 12.3C25.1 12 25.1 11.7 24.9 11.4C24.7 11.2 20.5 3 13 3C12.2 3 11.4 3.1 10.7 3.3C10.1 3.4 9.79999 3.9 9.89999 4.5C10.1 5 10.6 5.3 11.1 5.2Z" fill="#464454"/>
<path d="M24.7 22.3L2.70001 0.3C2.30001 -0.1 1.70001 -0.1 1.30001 0.3C0.900012 0.7 0.900012 1.3 1.30001 1.7L5.60001 6C3.80001 7.6 2.30001 9.4 1.10001 11.5C0.900012 11.8 0.900012 12.1 1.10001 12.4C1.30001 12.8 5.50001 21 13 21C15.1 21 17.1 20.4 18.8 19.2L23.3 23.7C23.5 23.9 23.8 24 24 24C24.2 24 24.5 23.9 24.7 23.7C25.1 23.3 25.1 22.7 24.7 22.3ZM11 11.4L13.5 13.9C13.3 14 13.1 14 12.9 14C12.4 14 11.9 13.8 11.5 13.5C11.1 13.1 10.9 12.6 10.9 12.1C10.9 11.9 11 11.7 11 11.4ZM13 19C7.60001 19 4.10001 13.6 3.10001 12C4.10001 10.2 5.40001 8.7 7.00001 7.4L9.50001 10C9.10001 10.7 8.90001 11.5 8.90001 12.3C8.90001 13.4 9.40001 14.4 10.2 15.1C10.9 15.8 11.9 16.2 12.9 16.2H13C13.7 16.2 14.4 15.9 15 15.6L17.3 17.9C16 18.6 14.5 19 13 19Z" fill="#464454"/>
</svg>
