<svg width="24" height="24" viewBox="0 0 24 24" fill="none" xmlns="http://www.w3.org/2000/svg">
<path d="M22.6 11.2002L13.6 4.20023C13.3 4.00023 12.9 3.90023 12.5 4.10023C12.2 4.30023 12 4.60023 12 5.00023V12.0002V19.0002C12 19.4002 12.2 19.7002 12.6 19.9002C12.7 20.0002 12.9 20.0002 13 20.0002C13.2 20.0002 13.4 19.9002 13.6 19.8002L22.6 12.8002C22.8 12.6002 23 12.3002 23 12.0002C23 11.7002 22.9 11.4002 22.6 11.2002ZM14 17.0002V7.00023L20.4 12.0002L14 17.0002Z" fill="#464454"/>
<path d="M2.6 4.20023C2.3 4.00023 1.9 3.90023 1.6 4.10023C1.2 4.30023 1 4.60023 1 5.00023V19.0002C1 19.4002 1.2 19.7002 1.6 19.9002C1.7 20.0002 1.9 20.0002 2 20.0002C2.2 20.0002 2.4 19.9002 2.6 19.8002L11.6 12.8002C11.8 12.6002 12 12.3002 12 12.0002C12 11.7002 11.9 11.4002 11.6 11.2002L2.6 4.20023ZM3 17.0002V7.00023L9.4 12.0002L3 17.0002Z" fill="#464454"/>
</svg>
