<svg width="24" height="24" viewBox="0 0 24 24" fill="none" xmlns="http://www.w3.org/2000/svg">
<path d="M20.9 3.0001C18.2 0.300098 13.7 0.300098 11 3.0001L4.3 9.8001C4.1 10.0001 4 10.2001 4 10.5001V18.6001L1.3 21.3001C0.9 21.7001 0.9 22.3001 1.3 22.7001C1.5 22.9001 1.7 23.0001 2 23.0001C2.3 23.0001 2.5 22.9001 2.7 22.7001L5.4 20.0001H13.5C13.8 20.0001 14 19.9001 14.2 19.7001L20.9 12.9001C23.7 10.2001 23.7 5.8001 20.9 3.0001ZM13.1 18.0001H7.4L9.4 16.0001H15.1L13.1 18.0001ZM19.5 11.5001L17.1 14.0001C17.1 14.0001 17.1 14.0001 17 14.0001H11.4L16.7 8.7001C17.1 8.3001 17.1 7.7001 16.7 7.3001C16.3 6.9001 15.7 6.9001 15.3 7.3001L8.3 14.3001L6 16.6001V10.9001L12.5 4.4001C14.5 2.4001 17.6 2.4001 19.6 4.4001C21.5 6.4001 21.5 9.6001 19.5 11.5001Z" fill="#464454"/>
</svg>
