<svg width="24" height="24" viewBox="0 0 24 24" fill="none" xmlns="http://www.w3.org/2000/svg">
<path d="M20.9 7.6C20.8 7.5 20.8 7.4 20.7 7.3L14.7 1.3C14.6 1.2 14.5 1.1 14.4 1.1C14.3 1 14.1 1 14 1H6C4.3 1 3 2.3 3 4V20C3 21.7 4.3 23 6 23H18C19.7 23 21 21.7 21 20V8C21 7.9 21 7.7 20.9 7.6ZM15 4.4L17.6 7H15V4.4ZM18 21H6C5.4 21 5 20.6 5 20V4C5 3.4 5.4 3 6 3H13V8C13 8.6 13.4 9 14 9H19V20C19 20.6 18.6 21 18 21Z" fill="#464454"/>
<path d="M16 12H8C7.4 12 7 12.4 7 13C7 13.6 7.4 14 8 14H16C16.6 14 17 13.6 17 13C17 12.4 16.6 12 16 12Z" fill="#464454"/>
<path d="M16 16H8C7.4 16 7 16.4 7 17C7 17.6 7.4 18 8 18H16C16.6 18 17 17.6 17 17C17 16.4 16.6 16 16 16Z" fill="#464454"/>
<path d="M8 10H10C10.6 10 11 9.6 11 9C11 8.4 10.6 8 10 8H8C7.4 8 7 8.4 7 9C7 9.6 7.4 10 8 10Z" fill="#464454"/>
</svg>
