<svg width="24" height="24" viewBox="0 0 24 24" fill="none" xmlns="http://www.w3.org/2000/svg">
<path d="M20.9 7.6C20.8 7.5 20.8 7.4 20.7 7.3L14.7 1.3C14.6 1.2 14.5 1.1 14.4 1.1C14.3 1 14.1 1 14 1H6C4.3 1 3 2.3 3 4V20C3 21.7 4.3 23 6 23H18C19.7 23 21 21.7 21 20V8C21 7.9 21 7.7 20.9 7.6ZM15 4.4L17.6 7H15V4.4ZM18 21H6C5.4 21 5 20.6 5 20V4C5 3.4 5.4 3 6 3H13V8C13 8.6 13.4 9 14 9H19V20C19 20.6 18.6 21 18 21Z" fill="#464454"/>
<path d="M15 14H9C8.4 14 8 14.4 8 15C8 15.6 8.4 16 9 16H15C15.6 16 16 15.6 16 15C16 14.4 15.6 14 15 14Z" fill="#464454"/>
</svg>
