<svg width="24" height="24" viewBox="0 0 24 24" fill="none" xmlns="http://www.w3.org/2000/svg">
<path d="M19.4 5.5L16.5 2.6C16.1 2.2 15.6 2 15.1 2H6C4.9 2 4 2.9 4 4V20C4 21.1 4.9 22 6 22H18C19.1 22 20 21.2 20 20.1V6.9C20 6.4 19.8 5.9 19.4 5.5ZM18 20H6V4H13.1V6.8C13.1 8 14 8.9 15.2 8.9H18V20ZM18 6.9H15.2C15.1 6.9 15.1 6.9 15.1 6.8V4L18 6.9ZM9.5 16V17C9.5 17.6 9.1 18 8.5 18C7.9 18 7.5 17.6 7.5 17V16C7.5 15.4 7.9 15 8.5 15C9.1 15 9.5 15.4 9.5 16ZM15.5 13C16.1 13 16.5 13.4 16.5 14V17C16.5 17.6 16.1 18 15.5 18C14.9 18 14.5 17.6 14.5 17V14C14.5 13.4 14.9 13 15.5 13ZM13 12V17C13 17.6 12.6 18 12 18C11.4 18 11 17.6 11 17V12C11 11.4 11.4 11 12 11C12.6 11 13 11.4 13 12Z" fill="#464454"/>
</svg>
