<svg width="24" height="24" viewBox="0 0 24 24" fill="none" xmlns="http://www.w3.org/2000/svg">
<path d="M20.9 7.6C20.8 7.5 20.8 7.4 20.7 7.3L14.7 1.3C14.6 1.2 14.5 1.1 14.4 1.1C14.3 1 14.1 1 14 1H6C4.3 1 3 2.3 3 4V20C3 21.7 4.3 23 6 23H18C19.7 23 21 21.7 21 20V8C21 7.9 21 7.7 20.9 7.6ZM15 4.4L17.6 7H15V4.4ZM18 21H6C5.4 21 5 20.6 5 20V4C5 3.4 5.4 3 6 3H13V8C13 8.6 13.4 9 14 9H19V20C19 20.6 18.6 21 18 21Z" fill="#464454"/>
<path d="M15.3 19.5C14.7 19.5 14.3 19.1 14.3 18.5V18C14.3 17.4 13.9 17 13.3 17H10.7C10.1 17 9.7 17.4 9.7 18V18.5C9.7 19.1 9.3 19.5 8.7 19.5C8.1 19.5 7.7 19.1 7.7 18.5V18C7.7 16.3 9 15 10.7 15H13.2C14.9 15 16.2 16.3 16.2 18V18.5C16.3 19 15.8 19.5 15.3 19.5Z" fill="#464454"/>
<path d="M12 14.2C13.1046 14.2 14 13.3046 14 12.2C14 11.0954 13.1046 10.2 12 10.2C10.8954 10.2 10 11.0954 10 12.2C10 13.3046 10.8954 14.2 12 14.2Z" fill="#464454"/>
</svg>
