<svg width="24" height="24" viewBox="0 0 24 24" fill="none" xmlns="http://www.w3.org/2000/svg">
<path d="M20.9 7.6C20.8 7.5 20.8 7.4 20.7 7.3L14.7 1.3C14.6 1.2 14.5 1.1 14.4 1.1C14.3 1 14.1 1 14 1H6C4.3 1 3 2.3 3 4V20C3 21.7 4.3 23 6 23H18C19.7 23 21 21.7 21 20V8C21 7.9 21 7.7 20.9 7.6ZM15 4.4L17.6 7H15V4.4ZM18 21H6C5.4 21 5 20.6 5 20V4C5 3.4 5.4 3 6 3H13V8C13 8.6 13.4 9 14 9H19V20C19 20.6 18.6 21 18 21ZM13.5 13.2L8.7 18C8.7 18 8.6 18 8.6 18.1L7 18.5C6.9 18.5 6.7 18.4 6.8 18.3L7.2 16.8C7.2 16.8 7.2 16.7 7.3 16.7L12.1 11.9C12.5 11.5 13.1 11.5 13.5 11.9C13.9 12.2 13.9 12.8 13.5 13.2ZM17.2 17.5C17.2 18.1 16.8 18.5 16.2 18.5H12.3C11.7 18.5 11.3 18.1 11.3 17.5C11.3 16.9 11.7 16.5 12.3 16.5H16.2C16.8 16.5 17.2 16.9 17.2 17.5Z" fill="#464454"/>
</svg>
