<svg width="24" height="24" viewBox="0 0 24 24" fill="none" xmlns="http://www.w3.org/2000/svg">
<path d="M20.92 7.61C20.8713 7.49081 20.7999 7.38215 20.71 7.29L14.71 1.29C14.6178 1.20005 14.5092 1.12874 14.39 1.08C14.266 1.02962 14.1338 1.0025 14 1L6 1C5.20435 1 4.44129 1.31607 3.87868 1.87868C3.31607 2.44129 3 3.20435 3 4L3 20C3 20.7956 3.31607 21.5587 3.87868 22.1213C4.44129 22.6839 5.20435 23 6 23H18C18.7956 23 19.5587 22.6839 20.1213 22.1213C20.6839 21.5587 21 20.7956 21 20V8C20.9975 7.86619 20.9704 7.73399 20.92 7.61ZM15 4.41L17.59 7H15V4.41ZM18 21H6C5.73478 21 5.48043 20.8946 5.29289 20.7071C5.10536 20.5196 5 20.2652 5 20V4C5 3.73478 5.10536 3.48043 5.29289 3.29289C5.48043 3.10536 5.73478 3 6 3H13V8C13 8.26522 13.1054 8.51957 13.2929 8.70711C13.4804 8.89464 13.7348 9 14 9H19V20C19 20.2652 18.8946 20.5196 18.7071 20.7071C18.5196 20.8946 18.2652 21 18 21ZM13.1 14.07H12.8V13.17H14C14.2122 13.17 14.4157 13.0857 14.5657 12.9357C14.7157 12.7857 14.8 12.5822 14.8 12.37C14.8 12.1578 14.7157 11.9543 14.5657 11.8043C14.4157 11.6543 14.2122 11.57 14 11.57H12.8V10.94C12.8 10.8349 12.7793 10.7309 12.7391 10.6339C12.6989 10.5368 12.64 10.4486 12.5657 10.3743C12.4914 10.3 12.4032 10.2411 12.3061 10.2009C12.2091 10.1607 12.1051 10.14 12 10.14C11.8949 10.14 11.7909 10.1607 11.6939 10.2009C11.5968 10.2411 11.5086 10.3 11.4343 10.3743C11.36 10.4486 11.3011 10.5368 11.2609 10.6339C11.2207 10.7309 11.2 10.8349 11.2 10.94V11.57H10.9C10.3563 11.57 9.83488 11.786 9.45043 12.1704C9.06598 12.5549 8.85 13.0763 8.85 13.62C8.85 14.1637 9.06598 14.6851 9.45043 15.0696C9.83488 15.454 10.3563 15.67 10.9 15.67H11.2V16.57H9.65C9.43783 16.57 9.23434 16.6543 9.08431 16.8043C8.93429 16.9543 8.85 17.1578 8.85 17.37C8.85 17.5822 8.93429 17.7857 9.08431 17.9357C9.23434 18.0857 9.43783 18.17 9.65 18.17H11.2V18.8C11.2 18.9051 11.2207 19.0091 11.2609 19.1061C11.3011 19.2032 11.36 19.2914 11.4343 19.3657C11.5086 19.44 11.5968 19.4989 11.6939 19.5391C11.7909 19.5793 11.8949 19.6 12 19.6C12.1051 19.6 12.2091 19.5793 12.3061 19.5391C12.4032 19.4989 12.4914 19.44 12.5657 19.3657C12.64 19.2914 12.6989 19.2032 12.7391 19.1061C12.7793 19.0091 12.8 18.9051 12.8 18.8V18.17H13.1C13.6437 18.17 14.1651 17.954 14.5496 17.5696C14.934 17.1851 15.15 16.6637 15.15 16.12C15.15 15.5763 14.934 15.0549 14.5496 14.6704C14.1651 14.286 13.6437 14.07 13.1 14.07ZM10.9 14.07C10.7807 14.07 10.6662 14.0226 10.5818 13.9382C10.4974 13.8538 10.45 13.7393 10.45 13.62C10.45 13.5007 10.4974 13.3862 10.5818 13.3018C10.6662 13.2174 10.7807 13.17 10.9 13.17H11.2V14.07H10.9ZM13.1 16.57H12.8V15.67H13.1C13.2193 15.67 13.3338 15.7174 13.4182 15.8018C13.5026 15.8862 13.55 16.0007 13.55 16.12C13.55 16.2393 13.5026 16.3538 13.4182 16.4382C13.3338 16.5226 13.2193 16.57 13.1 16.57Z" fill="#464454"/>
</svg>
