<svg width="24" height="24" viewBox="0 0 24 24" fill="none" xmlns="http://www.w3.org/2000/svg">
<path d="M20.9 7.6C20.8 7.5 20.8 7.4 20.7 7.3L14.7 1.3C14.6 1.2 14.5 1.1 14.4 1.1C14.3 1 14.1 1 14 1H6C4.3 1 3 2.3 3 4V20C3 21.7 4.3 23 6 23H18C19.7 23 21 21.7 21 20V8C21 7.9 21 7.7 20.9 7.6ZM15 4.4L17.6 7H15V4.4ZM18 21H6C5.4 21 5 20.6 5 20V4C5 3.4 5.4 3 6 3H13V8C13 8.6 13.4 9 14 9H19V20C19 20.6 18.6 21 18 21Z" fill="#464454"/>
<path d="M15.2 13.7C15.2 11.9 13.8 10.5 12 10.5C10.2 10.5 8.8 12 8.8 13.7C8.8 14.694 9.28997 15.6064 10.0485 16.2157C10.1973 16.3353 10.284 16.5199 10.2588 16.7091L10.0335 18.3985C9.97883 18.8088 10.4178 19.1041 10.7772 18.8987L11.7417 18.3476C11.9009 18.2566 12.0971 18.2601 12.253 18.3566L13.2016 18.9438C13.5604 19.166 14.0161 18.871 13.9604 18.4526L13.7412 16.8091C13.716 16.6199 13.8027 16.4353 13.9514 16.3157C14.71 15.7055 15.2 14.7844 15.2 13.7ZM12 12.5C12.7 12.5 13.2 13 13.2 13.7C13.2 14.4 12.7 15 12 15C11.3 15 10.8 14.5 10.8 13.8C10.8 13.1 11.3 12.5 12 12.5Z" fill="#464454"/>
</svg>
