<svg width="24" height="24" viewBox="0 0 24 24" fill="none" xmlns="http://www.w3.org/2000/svg">
<path d="M19.4 5.5L16.5 2.6C16.1 2.2 15.6 2 15.1 2H6C4.9 2 4 2.9 4 4V20C4 21.1 4.9 22 6 22H18C19.1 22 20 21.2 20 20.1V6.9C20 6.4 19.8 5.9 19.4 5.5ZM15.5 4.4L17.6 6.5H15.5V4.4ZM18 20H6V4H13.5V6.5C13.5 7.6 14.4 8.5 15.5 8.5H18V20ZM15.7 13.6C15.7 13.3 15.5 13.1 15.2 12.9L9.4 10.7C9.1 10.6 8.8 10.7 8.6 10.9C8.4 11.1 8.3 11.4 8.4 11.7L10.7 17.5C10.8 17.8 11 18 11.3 18C11.6 18 11.8 17.8 12 17.6L12.8 16.2L14.4 17.8C14.5 17.9 14.7 18 14.9 18C15.1 18 15.3 17.9 15.4 17.8C15.7 17.5 15.7 17 15.4 16.7L13.8 15.1L15.2 14.3C15.5 14.2 15.7 13.9 15.7 13.6ZM12.2 14.3C12.1 14.4 12 14.5 11.9 14.6L11.4 15.5L10.3 12.8L13 13.8L12.2 14.3Z" fill="#464454"/>
</svg>
