<svg width="24" height="24" viewBox="0 0 24 24" fill="none" xmlns="http://www.w3.org/2000/svg">
<path d="M19.8 1H4.2C2.4 1 1 2.4 1 4.2V19.8C1 21.6 2.4 23 4.2 23H19.8C21.6 23 23 21.6 23 19.8V4.2C23 2.4 21.6 1 19.8 1ZM18 8H21V11H18V8ZM16 11H8V3H16V11ZM6 11H3V8H6V11ZM3 13H6V16H3V13ZM8 13H16V21H8V13ZM18 13H21V16H18V13ZM21 4.2V6H18V3H19.8C20.5 3 21 3.5 21 4.2ZM4.2 3H6V6H3V4.2C3 3.5 3.5 3 4.2 3ZM3 19.8V18H6V21H4.2C3.5 21 3 20.5 3 19.8ZM19.8 21H18V18H21V19.8C21 20.5 20.5 21 19.8 21Z" fill="#464454"/>
</svg>
