<svg width="24" height="24" viewBox="0 0 24 24" fill="none" xmlns="http://www.w3.org/2000/svg">
<path d="M22.9 2.6C22.7 2.2 22.4 2 22 2H1.99998C1.59998 2 1.29998 2.2 1.09998 2.6C0.899984 2.9 0.999984 3.3 1.19998 3.6L8.99998 12.8V19C8.99998 19.4 9.19998 19.7 9.59998 19.9L13.6 21.9C13.7 22 13.8 22 14 22C14.2 22 14.4 22 14.5 21.9C14.8 21.7 15 21.4 15 21V12.8L22.8 3.6C23 3.3 23.1 2.9 22.9 2.6ZM13.2 11.8C13.1 12 13 12.2 13 12.5V19.4L11 18.4V12.5C11 12.3 10.9 12 10.8 11.9L4.19998 4H19.9L13.2 11.8Z" fill="#464454"/>
</svg>
