<svg width="24" height="24" viewBox="0 0 24 24" fill="none" xmlns="http://www.w3.org/2000/svg">
<path d="M5.125 3C4.45 3 4 3.45 4 4.125V19.875C4 20.55 4.45 21 5.125 21C5.8 21 6.25 20.55 6.25 19.875V4.125C6.25 3.45 5.8 3 5.125 3Z" fill="#464454"/>
<path d="M10.375 12.9L17.875 20.6143C18.375 21.1286 19.125 21.1286 19.625 20.6143C20.125 20.1 20.125 19.3286 19.625 18.8143L13 12L19.625 5.18572C20.125 4.67143 20.125 3.9 19.625 3.38571C19.375 3.12857 19.125 3 18.75 3C18.375 3 18.125 3.12857 17.875 3.38571L10.375 11.1C9.875 11.6143 9.875 12.3857 10.375 12.9Z" fill="#464454"/>
</svg>
