<svg width="24" height="24" viewBox="0 0 24 24" fill="none" xmlns="http://www.w3.org/2000/svg">
<path d="M22 7.5C22 8.1 21.5998 8.5 20.9994 8.5H19.4986V10C19.4986 10.6 19.0984 11 18.498 11C17.8977 11 17.4975 10.6 17.4975 10V8.5H15.9966C15.3963 8.5 14.9961 8.1 14.9961 7.5C14.9961 6.9 15.3963 6.5 15.9966 6.5H17.4975V5C17.4975 4.4 17.8977 4 18.498 4C19.0984 4 19.4986 4.4 19.4986 5V6.5H20.9994C21.5998 6.5 22 6.9 22 7.5ZM15.7965 20C16.4969 20 16.9972 19.3 16.697 18.7C16.2968 17.5 15.8966 16.4 15.4964 15.3C14.9961 13.9 14.3957 12.5 13.8955 11.2C13.3952 9.9 12.8949 8.7 12.3946 7.5C11.8943 6.5 11.4941 5.5 10.9938 4.6C10.8938 4.2 10.4936 4 10.0933 4H8.5925C8.19228 4 7.89211 4.2 7.692 4.6C7.29178 5.6 6.7915 6.5 6.39127 7.5C5.89099 8.7 5.39071 9.9 4.89043 11.2C4.39015 12.5 3.88987 13.9 3.28954 15.3C2.88931 16.4 2.48909 17.5 2.08887 18.7C1.7887 19.3 2.28898 20 2.98937 20H3.88987C4.2901 20 4.69032 19.7 4.79038 19.3C4.89043 18.9 5.09055 18.5 5.1906 18.1C5.39071 17.5 5.59083 16.8 5.89099 16.2H12.6948C12.8949 16.8 13.095 17.5 13.3952 18.1C13.4952 18.5 13.6954 18.9 13.7954 19.3C13.8955 19.7 14.2957 20 14.6959 20H15.7965ZM10.4936 10C10.9938 11.2 11.3941 12.5 11.8943 13.9H6.69144C7.19172 12.5 7.692 11.3 8.09222 10.1C8.5925 8.9 8.99273 7.9 9.2929 7.1C9.59306 7.9 9.99329 8.9 10.4936 10Z" fill="#464454"/>
</svg>
