<svg width="24" height="24" viewBox="0 0 24 24" fill="none" xmlns="http://www.w3.org/2000/svg">
<path d="M13 20.0041C13 20.2693 12.8946 20.5237 12.7071 20.7112C12.5196 20.8987 12.2652 21.0041 12 21.0041H4C3.73478 21.0041 3.48043 20.8987 3.29289 20.7112C3.10536 20.5237 3 20.2693 3 20.0041C3 19.7389 3.10536 19.4845 3.29289 19.297C3.48043 19.1094 3.73478 19.0041 4 19.0041H12C12.2652 19.0041 12.5196 19.1094 12.7071 19.297C12.8946 19.4845 13 19.7389 13 20.0041ZM21 18.0041C21.0276 18.5957 20.8702 19.1812 20.5497 19.6792C20.2291 20.1772 19.7614 20.563 19.2116 20.783C18.6617 21.0029 18.0569 21.0461 17.4814 20.9065C16.9058 20.7669 16.388 20.4515 16 20.0041L10.89 14.0841L9.66 15.3141C9.8483 15.5024 9.95409 15.7578 9.95409 16.0241C9.95409 16.2904 9.8483 16.5458 9.66 16.7341C9.4717 16.9224 9.2163 17.0282 8.95 17.0282C8.6837 17.0282 8.4283 16.9224 8.24 16.7341L3.29 11.7341C3.15557 11.539 3.09475 11.3026 3.11839 11.0668C3.14203 10.8311 3.24859 10.6115 3.41908 10.447C3.58957 10.2825 3.81292 10.1839 4.04933 10.1687C4.28575 10.1535 4.51988 10.2228 4.71 10.3641L10.36 4.71409C10.1717 4.52579 10.0659 4.27039 10.0659 4.00409C10.0659 3.73779 10.1717 3.4824 10.36 3.29409C10.5483 3.10579 10.8037 3 11.07 3C11.3363 3 11.5917 3.10579 11.78 3.29409L12.48 4.00409L16 7.54409L16.71 8.24409C16.8983 8.43239 17.0041 8.68779 17.0041 8.95409C17.0041 9.22039 16.8983 9.47579 16.71 9.66409C16.5217 9.8524 16.2663 9.95818 16 9.95818C15.7337 9.95818 15.4783 9.8524 15.29 9.66409L14.08 10.8941L20 16.0041C20.2929 16.2528 20.5325 16.5582 20.7043 16.9019C20.8762 17.2456 20.9768 17.6205 21 18.0041ZM13.9 8.20409L11.78 6.12409L6.12 11.7841L8.24 13.9041L13.9 8.20409ZM19 18.1141C18.9941 17.9974 18.9644 17.8831 18.9128 17.7782C18.8612 17.6733 18.7888 17.58 18.7 17.5041L12.7 12.3141L12.35 12.6641L17.54 18.6641C17.616 18.7529 17.7092 18.8253 17.8141 18.8769C17.919 18.9285 18.0333 18.9582 18.15 18.9641C18.3731 18.9566 18.5849 18.8647 18.7427 18.7068C18.9006 18.549 18.9925 18.3371 19 18.1141Z" fill="#464454"/>
</svg>
