<svg width="24" height="24" viewBox="0 0 24 24" fill="none" xmlns="http://www.w3.org/2000/svg">
<path d="M19 14.1V8C19 6.3 17.7 5 16 5H13C12.4 5 12 5.4 12 6C12 6.6 12.4 7 13 7H16C16.6 7 17 7.4 17 8V14.1C15.3 14.5 14 16.1 14 18C14 20.2 15.8 22 18 22C20.2 22 22 20.2 22 18C22 16.1 20.7 14.6 19 14.1ZM18 20C16.9 20 16 19.1 16 18C16 16.9 16.9 16 18 16C19.1 16 20 16.9 20 18C20 19.1 19.1 20 18 20Z" fill="#464454"/>
<path d="M6 2C3.8 2 2 3.8 2 6C2 7.9 3.3 9.4 5 9.9V21C5 21.6 5.4 22 6 22C6.6 22 7 21.6 7 21V9.9C8.7 9.5 10 7.9 10 6C10 3.8 8.2 2 6 2ZM6 8C4.9 8 4 7.1 4 6C4 4.9 4.9 4 6 4C7.1 4 8 4.9 8 6C8 7.1 7.1 8 6 8Z" fill="#464454"/>
</svg>
