<svg width="24" height="24" viewBox="0 0 24 24" fill="none" xmlns="http://www.w3.org/2000/svg">
<path d="M18 14.0001C16.2 14.0001 14.6 15.3001 14.2 17.0001C10.5 16.6001 7.5 13.6001 7.1 9.9001C8.8 9.4001 10.1 7.9001 10.1 6.1001C10.1 3.9001 8.3 2.1001 6.1 2.1001C3.9 2.1001 2 3.8001 2 6.0001C2 7.9001 3.3 9.4001 5 9.9001V21.0001C5 21.6001 5.4 22.0001 6 22.0001C6.6 22.0001 7 21.6001 7 21.0001V15.0001C8.7 17.2001 11.2 18.7001 14.1 19.0001C14.5 20.7001 16.1 22.1001 18 22.1001C20.2 22.1001 22 20.3001 22 18.1001C22 15.9001 20.2 14.0001 18 14.0001ZM4 6.0001C4 4.9001 4.9 4.0001 6 4.0001C7.1 4.0001 8 4.9001 8 6.0001C8 7.1001 7.1 8.0001 6 8.0001C4.9 8.0001 4 7.1001 4 6.0001ZM18 20.0001C16.9 20.0001 16 19.1001 16 18.0001C16 16.9001 16.9 16.0001 18 16.0001C19.1 16.0001 20 16.9001 20 18.0001C20 19.1001 19.1 20.0001 18 20.0001Z" fill="#464454"/>
</svg>
