<svg width="24" height="25" viewBox="0 0 24 25" fill="none" xmlns="http://www.w3.org/2000/svg">
<path d="M22.5 9.50014C22.5 8.00014 22 6.70014 21.1 5.50014C21.4 4.20014 21.3 2.80014 20.8 1.60014C20.7 1.30014 20.5 1.10014 20.2 1.00014C19.8 0.90014 18.5 0.70014 15.8 2.40014C13.6 1.90014 11.3 1.90014 9.2 2.40014C6.5 0.70014 5.2 0.90014 4.8 1.00014C4.5 1.10014 4.29999 1.30014 4.2 1.60014C3.6 2.90014 3.5 4.20014 3.9 5.50014C3 6.70014 2.5 8.10014 2.5 9.50014C2.5 14.9001 5.5 16.6001 8.3 17.2001C8.1 17.9001 8 18.5001 8 19.1001V19.2001C5.9 19.6001 5.2 18.8001 4.4 17.7001C3.9 17.0001 3.3 16.2001 2.2 16.0001C1.7 15.9001 1.1 16.2001 0.999995 16.7001C0.899995 17.2001 1.2 17.8001 1.7 17.9001C2 18.0001 2.4 18.4001 2.8 18.9001C3.7 20.1001 5 21.7001 8 21.3001V23.0001C8 23.6001 8.4 24.0001 9 24.0001C9.6 24.0001 10 23.6001 10 23.0001V20.1001V20.0001V19.1001C10 18.4001 10.2 17.8001 10.7 17.3001C11 17.0001 11.1 16.6001 10.9 16.3001C10.8 15.9001 10.5 15.7001 10.1 15.6001C7.2 15.2001 4.5 14.3001 4.5 9.60014C4.5 8.40014 4.9 7.40014 5.7 6.50014C6 6.20014 6 5.80014 5.9 5.50014C5.6 4.60014 5.6 3.80014 5.8 3.00014C6.3 3.10014 7.2 3.40014 8.39999 4.30014C8.7 4.50014 9 4.50014 9.3 4.40014C11.4 3.80014 13.7 3.80014 15.8 4.40014C16.1 4.50014 16.4 4.40014 16.6 4.30014C17.9 3.40014 18.8 3.10014 19.2 3.00014C19.4 3.80014 19.4 4.60014 19.1 5.40014C19 5.80014 19 6.20014 19.3 6.40014C20.1 7.20014 20.5 8.30014 20.5 9.50014C20.5 14.2001 17.8 15.2001 14.9 15.5001C14.5 15.5001 14.2 15.8001 14.1 16.2001C14 16.6001 14.1 17.0001 14.3 17.2001C14.8 17.7001 15 18.4001 15 19.1001V23.0001C15 23.6001 15.4 24.0001 16 24.0001C16.6 24.0001 17 23.6001 17 23.0001V19.2001C17.1 18.5001 17 17.9001 16.7 17.3001C19.1 16.8001 22.5 15.2001 22.5 9.50014Z" fill="#464454"/>
</svg>
