<svg width="26" height="24" viewBox="0 0 26 24" fill="none" xmlns="http://www.w3.org/2000/svg">
<path d="M24.9 13.0998L21.2 1.8998C21.1 1.6998 21 1.4998 20.8 1.2998C20.3 0.799805 19.4 0.799805 18.9 1.2998C18.7 1.3998 18.6 1.5998 18.5 1.8998L16.3 8.6998H9.70003L7.50003 1.8998C7.40003 1.6998 7.30003 1.4998 7.10003 1.2998C6.60003 0.799805 5.70003 0.799805 5.20003 1.2998C5.00003 1.3998 4.90003 1.5998 4.80003 1.8998L1.10003 13.0998C0.80003 13.8998 1.10003 14.6998 1.80003 15.1998L12.4 22.8998C12.6 22.9998 12.8 23.0998 13 23.0998C13.2 23.0998 13.4 22.9998 13.6 22.8998L24.2 15.1998C24.9 14.7998 25.2 13.8998 24.9 13.0998ZM13 20.8998L3.00003 13.6998L6.10003 4.1998L8.00003 9.9998C8.10003 10.3998 8.50003 10.6998 9.00003 10.6998H17C17.4 10.6998 17.8 10.3998 18 9.9998L19.9 4.1998L21.8 9.9998L23 13.5998L13 20.8998Z" fill="#464454"/>
</svg>
