<svg width="24" height="24" viewBox="0 0 24 24" fill="none" xmlns="http://www.w3.org/2000/svg">
<path d="M12 1C5.9 1 1 5.9 1 12C1 18.1 5.9 23 12 23C18.1 23 23 18.1 23 12C23 5.9 18.1 1 12 1ZM20.9 11H16.9C16.7 8.2 15.8 5.6 14.2 3.3C17.8 4.2 20.5 7.3 20.9 11ZM9.1 13H15C14.7 15.7 13.7 18.3 12.1 20.4C10.3 18.3 9.3 15.7 9.1 13ZM9.1 11C9.4 8.3 10.4 5.7 12 3.6C13.7 5.8 14.7 8.4 14.9 11H9.1ZM9.7 3.3C8.2 5.6 7.3 8.2 7.1 11H3.1C3.5 7.3 6.2 4.2 9.7 3.3ZM3.1 13H7.1C7.3 15.8 8.2 18.4 9.8 20.7C6.2 19.8 3.5 16.7 3.1 13ZM14.3 20.7C15.8 18.4 16.7 15.8 17 13H21C20.5 16.7 17.8 19.8 14.3 20.7Z" fill="#464454"/>
</svg>
