<svg width="21" height="24" viewBox="0 0 21 24" fill="none" xmlns="http://www.w3.org/2000/svg">
<path d="M19.9829 13.5145L19.9403 13.0195V13.011C19.8379 11.9912 19.616 10.9373 19.2704 9.88345L19.0016 9.11116C18.5578 9.26477 18.3189 9.75118 18.4725 10.1992C18.7882 11.1806 18.993 12.1576 19.0912 13.1006L19.1296 13.5742C19.1466 13.843 19.1552 14.1118 19.1552 14.3764C19.1552 15.9679 18.8352 17.4186 18.2378 18.5706C17.6405 19.7269 16.7828 20.5803 15.6863 21.0411C15.2937 21.2032 14.8927 21.3099 14.4788 21.3611C14.2782 21.3867 14.0777 21.3995 13.8729 21.3995C13.3054 21.3995 12.7209 21.3056 12.132 21.1179C11.1507 20.8107 10.1608 20.2517 9.22636 19.4709C7.73299 18.225 6.39748 16.4244 5.48439 14.2398C5.10465 13.3267 4.82304 12.4051 4.6353 11.5006C4.44756 10.596 4.35796 9.71278 4.35796 8.86795C4.35796 6.24388 5.22839 4.03369 6.74736 2.84325C7.07164 2.58298 7.43005 2.36964 7.82259 2.2075C8.39861 1.96856 9.00449 1.85336 9.63171 1.85336C10.9885 1.85336 12.4435 2.39951 13.8089 3.41073C15.1615 4.41343 16.4159 5.8684 17.3759 7.65619L17.7642 8.41568C18.1738 8.2066 18.3445 7.71166 18.1525 7.29778C17.1327 5.38626 15.7929 3.82035 14.3166 2.72378C12.8403 1.62722 11.219 1 9.63171 1C8.89782 1 8.17673 1.13654 7.49405 1.42241L4.99371 2.46351C3.68808 3.00966 2.67685 4.02942 2.01123 5.33079C1.34134 6.63216 1 8.2066 1 9.91332C1 11.7267 1.38401 13.6852 2.19043 15.6137C3.15046 17.9178 4.56277 19.8293 6.17135 21.1734C7.77992 22.5131 9.59331 23.2982 11.364 23.2982C12.0979 23.2982 12.819 23.1617 13.506 22.8758L16.0063 21.8347C17.3119 21.2886 18.3189 20.2688 18.9888 18.9674C19.6587 17.6661 20 16.0874 20 14.3806C20 14.099 19.9915 13.8132 19.9701 13.523L19.9829 13.5145ZM7.05457 18.4725L5.38626 19.168C4.70357 18.3829 4.08489 17.4741 3.5558 16.4628L5.26679 15.7503C5.78733 16.7572 6.38895 17.6703 7.05884 18.4725H7.05457ZM4.70357 14.5598C4.76331 14.7049 4.83157 14.8415 4.89558 14.9823L3.18459 15.6948C3.12059 15.554 3.05659 15.4175 2.99686 15.2724C2.68111 14.5129 2.43791 13.7534 2.25444 12.9982L3.95688 12.2899C4.14462 13.0451 4.3921 13.8046 4.70784 14.5598H4.70357ZM1.86616 9.90478C1.86616 9.74265 1.87042 9.58477 1.87896 9.42264L3.5174 8.73995C3.5174 8.77835 3.5174 8.82102 3.5174 8.85942C3.5174 9.53784 3.57287 10.2376 3.68381 10.9501C3.70941 11.1123 3.74354 11.2787 3.77341 11.4408L2.0795 12.1491C1.94296 11.3811 1.87469 10.6259 1.87469 9.90478H1.86616ZM2.77925 5.71053C3.32967 4.64384 4.10622 3.83741 5.08758 3.35953C5.04491 3.41927 5.00225 3.479 4.96384 3.53874C4.17449 4.70357 3.70088 6.17135 3.5558 7.79699L1.96003 8.46261C2.09656 7.43858 2.36964 6.50415 2.77925 5.71053ZM6.00494 19.8379L7.65619 19.1509C7.989 19.5008 8.33034 19.8251 8.68448 20.1195C8.97462 20.3584 9.26903 20.576 9.57197 20.7808L8.03166 21.4251C7.59219 21.1648 7.15697 20.8619 6.73456 20.512C6.48709 20.3072 6.24388 20.0768 6.00921 19.8421L6.00494 19.8379ZM9.02583 21.9286L10.468 21.327C11.2744 21.7579 12.1107 22.0395 12.9427 22.1675C12.4393 22.3467 11.9144 22.4363 11.3726 22.4363C10.6088 22.4363 9.81518 22.2614 9.02156 21.9329L9.02583 21.9286Z" fill="#464454" stroke="#464454" stroke-linejoin="round"/>
<path d="M16.5227 17.0771C16.9025 16.2749 17.0859 15.2978 17.0859 14.2311C17.0859 12.8529 16.7745 11.3169 16.1387 9.78938C15.4475 8.1296 14.4747 6.73863 13.3952 5.74874C12.3157 4.76311 11.1124 4.16149 9.93907 4.15723C9.52946 4.15723 9.12838 4.23403 8.74863 4.3919C8.44996 4.51564 8.18115 4.68631 7.93794 4.89538C7.43446 5.33059 7.06325 5.91941 6.81578 6.60636C6.56831 7.29331 6.44457 8.08267 6.43604 8.92749V8.93603L6.45737 9.66138V9.66992C6.5171 10.5233 6.69204 11.4278 6.97792 12.3452C7.14432 12.7719 7.60087 13.0023 8.03608 12.8487L7.78007 12.0337C7.5198 11.2017 7.3662 10.3825 7.31073 9.61445L7.28939 8.92749C7.29366 8.16374 7.40886 7.46825 7.61794 6.89224C7.82701 6.31195 8.12568 5.85541 8.49263 5.53967C8.66757 5.38606 8.85957 5.26659 9.07291 5.17699C9.34598 5.06179 9.63186 5.01058 9.9348 5.01058C10.8052 5.01058 11.8421 5.4842 12.8149 6.37596C13.792 7.26771 14.7008 8.56055 15.3494 10.1137C15.9467 11.5473 16.2326 12.9809 16.2326 14.2268C16.2326 15.1954 16.0619 16.0488 15.7504 16.7058C15.439 17.3629 14.9995 17.8152 14.4448 18.0499C14.2315 18.1395 14.0096 18.1907 13.7792 18.2078C13.6896 18.2163 13.6 18.2206 13.5104 18.2206C12.7679 18.2206 12.0639 17.9688 11.3002 17.3629C10.545 16.7656 9.74706 15.8141 8.88944 14.4572C8.6377 14.0562 8.11288 13.9367 7.71181 14.1842L8.14275 14.8711C9.03877 16.2962 9.89213 17.3373 10.7668 18.0328C11.6415 18.7283 12.5589 19.0739 13.5104 19.0739C13.6213 19.0739 13.7365 19.0696 13.8474 19.0611C14.1675 19.0355 14.4789 18.963 14.7776 18.8392C15.5584 18.515 16.1472 17.8749 16.5227 17.0728V17.0771Z" fill="#464454" stroke="#464454" stroke-linejoin="round"/>
<path d="M7.93384 4.89381H7.93604V4.8916L7.93384 4.89381Z" fill="#464454" stroke="#464454" stroke-linejoin="round"/>
<path d="M9.26475 9.508C9.25622 9.5848 9.25195 9.66161 9.25195 9.73841C9.25622 10.2291 9.42262 10.7368 9.7085 11.1379C9.9005 11.4067 10.1352 11.603 10.3827 11.7182C10.6301 11.8377 10.8861 11.8718 11.1123 11.8718C11.4365 11.8718 11.7182 11.8035 11.9486 11.7609C12.0595 11.7395 12.179 11.7267 12.2984 11.7267C12.563 11.7267 12.7977 11.7907 12.9982 11.9657C13.3011 12.2345 13.4206 12.5886 13.4249 12.9641C13.4249 13.331 13.2841 13.698 13.1219 13.8772C12.9214 14.0991 12.7379 14.1673 12.4904 14.1759C12.1406 14.1801 11.6499 13.9668 11.1891 13.5785L10.6429 14.2356C11.2019 14.6964 11.8291 15.025 12.4904 15.0292C12.6099 15.0292 12.7294 15.0164 12.8489 14.9908L13.3694 16.1855L14.1502 15.8442L13.6041 14.5855C13.6595 14.5343 13.715 14.4916 13.7662 14.4361C14.0905 14.0564 14.274 13.5273 14.2782 12.9598C14.2782 12.3966 14.0777 11.7779 13.5657 11.3257C13.1731 10.9758 12.6995 10.8691 12.2984 10.8734C12.115 10.8734 11.94 10.8947 11.7864 10.9246C11.539 10.9715 11.3085 11.0227 11.1123 11.0227C10.9715 11.0227 10.8563 11.0014 10.7453 10.9502C10.6344 10.899 10.5235 10.8136 10.3997 10.643C10.229 10.4168 10.101 10.0158 10.1053 9.74268C10.1053 9.70001 10.1053 9.66161 10.1138 9.62747C10.1565 9.30746 10.2845 9.10266 10.4509 8.95759C10.6173 8.81678 10.8392 8.73998 11.0909 8.73998C11.4195 8.73998 11.795 8.87652 12.115 9.18799L12.7081 8.57358C12.2387 8.1213 11.6542 7.88662 11.0909 7.88662C10.9757 7.88662 10.8648 7.89942 10.7496 7.91649L10.148 6.52979L9.36716 6.87113L9.96877 8.25783C9.94744 8.2749 9.92184 8.2877 9.9005 8.30477C9.56343 8.58638 9.33302 9.00879 9.26475 9.51227V9.508Z" fill="#464454" stroke="#464454" stroke-linejoin="round"/>
</svg>
