<svg width="24" height="24" viewBox="0 0 24 24" fill="none" xmlns="http://www.w3.org/2000/svg">
<path d="M20.8997 14.6817C20.797 14.3013 20.6202 13.9449 20.3793 13.6327C20.1384 13.3205 19.8382 13.0587 19.4958 12.8621C19.1532 12.6647 18.7749 12.5366 18.3826 12.4851C17.9903 12.4336 17.5916 12.4598 17.2095 12.5622L12.6969 13.7719C12.4708 13.3092 12.1186 12.9194 11.6805 12.6471C11.2424 12.3748 10.7363 12.231 10.2201 12.2323H5.00557C4.47366 12.2323 3.96354 12.443 3.58742 12.8179C3.2113 13.1929 3 13.7015 3 14.2318L3 19.0005C3 19.2631 3.05188 19.5231 3.15266 19.7657C3.25345 20.0083 3.40118 20.2287 3.58742 20.4144C3.77365 20.6 3.99475 20.7473 4.23807 20.8478C4.4814 20.9483 4.7422 21 5.00557 21H9.95933C10.5967 20.9991 11.2309 20.9116 11.8446 20.7401L18.7738 18.3507C19.5426 18.1463 20.1988 17.6466 20.5989 16.9611C20.7969 16.6195 20.9255 16.2424 20.9771 15.8512C21.0287 15.4601 21.0024 15.0626 20.8997 14.6817ZM18.8941 15.9613C18.8184 16.0827 18.719 16.1876 18.6019 16.2701C18.4848 16.3525 18.3523 16.4107 18.2123 16.4412L11.293 18.8306C10.8674 18.9417 10.4294 18.9988 9.98941 19.0005H5.00557V14.2318H10.2201C10.4178 14.2318 10.6076 14.3094 10.7483 14.4478C10.8891 14.5863 10.9695 14.7745 10.9721 14.9716C10.9669 15.167 10.8854 15.3526 10.7449 15.4889C10.6044 15.6252 10.4161 15.7015 10.2201 15.7014H8.39499C8.12903 15.7014 7.87397 15.8067 7.68591 15.9942C7.49785 16.1817 7.3922 16.436 7.3922 16.7011C7.3922 16.9663 7.49785 17.2206 7.68591 17.408C7.87397 17.5955 8.12903 17.7009 8.39499 17.7009H10.2201C10.8091 17.6982 11.3821 17.5088 11.8562 17.1602C12.3303 16.8116 12.6809 16.3217 12.8574 15.7614L17.7309 14.4617C17.8587 14.427 17.992 14.4178 18.1233 14.4348C18.2547 14.4517 18.3813 14.4944 18.496 14.5604C18.6106 14.6264 18.7111 14.7144 18.7915 14.8193C18.8719 14.9242 18.9306 15.0439 18.9643 15.1715C19.0362 15.4377 19.0002 15.7214 18.8641 15.9613H18.8941ZM9.86908 8.86317C9.77427 8.86317 9.68038 8.88179 9.59278 8.91796C9.50518 8.95414 9.42559 9.00716 9.35855 9.074C9.2915 9.14084 9.23832 9.22019 9.20203 9.30752C9.16575 9.39486 9.14707 9.48846 9.14707 9.58298C9.14707 9.67751 9.16575 9.77111 9.20203 9.85844C9.23832 9.94578 9.2915 10.0251 9.35855 10.092C9.42559 10.1588 9.50518 10.2118 9.59278 10.248C9.68038 10.2842 9.77427 10.3028 9.86908 10.3028H11.273V10.8626C11.261 10.9636 11.2706 11.066 11.3011 11.163C11.3317 11.26 11.3825 11.3494 11.4502 11.4254C11.518 11.5014 11.6011 11.5623 11.6941 11.6039C11.7872 11.6456 11.888 11.6671 11.99 11.6671C12.092 11.6671 12.1928 11.6456 12.2858 11.6039C12.3788 11.5623 12.462 11.5014 12.5297 11.4254C12.5974 11.3494 12.6483 11.26 12.6788 11.163C12.7094 11.066 12.719 10.9636 12.707 10.8626V10.3028H13.0279C13.2823 10.3215 13.5378 10.2877 13.7785 10.2034C14.0192 10.1192 14.2399 9.98638 14.4268 9.81328C14.6137 9.64017 14.7628 9.43049 14.8648 9.19735C14.9667 8.96421 15.0193 8.71261 15.0193 8.45828C15.0193 8.20395 14.9667 7.95235 14.8648 7.71921C14.7628 7.48606 14.6137 7.27639 14.4268 7.10328C14.2399 6.93017 14.0192 6.79736 13.7785 6.71313C13.5378 6.6289 13.2823 6.59507 13.0279 6.61376H12.717V5.80397H13.8C13.9915 5.80397 14.1751 5.72814 14.3105 5.59314C14.4459 5.45815 14.522 5.27507 14.522 5.08416C14.522 4.89325 14.4459 4.71017 14.3105 4.57518C14.1751 4.44019 13.9915 4.36435 13.8 4.36435H12.717V3.8045C12.729 3.70353 12.7194 3.60117 12.6888 3.50417C12.6583 3.40716 12.6075 3.31771 12.5397 3.2417C12.472 3.1657 12.3889 3.10486 12.2958 3.0632C12.2028 3.02154 12.102 3 12 3C11.898 3 11.7972 3.02154 11.7042 3.0632C11.6111 3.10486 11.528 3.1657 11.4603 3.2417C11.3925 3.31771 11.3417 3.40716 11.3112 3.50417C11.2806 3.60117 11.271 3.70353 11.283 3.8045V4.36435H11.0223C10.5276 4.36435 10.0532 4.56026 9.7034 4.90899C9.35361 5.25771 9.1571 5.73069 9.1571 6.22386C9.1571 6.71704 9.35361 7.19001 9.7034 7.53874C10.0532 7.88746 10.5276 8.08338 11.0223 8.08338H11.293V8.89316L9.86908 8.86317ZM12.717 8.08338H13.0279C13.0865 8.07416 13.1465 8.07772 13.2037 8.09383C13.2609 8.10994 13.3138 8.1382 13.359 8.17668C13.4042 8.21517 13.4404 8.26294 13.4653 8.31673C13.4901 8.37052 13.503 8.42905 13.503 8.48827C13.503 8.5475 13.4901 8.60602 13.4653 8.65981C13.4404 8.7136 13.4042 8.76138 13.359 8.79986C13.3138 8.83834 13.2609 8.8666 13.2037 8.88271C13.1465 8.89882 13.0865 8.90239 13.0279 8.89316H12.717V8.08338ZM11.0223 6.61376C10.9636 6.62298 10.9036 6.61942 10.8464 6.60331C10.7893 6.5872 10.7363 6.55893 10.6911 6.52045C10.646 6.48197 10.6097 6.43419 10.5849 6.3804C10.56 6.32661 10.5471 6.26809 10.5471 6.20887C10.5471 6.14964 10.56 6.09112 10.5849 6.03733C10.6097 5.98354 10.646 5.93576 10.6911 5.89728C10.7363 5.8588 10.7893 5.83053 10.8464 5.81443C10.9036 5.79832 10.9636 5.79475 11.0223 5.80397H11.293V6.61376H11.0223Z" fill="#464454"/>
</svg>
