<svg width="24" height="24" viewBox="0 0 24 24" fill="none" xmlns="http://www.w3.org/2000/svg">
<path d="M22.9 11.6L19.4 4.7C18.9 3.7 17.9 3 16.7 3H7.2C6.1 3 5.1 3.6 4.6 4.7L1.2 11.6C1 11.7 1 11.8 1 12V18C1 19.7 2.3 21 4 21H20C21.7 21 23 19.7 23 18V12C23 11.8 23 11.7 22.9 11.6ZM6.3 5.6C6.5 5.2 6.9 5 7.2 5H16.7C17.1 5 17.4 5.2 17.6 5.6L20.3 11H3.6L6.3 5.6ZM20 19H4C3.4 19 3 18.6 3 18V13H21V18C21 18.6 20.6 19 20 19Z" fill="#464454"/>
<path d="M6.7 15.2999C6.6 15.1999 6.5 15.0999 6.4 15.0999C6.2 14.9999 5.9 14.9999 5.6 15.0999C5.5 15.0999 5.4 15.1999 5.3 15.2999C5.2 15.3999 5.1 15.4999 5.1 15.5999C5 15.6999 5 15.8999 5 15.9999C5 16.2999 5.1 16.4999 5.3 16.6999C5.5 16.8999 5.7 16.9999 6 16.9999C6.3 16.9999 6.5 16.8999 6.7 16.6999C6.9 16.4999 7 16.2999 7 15.9999C7 15.8999 7 15.6999 6.9 15.5999C6.9 15.4999 6.8 15.3999 6.7 15.2999Z" fill="#464454"/>
<path d="M10.7 15.3C10.3 14.9 9.6 14.9 9.3 15.3C9.2 15.4 9.1 15.5 9.1 15.6C9 15.7 9 15.9 9 16C9 16.3 9.1 16.5 9.3 16.7C9.5 16.9 9.7 17 10 17C10.3 17 10.5 16.9 10.7 16.7C10.9 16.5 11 16.3 11 16C11 15.9 11 15.7 10.9 15.6C10.9 15.5 10.8 15.4 10.7 15.3Z" fill="#464454"/>
</svg>
