<svg width="24" height="24" viewBox="0 0 24 24" fill="none" xmlns="http://www.w3.org/2000/svg">
<path d="M20 14.0002H15.8L16.2 10.0002H20C20.6 10.0002 21 9.60018 21 9.00018C21 8.40018 20.6 8.00018 20 8.00018H16.5L17 3.10018C17.1 2.60018 16.7 2.10018 16.1 2.00018C15.6 1.90018 15.1 2.30018 15 2.90018L14.4 8.00018H10.4L11 3.10018C11.1 2.60018 10.7 2.10018 10.1 2.00018C9.6 1.90018 9.1 2.30018 9 2.90018L8.4 8.00018H4C3.4 8.00018 3 8.40018 3 9.00018C3 9.60018 3.4 10.0002 4 10.0002H8.2L7.8 14.0002H4C3.4 14.0002 3 14.4002 3 15.0002C3 15.6002 3.4 16.0002 4 16.0002H7.5L7 20.9002C6.9 21.4002 7.3 21.9002 7.9 22.0002H8C8.5 22.0002 8.9 21.6002 9 21.1002L9.6 16.0002H13.6L13 20.9002C12.9 21.4002 13.3 21.9002 13.9 22.0002H14C14.5 22.0002 14.9 21.6002 15 21.1002L15.6 16.0002H20C20.6 16.0002 21 15.6002 21 15.0002C21 14.4002 20.6 14.0002 20 14.0002ZM9.8 14.0002L10.2 10.0002H14.2L13.8 14.0002H9.8Z" fill="#464454"/>
</svg>
