<svg width="24" height="24" viewBox="0 0 24 24" fill="none" xmlns="http://www.w3.org/2000/svg">
<path d="M12 2C9.87827 2 7.84344 2.84285 6.34315 4.34315C4.84285 5.84344 4 7.87827 4 10L4 15.18C4.00265 15.8572 4.27353 16.5058 4.75333 16.9837C5.23314 17.4617 5.88277 17.73 6.56 17.73H7.33C8.00723 17.73 8.65686 17.4617 9.13667 16.9837C9.61647 16.5058 9.88735 15.8572 9.89 15.18V12.84C9.88735 12.1628 9.61647 11.5142 9.13667 11.0363C8.65686 10.5583 8.00723 10.29 7.33 10.29H6V10C6 8.4087 6.63214 6.88258 7.75736 5.75736C8.88258 4.63214 10.4087 4 12 4C13.5913 4 15.1174 4.63214 16.2426 5.75736C17.3679 6.88258 18 8.4087 18 10V10.29H16.67C15.9928 10.29 15.3431 10.5583 14.8633 11.0363C14.3835 11.5142 14.1126 12.1628 14.11 12.84V15.18C14.1126 15.8572 14.3835 16.5058 14.8633 16.9837C15.3431 17.4617 15.9928 17.73 16.67 17.73H17.44C17.598 17.7292 17.7554 17.7125 17.91 17.68C17.7569 18.3378 17.3863 18.9247 16.8582 19.3458C16.3301 19.7668 15.6754 19.9973 15 20H13.92C13.8138 19.7082 13.6208 19.456 13.3669 19.2772C13.113 19.0984 12.8105 19.0017 12.5 19H11.5C11.1022 19 10.7206 19.158 10.4393 19.4393C10.158 19.7206 10 20.1022 10 20.5C10 20.8978 10.158 21.2794 10.4393 21.5607C10.7206 21.842 11.1022 22 11.5 22H11.88C11.9199 22.0045 11.9601 22.0045 12 22H15C16.3261 22 17.5979 21.4732 18.5355 20.5355C19.4732 19.5979 20 18.3261 20 17V10C20 7.87827 19.1571 5.84344 17.6569 4.34315C16.1566 2.84285 14.1217 2 12 2V2ZM7.33 12.29C7.4768 12.29 7.61775 12.3476 7.72249 12.4505C7.82722 12.5533 7.88738 12.6932 7.89 12.84V15.18C7.88738 15.3268 7.82722 15.4667 7.72249 15.5695C7.61775 15.6724 7.4768 15.73 7.33 15.73H6.56C6.4132 15.73 6.27225 15.6724 6.16751 15.5695C6.06278 15.4667 6.00262 15.3268 6 15.18V12.29H7.33ZM17.44 15.73H16.67C16.5232 15.73 16.3823 15.6724 16.2775 15.5695C16.1728 15.4667 16.1126 15.3268 16.11 15.18V12.84C16.1126 12.6932 16.1728 12.5533 16.2775 12.4505C16.3823 12.3476 16.5232 12.29 16.67 12.29H18V15.18C17.9974 15.3268 17.9372 15.4667 17.8325 15.5695C17.7277 15.6724 17.5868 15.73 17.44 15.73Z" fill="#464454"/>
</svg>
