<svg width="24" height="24" viewBox="0 0 24 24" fill="none" xmlns="http://www.w3.org/2000/svg">
<path d="M20.16 4.60981C19.0983 3.54782 17.6908 2.90214 16.1933 2.79019C14.6958 2.67825 13.2078 3.10748 12 3.99981C10.7277 3.05345 9.14402 2.62433 7.56795 2.79885C5.99188 2.97338 4.54047 3.73859 3.506 4.9404C2.47154 6.14221 1.93085 7.69133 1.99283 9.27583C2.05481 10.8603 2.71485 12.3625 3.84003 13.4798L11.29 20.9398C11.383 21.0335 11.4936 21.1079 11.6155 21.1587C11.7373 21.2095 11.868 21.2356 12 21.2356C12.132 21.2356 12.2627 21.2095 12.3846 21.1587C12.5065 21.1079 12.6171 21.0335 12.71 20.9398L20.16 13.4798C20.7427 12.8975 21.2049 12.2062 21.5202 11.4452C21.8356 10.6842 21.9979 9.86854 21.9979 9.04481C21.9979 8.22108 21.8356 7.40542 21.5202 6.64445C21.2049 5.88347 20.7427 5.19209 20.16 4.60981ZM18.75 12.0598L12 18.8098L5.25003 12.0598C4.47545 11.3033 4.01797 10.2803 3.97058 9.19861C3.92319 8.11694 4.28944 7.05781 4.99489 6.23648C5.70035 5.41514 6.69207 4.89324 7.7685 4.77684C8.84494 4.66044 9.9253 4.95827 10.79 5.60981L9.08003 9.60981C9.02061 9.74009 8.98985 9.88162 8.98985 10.0248C8.98985 10.168 9.02061 10.3095 9.08003 10.4398C9.14354 10.5699 9.23456 10.6847 9.34678 10.7762C9.45901 10.8678 9.58977 10.9338 9.73003 10.9698L12.5 11.6698L11.1 14.5598C11.042 14.678 11.0079 14.8064 10.9996 14.9378C10.9913 15.0691 11.0091 15.2008 11.0518 15.3253C11.0945 15.4498 11.1614 15.5647 11.2486 15.6632C11.3359 15.7618 11.4417 15.8422 11.56 15.8998C11.6972 15.9662 11.8477 16.0004 12 15.9998C12.1875 16.0002 12.3712 15.9479 12.5303 15.8489C12.6895 15.7499 12.8176 15.6081 12.9 15.4398L14.9 11.4398C14.964 11.3055 14.9972 11.1586 14.9972 11.0098C14.9972 10.861 14.964 10.7141 14.9 10.5798C14.8339 10.4457 14.74 10.3273 14.6244 10.2324C14.5089 10.1376 14.3744 10.0685 14.23 10.0298L11.4 9.31981L12.85 5.92981C13.6629 5.14477 14.7544 4.7148 15.8843 4.7345C17.0142 4.75419 18.09 5.22193 18.875 6.03481C19.6601 6.8477 20.09 7.93915 20.0703 9.06906C20.0507 10.199 19.5829 11.2748 18.77 12.0598H18.75Z" fill="#464454"/>
</svg>
