<svg width="24" height="24" viewBox="0 0 24 24" fill="none" xmlns="http://www.w3.org/2000/svg">
<path d="M21.5 3.9C20.3 2.7 18.7 2 17 2C15.3 2 13.6 2.7 12.4 3.9L12 4.3L11.6 3.9C10.4 2.7 8.8 2 7 2C5.3 2 3.7 2.7 2.5 3.9C1.3 5.1 0.5 6.8 0.5 8.5C0.5 10.2 1.2 11.9 2.4 13.1L11.2 21.9C11.4 22.1 11.6 22.2 11.9 22.2C12.2 22.2 12.4 22.1 12.6 21.9L21.4 13.1C24.1 10.6 24.1 6.4 21.5 3.9ZM20.1 11.7L12 19.8L3.9 11.7C2.1 9.9 2.1 7.1 3.9 5.3C4.7 4.4 5.9 4 7 4C8.2 4 9.3 4.4 10.2 5.3L11.3 6.4C11.7 6.8 12.3 6.8 12.7 6.4L13.7 5.3C14.6 4.5 15.7 4 17 4C18.2 4 19.3 4.5 20.2 5.3C21 6.2 21.5 7.3 21.5 8.5C21.5 9.7 21 10.8 20.1 11.7Z" fill="#464454"/>
</svg>
