<svg width="24" height="24" viewBox="0 0 24 24" fill="none" xmlns="http://www.w3.org/2000/svg">
<path d="M12 1C5.9 1 1 5.9 1 12C1 18.1 5.9 23 12 23C18.1 23 23 18.1 23 12C23 5.9 18.1 1 12 1ZM12 21C7 21 3 17 3 12C3 7 7 3 12 3C17 3 21 7 21 12C21 17 17 21 12 21Z" fill="#464454"/>
<path d="M13.2 6.20009C11.1 5.50009 8.79999 6.60009 8.09999 8.60009C7.99999 9.20009 8.19999 9.80009 8.79999 9.90009C9.29999 10.1001 9.89999 9.80009 10.1 9.30009C10.5 8.30009 11.6 7.70009 12.7 8.10009C13.5 8.40009 14 9.10009 14 10.0001C14 11.0001 12.3 11.8001 11.7 12.1001C11.2 12.3001 10.9 12.8001 11.1 13.4001C11.2 13.8001 11.6 14.1001 12 14.1001C12.1 14.1001 12.2 14.1001 12.3 14.0001C12.7 13.9001 16 12.7001 16 10.1001C15.9 8.30009 14.8 6.80009 13.2 6.20009Z" fill="#464454"/>
<path d="M12.7 16.3C12.3 15.9 11.6 15.9 11.3 16.3C11.2 16.4 11.1 16.5 11.1 16.6C11.1 16.7 11 16.8 11 17C11 17.3 11.1 17.5 11.3 17.7C11.5 17.9 11.7 18 12 18C12.3 18 12.5 17.9 12.7 17.7C12.8 17.6 12.9 17.5 12.9 17.4C12.9 17.3 13 17.2 13 17C13 16.8 13 16.7 12.9 16.6C12.9 16.5 12.8 16.4 12.7 16.3Z" fill="#464454"/>
</svg>
