<svg width="24" height="24" viewBox="0 0 24 24" fill="none" xmlns="http://www.w3.org/2000/svg">
<path d="M21.6 8.2001L12.6 1.2001C12.2 0.900098 11.7 0.900098 11.4 1.2001L2.4 8.2001C2.1 8.4001 2 8.7001 2 9.0001V20.0001C2 21.7001 3.3 23.0001 5 23.0001H19C20.7 23.0001 22 21.7001 22 20.0001V9.0001C22 8.7001 21.9 8.4001 21.6 8.2001ZM14 21.0001H10V13.0001H14V21.0001ZM20 20.0001C20 20.6001 19.6 21.0001 19 21.0001H16V12.0001C16 11.4001 15.6 11.0001 15 11.0001H9C8.4 11.0001 8 11.4001 8 12.0001V21.0001H5C4.4 21.0001 4 20.6001 4 20.0001V9.5001L12 3.3001L20 9.5001V20.0001Z" fill="#464454"/>
</svg>
