<svg width="24" height="24" viewBox="0 0 24 24" fill="none" xmlns="http://www.w3.org/2000/svg">
<path d="M17.5 17.7495C15.708 17.7495 14.25 16.2915 14.25 14.4995C14.25 12.7075 15.708 11.2495 17.5 11.2495C19.292 11.2495 20.75 12.7075 20.75 14.4995C20.75 16.2915 19.292 17.7495 17.5 17.7495ZM17.5 12.7495C16.5352 12.7495 15.75 13.5347 15.75 14.4995C15.75 15.4643 16.5352 16.2495 17.5 16.2495C18.4648 16.2495 19.25 15.4643 19.25 14.4995C19.25 13.5347 18.4648 12.7495 17.5 12.7495ZM22.75 21.9995V20.9995C22.75 19.4829 21.5166 18.2495 20 18.2495H15C13.4834 18.2495 12.25 19.4829 12.25 20.9995V21.9995C12.25 22.4136 12.5859 22.7495 13 22.7495C13.4141 22.7495 13.75 22.4136 13.75 21.9995V20.9995C13.75 20.3101 14.3105 19.7495 15 19.7495H20C20.6894 19.7495 21.25 20.3101 21.25 20.9995V21.9995C21.25 22.4136 21.5859 22.7495 22 22.7495C22.4141 22.7495 22.75 22.4136 22.75 21.9995ZM10.5625 4.27636C8.53613 4.08056 6.61328 4.93359 5.40039 6.54931C5.15137 6.88036 5.21826 7.35058 5.5498 7.59911C5.88037 7.84862 6.35058 7.78124 6.5996 7.4497C7.49706 6.25536 8.92431 5.62939 10.4199 5.76952C12.5679 5.9746 14.25 7.92675 14.25 10.2143V11.4031C14.6726 10.9596 15.1779 10.596 15.75 10.3537V10.2143C15.75 7.16209 13.4712 4.55371 10.5625 4.27636ZM17.25 9.9995V10.0248C17.3344 10.02 17.4144 9.9995 17.5 9.9995C17.9366 9.9995 18.3505 10.0816 18.75 10.1981V9.9995C18.75 8.46141 18.3452 6.94872 17.5791 5.62401C17.3716 5.26561 16.9116 5.14256 16.5542 5.35008C16.1958 5.5576 16.0732 6.01658 16.2803 6.37498C16.9145 7.47166 17.25 8.72509 17.25 9.9995ZM9.51562 2.76512C10.9643 2.67479 12.3848 3.00194 13.6245 3.71873C13.9829 3.92771 14.4424 3.80418 14.6489 3.44529C14.8564 3.08689 14.7344 2.62791 14.3755 2.42088C12.8784 1.55418 11.1606 1.15965 9.41894 1.26805C4.83838 1.56493 1.25 5.5205 1.25 10.2734V13.5698C1.25 13.9839 1.58594 14.3198 2 14.3198C2.41406 14.3198 2.75 13.9839 2.75 13.5698V10.2734C2.75 6.30859 5.72168 3.01072 9.51562 2.76512ZM11 20.9995C11 20.4677 11.109 19.962 11.2982 19.4974C9.70703 18.1341 8.75 16.1396 8.75 13.9995V9.9995C8.75 9.63231 8.91064 9.28514 9.19092 9.04686C9.47412 8.80467 9.8374 8.70702 10.2158 8.76707C10.8052 8.86277 11.25 9.43846 11.25 10.1064V14.9995C11.25 16.1396 11.7722 17.15 12.5777 17.8383C12.969 17.5376 13.4145 17.3126 13.9005 17.1725C13.8075 17.0475 13.7242 16.9178 13.6444 16.7834C13.1045 16.3721 12.75 15.7291 12.75 14.9995V10.1064C12.75 8.71092 11.7637 7.49901 10.456 7.28661C9.65087 7.15673 8.83447 7.38085 8.21875 7.90429C7.60303 8.42822 7.25 9.19189 7.25 9.9995V13.9995C7.25 16.8735 8.67236 19.5367 11 21.1637V20.9995ZM8.37549 20.5473C6.75586 19.6108 5.75 17.8677 5.75 15.9995V9.9995C5.75 9.58544 5.41406 9.2495 5 9.2495C4.58594 9.2495 4.25 9.58544 4.25 9.9995V15.9995C4.25 18.4014 5.54297 20.6416 7.62451 21.8462C7.74267 21.9145 7.87158 21.9468 7.99951 21.9468C8.2583 21.9468 8.51025 21.8125 8.64941 21.5723C8.85644 21.2139 8.73389 20.7549 8.37549 20.5473Z" fill="#464454" stroke="#464454" stroke-width="0.3"/>
</svg>
