<svg width="24" height="24" viewBox="0 0 24 24" fill="none" xmlns="http://www.w3.org/2000/svg">
<path d="M21.0274 17.5006L22.2237 16.3048C22.5635 15.9655 22.75 15.5143 22.75 15.0343C22.75 14.5538 22.5635 14.1027 22.2237 13.7638L21.2373 12.7765C20.5362 12.0773 19.3975 12.0768 18.6963 12.777L17.5 13.9733L16.3037 12.7765C15.6025 12.0773 14.4639 12.0768 13.7627 12.777L12.7764 13.7633C12.4365 14.1027 12.25 14.5543 12.25 15.0338C12.25 15.5143 12.4365 15.9655 12.7764 16.3043L13.9727 17.5006L12.7764 18.6964C12.4365 19.0363 12.25 19.4874 12.25 19.9679C12.25 20.4479 12.4375 20.899 12.7764 21.2374L13.7627 22.2247C14.1133 22.5743 14.5732 22.7491 15.0332 22.7491C15.4932 22.7491 15.9531 22.5743 16.3037 22.2242L17.5 21.0279L18.6963 22.2247C19.3975 22.924 20.5361 22.9244 21.2373 22.2242L22.2237 21.2379C22.5635 20.8986 22.75 20.4474 22.75 19.9669C22.75 19.4869 22.5635 19.0358 22.2237 18.6969L21.0274 17.5006ZM21.1631 20.1769L20.1768 21.1632C20.0615 21.2794 19.8721 21.2789 19.7569 21.1637L18.0303 19.4371C17.7373 19.1442 17.2627 19.1442 16.9697 19.4371L15.2432 21.1632C15.128 21.2794 14.9385 21.2789 14.8233 21.1637L13.836 20.1764C13.7608 20.1012 13.75 20.0133 13.75 19.9674C13.75 19.9215 13.7608 19.8331 13.8369 19.7575L15.5635 18.0309C15.8565 17.7379 15.8565 17.2633 15.5635 16.9703L13.8369 15.2433C13.7608 15.1681 13.75 15.0797 13.75 15.0338C13.75 14.9879 13.7608 14.9 13.8369 14.8239L14.8233 13.838C14.8809 13.7799 14.9571 13.7511 15.0332 13.7511C15.1094 13.7511 15.1856 13.7799 15.2432 13.8376L16.9697 15.5641C17.2627 15.8571 17.7373 15.8571 18.0303 15.5641L19.7569 13.838C19.8721 13.7218 20.0615 13.7223 20.1768 13.8376L21.1631 14.8249C21.2393 14.9001 21.25 14.9884 21.25 15.0343C21.25 15.0797 21.2393 15.1681 21.1631 15.2438L19.4365 16.9703C19.1436 17.2633 19.1436 17.7379 19.4365 18.0309L21.1631 19.758C21.2393 19.8332 21.25 19.9215 21.25 19.9669C21.25 20.0128 21.2393 20.1012 21.1631 20.1769Z" fill="#464454" stroke="#464454" stroke-width="0.3"/>
<path d="M17.25 10.0007V11.9557L17.5 12.2053L17.8125 11.8933C18.0899 11.6159 18.4103 11.4097 18.75 11.262V10.0007C18.75 8.46263 18.3447 6.94994 17.5791 5.62523C17.3701 5.26683 16.9151 5.14281 16.5537 5.3513C16.1953 5.55882 16.0733 6.0178 16.2803 6.3762C16.9151 7.47288 17.25 8.72631 17.25 10.0007Z" fill="#464454" stroke="#464454" stroke-width="0.3"/>
<path d="M15.75 11.0982V10.2153C15.75 7.16309 13.4717 4.5547 10.5625 4.27735C8.53025 4.08497 6.61228 4.93458 5.40037 6.5503C5.15135 6.88135 5.21873 7.35157 5.54978 7.6001C5.88181 7.84912 6.35056 7.78125 6.59958 7.45069C7.49606 6.25635 8.93259 5.6338 10.4199 5.77051C12.5674 5.97559 14.25 7.92774 14.25 10.2153V11.1176C14.7421 10.9872 15.2556 10.979 15.75 11.0982Z" fill="#464454" stroke="#464454" stroke-width="0.3"/>
<path d="M9.51562 2.76602C10.9639 2.67178 12.3848 3.00186 13.624 3.71963C13.9834 3.93008 14.4424 3.80459 14.6494 3.44668C14.8564 3.08779 14.7344 2.6293 14.376 2.42178C12.8779 1.55459 11.166 1.15713 9.41894 1.26895C4.83887 1.56583 1.25 5.5214 1.25 10.2743V13.5707C1.25 13.9848 1.58594 14.3207 2 14.3207C2.41406 14.3207 2.75 13.9848 2.75 13.5707V10.2743C2.75 6.30997 5.72168 3.01162 9.51562 2.76602Z" fill="#464454" stroke="#464454" stroke-width="0.3"/>
<path d="M8.37598 20.5483C6.75586 19.6118 5.75 17.8691 5.75 16.0005V10.0005C5.75 9.58643 5.41406 9.25049 5 9.25049C4.58594 9.25049 4.25 9.58643 4.25 10.0005V16.0005C4.25 18.4028 5.54297 20.6431 7.62402 21.8472C7.74316 21.9155 7.87207 21.9478 7.99902 21.9478C8.25781 21.9478 8.50976 21.8135 8.64941 21.5732C8.85644 21.2148 8.73438 20.7559 8.37598 20.5483Z" fill="#464454" stroke="#464454" stroke-width="0.3"/>
<path d="M11.8926 12.8798L12.75 12.0223V10.1078C12.75 8.71227 11.7637 7.50036 10.456 7.28796C9.64746 7.15564 8.83398 7.3822 8.21875 7.90564C7.60352 8.42957 7.25 9.19324 7.25 10.0009V14.0009C7.25 17.0766 8.83826 19.8494 11.3864 21.4268C11.1427 20.9836 11 20.4894 11 19.9686C10.9998 19.7421 11.0297 19.5211 11.0773 19.3052C9.62555 17.9612 8.75 16.0677 8.75 14.0009V10.0009C8.75 9.63366 8.91113 9.28649 9.19043 9.04821C9.47461 8.807 9.83398 8.70544 10.2158 8.76842C10.8057 8.86412 11.25 9.43981 11.25 10.1078V13.8308C11.4007 13.4808 11.6147 13.1574 11.8926 12.8798Z" fill="#464454" stroke="#464454" stroke-width="0.3"/>
</svg>
