<svg width="24" height="24" viewBox="0 0 24 24" fill="none" xmlns="http://www.w3.org/2000/svg">
<path d="M10.6494 21.5723C10.5098 21.8125 10.2578 21.9468 9.99902 21.9468C9.87207 21.9468 9.74316 21.9146 9.62402 21.8462C7.54297 20.6421 6.25 18.4019 6.25 15.9995V9.99952C6.25 9.58546 6.58594 9.24952 7 9.24952C7.41406 9.24952 7.75 9.58546 7.75 9.99952V15.9995C7.75 17.8682 8.75586 19.6109 10.376 20.5474C10.7344 20.7549 10.8564 21.2139 10.6494 21.5723ZM17 15.2495C17.4141 15.2495 17.75 14.9136 17.75 14.4995V10.2144C17.75 7.16212 15.4717 4.55373 12.5625 4.27638C10.5332 4.08253 8.6123 4.93409 7.40039 6.54933C7.15137 6.88038 7.21875 7.3506 7.5498 7.59913C7.88085 7.84913 8.35156 7.78028 8.5996 7.44972C9.49608 6.25538 10.9316 5.63136 12.4199 5.76954C14.5674 5.97462 16.25 7.92677 16.25 10.2144V14.4995C16.25 14.9136 16.5859 15.2495 17 15.2495ZM11.5156 2.76515C12.9658 2.67433 14.3848 3.00099 15.624 3.71876C15.9834 3.92823 16.4424 3.80421 16.6494 3.44581C16.8564 3.08692 16.7344 2.62843 16.376 2.42091C14.8779 1.55372 13.167 1.15773 11.4189 1.26808C6.83887 1.56495 3.25 5.52052 3.25 10.2735V13.5698C3.25 13.9839 3.58594 14.3198 4 14.3198C4.41406 14.3198 4.75 13.9839 4.75 13.5698V10.2735C4.75 6.30909 7.72168 3.01075 11.5156 2.76515ZM19.5791 5.62404C19.3701 5.26564 18.915 5.14211 18.5537 5.35011C18.1953 5.55763 18.0732 6.01661 18.2803 6.37501C18.915 7.47169 19.25 8.72511 19.25 9.99952V14.9995C19.25 16.2402 18.2402 17.2495 17 17.2495C15.7598 17.2495 14.75 16.2402 14.75 14.9995V10.1065C14.75 8.71094 13.7637 7.49903 12.456 7.28663C11.6465 7.15431 10.834 7.38087 10.2188 7.90431C9.60352 8.42824 9.25 9.19191 9.25 9.99952V13.9995C9.25 18.8242 13.1748 22.7495 18 22.7495C18.4141 22.7495 18.75 22.4136 18.75 21.9995C18.75 21.5855 18.4141 21.2495 18 21.2495C14.002 21.2495 10.75 17.9971 10.75 13.9995V9.99952C10.75 9.63233 10.9111 9.28516 11.1904 9.04688C11.4736 8.80567 11.8291 8.70508 12.2158 8.76709C12.8057 8.86279 13.25 9.43848 13.25 10.1065V14.9995C13.25 17.0674 14.9326 18.7495 17 18.7495C19.0674 18.7495 20.75 17.0674 20.75 14.9995V9.99952C20.75 8.46143 20.3447 6.94875 19.5791 5.62404Z" fill="#464454" stroke="#464454" stroke-width="0.3"/>
</svg>
