<svg width="24" height="24" viewBox="0 0 24 24" fill="none" xmlns="http://www.w3.org/2000/svg">
<path d="M22.2933 14.8827L21.1459 13.7358C20.558 13.1449 19.5297 13.1454 18.9379 13.7353L15.9867 16.6869L15.0629 15.7626C14.4711 15.1737 13.4427 15.1732 12.8549 15.7631L11.7079 16.9101C11.413 17.205 11.2504 17.5971 11.2504 18.0141C11.2504 18.4311 11.413 18.8231 11.7079 19.1176L14.8822 22.2929C15.1781 22.5873 15.5697 22.7499 15.9867 22.7499C16.4037 22.7499 16.7963 22.5873 17.0902 22.2924L22.2933 17.0897C22.9017 16.4818 22.9017 15.4916 22.2933 14.8827ZM21.2328 16.0292L15.9427 21.2318L12.7684 17.9706L14.0023 16.8236L15.4564 18.2777C15.7377 18.559 16.2357 18.559 16.517 18.2777L20.0853 14.7958L21.2328 15.9428V16.0292ZM16.2806 6.3754C16.0736 6.017 16.1957 5.55802 16.5541 5.3505C16.9144 5.142 17.3705 5.26603 17.5795 5.62443C18.3451 6.94914 18.7504 8.46183 18.7504 9.99992V12.3681C18.4986 12.4939 18.259 12.6468 18.0541 12.8515L17.2504 13.6552V9.99993C17.2504 8.72552 16.9154 7.47208 16.2806 6.3754ZM14.2504 14.1092V10.2148C14.2504 7.92716 12.5682 5.97501 10.4203 5.76994C8.92615 5.62883 7.49744 6.25578 6.59998 7.45012C6.35144 7.78215 5.88172 7.84856 5.55018 7.59953C5.21864 7.35099 5.15174 6.88078 5.40077 6.54973C6.61317 4.93401 8.53944 4.0844 10.5629 4.27678C13.4721 4.55412 15.7504 7.16252 15.7504 10.2148V14.4999C15.7504 14.5672 15.7287 14.6277 15.712 14.6898C15.2877 14.3548 14.7794 14.1614 14.2504 14.1092ZM2.75037 10.2738V13.5702C2.75037 13.9843 2.41443 14.3202 2.00037 14.3202C1.58631 14.3202 1.25037 13.9843 1.25037 13.5702V10.2738C1.25038 5.52091 4.83876 1.56535 9.41932 1.26847C11.1591 1.15665 12.8783 1.55411 14.3763 2.4213C14.7347 2.62833 14.8568 3.08732 14.6498 3.44571C14.4418 3.80411 13.9847 3.9296 13.6244 3.71915C12.3851 3.00186 10.9677 2.67618 9.516 2.76554C5.72205 3.01115 2.75037 6.309 2.75037 10.2738ZM8.64978 21.5727C8.51062 21.8129 8.25867 21.9472 7.99988 21.9472C7.87195 21.9472 7.74304 21.9149 7.62488 21.8466C5.54334 20.642 4.25037 18.4018 4.25037 15.9999V9.99991C4.25037 9.58585 4.58631 9.24991 5.00037 9.24991C5.41443 9.24991 5.75037 9.58585 5.75037 9.99991V15.9999C5.75037 17.8681 6.75623 19.6112 8.37586 20.5478C8.73426 20.7553 8.85681 21.2143 8.64978 21.5727ZM10.8236 20.0014L13.0666 22.2448C9.60614 21.0172 7.25037 17.7319 7.25037 13.9999V9.99992C7.25037 9.1923 7.6034 8.42863 8.21912 7.90471C8.83435 7.38078 9.64978 7.15471 10.4564 7.28703C11.764 7.49943 12.7504 8.71135 12.7504 10.1068V14.3529C12.4661 14.4831 12.198 14.6518 11.9711 14.8793L11.2971 15.5533C11.27 15.3708 11.2504 15.1868 11.2504 14.9999V10.1068C11.2504 9.43887 10.8055 8.86319 10.2162 8.76748C9.83777 8.70596 9.47449 8.80557 9.19129 9.04727C8.91102 9.28555 8.75037 9.63272 8.75037 9.99991V13.9999C8.75037 15.4837 9.21857 16.8695 10.0024 18.0355C10.0081 18.7788 10.2985 19.4767 10.8236 20.0014Z" fill="#464454" stroke="#464454" stroke-width="0.3"/>
</svg>
