<svg width="24" height="24" viewBox="0 0 24 24" fill="none" xmlns="http://www.w3.org/2000/svg">
<path d="M22.9 11.6L19.4 4.7C18.9 3.7 17.9 3 16.7 3H7.2C6.1 3 5.1 3.6 4.6 4.7L1.2 11.6C1 11.7 1 11.8 1 12V18C1 19.7 2.3 21 4 21H20C21.7 21 23 19.7 23 18V12C23 11.8 23 11.7 22.9 11.6ZM6.3 5.6C6.5 5.2 6.9 5 7.2 5H16.7C17.1 5 17.4 5.2 17.6 5.6L20.3 11H16C15.7 11 15.4 11.2 15.2 11.4L13.5 14H10.6L8.9 11.4C8.6 11.2 8.3 11 8 11H3.6L6.3 5.6ZM20 19H4C3.4 19 3 18.6 3 18V13H7.5L9.2 15.6C9.4 15.8 9.7 16 10 16H14C14.3 16 14.6 15.8 14.8 15.6L16.5 13H21V18C21 18.6 20.6 19 20 19Z" fill="#464454"/>
</svg>
