<svg width="24" height="24" viewBox="0 0 24 24" fill="none" xmlns="http://www.w3.org/2000/svg">
<path fill-rule="evenodd" clip-rule="evenodd" d="M12 1C5.9 1 1 5.9 1 12C1 18.1 5.9 23 12 23C18.1 23 23 18.1 23 12C23 5.9 18.1 1 12 1ZM12 21C7 21 3 17 3 12C3 7 7 3 12 3C17 3 21 7 21 12C21 17 17 21 12 21ZM12 11C11.4 11 11 11.4 11 12V16C11 16.6 11.4 17 12 17C12.6 17 13 16.6 13 16V12C13 11.4 12.6 11 12 11ZM12.85 7.50002C12.875 7.52502 12.9 7.55002 12.9 7.60002C12.9 7.65002 12.925 7.67502 12.95 7.70002C12.975 7.72502 13 7.75002 13 7.80002V8.00002C13 8.30002 12.9 8.50002 12.7 8.70002L12.6 8.80002C12.55 8.80002 12.525 8.82502 12.5 8.85002C12.475 8.87502 12.45 8.90002 12.4 8.90002L12.4 8.90003C12.3 9.00002 12.3 9.00002 12.2 9.00002H12C11.9 9.00002 11.7 9.00002 11.6 8.90002C11.5 8.90002 11.4 8.80002 11.3 8.70002C11.1 8.50002 11 8.30002 11 8.00002V7.80002C11.0575 7.74252 11.0819 7.71808 11.0923 7.68868C11.1 7.66696 11.1 7.64252 11.1 7.60002C11.1 7.55002 11.125 7.52502 11.15 7.50002C11.175 7.47502 11.2 7.45002 11.2 7.40002L11.3 7.30002C11.35 7.25002 11.4 7.22502 11.45 7.20002C11.5 7.17502 11.55 7.15002 11.6 7.10002C12 6.90002 12.4 7.00002 12.7 7.30002C12.7 7.30002 12.8 7.30002 12.8 7.40002C12.8 7.45002 12.825 7.47502 12.85 7.50002Z" fill="#464454"/>
</svg>
