<svg width="24" height="24" viewBox="0 0 24 24" fill="none" xmlns="http://www.w3.org/2000/svg">
<path d="M20.6851 7.3L18.8791 5.5L19.6817 4.7C20.0831 4.3 20.0831 3.7 19.6817 3.3C19.2804 2.9 18.6784 2.9 18.277 3.3L16.6717 4.9L13.8623 7.7L10.7518 10.8C8.74513 9.8 6.33707 10.1 4.63135 11.7C2.5243 13.8 2.42396 17.2 4.53102 19.4C5.53438 20.5 6.93908 21 8.34378 21C9.74849 21 11.1532 20.5 12.2569 19.4C14.2636 17.4 14.3639 14.1 12.4576 12L14.7653 9.7L16.5713 11.5C16.772 11.7 17.073 11.8 17.2737 11.8C17.4744 11.8 17.7754 11.7 17.976 11.5L20.7854 8.7C21.0864 8.4 21.0864 7.7 20.6851 7.3ZM10.7518 18C9.44748 19.3 7.24009 19.4 5.83539 18C4.53102 16.6 4.53102 14.5 5.93572 13.2C6.63807 12.6 7.44076 12.2 8.34378 12.2C9.24681 12.2 10.0495 12.5 10.7518 13.2C12.0562 14.5 12.0562 16.6 10.7518 18ZM17.1733 9.4L16.0697 8.3L17.4744 6.9L18.578 8L17.1733 9.4Z" fill="#464454"/>
</svg>
