<svg width="24" height="24" viewBox="0 0 24 24" fill="none" xmlns="http://www.w3.org/2000/svg">
<path d="M18 2.77981C17.9492 2.55423 17.8218 2.35322 17.6394 2.21101C17.4571 2.0688 17.2311 1.99416 17 1.99981H6.99997C6.76881 1.99416 6.54283 2.0688 6.36051 2.21101C6.17818 2.35322 6.05077 2.55423 5.99997 2.77981L3.99997 11.7798C3.96685 11.9274 3.96765 12.0806 4.00229 12.2278C4.03693 12.375 4.10452 12.5125 4.19997 12.6298C4.29619 12.7485 4.41833 12.8436 4.55701 12.9077C4.69569 12.9718 4.84722 13.0034 4.99997 12.9998H8.93997C8.98018 13.3316 9.00022 13.6656 8.99997 13.9998C9.00933 16.3569 8.08537 18.6219 6.42997 20.2998C6.29236 20.4402 6.19919 20.618 6.16208 20.8111C6.12498 21.0041 6.14559 21.2038 6.22135 21.3852C6.29711 21.5666 6.42465 21.7216 6.58803 21.831C6.75142 21.9403 6.94339 21.999 7.13997 21.9998H16.86C17.0565 21.999 17.2485 21.9403 17.4119 21.831C17.5753 21.7216 17.7028 21.5666 17.7786 21.3852C17.8544 21.2038 17.875 21.0041 17.8379 20.8111C17.8008 20.618 17.7076 20.4402 17.57 20.2998C15.9146 18.6219 14.9906 16.3569 15 13.9998C14.9997 13.6656 15.0198 13.3316 15.06 12.9998H16V14.9998C16 15.265 16.1053 15.5194 16.2929 15.7069C16.4804 15.8945 16.7348 15.9998 17 15.9998C17.2652 15.9998 17.5195 15.8945 17.7071 15.7069C17.8946 15.5194 18 15.265 18 14.9998V12.9998H19C19.1494 13.0003 19.297 12.9673 19.432 12.9033C19.5669 12.8393 19.6859 12.7458 19.78 12.6298C19.8754 12.5125 19.943 12.375 19.9777 12.2278C20.0123 12.0806 20.0131 11.9274 19.98 11.7798L18 2.77981ZM9.21997 19.9998C10.3871 18.2168 11.0059 16.1308 11 13.9998C11 13.6698 11 13.3298 10.95 12.9998H13.05C13.05 13.3298 13 13.6698 13 13.9998C12.994 16.1308 13.6129 18.2168 14.78 19.9998H9.21997ZM6.21997 10.9998L7.79997 3.99981H16.2L17.75 10.9998H6.21997Z" fill="#464454"/>
</svg>
