<svg width="24" height="24" viewBox="0 0 24 24" fill="none" xmlns="http://www.w3.org/2000/svg">
<path d="M18.875 21C19.55 21 20 20.55 20 19.875L20 4.125C20 3.45 19.55 3 18.875 3C18.2 3 17.75 3.45 17.75 4.125L17.75 19.875C17.75 20.55 18.2 21 18.875 21Z" fill="#464454"/>
<path d="M13.625 11.1L6.125 3.38571C5.625 2.87143 4.875 2.87143 4.375 3.38571C3.875 3.9 3.875 4.67143 4.375 5.18571L11 12L4.375 18.8143C3.875 19.3286 3.875 20.1 4.375 20.6143C4.625 20.8714 4.875 21 5.25 21C5.625 21 5.875 20.8714 6.125 20.6143L13.625 12.9C14.125 12.3857 14.125 11.6143 13.625 11.1Z" fill="#464454"/>
</svg>
