<svg width="24" height="24" viewBox="0 0 24 24" fill="none" xmlns="http://www.w3.org/2000/svg">
<path d="M1.6 7.8999L11.6 12.8999C11.7 12.9999 11.8 12.9999 12 12.9999C12.2 12.9999 12.3 12.9999 12.4 12.8999L22.4 7.8999C22.8 7.6999 23 7.3999 23 6.9999C23 6.5999 22.8 6.2999 22.4 6.0999L12.4 1.0999C12.1 0.999902 11.8 0.999902 11.5 1.0999L1.5 6.0999C1.2 6.2999 1 6.5999 1 6.9999C1 7.3999 1.2 7.6999 1.6 7.8999ZM12 3.0999L19.8 6.9999L12 10.8999L4.2 6.9999L12 3.0999Z" fill="#464454"/>
<path d="M21.6 16.0999L12 20.8999L2.40001 16.0999C1.90001 15.8999 1.30001 16.0999 1.10001 16.4999C0.900006 16.8999 1.10001 17.5999 1.50001 17.7999L11.5 22.7999C11.7 22.9999 11.8 22.9999 12 22.9999C12.2 22.9999 12.3 22.9999 12.4 22.8999L22.4 17.8999C22.9 17.6999 23.1 17.0999 22.8 16.5999C22.6 16.0999 22 15.8999 21.6 16.0999Z" fill="#464454"/>
<path d="M21.6 11.0999L12 15.8999L2.40001 11.0999C1.90001 10.8999 1.30001 11.0999 1.10001 11.4999C0.900006 11.9999 1.10001 12.5999 1.50001 12.7999L11.5 17.7999C11.7 17.9999 11.8 17.9999 12 17.9999C12.2 17.9999 12.3 17.9999 12.4 17.8999L22.4 12.8999C22.9 12.6999 23.1 12.0999 22.8 11.5999C22.6 11.0999 22 10.8999 21.6 11.0999Z" fill="#464454"/>
</svg>
