<svg width="24" height="24" viewBox="0 0 24 24" fill="none" xmlns="http://www.w3.org/2000/svg">
<path d="M18.7 9.8C18.6 9.6 18.6 9.4 18.6 9.1L19.8 4.7C20 4.1 20 3.5 19.6 2.9C19.2 2.3 18.6 2 17.9 2H15.6C14.8 2 14.1 2.5 13.8 3.2L12 7.2L10.2 3.2C9.9 2.5 9.1 2 8.4 2H6.1C5.4 2 4.7 2.3 4.4 2.9C4 3.5 4 4.1 4.2 4.7L5.4 9.1C5.5 9.3 5.4 9.6 5.3 9.8L4 12.7V20C4 21.1 4.9 22 6 22H11H13H18C19.1 22 20 21.1 20 20V12.7L18.7 9.8ZM11 13.3V15.5H6V13.3H11ZM13 13.3H18V15.5H13V13.3ZM15.6 4H17.9L16.7 8.7C16.5 9.4 16.6 10.1 16.9 10.7L17 11H13V9.8L15.6 4ZM8.4 4L11 9.8V11H7L7.2 10.6C7.5 10 7.5 9.3 7.4 8.6L6.1 4.2V4H8.4ZM6 20V17.8H11V20H6ZM13 20V17.8H18V20H13Z" fill="#464454"/>
</svg>
