<svg width="24" height="24" viewBox="0 0 24 24" fill="none" xmlns="http://www.w3.org/2000/svg">
<path d="M19.8 19.8C21.8 17.8 23 15.1 23 12C23 9 21.8 6.2 19.8 4.2C17.8 2.2 15 1 12 1C9 1 6.2 2.2 4.2 4.2C2.2 6.2 1 9 1 12C1 15 2.2 17.8 4.2 19.8C6.2 21.8 8.9 23 12 23C15 23 17.8 21.8 19.8 19.8ZM19 17.6L16.1 14.7C16.7 14 17 13 17 12C17 11 16.7 10 16.2 9.2L19 6.4C20.2 7.9 21 9.9 21 12C21 14.1 20.3 16.1 19 17.6ZM9 12C9 10.3 10.3 9 12 9C13.7 9 15 10.3 15 12C15 13.7 13.7 15 12 15C10.3 15 9 13.7 9 12ZM17.6 5L14.7 7.9C14 7.3 13 7 12 7C11 7 10 7.3 9.2 7.8L6.4 5C7.9 3.7 9.9 3 12 3C14.1 3 16.1 3.7 17.6 5ZM5 6.4L7.9 9.3C7.3 10 7 11 7 12C7 13 7.3 14 7.8 14.8L5 17.6C3.8 16.1 3 14.1 3 12C3 9.9 3.7 7.9 5 6.4ZM6.4 19L9.3 16.1C10 16.7 11 17 12 17C13 17 14 16.7 14.8 16.2L17.7 19.1C16.2 20.3 14.2 21.1 12.1 21.1C9.9 21 7.9 20.3 6.4 19Z" fill="#464454"/>
</svg>
