<svg width="24" height="24" viewBox="0 0 24 24" fill="none" xmlns="http://www.w3.org/2000/svg">
<path d="M9.96805 5C9.96805 4.447 10.4161 4 10.9681 4H21.0001C21.5521 4 22.0001 4.447 22.0001 5C22.0001 5.553 21.5521 6 21.0001 6H10.9681C10.4161 6 9.96805 5.553 9.96805 5ZM6.29205 16.424L6.00005 16.692V12.275V7.308L6.29205 7.576C6.48505 7.753 6.72705 7.84 6.96905 7.84C7.24005 7.84 7.50905 7.732 7.70605 7.517C8.08005 7.11 8.05305 6.477 7.64605 6.104L5.74105 4.354C5.55505 4.141 5.28905 4 4.98505 4C4.68005 4 4.41605 4.14 4.22905 4.352L2.32305 6.104C1.91605 6.478 1.89005 7.11 2.26305 7.517C2.63705 7.923 3.26805 7.951 3.67605 7.577L3.96805 7.309V12.726V16.693L3.67605 16.425C3.48405 16.247 3.24205 16.16 3.00005 16.16C2.72905 16.16 2.46005 16.268 2.26305 16.483C1.88905 16.89 1.91605 17.523 2.32305 17.896L4.22805 19.646C4.41505 19.859 4.68005 20 4.98505 20C5.28905 20 5.55405 19.86 5.74005 19.648L7.64605 17.897C8.05305 17.523 8.07905 16.891 7.70605 16.484C7.33205 16.077 6.70005 16.05 6.29205 16.424ZM21.0001 13.333H10.9681C10.4161 13.333 9.96805 13.78 9.96805 14.333C9.96805 14.886 10.4161 15.333 10.9681 15.333H21.0001C21.5521 15.333 22.0001 14.886 22.0001 14.333C22.0001 13.78 21.5521 13.333 21.0001 13.333ZM21.0001 18H10.9681C10.4161 18 9.96805 18.447 9.96805 19C9.96805 19.553 10.4161 20 10.9681 20H21.0001C21.5521 20 22.0001 19.553 22.0001 19C22.0001 18.447 21.5521 18 21.0001 18ZM21.0001 8.667H10.9681C10.4161 8.667 9.96805 9.114 9.96805 9.667C9.96805 10.22 10.4161 10.667 10.9681 10.667H21.0001C21.5521 10.667 22.0001 10.22 22.0001 9.667C22.0001 9.114 21.5521 8.667 21.0001 8.667Z" fill="#464454"/>
</svg>
