<svg width="24" height="24" viewBox="0 0 24 24" fill="none" xmlns="http://www.w3.org/2000/svg">
<path d="M21.1 2.8002C18.8 0.500195 15.1 0.500195 12.8 2.8002L11 4.5002C10.6 4.9002 10.6 5.5002 11 5.9002C11.4 6.3002 12 6.3002 12.4 5.9002L14.1 4.2002C15.7 2.7002 18.1 2.7002 19.7 4.2002C21.3 5.7002 21.3 8.3002 19.8 9.8002L16.8 12.8002C16.7 12.9002 16.5 13.1002 16.4 13.2002C14.6 14.5002 12.1 14.2002 10.8 12.4002C10.5 12.0002 9.80001 11.9002 9.40001 12.2002C9.00001 12.5002 8.90001 13.2002 9.20001 13.6002C10.4 15.2002 12.2 16.0002 14 16.0002C15.2 16.0002 16.5 15.6002 17.6 14.8002C17.8 14.6002 18 14.4002 18.3 14.2002L21.3 11.2002C23.6 8.9002 23.5 5.0002 21.1 2.8002Z" fill="#464454"/>
<path d="M11.5 18.1004L9.80002 19.8004C8.20002 21.3004 5.80002 21.3004 4.20002 19.8004C2.60002 18.3004 2.60002 15.7004 4.10002 14.2004L7.10002 11.2004C7.20002 11.1004 7.40002 10.9004 7.50002 10.8004C8.40002 10.2004 9.40002 9.90037 10.5 10.0004C11.6 10.2004 12.5 10.7004 13.1 11.6004C13.4 12.0004 14.1 12.1004 14.5 11.8004C14.9 11.5004 15 10.8004 14.7 10.4004C13.7 9.10036 12.3 8.30037 10.8 8.10037C9.30002 7.80037 7.70002 8.20037 6.40002 9.20037C6.20002 9.40037 6.00002 9.60037 5.80002 9.80037L2.80002 12.8004C0.500021 15.2004 0.600022 19.0004 2.90002 21.3004C4.10002 22.4004 5.60002 23.0004 7.10002 23.0004C8.60002 23.0004 10.1 22.4004 11.3 21.3004L13 19.6004C13.4 19.2004 13.4 18.6004 13 18.2004C12.6 17.8004 11.9 17.7004 11.5 18.1004Z" fill="#464454"/>
</svg>
