<svg width="24" height="24" viewBox="0 0 24 24" fill="none" xmlns="http://www.w3.org/2000/svg">
<path d="M9 16H6C3.8 16 2 14.2 2 12C2 9.8 3.8 8 6 8H9C9.6 8 10 7.6 10 7C10 6.4 9.6 6 9 6H6C2.7 6 0 8.7 0 12C0 15.3 2.7 18 6 18H9C9.6 18 10 17.6 10 17C10 16.4 9.6 16 9 16Z" fill="#464454"/>
<path d="M18 6H15C14.4 6 14 6.4 14 7C14 7.6 14.4 8 15 8H18C20.2 8 22 9.8 22 12C22 14.2 20.2 16 18 16H15C14.4 16 14 16.4 14 17C14 17.6 14.4 18 15 18H18C21.3 18 24 15.3 24 12C24 8.7 21.3 6 18 6Z" fill="#464454"/>
<path d="M7 12C7 12.6 7.4 13 8 13H16C16.6 13 17 12.6 17 12C17 11.4 16.6 11 16 11H8C7.4 11 7 11.4 7 12Z" fill="#464454"/>
</svg>
