<svg width="24" height="24" viewBox="0 0 24 24" fill="none" xmlns="http://www.w3.org/2000/svg">
<path d="M8 7H21C21.6 7 22 6.6 22 6C22 5.4 21.6 5 21 5H8C7.4 5 7 5.4 7 6C7 6.6 7.4 7 8 7Z" fill="#464454"/>
<path d="M21 11H8C7.4 11 7 11.4 7 12C7 12.6 7.4 13 8 13H21C21.6 13 22 12.6 22 12C22 11.4 21.6 11 21 11Z" fill="#464454"/>
<path d="M21 17H8C7.4 17 7 17.4 7 18C7 18.6 7.4 19 8 19H21C21.6 19 22 18.6 22 18C22 17.4 21.6 17 21 17Z" fill="#464454"/>
<path d="M3.4 5.10015C3 4.90015 2.6 5.00015 2.3 5.30015C2.2 5.40015 2.1 5.50015 2.1 5.60015C2 5.70015 2 5.90015 2 6.00015C2 6.10015 2 6.10015 2 6.20015C2 6.30015 2 6.30015 2.1 6.40015C2.1 6.50015 2.2 6.50015 2.2 6.60015L2.3 6.70015L2.4 6.80015C2.5 6.80015 2.5 6.90015 2.6 6.90015C2.7 6.90015 2.7 6.90015 2.8 7.00015C2.9 7.00015 2.9 7.00015 3 7.00015C3.3 7.00015 3.5 6.90015 3.7 6.70015C3.7 6.60015 3.8 6.60015 3.8 6.60015C3.8 6.50015 3.9 6.50015 3.9 6.40015C3.9 6.30015 3.9 6.30015 4 6.20015C4 6.10015 4 6.10015 4 6.00015C4 5.70015 3.9 5.50015 3.7 5.30015C3.6 5.20015 3.5 5.10015 3.4 5.10015Z" fill="#464454"/>
<path d="M3.7 11.3C3.5 11.1 3.1 11 2.8 11C2.7 11 2.7 11 2.6 11.1C2.5 11.1 2.5 11.2 2.4 11.2C2.3 11.2 2.3 11.3 2.3 11.3C2.2 11.4 2.1 11.5 2.1 11.6C2 11.7 2 11.9 2 12C2 12.3 2.1 12.5 2.3 12.7L2.4 12.8C2.5 12.8 2.5 12.9 2.6 12.9C2.7 12.9 2.7 12.9 2.8 13C2.9 13 2.9 13 3 13C3.3 13 3.5 12.9 3.7 12.7C3.7 12.6 3.8 12.6 3.8 12.6C3.8 12.5 3.9 12.5 3.9 12.4C3.9 12.3 3.9 12.3 4 12.2C4 12.1 4 12.1 4 12C4 11.9 4 11.7 3.9 11.6C3.9 11.5 3.8 11.4 3.7 11.3Z" fill="#464454"/>
<path d="M3.7 17.3001C3.6 17.2001 3.5 17.1001 3.4 17.1001C3 16.9001 2.6 17.0001 2.3 17.3001C2.2 17.4001 2.1 17.5001 2.1 17.6001C2 17.7001 2 17.9001 2 18.0001C2 18.3001 2.1 18.5001 2.3 18.7001C2.4 18.8001 2.5 18.9001 2.6 18.9001C2.7 19.0001 2.9 19.0001 3 19.0001C3.3 19.0001 3.5 18.9001 3.7 18.7001C3.8 18.6001 3.9 18.5001 3.9 18.4001C4 18.3001 4 18.1001 4 18.0001C4 17.9001 4 17.7001 3.9 17.6001C3.9 17.5001 3.8 17.4001 3.7 17.3001Z" fill="#464454"/>
</svg>
