<svg width="24" height="24" viewBox="0 0 24 24" fill="none" xmlns="http://www.w3.org/2000/svg">
<path d="M12 1C11.4 1 11 1.4 11 2V6C11 6.6 11.4 7 12 7C12.6 7 13 6.6 13 6V2C13 1.4 12.6 1 12 1Z" fill="#464454"/>
<path d="M12 17C11.4 17 11 17.4 11 18V22C11 22.6 11.4 23 12 23C12.6 23 13 22.6 13 22V18C13 17.4 12.6 17 12 17Z" fill="#464454"/>
<path d="M5.60002 4.1999C5.20002 3.7999 4.60002 3.7999 4.20002 4.1999C3.80002 4.5999 3.80002 5.1999 4.20002 5.5999L7.00002 8.3999C7.20002 8.5999 7.50002 8.6999 7.70002 8.6999C7.90002 8.6999 8.20002 8.5999 8.40002 8.3999C8.80002 7.9999 8.80002 7.3999 8.40002 6.9999L5.60002 4.1999Z" fill="#464454"/>
<path d="M16.9 15.5002C16.5 15.1002 15.9 15.1002 15.5 15.5002C15.1 15.9002 15.1 16.5002 15.5 16.9002L18.3 19.7002C18.5 19.9002 18.8 20.0002 19 20.0002C19.2 20.0002 19.5 19.9002 19.7 19.7002C20.1 19.3002 20.1 18.7002 19.7 18.3002L16.9 15.5002Z" fill="#464454"/>
<path d="M7 12C7 11.4 6.6 11 6 11H2C1.4 11 1 11.4 1 12C1 12.6 1.4 13 2 13H6C6.6 13 7 12.6 7 12Z" fill="#464454"/>
<path d="M22 11H18C17.4 11 17 11.4 17 12C17 12.6 17.4 13 18 13H22C22.6 13 23 12.6 23 12C23 11.4 22.6 11 22 11Z" fill="#464454"/>
<path d="M7.1 15.5002L4.3 18.3002C3.9 18.7002 3.9 19.3002 4.3 19.7002C4.5 19.9002 4.8 20.0002 5 20.0002C5.2 20.0002 5.5 19.9002 5.7 19.7002L8.5 16.9002C8.9 16.5002 8.9 15.9002 8.5 15.5002C8.1 15.1002 7.4 15.1002 7.1 15.5002Z" fill="#464454"/>
<path d="M16.2 8.8C16.5 8.8 16.7 8.7 16.9 8.5L19.7 5.7C20.1 5.3 20.1 4.7 19.7 4.3C19.3 3.9 18.7 3.9 18.3 4.3L15.5 7.1C15.1 7.5 15.1 8.1 15.5 8.5C15.7 8.7 16 8.8 16.2 8.8Z" fill="#464454"/>
</svg>
