<svg width="24" height="24" viewBox="0 0 24 24" fill="none" xmlns="http://www.w3.org/2000/svg">
<path d="M18 9V7C18 3.7 15.3 1 12 1C8.7 1 6 3.7 6 7V9C4.3 9 3 10.3 3 12V20C3 21.7 4.3 23 6 23H18C19.7 23 21 21.7 21 20V12C21 10.3 19.7 9 18 9ZM8 7C8 4.8 9.8 3 12 3C14.2 3 16 4.8 16 7V9H8V7ZM19 20C19 20.6 18.6 21 18 21H6C5.4 21 5 20.6 5 20V12C5 11.4 5.4 11 6 11H18C18.6 11 19 11.4 19 12V20Z" fill="#464454"/>
<path d="M12 13.5C11.2 13.5 10.5 14.2 10.5 15C10.5 15.4 10.7 15.8 11 16.1V17.5C11 18.1 11.4 18.5 12 18.5C12.6 18.5 13 18.1 13 17.5V16.1C13.3 15.8 13.5 15.4 13.5 15C13.5 14.2 12.8 13.5 12 13.5Z" fill="#464454"/>
</svg>
