<svg width="24" height="24" viewBox="0 0 24 24" fill="none" xmlns="http://www.w3.org/2000/svg">
<path d="M9 20H5C4.4 20 4 19.6 4 19V5C4 4.4 4.4 4 5 4H9C9.6 4 10 3.6 10 3C10 2.4 9.6 2 9 2H5C3.3 2 2 3.3 2 5V19C2 20.7 3.3 22 5 22H9C9.6 22 10 21.6 10 21C10 20.4 9.6 20 9 20Z" fill="#464454"/>
<path d="M21.9 12.4C22 12.2 22 11.9 21.9 11.6C21.8 11.5 21.8 11.4 21.7 11.3L16.7 6.3C16.3 5.9 15.7 5.9 15.3 6.3C14.9 6.7 14.9 7.3 15.3 7.7L18.6 11H9C8.4 11 8 11.4 8 12C8 12.6 8.4 13 9 13H18.6L15.3 16.3C14.9 16.7 14.9 17.3 15.3 17.7C15.5 17.9 15.8 18 16 18C16.2 18 16.5 17.9 16.7 17.7L21.7 12.7C21.8 12.6 21.9 12.5 21.9 12.4Z" fill="#464454"/>
</svg>
