<svg width="24" height="24" viewBox="0 0 24 24" fill="none" xmlns="http://www.w3.org/2000/svg">
<path d="M19 2H15C14.4 2 14 2.4 14 3C14 3.6 14.4 4 15 4H19C19.6 4 20 4.4 20 5V19C20 19.6 19.6 20 19 20H15C14.4 20 14 20.4 14 21C14 21.6 14.4 22 15 22H19C20.7 22 22 20.7 22 19V5C22 3.3 20.7 2 19 2Z" fill="#464454"/>
<path d="M15.9 12.4C16 12.2 16 11.9 15.9 11.6C15.8 11.5 15.8 11.4 15.7 11.3L10.7 6.3C10.3 5.9 9.7 5.9 9.3 6.3C8.9 6.7 8.9 7.3 9.3 7.7L12.6 11H3C2.4 11 2 11.4 2 12C2 12.6 2.4 13 3 13H12.6L9.3 16.3C8.9 16.7 8.9 17.3 9.3 17.7C9.5 17.9 9.7 18 10 18C10.3 18 10.5 17.9 10.7 17.7L15.7 12.7C15.8 12.6 15.9 12.5 15.9 12.4Z" fill="#464454"/>
</svg>
