<svg width="24" height="24" viewBox="0 0 24 24" fill="none" xmlns="http://www.w3.org/2000/svg">
<path d="M14.975 4H18.975C19.575 4 19.975 4.4 19.975 5L19.975 19C19.975 19.6 19.575 20 18.975 20H14.975C14.375 20 13.975 20.4 13.975 21C13.975 21.6 14.375 22 14.975 22H18.975C20.675 22 21.975 20.7 21.975 19L21.975 5C21.975 3.3 20.675 2 18.975 2H14.975C14.375 2 13.975 2.4 13.975 3C13.975 3.6 14.375 4 14.975 4Z" fill="#464454"/>
<path d="M2.07498 11.6C1.97498 11.8 1.97498 12.1 2.07498 12.4C2.17498 12.5 2.17497 12.6 2.27497 12.7L7.27497 17.7C7.67497 18.1 8.27498 18.1 8.67498 17.7C9.07498 17.3 9.07498 16.7 8.67498 16.3L5.37498 13H14.975C15.575 13 15.975 12.6 15.975 12C15.975 11.4 15.575 11 14.975 11H5.37498L8.67498 7.7C9.07498 7.3 9.07498 6.7 8.67498 6.3C8.47498 6.1 8.17498 6 7.97498 6C7.77498 6 7.47497 6.1 7.27497 6.3L2.27497 11.3C2.17497 11.4 2.07498 11.5 2.07498 11.6Z" fill="#464454"/>
</svg>
