<svg width="24" height="24" viewBox="0 0 24 24" fill="none" xmlns="http://www.w3.org/2000/svg">
<path d="M20.4 4.7001L18.3 6.8001C18.1 7.0001 17.8 7.0001 17.6 6.8001C17.4 6.6001 17.4 6.3001 17.6 6.2001L19.7 4.1001C20 3.8001 20.1 3.3001 20 2.9001C19.9 2.5001 19.6 2.2001 19.1 2.0001C17.5 1.6001 15.8 2.0001 14.6 3.2001C13.6 4.2001 13.1 5.7001 13.3 7.1001L6.80002 13.6001C5.00002 13.3001 3.20002 14.2001 2.20002 15.8001C1.30002 17.2001 1.30002 19.1001 2.20002 20.5001C3.00002 21.7001 4.20002 22.5001 5.60002 22.7001C7.00002 22.9001 8.40002 22.4001 9.40002 21.4001C10.4 20.4001 10.9 18.9001 10.7 17.5001L17.2 11.0001C18.6 11.2001 20.1 10.7001 21.1 9.7001C22.3 8.5001 22.7 6.8001 22.3 5.2001C22.2 4.8001 21.9 4.5001 21.4 4.4001C21.1 4.3001 20.7 4.4001 20.4 4.7001ZM19.9 8.4001C19.2 9.1001 18.2 9.4001 17.2 9.1001L16.7 9.0001L8.70002 16.9001L8.80002 17.4001C9.10002 18.4001 8.80002 19.4001 8.10002 20.0001C7.50002 20.6001 6.70002 20.9001 5.80002 20.8001C4.90002 20.7001 4.20002 20.2001 3.70002 19.5001C3.20002 18.7001 3.20002 17.5001 3.70002 16.7001C4.40002 15.6001 5.60002 15.1001 6.80002 15.4001L7.30002 15.5001L15.3 7.6001L15.2 7.1001C14.9 6.1001 15.2 5.1001 15.9 4.5001C16.3 4.1001 16.8 3.9001 17.3 3.8001L16.2 4.9001C15.3 5.8001 15.3 7.2001 16.2 8.1001C17.1 9.0001 18.6 9.0001 19.5 8.1001L20.6 7.0001C20.5 7.5001 20.3 8.0001 19.9 8.4001Z" fill="#464454"/>
<path d="M4.60005 16.4997C3.70005 17.3997 3.70005 18.7997 4.60005 19.6997C5.50005 20.5997 7.00005 20.5997 7.90005 19.6997C8.80005 18.7997 8.80005 17.3997 7.90005 16.4997C6.90005 15.5997 5.50005 15.5997 4.60005 16.4997ZM6.50005 18.3997C6.30005 18.5997 6.00005 18.5997 5.80005 18.3997C5.60005 18.1997 5.60005 17.8997 5.80005 17.7997C6.00005 17.6997 6.30005 17.5997 6.50005 17.7997C6.70005 17.8997 6.70005 18.1997 6.50005 18.3997Z" fill="#464454"/>
<path d="M7.50002 10.6999C7.90002 11.0999 8.40002 11.0999 8.80002 10.6999C9.20002 10.2999 9.20002 9.7999 8.80002 9.3999L6.90002 7.4999L4.50002 6.2999L3.60002 4.5999L4.60002 3.5999L6.40002 4.3999L7.60002 6.8999L9.50002 8.7999C9.90002 9.1999 10.4 9.1999 10.8 8.7999C11.2 8.3999 11.2 7.8999 10.8 7.4999L9.10002 5.7999L7.80002 2.9999L4.20002 1.3999L1.40002 4.1999L3.10002 7.6999L5.90002 8.9999L7.50002 10.6999Z" fill="#464454"/>
<path d="M17.1 12.3C16.7 12.7 16.7 13.2 17.1 13.6L20.4 16.8C21.1 17.5 21 18.8 20.1 19.7C19.2 20.6 17.9 20.7 17.2 20L13.9 16.8C13.5 16.4 13 16.4 12.6 16.8C12.2 17.2 12.2 17.7 12.6 18.1L15.9 21.3C17.3 22.7 19.8 22.6 21.5 21C23.1 19.4 23.3 16.9 21.8 15.5L18.5 12.3C18 11.9 17.4 11.9 17.1 12.3Z" fill="#464454"/>
</svg>
