<svg width="24" height="24" viewBox="0 0 24 24" fill="none" xmlns="http://www.w3.org/2000/svg">
<path d="M14 4C11.3 4 8.8 5.4 7.4 7.5H3C2.4 7.5 2 7.9 2 8.5C2 9.1 2.4 9.5 3 9.5H6.4C6.2 10 6.1 10.5 6.1 11H3C2.4 11 2 11.4 2 12C2 12.6 2.4 13 3 13H6.1C6.2 13.5 6.3 14 6.4 14.5H3C2.4 14.5 2 14.9 2 15.5C2 16.1 2.4 16.5 3 16.5H7.4C7.8 17.1 8.2 17.6 8.7 18H3C2.4 18 2 18.4 2 19C2 19.6 2.4 20 3 20H14C18.4 20 22 16.4 22 12C22 7.6 18.4 4 14 4ZM14 18C10.7 18 8 15.3 8 12C8 8.7 10.7 6 14 6C17.3 6 20 8.7 20 12C20 15.3 17.3 18 14 18ZM14.9 11.3H14.6V10.5H15.6C16 10.5 16.3 10.2 16.3 9.8C16.3 9.4 16 9.1 15.6 9.1H14.6V8.6C14.6 8.2 14.3 7.9 13.9 7.9C13.5 7.9 13.2 8.2 13.2 8.6V9.1H12.9C11.9 9.1 11.1 9.9 11.1 10.9C11.1 11.9 11.9 12.7 12.9 12.7H13.2V13.5H12C11.6 13.5 11.3 13.8 11.3 14.2C11.3 14.6 11.6 14.9 12 14.9H13.3V15.4C13.3 15.8 13.6 16.1 14 16.1C14.4 16.1 14.7 15.8 14.7 15.4V14.9H15C16 14.9 16.8 14.1 16.8 13.1C16.8 12.1 15.9 11.3 14.9 11.3ZM13.3 11.3H13C12.8 11.3 12.6 11.1 12.6 10.9C12.6 10.7 12.8 10.5 13 10.5H13.3V11.3ZM14.9 13.5H14.6V12.7H14.9C15.1 12.7 15.3 12.9 15.3 13.1C15.3 13.3 15.2 13.5 14.9 13.5Z" fill="#464454"/>
</svg>
