<svg width="24" height="24" viewBox="0 0 24 24" fill="none" xmlns="http://www.w3.org/2000/svg">
<path d="M23.5 1.1002C23.2 0.900195 22.8 0.900195 22.5 1.1002L16 4.9002L8.4 1.1002C8.4 1.1002 8.4 1.1002 8.3 1.1002C8.2 1.0002 8.1 1.0002 8 1.0002C7.9 1.0002 7.8 1.0002 7.6 1.1002C7.6 1.1002 7.6 1.1002 7.5 1.1002H7.4L0.4 5.1002C0.2 5.3002 0 5.6002 0 6.0002V22.0002C0 22.4002 0.2 22.7002 0.5 22.9002C0.8 23.1002 1.2 23.1002 1.5 22.9002L8 19.1002L15.5 22.9002C15.7 23.0002 15.8 23.0002 16 23.0002C16.1 23.0002 16.2 23.0002 16.3 22.9002H16.4C16.4 22.9002 16.4 22.9002 16.5 22.9002L23.5 18.9002C23.8 18.7002 24 18.4002 24 18.0002V2.0002C24 1.6002 23.8 1.3002 23.5 1.1002ZM9 3.6002L15 6.6002V20.4002L9 17.4002V3.6002ZM2 6.6002L7 3.7002V17.4002L2 20.3002V6.6002ZM22 17.4002L17 20.3002V6.6002L22 3.7002V17.4002Z" fill="#464454"/>
</svg>
