<svg width="24" height="24" viewBox="0 0 24 24" fill="none" xmlns="http://www.w3.org/2000/svg">
<path d="M21.95 18.6798L21.04 15.8898C21.3231 15.2016 21.4659 14.4638 21.46 13.7198C21.4646 12.6588 21.172 11.6178 20.6152 10.7146C20.0585 9.8115 19.2599 9.08233 18.31 8.60976C17.9673 8.44437 17.6088 8.31372 17.24 8.21976C16.6385 7.00251 15.7223 5.96836 14.5864 5.22457C13.4505 4.48077 12.1363 4.05443 10.78 3.98976H10.37C9.19616 3.98715 8.0382 4.26123 6.99004 4.78976C5.72269 5.41621 4.65638 6.38546 3.9122 7.58746C3.16802 8.78946 2.77579 10.176 2.78004 11.5898C2.77782 12.6218 2.9889 13.6432 3.40004 14.5898L2.05004 18.5898C1.99573 18.7626 1.98937 18.9469 2.03164 19.123C2.07391 19.2991 2.16322 19.4604 2.29004 19.5898C2.37799 19.7074 2.4908 19.8043 2.62042 19.8734C2.75005 19.9426 2.89332 19.9823 3.04004 19.9898C3.14945 19.9892 3.25785 19.9688 3.36004 19.9298L7.36004 18.5798C8.30635 18.993 9.32745 19.2074 10.36 19.2098C11.2482 19.2042 12.1284 19.0417 12.96 18.7298C13.796 19.201 14.7405 19.4457 15.7 19.4398C16.4526 19.4358 17.1969 19.2829 17.89 18.9898L20.68 19.9198C20.794 19.9673 20.9165 19.9911 21.04 19.9898C21.1723 19.9892 21.3032 19.9624 21.4251 19.9109C21.547 19.8594 21.6574 19.7842 21.75 19.6898C21.8718 19.5554 21.9548 19.3904 21.99 19.2125C22.0252 19.0346 22.0114 18.8504 21.95 18.6798ZM10.39 17.2098C9.52588 17.2058 8.67412 17.0039 7.90004 16.6198C7.66457 16.5002 7.39136 16.4786 7.14004 16.5598L4.60004 17.4098L5.45004 14.8698C5.53118 14.6184 5.50961 14.3452 5.39004 14.1098C5.00116 13.3303 4.79916 12.4709 4.80004 11.5998C4.79746 10.5598 5.08658 9.54002 5.63456 8.65617C6.18255 7.77232 6.96743 7.05988 7.90004 6.59977C8.66477 6.20722 9.51049 5.99836 10.37 5.98976H10.72C12.0943 6.05108 13.3975 6.61787 14.3794 7.58131C15.3612 8.54474 15.9527 9.83693 16.04 11.2098V11.5998C16.0409 12.4709 15.8389 13.3303 15.45 14.1098C14.9826 15.0494 14.2602 15.8384 13.3653 16.3866C12.4705 16.9348 11.4394 17.2201 10.39 17.2098ZM19.04 16.1498L19.46 17.4198L18.15 16.9898C18.0241 16.9482 17.8912 16.9321 17.759 16.9424C17.6268 16.9527 17.498 16.9892 17.38 17.0498C16.8684 17.3078 16.3031 17.4415 15.73 17.4398C15.5902 17.4496 15.4499 17.4496 15.31 17.4398C16.0999 16.7624 16.7401 15.928 17.19 14.9898C17.7325 13.941 18.0235 12.7804 18.04 11.5998V11.1598C18.04 11.0198 18.04 10.8898 18.04 10.7598C18.5056 11.1079 18.8823 11.5611 19.1395 12.0824C19.3967 12.6038 19.5271 13.1785 19.52 13.7598C19.4939 14.3307 19.3292 14.8867 19.04 15.3798C18.9892 15.5017 18.963 15.6326 18.963 15.7648C18.963 15.8969 18.9892 16.0278 19.04 16.1498ZM8.39004 11.5998C8.39004 11.865 8.32468 12.1193 8.13715 12.3069C7.94961 12.4944 7.69525 12.5998 7.43004 12.5998C7.16482 12.5998 6.91047 12.4944 6.72293 12.3069C6.5354 12.1193 6.43004 11.865 6.43004 11.5998C6.43004 11.3345 6.5354 11.0802 6.72293 10.8927C6.91047 10.7051 7.16482 10.5998 7.43004 10.5998C7.68826 10.6101 7.93246 10.72 8.11143 10.9064C8.2904 11.0929 8.39025 11.3413 8.39004 11.5998ZM11.39 11.5998C11.39 11.865 11.3247 12.1193 11.1371 12.3069C10.9496 12.4944 10.6953 12.5998 10.43 12.5998C10.1648 12.5998 9.91047 12.4944 9.72293 12.3069C9.5354 12.1193 9.43004 11.865 9.43004 11.5998C9.43004 11.3345 9.5354 11.0802 9.72293 10.8927C9.91047 10.7051 10.1648 10.5998 10.43 10.5998C10.6883 10.6101 10.9325 10.72 11.1114 10.9064C11.2904 11.0929 11.3902 11.3413 11.39 11.5998ZM14.39 11.6208C14.39 11.8861 14.3247 12.1193 14.1371 12.3069C13.9496 12.4944 13.6953 12.5998 13.43 12.5998C13.1648 12.5998 12.9105 12.4944 12.7229 12.3069C12.5354 12.1193 12.43 11.865 12.43 11.5998C12.43 11.3345 12.5354 11.0802 12.7229 10.8927C12.9105 10.7051 13.1648 10.5998 13.43 10.5998C13.6883 10.6101 13.9325 10.72 14.1114 10.9064C14.2904 11.0929 14.3902 11.3413 14.39 11.5998V11.6208Z" fill="#464454"/>
</svg>
