<svg width="24" height="24" viewBox="0 0 24 24" fill="none" xmlns="http://www.w3.org/2000/svg">
<path d="M22 10.9C21.7 6.1 17.9 2.2 13 2H12.5C11 2 9.59999 2.3 8.29998 3C4.99998 4.6 2.99998 7.9 2.99998 11.5C2.99998 12.8 3.29998 14.2 3.79998 15.4L1.99998 20.7C1.89998 21.1 1.99998 21.5 2.19998 21.7C2.49998 21.9 2.69998 22 2.99998 22C3.09998 22 3.19998 22 3.29998 21.9L8.59999 20.1C9.79998 20.6 11.1 20.9 12.5 20.9C16.1 20.9 19.4 18.9 21 15.7C21.7 14.4 22 12.9 22 11.4V10.9ZM20 11.5C20 12.7 19.7 13.8 19.2 14.9C17.9 17.5 15.4 19 12.5 19C11.3 19 10.2 18.7 9.19998 18.2C8.99998 18.1 8.69998 18.1 8.39998 18.1L4.59998 19.4L5.89999 15.6C5.99999 15.3 5.99999 15.1 5.79999 14.8C5.29999 13.8 4.99998 12.6 4.99998 11.5C4.99998 8.6 6.59998 6.1 9.19998 4.8C10.2 4.3 11.4 4 12.5 4H12.9C16.7 4.2 19.7 7.2 20 11V11.5Z" fill="#464454"/>
</svg>
