<svg width="24" height="24" viewBox="0 0 24 24" fill="none" xmlns="http://www.w3.org/2000/svg">
<path fill-rule="evenodd" clip-rule="evenodd" d="M12.5719 3C11.1528 2.99856 9.75545 3.34609 8.50516 4.01146C7.25487 4.67682 6.19066 5.63922 5.40789 6.81243C4.62512 7.98564 4.14824 9.333 4.01999 10.7338C3.89174 12.1346 4.11613 13.545 4.67304 14.8387L3.05068 19.6726C2.99561 19.8463 2.98917 20.0315 3.03203 20.2085C3.07489 20.3855 3.16545 20.5477 3.29404 20.6776C3.38709 20.7744 3.4987 20.8518 3.62232 20.9053C3.74594 20.9588 3.87908 20.9873 4.01396 20.9892C4.11823 21.0036 4.22402 21.0036 4.32829 20.9892L9.20549 19.3812C10.3728 19.8498 11.6299 20.0579 12.8874 19.9907C14.145 19.9236 15.3722 19.5828 16.482 18.9926C17.5917 18.4023 18.5567 17.5772 19.3084 16.5757C20.0601 15.5742 20.5801 14.4209 20.8314 13.1978C21.0828 11.9747 21.0593 10.7117 20.7627 9.49858C20.4661 8.28545 19.9037 7.15193 19.1153 6.17854C18.3269 5.20514 17.3319 4.41573 16.201 3.86639C15.0701 3.31706 13.8311 3.02126 12.5719 3ZM12.5719 18.0144C11.5767 18.0147 10.5948 17.7877 9.70234 17.3511C9.45844 17.2534 9.18575 17.2534 8.94186 17.3511L5.60589 18.4566L6.72126 15.0598C6.81992 14.8181 6.81992 14.5478 6.72126 14.306C6.28328 13.4345 6.05097 12.4757 6.0419 11.5021C6.0419 10.2141 6.42725 8.95506 7.14923 7.88412C7.87121 6.81318 8.89739 5.97848 10.098 5.48559C11.2986 4.99269 12.6197 4.86372 13.8943 5.115C15.1688 5.36628 16.3396 5.98651 17.2585 6.89727C18.1774 7.80803 18.8032 8.96841 19.0567 10.2317C19.3102 11.4949 19.1801 12.8043 18.6828 13.9943C18.1855 15.1843 17.3433 16.2013 16.2628 16.9169C15.1823 17.6325 13.912 18.0144 12.6124 18.0144H12.5719ZM12.5719 10.5072C12.303 10.5072 12.0451 10.6131 11.8549 10.8015C11.6648 10.99 11.5579 11.2456 11.5579 11.5122V14.5271C11.5579 14.7937 11.6648 15.0493 11.8549 15.2378C12.0451 15.4262 12.303 15.5321 12.5719 15.5321C12.8408 15.5321 13.0987 15.4262 13.2889 15.2378C13.479 15.0493 13.5859 14.7937 13.5859 14.5271V11.5122C13.5859 11.2456 13.479 10.99 13.2889 10.8015C13.0987 10.6131 12.8408 10.5072 12.5719 10.5072ZM13.2787 9.2079C13.0886 9.39637 12.8307 9.50225 12.5618 9.50225C12.3612 9.50225 12.1652 9.44331 11.9984 9.33288C11.8317 9.22245 11.7017 9.0655 11.625 8.88186C11.5482 8.69822 11.5281 8.49616 11.5673 8.30121C11.6064 8.10626 11.703 7.92719 11.8448 7.78664C11.9866 7.64609 12.1673 7.55038 12.3639 7.5116C12.5606 7.47282 12.7645 7.49272 12.9498 7.56879C13.1351 7.64485 13.2934 7.77366 13.4048 7.93893C13.5163 8.1042 13.5757 8.2985 13.5757 8.49727C13.5757 8.76381 13.4689 9.01943 13.2787 9.2079Z" fill="#464454"/>
</svg>
