<svg width="24" height="24" viewBox="0 0 24 24" fill="none" xmlns="http://www.w3.org/2000/svg">
<path d="M16.0005 10.2877L14.0005 13.4267C13.9272 13.5459 13.8297 13.6483 13.7143 13.7275C13.5989 13.8066 13.4681 13.8606 13.3305 13.8861C13.1929 13.9115 13.0515 13.9078 12.9154 13.8752C12.7793 13.8425 12.6516 13.7817 12.5405 13.6966L11.0005 12.517C10.9304 12.4627 10.8442 12.4332 10.7555 12.4332C10.6668 12.4332 10.5806 12.4627 10.5105 12.517L8.41052 14.1365C8.35143 14.1897 8.27463 14.219 8.1951 14.2187C8.11557 14.2184 8.039 14.1885 7.98032 14.1348C7.92164 14.0812 7.88505 14.0076 7.87769 13.9284C7.87034 13.8492 7.89273 13.7702 7.94052 13.7066L9.94052 10.5676C10.0138 10.4484 10.1113 10.346 10.2267 10.2668C10.3422 10.1877 10.4729 10.1337 10.6105 10.1082C10.7481 10.0828 10.8895 10.0865 11.0256 10.1191C11.1617 10.1518 11.2894 10.2126 11.4005 10.2977L13.0005 11.4773C13.0706 11.5316 13.1568 11.5611 13.2455 11.5611C13.3342 11.5611 13.4204 11.5316 13.4905 11.4773L15.6105 9.85781C15.6688 9.83966 15.731 9.83854 15.7899 9.85458C15.8487 9.87061 15.9018 9.90313 15.9428 9.94831C15.9837 9.99349 16.011 10.0494 16.0212 10.1096C16.0314 10.1697 16.0243 10.2315 16.0005 10.2877ZM21.0005 11.7572C21.0107 12.9305 20.7831 14.0937 20.3313 15.1766C19.8796 16.2595 19.2131 17.2397 18.372 18.058C17.531 18.8764 16.5328 19.516 15.4377 19.9382C14.3427 20.3604 13.1734 20.5564 12.0005 20.5145C11.1706 20.5175 10.3438 20.4133 9.54052 20.2046L8.07052 20.8544C7.85971 20.9494 7.63173 21.0004 7.40052 21.0044C7.0925 21.0065 6.79041 20.9197 6.53052 20.7544C6.30132 20.6123 6.111 20.4155 5.97661 20.1817C5.84222 19.9479 5.76797 19.6844 5.76052 19.4149V18.1452C4.87857 17.3331 4.17715 16.3448 3.70169 15.2443C3.22623 14.1439 2.98735 12.9559 3.00052 11.7572C2.99167 10.5848 3.22032 9.42272 3.67268 8.34098C4.12504 7.25924 4.79175 6.28024 5.63266 5.46295C6.47356 4.64565 7.47126 4.00698 8.56564 3.5854C9.66002 3.16383 10.8284 2.96807 12.0005 3.00993C13.1726 2.96807 14.341 3.16383 15.4354 3.5854C16.5298 4.00698 17.5275 4.64565 18.3684 5.46295C19.2093 6.28024 19.876 7.25924 20.3284 8.34098C20.7807 9.42272 21.0094 10.5848 21.0005 11.7572ZM19.0005 11.7572C19.0039 10.8488 18.8233 9.94917 18.4696 9.11245C18.1158 8.27574 17.5962 7.5193 16.9421 6.88876C16.288 6.25821 15.5129 5.76662 14.6637 5.44361C13.8144 5.1206 12.9085 4.97286 12.0005 5.00931C11.0917 4.97282 10.185 5.12086 9.33503 5.44448C8.48507 5.7681 7.70955 6.2606 7.05531 6.89221C6.40107 7.52383 5.88168 8.28146 5.52851 9.11935C5.17534 9.95724 4.99573 10.858 5.00052 11.7672C4.98436 12.7447 5.18699 13.7133 5.59359 14.6024C6.00019 15.4915 6.60048 16.2784 7.35052 16.9056C7.45959 16.9963 7.54809 17.1092 7.61016 17.2368C7.67223 17.3643 7.70644 17.5036 7.71052 17.6454V18.805L9.03052 18.2352C9.24724 18.137 9.49189 18.1193 9.72052 18.1852C10.4465 18.4065 11.2015 18.5177 11.9605 18.5151C12.8726 18.5572 13.7837 18.4133 14.6383 18.0922C15.493 17.771 16.2734 17.2794 16.9319 16.6472C17.5905 16.0151 18.1135 15.2555 18.4691 14.4148C18.8248 13.5742 19.0056 12.67 19.0005 11.7572Z" fill="#464454"/>
</svg>
