<svg width="24" height="24" viewBox="0 0 24 24" fill="none" xmlns="http://www.w3.org/2000/svg">
<path d="M6 15H3C2.4 15 2 15.4 2 16C2 16.6 2.4 17 3 17H6C6.6 17 7 17.4 7 18V21C7 21.6 7.4 22 8 22C8.6 22 9 21.6 9 21V18C9 16.3 7.7 15 6 15Z" fill="#464454"/>
<path d="M18 9H21C21.6 9 22 8.6 22 8C22 7.4 21.6 7 21 7H18C17.4 7 17 6.6 17 6V3C17 2.4 16.6 2 16 2C15.4 2 15 2.4 15 3V6C15 7.7 16.3 9 18 9Z" fill="#464454"/>
<path d="M21 15H18C16.3 15 15 16.3 15 18V21C15 21.6 15.4 22 16 22C16.6 22 17 21.6 17 21V18C17 17.4 17.4 17 18 17H21C21.6 17 22 16.6 22 16C22 15.4 21.6 15 21 15Z" fill="#464454"/>
<path d="M8 2C7.4 2 7 2.4 7 3V6C7 6.6 6.6 7 6 7H3C2.4 7 2 7.4 2 8C2 8.6 2.4 9 3 9H6C7.7 9 9 7.7 9 6V3C9 2.4 8.6 2 8 2Z" fill="#464454"/>
</svg>
