<svg width="24" height="24" viewBox="0 0 24 24" fill="none" xmlns="http://www.w3.org/2000/svg">
<path d="M13.15 11.1455H12.84V10.146H14.1C14.3083 10.1233 14.5008 10.0245 14.6407 9.86866C14.7806 9.71278 14.8579 9.51077 14.8579 9.30138C14.8579 9.09199 14.7806 8.88998 14.6407 8.73411C14.5008 8.57823 14.3083 8.47948 14.1 8.45681H12.84V7.84711C12.84 7.73555 12.818 7.62507 12.7753 7.522C12.7326 7.41892 12.67 7.32526 12.591 7.24637C12.5121 7.16748 12.4184 7.1049 12.3153 7.06221C12.2122 7.01951 12.1016 6.99754 11.99 6.99754C11.8784 6.99754 11.7678 7.01951 11.6647 7.06221C11.5616 7.1049 11.4679 7.16748 11.389 7.24637C11.31 7.32526 11.2474 7.41892 11.2047 7.522C11.162 7.62507 11.14 7.73555 11.14 7.84711V8.50678H10.83C10.2545 8.50678 9.70253 8.73529 9.29558 9.14204C8.88862 9.54879 8.66 10.1005 8.66 10.6757C8.66 11.2509 8.88862 11.8026 9.29558 12.2093C9.70253 12.6161 10.2545 12.8446 10.83 12.8446H11.14V13.7941H9.51C9.39131 13.7812 9.27123 13.7934 9.15758 13.83C9.04393 13.8665 8.93926 13.9266 8.85038 14.0063C8.7615 14.0859 8.69042 14.1834 8.64176 14.2924C8.59309 14.4014 8.56794 14.5194 8.56794 14.6387C8.56794 14.758 8.59309 14.876 8.64176 14.985C8.69042 15.094 8.7615 15.1915 8.85038 15.2711C8.93926 15.3508 9.04393 15.4109 9.15758 15.4474C9.27123 15.484 9.39131 15.4962 9.51 15.4833H11.14V16.1429C11.14 16.3683 11.2296 16.5844 11.389 16.7437C11.5484 16.903 11.7646 16.9925 11.99 16.9925C12.2154 16.9925 12.4316 16.903 12.591 16.7437C12.7504 16.5844 12.84 16.3683 12.84 16.1429V15.4833H13.15C13.7255 15.4833 14.2775 15.2548 14.6844 14.848C15.0914 14.4413 15.32 13.8896 15.32 13.3144C15.32 12.7391 15.0914 12.1875 14.6844 11.7807C14.2775 11.374 13.7255 11.1455 13.15 11.1455ZM11.15 11.1455H10.84C10.7774 11.1468 10.7152 11.1356 10.6571 11.1126C10.5989 11.0896 10.5459 11.0552 10.5012 11.0114C10.4565 10.9677 10.421 10.9155 10.3967 10.8578C10.3725 10.8001 10.36 10.7382 10.36 10.6757C10.36 10.5485 10.4106 10.4264 10.5006 10.3365C10.5906 10.2465 10.7127 10.1959 10.84 10.1959H11.15V11.1455ZM13.15 13.7941H12.84V12.8446H13.15C13.2126 12.8433 13.2748 12.8544 13.3329 12.8774C13.3911 12.9005 13.4441 12.9349 13.4888 12.9786C13.5335 13.0224 13.569 13.0746 13.5933 13.1323C13.6175 13.1899 13.63 13.2518 13.63 13.3144C13.63 13.4416 13.5794 13.5636 13.4894 13.6536C13.3994 13.7436 13.2773 13.7941 13.15 13.7941ZM12 22C11.8435 21.9991 11.6893 21.9614 11.55 21.8901C11.23 21.7301 4 18.002 4 12.2449V5.61823C4.00137 5.41572 4.06426 5.2184 4.18033 5.0524C4.29641 4.88641 4.46019 4.75958 4.65 4.6887L11.65 2.06002C11.8765 1.97999 12.1235 1.97999 12.35 2.06002L19.35 4.6887C19.5398 4.75958 19.7036 4.88641 19.8197 5.0524C19.9357 5.2184 19.9986 5.41572 20 5.61823V12.2449C20 18.042 12.76 21.7301 12.45 21.8801C12.3115 21.9549 12.1574 21.996 12 22ZM6 6.31788V12.2449C6 16.093 10.54 19.0115 12 19.8511C13.46 19.0115 18 16.093 18 12.2449V6.31788L12 4.06901L6 6.31788Z" fill="#464454"/>
</svg>
