<svg width="24" height="24" viewBox="0 0 24 24" fill="none" xmlns="http://www.w3.org/2000/svg">
<path d="M11.7257 19.9869C11.9683 19.9869 12.1796 19.8997 12.3594 19.7254C12.5393 19.5511 12.6293 19.336 12.6293 19.0802V18.5355C13.715 18.3908 14.5966 18.007 15.2741 17.384C15.9515 16.7609 16.2903 15.9137 16.2903 14.8423C16.2903 13.8931 16.0278 13.1021 15.503 12.4694C14.9781 11.8368 14.0288 11.2892 12.655 10.8268C11.4664 10.4286 10.6511 10.0504 10.2092 9.69225C9.76725 9.33411 9.54629 8.86406 9.54629 8.28211C9.54629 7.73969 9.74446 7.31455 10.1408 7.00672C10.5371 6.69891 11.0836 6.545 11.7802 6.545C12.2185 6.545 12.6067 6.62375 12.9448 6.78125C13.2829 6.93875 13.5755 7.17472 13.8227 7.48917C13.9891 7.68436 14.1828 7.81183 14.4039 7.87158C14.6249 7.93135 14.8339 7.90769 15.0309 7.80059C15.2778 7.68246 15.439 7.50272 15.5147 7.26138C15.5904 7.02005 15.5545 6.79536 15.4071 6.58731C15.0828 6.12975 14.6925 5.76239 14.2361 5.48525C13.7796 5.20813 13.2633 5.03918 12.6871 4.97838V4.43825C12.6871 4.17784 12.596 3.96483 12.4138 3.79924C12.2316 3.63364 12.0215 3.55085 11.7835 3.55085C11.5456 3.55085 11.3323 3.63364 11.1437 3.79924C10.9551 3.96483 10.8608 4.17784 10.8608 4.43825V4.97838C9.86912 5.14818 9.09775 5.53569 8.54663 6.14091C7.99553 6.74612 7.71998 7.4686 7.71998 8.30836C7.71998 9.25623 7.97938 10.0149 8.49816 10.5845C9.01695 11.154 9.9328 11.6809 11.2457 12.1651C12.5117 12.6382 13.3646 13.0564 13.8043 13.4197C14.2441 13.783 14.464 14.2572 14.464 14.8422C14.464 15.4628 14.2243 15.9635 13.745 16.3444C13.2656 16.7252 12.6664 16.9157 11.9473 16.9157C11.3637 16.9157 10.8316 16.7766 10.3511 16.4984C9.87062 16.2203 9.49085 15.8201 9.2118 15.2977C9.08544 15.0912 8.92092 14.9395 8.71826 14.8427C8.51559 14.7459 8.30703 14.7359 8.09257 14.8127C7.81876 14.9167 7.63362 15.088 7.53715 15.3266C7.44065 15.5653 7.46124 15.8031 7.59891 16.0402C7.9632 16.6902 8.41022 17.2158 8.93997 17.6173C9.46972 18.0187 10.0907 18.3055 10.803 18.4776V19.0903C10.803 19.3384 10.8961 19.5499 11.0824 19.7247C11.2687 19.8995 11.4831 19.9869 11.7257 19.9869ZM11.7569 23.5139C10.1028 23.5139 8.56011 23.2118 7.12892 22.6077C5.69775 22.0036 4.45386 21.1733 3.39723 20.1166C2.3406 19.06 1.51025 17.8161 0.906159 16.3849C0.302053 14.9538 0 13.4111 0 11.7569C0 10.1156 0.301687 8.58003 0.905061 7.15019C1.50843 5.72037 2.33879 4.47648 3.39613 3.4185C4.45349 2.36053 5.69775 1.52629 7.12892 0.915784C8.56011 0.305261 10.1028 0 11.7569 0C13.3983 0 14.9339 0.305059 16.3639 0.915177C17.7939 1.52529 19.038 2.35931 20.0961 3.41723C21.1541 4.47515 21.9883 5.71899 22.5985 7.14875C23.2088 8.57851 23.5139 10.1153 23.5139 11.7592C23.5139 13.4119 23.2086 14.9538 22.5981 16.3849C21.9876 17.8161 21.1533 19.0604 20.0954 20.1177C19.0374 21.1751 17.7935 22.0054 16.3637 22.6088C14.9338 23.2122 13.3983 23.5139 11.7569 23.5139ZM11.7538 21.3244C14.4513 21.3244 16.7199 20.4058 18.5599 18.5687C20.3998 16.7317 21.3198 14.4621 21.3198 11.76C21.3198 9.058 20.4001 6.78816 18.5607 4.95052C16.7213 3.1129 14.4529 2.19409 11.7554 2.19409C9.05801 2.19409 6.78932 3.11263 4.94939 4.94971C3.10946 6.78681 2.1895 9.05638 2.1895 11.7584C2.1895 14.4605 3.10919 16.7303 4.94859 18.5679C6.78798 20.4056 9.05639 21.3244 11.7538 21.3244Z" fill="#464454"/>
</svg>
