<svg width="24" height="24" viewBox="0 0 24 24" fill="none" xmlns="http://www.w3.org/2000/svg">
<path d="M14.8 6.67662L15.8 5.18408C16.2 4.58706 16.2 3.79104 15.9 3.09453C15.6 2.39801 14.9 2 14.1 2H9.9C9.1 2.0995 8.5 2.49751 8.1 3.19403C7.8 3.79104 7.8 4.58706 8.2 5.18408L9.2 6.67662C6.9 7.67164 4 10.1592 4 16.6269C4 20.01 6.9 22 12 22C17.1 22 20 20.01 20 16.6269C20 10.1592 17.1 7.67164 14.8 6.67662ZM11.2 6.0796L9.9 4.08955H14.2L12.8 6.0796H11.2ZM12 20.01C9.3 20.01 6 19.4129 6 16.6269C6 8.46766 11 8.06965 12 8.06965C13 8.06965 18 8.46766 18 16.6269C18 19.4129 14.7 20.01 12 20.01ZM13.1 13.2438H12.8V12.3483H14C14.4 12.3483 14.8 11.9502 14.8 11.5522C14.8 11.1542 14.4 10.7562 14 10.7562H12.8V10.1592C12.8 9.76119 12.4 9.36318 12 9.36318C11.6 9.36318 11.2 9.66169 11.2 10.1592V10.7562H10.9C9.8 10.7562 8.8 11.6517 8.8 12.8458C8.8 13.9403 9.7 14.8358 10.9 14.8358H11.2V15.7313H9.6C9.2 15.7313 8.8 16.1294 8.8 16.5274C8.8 16.9254 9.2 17.3234 9.6 17.3234H11.2V17.9204C11.2 18.3184 11.6 18.7164 12 18.7164C12.4 18.7164 12.8 18.3184 12.8 17.9204V17.3234H13.1C14.2 17.3234 15.2 16.4279 15.2 15.3333C15.2 14.2388 14.2 13.2438 13.1 13.2438ZM11.2 13.2438H10.9C10.7 13.2438 10.4 13.0448 10.4 12.7463C10.4 12.5473 10.6 12.2488 10.9 12.2488H11.2V13.2438ZM13.1 15.7313H12.8V14.8358H13.1C13.3 14.8358 13.6 15.0348 13.6 15.3333C13.6 15.5323 13.3 15.7313 13.1 15.7313Z" fill="#464454"/>
</svg>
