<svg width="25" height="24" viewBox="0 0 25 24" fill="none" xmlns="http://www.w3.org/2000/svg">
<path d="M23.3072 3.81172H21.5726M21.5726 3.81172H19.8381M21.5726 3.81172V5.54629M21.5726 3.81172V2.07715" stroke="#464454" stroke-width="1.47536" stroke-linecap="round"/>
<path d="M10.8811 18.9462C11.0859 18.9462 11.2642 18.8726 11.416 18.7255C11.5678 18.5784 11.6437 18.3968 11.6437 18.1809V17.7212C12.5601 17.5991 13.3042 17.2751 13.8759 16.7493C14.4477 16.2235 14.7336 15.5084 14.7336 14.6042C14.7336 13.803 14.5121 13.1354 14.0691 12.6014C13.6262 12.0675 12.8249 11.6053 11.6654 11.215C10.6622 10.8789 9.97413 10.5597 9.60115 10.2575C9.22816 9.95518 9.04167 9.55846 9.04167 9.06729C9.04167 8.60948 9.20893 8.25067 9.54343 7.99085C9.87794 7.73106 10.3392 7.60116 10.9271 7.60116C11.297 7.60116 11.6246 7.66762 11.91 7.80056C12.1954 7.93349 12.4424 8.13265 12.6509 8.39804C12.7914 8.56278 12.9549 8.67037 13.1415 8.7208C13.328 8.77124 13.5044 8.75127 13.6707 8.66089C13.8791 8.56118 14.0152 8.40948 14.079 8.20579C14.1429 8.0021 14.1126 7.81246 13.9882 7.63687C13.7145 7.25068 13.3851 6.94063 12.9999 6.70673C12.6146 6.47284 12.1789 6.33024 11.6925 6.27893V5.82305C11.6925 5.60326 11.6156 5.42348 11.4619 5.28372C11.3081 5.14396 11.1308 5.07408 10.9299 5.07408C10.7291 5.07408 10.549 5.14396 10.3899 5.28372C10.2307 5.42348 10.1511 5.60326 10.1511 5.82305V6.27893C9.31415 6.42223 8.6631 6.74929 8.19795 7.26011C7.73282 7.7709 7.50026 8.38068 7.50026 9.08944C7.50026 9.88945 7.71919 10.5298 8.15705 11.0105C8.5949 11.4912 9.36789 11.9359 10.476 12.3446C11.5445 12.7438 12.2643 13.0968 12.6355 13.4034C13.0066 13.71 13.1922 14.1102 13.1922 14.604C13.1922 15.1278 12.9899 15.5504 12.5854 15.8719C12.1808 16.1933 11.6751 16.354 11.0682 16.354C10.5756 16.354 10.1265 16.2367 9.72095 16.0019C9.3154 15.7672 8.99487 15.4294 8.75936 14.9885C8.65271 14.8142 8.51386 14.6862 8.34281 14.6045C8.17175 14.5228 7.99573 14.5143 7.81472 14.5791C7.58363 14.6669 7.42737 14.8115 7.34594 15.0129C7.2645 15.2143 7.28188 15.415 7.39807 15.6151C7.70554 16.1637 8.08282 16.6074 8.52993 16.9462C8.97704 17.285 9.50117 17.5271 10.1023 17.6724V18.1894C10.1023 18.3988 10.1809 18.5773 10.3381 18.7248C10.4954 18.8724 10.6764 18.9462 10.8811 18.9462ZM10.9075 21.923C9.51136 21.923 8.20933 21.668 7.0014 21.1582C5.79349 20.6483 4.74363 19.9475 3.85184 19.0557C2.96004 18.1639 2.25921 17.114 1.74936 15.9061C1.23949 14.6982 0.984558 13.3962 0.984558 12C0.984558 10.6148 1.23918 9.31874 1.74843 8.11195C2.25768 6.90517 2.95851 5.85532 3.85091 4.96238C4.74332 4.06944 5.79349 3.36534 7.0014 2.85007C8.20933 2.33479 9.51136 2.07715 10.9075 2.07715C12.2927 2.07715 13.5888 2.33462 14.7958 2.84956C16.0027 3.3645 17.0527 4.06842 17.9457 4.96131C18.8388 5.85419 19.5428 6.904 20.0578 8.11073C20.5729 9.31745 20.8304 10.6145 20.8304 12.002C20.8304 13.3968 20.5727 14.6982 20.0574 15.9061C19.5422 17.114 18.8381 18.1642 17.9451 19.0566C17.0522 19.949 16.0023 20.6498 14.7956 21.1591C13.5888 21.6683 12.2927 21.923 10.9075 21.923ZM10.9048 20.075C13.1815 20.075 15.0963 19.2998 16.6492 17.7493C18.2021 16.1987 18.9785 14.2832 18.9785 12.0027C18.9785 9.72214 18.2023 7.80639 16.6499 6.25541C15.0974 4.70445 13.1829 3.92897 10.9062 3.92897C8.62956 3.92897 6.71478 4.70423 5.16187 6.25473C3.60896 7.80525 2.83251 9.72077 2.83251 12.0013C2.83251 14.2818 3.60873 16.1976 5.16119 17.7486C6.71364 19.2995 8.62819 20.075 10.9048 20.075Z" fill="#464454"/>
</svg>
