<svg width="24" height="24" viewBox="0 0 24 24" fill="none" xmlns="http://www.w3.org/2000/svg">
<path d="M4.54 15.9925C4.54 16.2311 4.63482 16.4598 4.8036 16.6285C4.97239 16.7972 5.20131 16.8919 5.44 16.8919C5.67869 16.8919 5.90761 16.7972 6.0764 16.6285C6.24518 16.4598 6.34 16.2311 6.34 15.9925V15.4428H6.7C7.25136 15.4055 7.76794 15.1602 8.14525 14.7567C8.52256 14.3532 8.73244 13.8215 8.73244 13.2692C8.73244 12.7169 8.52256 12.1853 8.14525 11.7817C7.76794 11.3782 7.25136 11.1329 6.7 11.0956H6.34V10.346H7.61C7.84869 10.346 8.07761 10.2513 8.2464 10.0826C8.41518 9.91392 8.51 9.68514 8.51 9.4466C8.51 9.20805 8.41518 8.97927 8.2464 8.8106C8.07761 8.64192 7.84869 8.54716 7.61 8.54716H6.34V7.9975C6.34 7.87939 6.31672 7.76243 6.27149 7.6533C6.22626 7.54418 6.15997 7.44502 6.0764 7.3615C5.99282 7.27798 5.89361 7.21173 5.78442 7.16653C5.67522 7.12133 5.55819 7.09806 5.44 7.09806C5.32181 7.09806 5.20478 7.12133 5.09558 7.16653C4.98639 7.21173 4.88718 7.27798 4.8036 7.3615C4.72003 7.44502 4.65374 7.54418 4.60851 7.6533C4.56328 7.76243 4.54 7.87939 4.54 7.9975V8.54716H4.17C3.61864 8.58454 3.10206 8.8298 2.72475 9.23332C2.34744 9.63685 2.13756 10.1685 2.13756 10.7208C2.13756 11.2731 2.34744 11.8048 2.72475 12.2083C3.10206 12.6118 3.61864 12.8571 4.17 12.8944H4.54V13.644H2.9C2.66131 13.644 2.43239 13.7387 2.2636 13.9074C2.09482 14.0761 2 14.3049 2 14.5434C2 14.782 2.09482 15.0107 2.2636 15.1794C2.43239 15.3481 2.66131 15.4428 2.9 15.4428H4.54V15.9925ZM6.34 12.8944H6.7C6.78895 12.909 6.86982 12.9547 6.92817 13.0233C6.98652 13.092 7.01856 13.1791 7.01856 13.2692C7.01856 13.3593 6.98652 13.4464 6.92817 13.5151C6.86982 13.5837 6.78895 13.6294 6.7 13.644H6.34V12.8944ZM4.17 11.0956C4.08105 11.081 4.00018 11.0353 3.94183 10.9667C3.88348 10.898 3.85144 10.8109 3.85144 10.7208C3.85144 10.6307 3.88348 10.5436 3.94183 10.4749C4.00018 10.4063 4.08105 10.3606 4.17 10.346H4.54V11.0956H4.17ZM22 16.4722C21.9984 16.6028 21.9712 16.7318 21.92 16.852C21.8724 16.9746 21.801 17.0867 21.71 17.1818L19.21 19.6802C19.0217 19.8684 18.7663 19.9741 18.5 19.9741C18.2337 19.9741 17.9783 19.8684 17.79 19.6802C17.6017 19.492 17.4959 19.2368 17.4959 18.9706C17.4959 18.7045 17.6017 18.4493 17.79 18.2611L18.58 17.4716H17.5C16.5033 17.4727 15.5225 17.2223 14.6484 16.7436C13.7744 16.2649 13.0354 15.5735 12.5 14.7333L12.41 15.0031C11.9283 16.4532 11.0032 17.7156 9.76524 18.6121C8.52725 19.5086 7.03884 19.9941 5.51 20C5.24478 20 4.99043 19.8947 4.80289 19.7073C4.61536 19.5199 4.51 19.2657 4.51 19.0006C4.51 18.7356 4.61536 18.4814 4.80289 18.294C4.99043 18.1065 5.24478 18.0012 5.51 18.0012C6.61587 17.9964 7.69251 17.6459 8.58912 16.999C9.48573 16.352 10.1574 15.441 10.51 14.3935L11.38 11.995L10.55 9.6065C10.1968 8.55739 9.52366 7.64521 8.62506 6.99812C7.72645 6.35103 6.64758 6.00154 5.54 5.99875C5.27478 5.99875 5.02043 5.89346 4.83289 5.70604C4.64536 5.51862 4.54 5.26443 4.54 4.99938C4.54 4.73432 4.64536 4.48013 4.83289 4.29271C5.02043 4.10529 5.27478 4 5.54 4C7.06884 4.00591 8.55725 4.49137 9.79524 5.3879C11.0332 6.28444 11.9583 7.54679 12.44 8.99688L12.53 9.26671C13.0654 8.42654 13.8044 7.73507 14.6784 7.25638C15.5525 6.7777 16.5333 6.52731 17.53 6.52842H18.61L17.82 5.73891C17.6277 5.5547 17.5165 5.3017 17.5109 5.03557C17.5053 4.76943 17.6057 4.51196 17.79 4.3198C17.9743 4.12764 18.2275 4.01652 18.4938 4.0109C18.7601 4.00528 19.0177 4.10561 19.21 4.28982L21.71 6.78826C21.801 6.8833 21.8724 6.99538 21.92 7.11805C21.9712 7.2382 21.9984 7.36722 22 7.49781C21.9936 7.62136 21.9666 7.74296 21.92 7.85759C21.8811 7.97347 21.8121 8.07695 21.72 8.1574L19.21 10.6958C19.1174 10.7902 19.0069 10.8654 18.8851 10.9168C18.7632 10.9683 18.6323 10.9951 18.5 10.9956C18.3677 10.9951 18.2368 10.9683 18.1149 10.9168C17.9931 10.8654 17.8826 10.7902 17.79 10.6958C17.6037 10.5086 17.4992 10.2553 17.4992 9.99126C17.4992 9.72723 17.6037 9.47394 17.79 9.2867L18.59 8.49719H17.5C16.6854 8.49826 15.8914 8.7529 15.2283 9.22573C14.5652 9.69856 14.066 10.3661 13.8 11.1355L13.49 11.995L13.8 12.8645C14.066 13.6339 14.5652 14.3014 15.2283 14.7743C15.8914 15.2471 16.6854 15.5017 17.5 15.5028H18.59L17.79 14.7133C17.6037 14.5261 17.4992 14.2728 17.4992 14.0087C17.4992 13.7447 17.6037 13.4914 17.79 13.3042C17.8818 13.2079 17.9918 13.131 18.1138 13.0778C18.2357 13.0246 18.367 12.9962 18.5 12.9944C18.6323 12.9949 18.7632 13.0217 18.8851 13.0732C19.0069 13.1246 19.1174 13.1998 19.21 13.2942L21.71 15.7826C21.8021 15.8631 21.8711 15.9666 21.91 16.0824C21.9634 16.2058 21.9939 16.3379 22 16.4722Z" fill="#464454"/>
</svg>
