<svg width="24" height="24" viewBox="0 0 24 24" fill="none" xmlns="http://www.w3.org/2000/svg">
<path d="M21.64 13.0002C21.4957 12.8808 21.3207 12.8045 21.1351 12.7797C20.9494 12.755 20.7606 12.7828 20.59 12.8602C19.5326 13.344 18.3829 13.5931 17.22 13.5902C15.0689 13.5876 13.006 12.7346 11.4812 11.2173C9.95632 9.69991 9.09321 7.64126 9.08001 5.49015C9.08457 4.81598 9.16848 4.1447 9.33001 3.49015C9.36429 3.31569 9.35143 3.13524 9.29277 2.96741C9.2341 2.79957 9.13175 2.6504 8.99626 2.53528C8.86076 2.42016 8.69702 2.34325 8.52191 2.31247C8.3468 2.28168 8.16665 2.29814 8.00001 2.36015C6.43234 3.06506 5.06958 4.15691 4.03977 5.53313C3.00996 6.90936 2.34689 8.52478 2.11286 10.2276C1.87883 11.9305 2.08152 13.6649 2.70188 15.2679C3.32225 16.8709 4.33993 18.2899 5.65931 19.3916C6.9787 20.4933 8.55649 21.2415 10.2445 21.566C11.9324 21.8904 13.6752 21.7804 15.309 21.2464C16.9428 20.7123 18.414 19.7717 19.5844 18.5129C20.7548 17.2541 21.5861 15.7184 22 14.0502C22.0504 13.8591 22.0431 13.6575 21.9791 13.4706C21.915 13.2837 21.797 13.12 21.64 13.0002ZM12.14 19.6902C10.4618 19.6783 8.82821 19.148 7.46301 18.1719C6.0978 17.1957 5.06768 15.8215 4.5137 14.2373C3.95971 12.6531 3.90895 10.9363 4.36835 9.32216C4.82776 7.70797 5.77487 6.27525 7.08001 5.22015V5.49015C7.08266 8.17863 8.15183 10.7562 10.0529 12.6573C11.9539 14.5583 14.5315 15.6275 17.22 15.6302C17.9259 15.6327 18.63 15.559 19.32 15.4102C18.6299 16.7157 17.5965 17.808 16.3312 18.5693C15.0659 19.3306 13.6167 19.732 12.14 19.7302V19.6902Z" fill="#464454"/>
</svg>
