<svg width="24" height="24" viewBox="0 0 24 24" fill="none" xmlns="http://www.w3.org/2000/svg">
<path d="M21.5 11.9C21.2 11.7 20.7 11.7 20.4 12C18.3 13.6 15.4 13.6 13.3 12C10.6 10 10 6.3 12 3.6C12.2 3.3 12.3 2.9 12.1 2.5C11.9 2.2 11.5 2 11.1 2C6.3 2.4 2.5 6.2 2.1 11C1.6 16.5 5.6 21.4 11.1 21.9C11.4 21.9 11.7 21.9 12 21.9C14.3 21.9 16.6 21.1 18.4 19.6C20.5 17.9 21.7 15.5 22 12.8C22 12.5 21.8 12.1 21.5 11.9ZM17.2 18.1C15.6 19.5 13.5 20.1 11.4 19.9C7 19.5 3.8 15.6 4.2 11.2C4.5 8.1 6.6 5.4 9.4 4.4C8.2 7.6 9.3 11.4 12.2 13.6C14.4 15.2 17.2 15.6 19.7 14.7C19.1 16 18.3 17.2 17.2 18.1Z" fill="#464454"/>
</svg>
