<svg width="24" height="24" viewBox="0 0 24 24" fill="none" xmlns="http://www.w3.org/2000/svg">
<path fill-rule="evenodd" clip-rule="evenodd" d="M16.9576 6.38298H19.9531C20.2178 6.37633 20.4813 6.42255 20.728 6.51895C20.9748 6.61535 21.2 6.76 21.3904 6.94449C21.5809 7.12898 21.7329 7.34962 21.8376 7.59357C21.9422 7.83752 21.9974 8.09991 22 8.36546V10.368C22.0016 10.8724 21.8133 11.3589 21.4727 11.7302C21.132 12.1014 20.6642 12.3301 20.1628 12.3705C20.7025 13.2071 20.9998 14.1777 21.0215 15.174V16.8561H19.2741V17.1564C19.2319 17.8567 18.9248 18.5144 18.4154 18.9953C17.9061 19.4762 17.2328 19.7439 16.5332 19.7439C15.8337 19.7439 15.1604 19.4762 14.6511 18.9953C14.1417 18.5144 13.8346 17.8567 13.7924 17.1564V16.8561H10.1479C9.92509 16.865 9.70572 16.7988 9.52476 16.6682C9.3438 16.5375 9.21167 16.3499 9.14941 16.1352C8.95834 15.5075 8.59959 14.9443 8.11203 14.5066C7.62447 14.0689 7.02672 13.7734 6.38358 13.6521H6.19387H5.8444H5.68464C4.9499 13.66 4.23534 13.8942 3.63773 14.3229C3.53298 14.4104 3.41146 14.4755 3.28066 14.5142C3.14986 14.5528 3.01255 14.5642 2.8772 14.5476C2.74185 14.531 2.61133 14.4867 2.49368 14.4176C2.37603 14.3485 2.27375 14.2559 2.19314 14.1456C2.11254 14.0353 2.05531 13.9097 2.02499 13.7764C1.99467 13.643 1.99191 13.5049 2.01687 13.3705C2.04182 13.2361 2.09397 13.1082 2.1701 12.9947C2.24623 12.8813 2.34473 12.7847 2.45951 12.7109C3.30407 12.1106 4.30136 11.7634 5.33517 11.7096V10.1977H4.51641C4.39194 10.1977 4.27258 10.1482 4.18457 10.0599C4.09656 9.97166 4.04712 9.85197 4.04712 9.72716V8.78598C4.04579 8.72335 4.05694 8.66108 4.07993 8.60282C4.10292 8.54456 4.13728 8.4915 4.18099 8.44673C4.2247 8.40197 4.27688 8.36641 4.33448 8.34214C4.39208 8.31786 4.45393 8.30537 4.51641 8.30538H5.33517V6.66333C5.33517 6.39778 5.44037 6.14311 5.62762 5.95534C5.81487 5.76757 6.06884 5.66208 6.33366 5.66208C6.63192 5.66626 6.92926 5.69641 7.22232 5.75219V5.00125C7.22232 4.7357 7.32752 4.48103 7.51477 4.29326C7.70202 4.10549 7.95599 4 8.22081 4H10.6072C10.872 4 11.126 4.10549 11.3132 4.29326C11.5005 4.48103 11.6057 4.7357 11.6057 5.00125C11.6057 5.2668 11.5005 5.52147 11.3132 5.70924C11.126 5.89701 10.872 6.0025 10.6072 6.0025H9.2193V6.66333C9.80268 7.1064 10.2764 7.67831 10.6037 8.33468C10.931 8.99105 11.103 9.71422 11.1064 10.4481V14.9537H12.2048V12.3905C12.2048 11.8594 12.4152 11.35 12.7897 10.9745C13.1642 10.599 13.6721 10.388 14.2018 10.388H14.9606V8.38548C14.9606 7.85439 15.171 7.34504 15.5455 6.9695C15.92 6.59396 16.428 6.38298 16.9576 6.38298ZM7.33215 11.9299C7.97462 12.1235 8.57679 12.4322 9.10947 12.8411V10.4481C9.10868 9.88647 8.9385 9.33826 8.6213 8.87544C8.3041 8.41261 7.8547 8.05683 7.33215 7.85482V11.9299ZM15.9259 17.8005C16.0645 17.9395 16.2524 18.0175 16.4484 18.0175C16.6453 18.0175 16.8343 17.9398 16.9744 17.8011C17.1146 17.6625 17.1946 17.474 17.1972 17.2766C17.1969 17.1712 17.1694 17.0678 17.1174 16.9762H15.7894C15.7374 17.0678 15.7098 17.1712 15.7095 17.2766C15.7095 17.4731 15.7873 17.6616 15.9259 17.8005ZM14.2018 15.0138H18.8048L19.0245 14.9537C18.9047 13.7922 18.026 12.3905 17.0275 12.3905H14.2018V15.0138ZM16.9576 10.4481H19.9531V8.44556H16.9576V10.4481ZM4.20443 14.9755C4.65434 14.674 5.18329 14.5131 5.7244 14.5131C6.44999 14.5131 7.14587 14.8022 7.65895 15.3167C8.17202 15.8311 8.46026 16.5289 8.46026 17.2566C8.46026 17.7992 8.29981 18.3296 7.99919 18.7807C7.69857 19.2319 7.27128 19.5835 6.77137 19.7912C6.27145 19.9988 5.72136 20.0531 5.19066 19.9473C4.65995 19.8414 4.17246 19.5801 3.78985 19.1964C3.40723 18.8128 3.14666 18.3239 3.0411 17.7918C2.93554 17.2596 2.98971 16.708 3.19679 16.2067C3.40386 15.7054 3.75452 15.2769 4.20443 14.9755ZM5.31389 17.8726C5.4354 17.954 5.57826 17.9975 5.7244 17.9975V18.0175C5.82313 18.0175 5.92087 17.9977 6.01185 17.9593C6.10282 17.9208 6.18518 17.8644 6.25406 17.7935C6.32294 17.7225 6.37694 17.6385 6.41287 17.5462C6.44881 17.454 6.46595 17.3555 6.46328 17.2566C6.46328 17.11 6.41995 16.9668 6.33876 16.8449C6.25757 16.7231 6.14217 16.6281 6.00716 16.572C5.87214 16.5159 5.72358 16.5013 5.58025 16.5299C5.43692 16.5585 5.30526 16.629 5.20193 16.7326C5.09859 16.8363 5.02822 16.9683 4.99971 17.112C4.9712 17.2557 4.98583 17.4047 5.04176 17.5401C5.09768 17.6755 5.19239 17.7912 5.31389 17.8726Z" fill="#464454"/>
</svg>
