<svg width="24" height="24" viewBox="0 0 24 24" fill="none" xmlns="http://www.w3.org/2000/svg">
<path d="M22.9 12.3999C23 12.1999 23 11.8999 22.9 11.5999C22.8 11.4999 22.8 11.3999 22.7 11.2999L19.7 8.2999C19.3 7.8999 18.7 7.8999 18.3 8.2999C17.9 8.6999 17.9 9.2999 18.3 9.6999L19.6 10.9999H13V4.3999L14.3 5.6999C14.5 5.8999 14.7 5.9999 15 5.9999C15.3 5.9999 15.5 5.8999 15.7 5.6999C16.1 5.2999 16.1 4.6999 15.7 4.2999L12.7 1.2999C12.6 1.1999 12.5 1.0999 12.4 1.0999C12.2 0.999902 11.9 0.999902 11.6 1.0999C11.5 1.1999 11.4 1.1999 11.3 1.2999L8.30002 4.2999C7.90002 4.6999 7.90002 5.2999 8.30002 5.6999C8.70002 6.0999 9.30002 6.0999 9.70002 5.6999L11 4.3999V10.9999H4.40002L5.70002 9.6999C6.10002 9.2999 6.10002 8.6999 5.70002 8.2999C5.30002 7.8999 4.70002 7.8999 4.30002 8.2999L1.30002 11.2999C1.20002 11.3999 1.10002 11.4999 1.10002 11.5999C1.00002 11.7999 1.00002 12.0999 1.10002 12.3999C1.20002 12.4999 1.20002 12.5999 1.30002 12.6999L4.30002 15.6999C4.50002 15.8999 4.70002 15.9999 5.00002 15.9999C5.30002 15.9999 5.50002 15.8999 5.70002 15.6999C6.10002 15.2999 6.10002 14.6999 5.70002 14.2999L4.40002 12.9999H11V19.5999L9.70002 18.2999C9.30002 17.8999 8.70002 17.8999 8.30002 18.2999C7.90002 18.6999 7.90002 19.2999 8.30002 19.6999L11.3 22.6999C11.4 22.7999 11.5 22.8999 11.6 22.8999C11.7 22.9999 11.9 22.9999 12 22.9999C12.1 22.9999 12.3 22.9999 12.4 22.8999C12.5 22.7999 12.6 22.7999 12.7 22.6999L15.7 19.6999C16.1 19.2999 16.1 18.6999 15.7 18.2999C15.3 17.8999 14.7 17.8999 14.3 18.2999L13 19.5999V12.9999H19.6L18.3 14.2999C17.9 14.6999 17.9 15.2999 18.3 15.6999C18.5 15.8999 18.8 15.9999 19 15.9999C19.2 15.9999 19.5 15.8999 19.7 15.6999L22.7 12.6999C22.8 12.5999 22.9 12.4999 22.9 12.3999Z" fill="#464454"/>
</svg>
