<svg width="24" height="24" viewBox="0 0 24 24" fill="none" xmlns="http://www.w3.org/2000/svg">
<path d="M22.7 1.30015C22.4 1.00015 22 0.900146 21.6 1.10015L2.6 10.1001C2.2 10.3001 2 10.7001 2 11.1001C2 11.5001 2.3 11.9001 2.8 12.0001L10.2 13.9001L12.1 21.3001C12.2 21.7001 12.6 22.0001 13 22.1001H13.1C13.5 22.1001 13.8 21.9001 14 21.5001L23 2.50015C23.1 2.00015 23 1.60015 22.7 1.30015ZM13.3 18.0001L12 12.8001C11.9 12.4001 11.6 12.2001 11.3 12.1001L6 10.7001L19.9 4.10015L13.3 18.0001Z" fill="#464454"/>
</svg>
