<svg width="24" height="24" viewBox="0 0 24 24" fill="none" xmlns="http://www.w3.org/2000/svg">
<path d="M21.3 4.5998L13.3 0.599805C12.5 0.199805 11.5 0.199805 10.6 0.599805L2.6 4.5998C1.6 5.0998 1 6.0998 1 7.1998V16.6998C1 17.7998 1.6 18.8998 2.7 19.3998L10.7 23.3998C11.1 23.5998 11.6 23.6998 12 23.6998C12.5 23.6998 12.9 23.5998 13.3 23.3998L21.3 19.3998C22.3 18.8998 23 17.8998 23 16.6998V7.1998C23 6.0998 22.4 5.0998 21.3 4.5998ZM11.6 2.2998C11.7 2.1998 11.9 2.1998 12 2.1998C12.2 2.1998 12.3 2.1998 12.4 2.2998L19.8 5.9998L17 7.3998L9.2 3.4998L11.6 2.2998ZM12 9.8998L4.2 5.9998L7 4.5998L14.8 8.4998L12 9.8998ZM3.5 17.6998C3.2 17.4998 3 17.0998 3 16.7998V7.5998L11 11.5998V21.3998L3.5 17.6998ZM20.4 17.6998L13 21.3998V11.5998L21 7.5998V16.7998C21 17.1998 20.8 17.4998 20.4 17.6998Z" fill="#464454"/>
</svg>
