<svg width="24" height="24" viewBox="0 0 24 24" fill="none" xmlns="http://www.w3.org/2000/svg">
<path d="M22.1 10.2998C21.7 9.89981 21.1 9.89981 20.7 10.2998L11.5 19.4998C9.50001 21.4998 6.40001 21.4998 4.40001 19.4998C2.40001 17.4998 2.40001 14.3998 4.40001 12.3998L13.6 3.1998C14.7 2.0998 16.7 2.0998 17.8 3.1998C19 4.39981 19 6.2998 17.8 7.3998L8.60001 16.5998C8.20001 16.9998 7.60001 16.9998 7.20001 16.5998C7.10001 16.4998 7.00001 16.2998 7.00001 15.9998C7.00001 15.6998 7.10001 15.4998 7.30001 15.2998L15.8 6.7998C16.2 6.3998 16.2 5.7998 15.8 5.3998C15.4 4.9998 14.8 4.9998 14.4 5.3998L5.90001 13.8998C5.30001 14.3998 5.00001 15.1998 5.00001 15.9998C5.00001 16.7998 5.30001 17.5998 5.90001 18.0998C7.10001 19.2998 9.00001 19.2998 10.1 18.0998L19.3 8.8998C21.3 6.8998 21.3 3.7998 19.3 1.7998C18.4 0.899805 17.1 0.299805 15.8 0.299805C14.5 0.299805 13.2 0.799805 12.3 1.7998L3.10001 10.9998C0.400012 13.6998 0.400012 18.1998 3.10001 20.8998C4.50001 22.2998 6.30001 22.8998 8.10001 22.8998C9.90001 22.8998 11.7 22.1998 13.1 20.8998L22.3 11.6998C22.5 11.3998 22.5 10.6998 22.1 10.2998Z" fill="#464454"/>
</svg>
