<svg width="24" height="24" viewBox="0 0 24 24" fill="none" xmlns="http://www.w3.org/2000/svg">
<path d="M12 1C5.9 1 1 5.9 1 12C1 18.1 5.9 23 12 23C18.1 23 23 18.1 23 12C23 5.9 18.1 1 12 1ZM12 21C7 21 3 17 3 12C3 7 7 3 12 3C17 3 21 7 21 12C21 17 17 21 12 21Z" fill="#464454"/>
<path d="M10 8C9.4 8 9 8.4 9 9V15C9 15.6 9.4 16 10 16C10.6 16 11 15.6 11 15V9C11 8.4 10.6 8 10 8Z" fill="#464454"/>
<path d="M14 8C13.4 8 13 8.4 13 9V15C13 15.6 13.4 16 14 16C14.6 16 15 15.6 15 15V9C15 8.4 14.6 8 14 8Z" fill="#464454"/>
</svg>
