<svg width="24" height="24" viewBox="0 0 24 24" fill="none" xmlns="http://www.w3.org/2000/svg">
<path d="M20 3H4C2.3 3 1 4.3 1 6V13.8C1 15.5 2.3 17 4 17H9L8 19H5C4.4 19 4 19.4 4 20C4 20.6 4.4 21 5 21H19C19.6 21 20 20.6 20 20C20 19.4 19.6 19 19 19H16L15 17H20C21.7 17 23 15.5 23 13.8V6C23 4.3 21.7 3 20 3ZM14 19H10L11 17H13L14 19ZM21 13.8C21 14.4 20.6 15 20 15H4C3.4 15 3 14.4 3 13.8V6C3 5.4 3.4 5 4 5H20C20.6 5 21 5.4 21 6V13.8ZM19 11.8C19 12.4 18.6 12.8 18 12.8H11.8C11.2 12.8 10.8 12.4 10.8 11.8C10.8 11.2 11.2 10.8 11.8 10.8H18C18.6 10.8 19 11.2 19 11.8ZM19 8C19 8.6 18.6 9 18 9H11.8C11.2 9 10.8 8.6 10.8 8C10.8 7.4 11.2 7 11.8 7H18C18.6 7 19 7.5 19 8ZM8.2 9.3H7.9V8.6H8.8C9.1 8.6 9.4 8.3 9.4 8C9.4 7.7 9.1 7.4 8.8 7.4H7.9V7C7.9 6.7 7.6 6.4 7.3 6.4C7 6.4 6.8 6.6 6.8 7V7.5H6.5C5.7 7.4 5 8.1 5 9C5 9.8 5.7 10.5 6.5 10.5H6.7V11.2H5.6C5.3 11.2 5 11.4 5 11.8C5 12.1 5.3 12.4 5.6 12.4H6.8V12.9C6.8 13.2 7.1 13.5 7.4 13.5C7.7 13.5 8 13.2 8 12.9V12.4H8.2C9 12.4 9.7 11.7 9.7 10.9C9.7 10.1 9 9.3 8.2 9.3ZM6.8 9.3H6.5C6.3 9.3 6.2 9.1 6.2 9C6.2 8.8 6.4 8.7 6.5 8.7H6.7V9.3H6.8ZM8.2 11.2H7.9V10.5H8.1C8.3 10.5 8.4 10.7 8.4 10.8C8.5 11 8.4 11.2 8.2 11.2Z" fill="#464454"/>
</svg>
