<svg width="24" height="24" viewBox="0 0 24 24" fill="none" xmlns="http://www.w3.org/2000/svg">
<path d="M5.6 11.7C5.3 11.7 5 11.9 5 12.3C5 12.6 5.3 12.9 5.6 12.9H6.8V13.4C6.8 13.7 7.1 14 7.4 14C7.7 14 8 13.7 8 13.4V12.9H8.2C9 12.9 9.7 12.2 9.7 11.4C9.7 10.6 9 9.8 8.2 9.8H7.9V9.1H8.8C9.1 9.1 9.4 8.8 9.4 8.5C9.4 8.2 9.1 7.9 8.8 7.9H7.9V7.5C7.9 7.2 7.6 6.9 7.3 6.9C7 6.9 6.8 7.1 6.8 7.5V8H6.5C5.7 7.9 5 8.6 5 9.5C5 10.3 5.7 11 6.5 11H6.7V11.7H5.6ZM7.9 11H8.1C8.3 11 8.4 11.2 8.4 11.3C8.4 11.5 8.2 11.6 8.1 11.6H7.9V11ZM6.5 9.8C6.3 9.8 6.2 9.6 6.2 9.5C6.2 9.3 6.4 9.2 6.5 9.2H6.7V9.9H6.5V9.8ZM19 16C19 16.6 18.6 17 18 17H6C5.4 17 5 16.6 5 16C5 15.4 5.4 15 6 15H18C18.6 15 19 15.4 19 16ZM19 8.5C19 9.1 18.6 9.5 18 9.5H11.8C11.2 9.5 10.8 9.1 10.8 8.5C10.8 7.9 11.2 7.5 11.8 7.5H18C18.6 7.5 19 8 19 8.5ZM19 12.3C19 12.9 18.6 13.3 18 13.3H11.8C11.2 13.3 10.8 12.9 10.8 12.3C10.8 11.7 11.2 11.3 11.8 11.3H18C18.6 11.3 19 11.7 19 12.3ZM20 3H4C2.3 3 1 4.3 1 6V18C1 19.7 2.3 21 4 21H20C21.7 21 23 19.7 23 18V6C23 4.3 21.7 3 20 3ZM21 18C21 18.6 20.6 19 20 19H4C3.4 19 3 18.6 3 18V6C3 5.4 3.4 5 4 5H20C20.6 5 21 5.4 21 6V18Z" fill="#464454"/>
</svg>
