<svg width="24" height="24" viewBox="0 0 24 24" fill="none" xmlns="http://www.w3.org/2000/svg">
<path d="M19.7 4.3C19.3 3.9 18.7 3.9 18.3 4.3L4.3 18.3C3.9 18.7 3.9 19.3 4.3 19.7C4.5 19.9 4.7 20 5 20C5.3 20 5.5 19.9 5.7 19.7L19.7 5.7C20.1 5.3 20.1 4.7 19.7 4.3Z" fill="#464454"/>
<path d="M6.5 10C8.4 10 10 8.4 10 6.5C10 4.6 8.4 3 6.5 3C4.6 3 3 4.6 3 6.5C3 8.4 4.6 10 6.5 10ZM6.5 5C7.3 5 8 5.7 8 6.5C8 7.3 7.3 8 6.5 8C5.7 8 5 7.3 5 6.5C5 5.7 5.7 5 6.5 5Z" fill="#464454"/>
<path d="M17.5 14C15.6 14 14 15.6 14 17.5C14 19.4 15.6 21 17.5 21C19.4 21 21 19.4 21 17.5C21 15.6 19.4 14 17.5 14ZM17.5 19C16.7 19 16 18.3 16 17.5C16 16.7 16.7 16 17.5 16C18.3 16 19 16.7 19 17.5C19 18.3 18.3 19 17.5 19Z" fill="#464454"/>
</svg>
