<svg width="25" height="25" viewBox="0 0 25 25" fill="none" xmlns="http://www.w3.org/2000/svg">
<path d="M20.4 14.9C19.5 14.8 18.6 14.6 17.8 14.3C16.7 13.9 15.5 14.2 14.6 15L13.9 15.7C12.1 14.5 10.5 13 9.29998 11.1L9.99998 10.4C10.8 9.6 11.1 8.3 10.7 7.2C10.4 6.4 10.2 5.5 10.1 4.6C9.89998 3.1 8.59998 2 7.09998 2H4.09998C3.99998 2 3.89998 2 3.79998 2C2.99998 2.1 2.29998 2.5 1.79998 3.1C1.29998 3.7 1.09998 4.5 1.09998 5.3C1.39998 8.5 2.59998 11.7 4.29998 14.4C5.89998 16.9 8.09998 19.1 10.6 20.7C13.3 22.5 16.5 23.6 19.7 23.9C19.8 23.9 19.9 23.9 20 23.9C20.8 23.9 21.6 23.6 22.1 23C22.6 22.4 23 21.7 23 20.9V17.9C23 16.4 21.9 15.1 20.4 14.9ZM21 17.9V20.9C21 21.2 20.9 21.4 20.7 21.6C20.5 21.8 20.3 21.9 19.9 21.9C17 21.6 14.2 20.6 11.7 19C9.39997 17.6 7.49998 15.6 5.99998 13.3C4.39998 10.8 3.39998 8 3.09998 5.1C3.09998 4.8 3.19998 4.6 3.29998 4.4C3.49998 4.2 3.79998 4 4.09998 4H7.09998C7.59998 4 7.99998 4.4 8.09998 4.9C8.19998 5.9 8.49998 7 8.89998 7.9C8.99998 8.3 8.89998 8.7 8.69998 9L7.39998 10.2C7.09998 10.5 6.99998 11 7.19998 11.4C8.69998 14.1 10.9 16.3 13.6 17.8C14 18 14.5 18 14.8 17.6L16.1 16.3C16.4 16 16.8 15.9 17.2 16.1C18.2 16.5 19.2 16.7 20.2 16.9C20.6 17 21 17.4 21 17.9Z" fill="#464454"/>
<path d="M15.2 1.00018C14.7 0.900178 14.2 1.30018 14.1 1.90018C14 2.40018 14.4 2.90018 15 3.00018C18.7 3.40018 21.6 6.30018 22.1 10.1002C22.2 10.6002 22.6 11.0002 23.1 11.0002H23.2C23.7 10.9002 24.1 10.4002 24.1 9.90018C23.5 5.20018 19.8 1.50018 15.2 1.00018Z" fill="#464454"/>
<path d="M18 10.1004C18.1 10.6004 18.5 10.9004 19 10.9004C19.1 10.9004 19.1 10.9004 19.2 10.9004C19.7 10.8004 20.1 10.3004 20 9.7004C19.5 7.3004 17.7 5.4004 15.3 5.0004C14.8 4.9004 14.2 5.2004 14.1 5.8004C14 6.4004 14.3 6.9004 14.9 7.0004C16.5 7.3004 17.7 8.5004 18 10.1004Z" fill="#464454"/>
</svg>
