<svg width="24" height="24" viewBox="0 0 24 24" fill="none" xmlns="http://www.w3.org/2000/svg">
<path d="M20.4 13.9C19.5 13.8 18.6 13.6 17.8 13.3C16.7 12.9 15.5 13.2 14.6 14L13.9 14.7C12.1 13.5 10.5 12 9.29998 10.1L9.99998 9.4C10.8 8.6 11.1 7.3 10.7 6.2C10.4 5.4 10.2 4.5 10.1 3.6C9.89998 2.1 8.59998 1 7.09998 1H4.09998C3.99998 1 3.89998 1 3.79998 1C2.99998 1.1 2.29998 1.5 1.79998 2.1C1.29998 2.7 1.09998 3.5 1.09998 4.3C1.39998 7.5 2.59998 10.7 4.29998 13.4C5.89998 15.9 8.09998 18.1 10.6 19.7C13.3 21.5 16.5 22.6 19.7 22.9C19.8 22.9 19.9 22.9 20 22.9C20.8 22.9 21.6 22.6 22.1 22C22.6 21.4 23 20.7 23 19.9V16.9C23 15.4 21.9 14.1 20.4 13.9ZM21 16.9V19.9C21 20.2 20.9 20.4 20.7 20.6C20.5 20.8 20.3 20.9 19.9 20.9C17 20.6 14.2 19.6 11.7 18C9.39997 16.6 7.49998 14.6 5.99998 12.3C4.39998 9.8 3.39998 7 3.09998 4.1C3.09998 3.8 3.19998 3.6 3.29998 3.4C3.49998 3.2 3.79998 3 4.09998 3H7.09998C7.59998 3 7.99998 3.4 8.09998 3.9C8.19998 4.9 8.49998 6 8.89998 6.9C8.99998 7.3 8.89998 7.7 8.69998 8L7.39998 9.2C7.09998 9.5 6.99998 10 7.19998 10.4C8.69998 13.1 10.9 15.3 13.6 16.8C14 17 14.5 17 14.8 16.6L16.1 15.3C16.4 15 16.8 14.9 17.2 15.1C18.2 15.5 19.2 15.7 20.2 15.9C20.6 16 21 16.4 21 16.9Z" fill="#464454"/>
</svg>
