<svg width="24" height="24" viewBox="0 0 24 24" fill="none" xmlns="http://www.w3.org/2000/svg">
<path d="M21.6 15C21.1 14.8 20.5 15 20.3 15.5C18.4 20.1 13.1 22.2 8.50002 20.3C3.90002 18.4 1.80002 13.1 3.70002 8.50005C4.60002 6.40005 6.30002 4.70005 8.40002 3.80005C8.90002 3.60005 9.10002 3.00005 8.90002 2.50005C8.70002 2.00005 8.10002 1.70005 7.60002 1.90005C5.00002 3.00005 3.00002 5.10005 1.90002 7.70005C-0.499981 13.3 2.20002 19.8 7.70002 22.1C9.10002 22.7 10.6 23 12 23C16.3 23 20.4 20.5 22.1 16.3C22.3 15.8 22.1 15.2 21.6 15Z" fill="#464454"/>
<path d="M12 1C11.4 1 11 1.4 11 2V12C11 12.6 11.4 13 12 13H22C22.6 13 23 12.6 23 12C23 5.9 18.1 1 12 1ZM13 11V3.1C17.2 3.6 20.5 6.9 20.9 11H13Z" fill="#464454"/>
</svg>
