<svg width="24" height="24" viewBox="0 0 24 24" fill="none" xmlns="http://www.w3.org/2000/svg">
<path d="M21.0007 8.59098H19.8711C19.2952 7.62327 18.4791 6.82076 17.502 6.26117V3.00144H16.5024C15.5882 2.9803 14.6836 3.19225 13.8739 3.61734C13.0642 4.04242 12.376 4.66665 11.8741 5.43124H7.45568C6.31279 5.43276 5.19109 5.74002 4.20688 6.32117C3.95969 5.96754 3.63049 5.67911 3.24748 5.48058C2.86447 5.28205 2.43906 5.17935 2.00769 5.18126C1.74257 5.18126 1.48831 5.28661 1.30084 5.47413C1.11337 5.66165 1.00805 5.91599 1.00805 6.18118C1.00805 6.44637 1.11337 6.70071 1.30084 6.88823C1.48831 7.07575 1.74257 7.1811 2.00769 7.1811C2.13879 7.17977 2.2674 7.21696 2.37757 7.28806C2.48774 7.35916 2.57463 7.46104 2.62746 7.58107C2.01963 8.263 1.56432 9.06687 1.29196 9.93893C1.01961 10.811 0.936479 11.7312 1.04814 12.6379C1.15979 13.5447 1.46367 14.4172 1.93944 15.1971C2.41521 15.977 3.05193 16.6463 3.80703 17.1603V19.0001C3.82011 19.5368 4.04314 20.0469 4.4282 20.4209C4.81325 20.7948 5.3296 21.0027 5.86627 21H7.86553C8.40317 21.0028 8.9206 20.7952 9.30725 20.4215C9.69391 20.0478 9.91912 19.5377 9.93477 19.0001V18.3502H10.9344V19.0001C10.9501 19.5377 11.1753 20.0478 11.5619 20.4215C11.9486 20.7952 12.466 21.0028 13.0036 21H15.0029C15.5405 21.0028 16.058 20.7952 16.4446 20.4215C16.8313 20.0478 17.0565 19.5377 17.0722 19.0001V17.7002C18.2385 17.1533 19.2136 16.2685 19.8711 15.1604H21.0007C21.5372 15.1474 22.0472 14.9243 22.421 14.5391C22.7949 14.1539 23.0028 13.6374 23 13.1006V10.6508C23.0028 10.114 22.7949 9.5975 22.421 9.21233C22.0472 8.82717 21.5372 8.60407 21.0007 8.59098ZM21.0007 13.1106H18.5916L18.3217 13.7006C18.0665 14.2398 17.7046 14.7217 17.2579 15.117C16.8112 15.5123 16.2889 15.8129 15.7226 16.0004L15.0229 16.2304V19.0001H13.0036V16.3004H7.88553V19.0001H5.88626V16.0004L5.35646 15.7104C4.50767 15.24 3.83867 14.5015 3.45408 13.6104C3.0695 12.7193 2.99103 11.7258 3.23093 10.7853C3.47084 9.84485 4.0156 9.01042 4.78001 8.41257C5.54442 7.81471 6.48537 7.48713 7.45568 7.48107H13.1636L13.4235 6.83113C13.6122 6.42407 13.8897 6.06453 14.2357 5.77899C14.5817 5.49346 14.9874 5.2892 15.4228 5.18126V7.57107L16.0325 7.84104C17.0352 8.25477 17.8503 9.02375 18.3217 10.0009L18.5916 10.6008H21.0007V13.1106ZM11.6441 11.2908H11.4242V10.6208H12.3039C12.4603 10.6208 12.6103 10.5587 12.7209 10.448C12.8315 10.3374 12.8937 10.1873 12.8937 10.0309C12.8937 9.8744 12.8315 9.72434 12.7209 9.61371C12.6103 9.50307 12.4603 9.44091 12.3039 9.44091H11.4242V9.00095C11.4055 8.85643 11.3347 8.72369 11.2253 8.62751C11.1158 8.53133 10.9751 8.47829 10.8294 8.47829C10.6838 8.47829 10.543 8.53133 10.4336 8.62751C10.3241 8.72369 10.2534 8.85643 10.2347 9.00095V9.47091H10.0047C9.78733 9.43528 9.56476 9.44737 9.35248 9.50634C9.14019 9.56532 8.94327 9.66976 8.77535 9.81244C8.60744 9.95513 8.47256 10.1326 8.38005 10.3326C8.28755 10.5327 8.23963 10.7504 8.23963 10.9708C8.23963 11.1912 8.28755 11.4089 8.38005 11.6089C8.47256 11.809 8.60744 11.9865 8.77535 12.1291C8.94327 12.2718 9.14019 12.3763 9.35248 12.4352C9.56476 12.4942 9.78733 12.5063 10.0047 12.4707H10.2247V13.1406H9.08509C8.92867 13.1406 8.77865 13.2028 8.66805 13.3134C8.55744 13.424 8.4953 13.5741 8.4953 13.7306C8.4953 13.887 8.55744 14.0371 8.66805 14.1477C8.77865 14.2584 8.92867 14.3205 9.08509 14.3205H10.2347V14.7905C10.2534 14.935 10.3241 15.0677 10.4336 15.1639C10.543 15.2601 10.6838 15.3131 10.8294 15.3131C10.9751 15.3131 11.1158 15.2601 11.2253 15.1639C11.3347 15.0677 11.4055 14.935 11.4242 14.7905V14.3205H11.6441C11.9998 14.2622 12.3232 14.0794 12.5565 13.8046C12.7898 13.5299 12.9179 13.1811 12.9179 12.8206C12.9179 12.4601 12.7898 12.1114 12.5565 11.8366C12.3232 11.5619 11.9998 11.379 11.6441 11.3208V11.2908ZM10.2347 11.2908H10.0047C9.92585 11.2771 9.85433 11.236 9.80277 11.1747C9.75122 11.1134 9.72295 11.0359 9.72295 10.9558C9.72295 10.8757 9.75122 10.7982 9.80277 10.7369C9.85433 10.6756 9.92585 10.6345 10.0047 10.6208H10.2247L10.2347 11.2908ZM11.6441 13.1406H11.4242V12.4707H11.6441C11.723 12.4844 11.7946 12.5255 11.8461 12.5867C11.8977 12.648 11.9259 12.7255 11.9259 12.8056C11.9259 12.8857 11.8977 12.9633 11.8461 13.0245C11.7946 13.0858 11.723 13.1269 11.6441 13.1406Z" fill="#464454"/>
</svg>
