<svg width="24" height="24" viewBox="0 0 24 24" fill="none" xmlns="http://www.w3.org/2000/svg">
<path fill-rule="evenodd" clip-rule="evenodd" d="M2.71429 22H2V21.2857L21.2857 2H22V2.71429L2.71429 22ZM7 22H5.57143L22 5.57143V7L7 22ZM9.85714 22H11.2857L22 11.2857V9.85714L9.85714 22ZM15.5714 22H14.1429L22 14.1429V15.5714L15.5714 22ZM18.4286 22H19.8571L22 19.8571V18.4286L18.4286 22ZM2 18.4286V17L17 2H18.4286L2 18.4286ZM2 12.7143V14.1429L14.1429 2H12.7143L2 12.7143ZM2 9.85714V8.42857L8.42857 2H9.85714L2 9.85714ZM2 4.14286V5.57143L5.57143 2H4.14286L2 4.14286Z" fill="#464454"/>
</svg>
