<svg width="24" height="24" viewBox="0 0 24 24" fill="none" xmlns="http://www.w3.org/2000/svg">
<path d="M22.0001 5.07983C22.0009 4.47005 21.8207 3.87375 21.4823 3.36647C21.144 2.85918 20.6626 2.46376 20.0993 2.23029C19.536 1.99683 18.916 1.93583 18.318 2.05502C17.72 2.17421 17.1708 2.46824 16.7401 2.89983L13.9301 5.70983L7.44006 3.54983C7.26727 3.49552 7.08297 3.48917 6.90685 3.53144C6.73072 3.57371 6.56938 3.66302 6.44006 3.78983L4.06006 6.14983C3.94729 6.26391 3.86362 6.40344 3.81611 6.55665C3.76859 6.70986 3.75863 6.87226 3.78707 7.03012C3.81551 7.18799 3.8815 7.3367 3.97949 7.46371C4.07747 7.59071 4.20457 7.69228 4.35006 7.75983L9.53006 10.1098L6.93006 12.7098L5.22006 11.8498C5.03543 11.7499 4.82404 11.7106 4.61584 11.7375C4.40764 11.7645 4.2132 11.8562 4.06006 11.9998L2.29006 13.8098C2.10381 13.9972 1.99927 14.2506 1.99927 14.5148C1.99927 14.779 2.10381 15.0325 2.29006 15.2198L8.78006 21.7098C8.96742 21.8961 9.22087 22.0006 9.48506 22.0006C9.74925 22.0006 10.0027 21.8961 10.1901 21.7098L12.0001 19.9398C12.1501 19.7913 12.2494 19.5991 12.2835 19.3907C12.3176 19.1823 12.2849 18.9685 12.1901 18.7798L11.3301 17.0698L13.9301 14.4698L16.2801 19.6498C16.3476 19.7953 16.4492 19.9224 16.5762 20.0204C16.7032 20.1184 16.8519 20.1844 17.0098 20.2128C17.1676 20.2413 17.33 20.2313 17.4832 20.1838C17.6364 20.1363 17.776 20.0526 17.8901 19.9398L20.2501 17.5798C20.3769 17.4505 20.4662 17.2892 20.5085 17.1131C20.5507 16.9369 20.5444 16.7526 20.4901 16.5798L18.3301 10.0898L21.1001 7.25983C21.3873 6.9744 21.6148 6.63463 21.7693 6.26035C21.9238 5.88606 22.0023 5.48475 22.0001 5.07983ZM19.6801 5.84983L16.4401 9.08983C16.3132 9.21916 16.2239 9.38049 16.1817 9.55662C16.1394 9.73274 16.1458 9.91704 16.2001 10.0898L18.3601 16.5698L17.4601 17.4698L15.1101 12.2998C15.0434 12.153 14.9421 12.0245 14.815 11.9252C14.6879 11.826 14.5387 11.7589 14.3801 11.7298C14.2201 11.7006 14.0555 11.7109 13.9004 11.7597C13.7453 11.8085 13.6045 11.8943 13.4901 12.0098L9.37006 16.1698C9.22215 16.3176 9.12427 16.508 9.09019 16.7143C9.0561 16.9206 9.08754 17.1323 9.18006 17.3198L10.0001 18.9998L9.44006 19.5598L4.41006 14.5198L5.00006 13.9998L6.71006 14.8598C6.89755 14.9524 7.10932 14.9838 7.31561 14.9497C7.52189 14.9156 7.7123 14.8177 7.86006 14.6698L12.0001 10.5098C12.115 10.3958 12.2005 10.2556 12.2492 10.1013C12.298 9.94695 12.3086 9.78308 12.2801 9.62375C12.2516 9.46442 12.1848 9.31439 12.0855 9.18656C11.9862 9.05872 11.8574 8.9569 11.7101 8.88983L6.50006 6.53983L7.40006 5.63983L13.8801 7.79983C14.0529 7.85414 14.2372 7.8605 14.4133 7.81823C14.5894 7.77596 14.7507 7.68665 14.8801 7.55983L18.1201 4.31983C18.2197 4.21794 18.3387 4.13697 18.4701 4.0817C18.6014 4.02642 18.7425 3.99795 18.8851 3.99795C19.0276 3.99795 19.1687 4.02642 19.3 4.0817C19.4314 4.13697 19.5504 4.21794 19.6501 4.31983C19.7544 4.41648 19.8369 4.53426 19.892 4.66531C19.9472 4.79637 19.9738 4.93769 19.9701 5.07983C19.9755 5.22103 19.9526 5.36189 19.9028 5.49412C19.853 5.62635 19.7773 5.7473 19.6801 5.84983Z" fill="#464454"/>
</svg>
