<svg width="24" height="24" viewBox="0 0 24 24" fill="none" xmlns="http://www.w3.org/2000/svg">
<path d="M12 1C5.9 1 1 5.9 1 12C1 18.1 5.9 23 12 23C18.1 23 23 18.1 23 12C23 5.9 18.1 1 12 1ZM12 21C7 21 3 17 3 12C3 7 7 3 12 3C17 3 21 7 21 12C21 17 17 21 12 21Z" fill="#464454"/>
<path d="M16.6 11.1998L10.6 7.1998C10.3 6.9998 9.9 6.9998 9.6 7.1998C9.2 7.2998 9 7.5998 9 7.9998V15.9998C9 16.3998 9.2 16.6998 9.5 16.8998C9.7 16.9998 9.8 16.9998 10 16.9998C10.2 16.9998 10.4 16.8998 10.6 16.7998L16.6 12.7998C16.9 12.5998 17 12.2998 17 11.9998C17 11.6998 16.8 11.3998 16.6 11.1998ZM11 14.0998V9.8998L14.2 11.9998L11 14.0998Z" fill="#464454"/>
</svg>
