<svg width="24" height="24" viewBox="0 0 24 24" fill="none" xmlns="http://www.w3.org/2000/svg">
<path d="M19.7331 9.06496C19.6387 8.96306 19.5242 8.88196 19.3969 8.8268C19.2696 8.77165 19.1321 8.74365 18.9934 8.74459C19.1157 8.42447 19.1832 8.08602 19.1933 7.74342C19.1978 7.11864 19.0076 6.508 18.6493 5.99657C18.291 5.48513 17.7823 5.09836 17.1942 4.89011C17.1942 4.89011 17.1942 4.83004 17.1942 4.8C17.1977 4.21499 17.0171 3.64374 16.678 3.16741C16.3389 2.69107 15.8586 2.33387 15.3052 2.14654C14.7519 1.95921 14.1537 1.95129 13.5956 2.12389C13.0375 2.2965 12.5479 2.64085 12.1964 3.10803C11.7185 2.7881 11.152 2.62747 10.5776 2.64904C10.0033 2.67062 9.45036 2.87329 8.99777 3.22817C8.63177 3.16816 8.2573 3.18521 7.89825 3.27823C7.18927 3.45774 6.58045 3.91183 6.20559 4.54073C5.83073 5.16963 5.7205 5.92187 5.89913 6.63213C5.57101 6.88597 5.30376 7.21013 5.11697 7.58085C4.93017 7.95157 4.82857 8.35946 4.8196 8.77462C4.60663 8.8084 4.41028 8.91024 4.25984 9.06496C4.16636 9.1669 4.095 9.28715 4.05027 9.41812C4.00554 9.54908 3.98841 9.68791 3.99996 9.82584L4.99952 21.0889C5.02204 21.3385 5.13721 21.5706 5.32228 21.7393C5.50735 21.908 5.74886 22.001 5.99908 22H17.9938C18.2441 22.001 18.4856 21.908 18.6706 21.7393C18.8557 21.5706 18.9709 21.3385 18.9934 21.0889L19.993 9.82584C20.0045 9.68791 19.9874 9.54908 19.9426 9.41812C19.8979 9.28715 19.8266 9.1669 19.7331 9.06496ZM16.1646 8.73457H13.4358C13.4173 8.34957 13.3188 7.97266 13.1467 7.6279C12.9746 7.28314 12.7327 6.9781 12.4363 6.73225C12.5163 6.6181 12.6225 6.52487 12.746 6.46041C12.8695 6.39594 13.0067 6.36213 13.146 6.36182C13.6357 6.36182 13.7757 6.54203 14.0556 6.90244C14.1377 7.00818 14.2402 7.09633 14.3569 7.16168C14.4737 7.22703 14.6023 7.26825 14.7353 7.28289C15.0043 7.27704 15.2613 7.16979 15.4549 6.98254C15.7748 6.71222 15.9447 6.62212 16.1646 6.62212C16.439 6.62212 16.7022 6.73129 16.8962 6.92562C17.0902 7.11994 17.1992 7.38351 17.1992 7.65832C17.1992 7.93314 17.0902 8.1967 16.8962 8.39103C16.7022 8.58536 16.439 8.69453 16.1646 8.69453V8.73457ZM10.657 8.06379C10.8444 8.06433 11.0253 8.13241 11.1666 8.25559C11.308 8.37876 11.4003 8.5488 11.4267 8.73457H9.89738C9.92156 8.54964 10.0119 8.37976 10.1515 8.25641C10.2912 8.13307 10.4708 8.06464 10.657 8.06379ZM7.59838 8.06379C7.728 8.06625 7.85502 8.10064 7.96822 8.16391C7.91579 8.34961 7.88889 8.5416 7.88826 8.73457H6.82872C6.85514 8.5488 6.94747 8.37876 7.0888 8.25559C7.23014 8.13241 7.41103 8.06433 7.59838 8.06379ZM13.5958 10.7369L13.076 19.9977H11.0769L10.5671 10.7369H13.5958ZM14.4354 3.97905C14.5378 3.97905 14.6392 3.99925 14.7338 4.03849C14.8283 4.07773 14.9143 4.13526 14.9867 4.20777C15.0591 4.28028 15.1165 4.36637 15.1557 4.46111C15.1949 4.55586 15.2151 4.6574 15.2151 4.75995C15.2151 4.75995 15.2151 4.82002 15.2151 4.86007C15.1389 4.89464 15.0654 4.9348 14.9951 4.98021C14.6445 4.69608 14.2289 4.50345 13.7857 4.41956C13.8471 4.2964 13.9391 4.19117 14.0529 4.11401C14.1667 4.03685 14.2984 3.99037 14.4354 3.97905ZM7.93823 5.58091C8.0403 5.40053 8.20901 5.26751 8.40803 5.21048C8.60738 5.18603 8.80967 5.21007 8.99777 5.28056C9.20155 5.34362 9.42013 5.33975 9.62155 5.2695C9.82298 5.19925 9.99668 5.0663 10.1173 4.89011C10.219 4.77127 10.3553 4.68726 10.5071 4.64983C10.6669 4.60793 10.8358 4.61728 10.99 4.67654C11.1442 4.73581 11.2759 4.84201 11.3667 4.98021C10.9718 5.27889 10.6617 5.67579 10.4671 6.13155C9.98257 6.16066 9.51399 6.31596 9.10772 6.58207C8.73021 6.33425 8.29775 6.18299 7.84827 6.14156C7.8116 5.94989 7.84345 5.75141 7.93823 5.58091ZM6.15901 6.28172L6.31894 6.38184L6.15901 6.28172ZM6.08904 10.7369H8.56796L9.09773 19.9977H6.91868L6.08904 10.7369ZM17.0842 19.9977H15.0851L15.6149 10.7369H17.9139L17.0842 19.9977Z" fill="#464454"/>
</svg>
