<svg width="24" height="24" viewBox="0 0 24 24" fill="none" xmlns="http://www.w3.org/2000/svg">
<path d="M3 4.80874V19.1343C3 19.1913 3.03921 19.2401 3.09411 19.2482L13.0152 20.9972C13.0858 21.0135 13.1486 20.9565 13.1486 20.8833V3.11668C13.1486 3.04347 13.0858 2.98653 13.0152 3.0028L3.09411 4.69486C3.03921 4.70299 3 4.7518 3 4.80874Z" stroke="#464454" stroke-width="1.7" stroke-miterlimit="10"/>
<path d="M13.2898 18.5568L20.8894 18.5324C20.9522 18.5324 20.9992 18.4755 20.9992 18.4104V5.54097C20.9992 5.47589 20.9443 5.41895 20.8816 5.41895L13.1407 5.44335" stroke="#464454" stroke-width="1.7" stroke-miterlimit="10"/>
<path d="M6.16956 15.2299V8.68945H8.26358C8.87531 8.68945 9.48705 8.9091 9.92625 9.35651C10.287 9.73072 10.5772 10.2758 10.4674 11.0486C10.2243 12.8057 8.46749 12.8383 8.46749 12.8383H6.16956" stroke="#464454" stroke-width="1.7" stroke-miterlimit="10" stroke-linecap="round" stroke-linejoin="round"/>
<path d="M18.788 15.2295H13.149" stroke="#464454" stroke-width="1.7" stroke-miterlimit="10" stroke-linecap="round" stroke-linejoin="round"/>
<path d="M15.5874 8.72998C14.2698 8.72998 13.2111 9.83633 13.2111 11.1949C13.2111 12.5615 14.2777 13.6597 15.5874 13.6597C16.905 13.6597 17.9638 12.5534 17.9638 11.1949H15.5874V8.72998Z" fill="#464454"/>
<path d="M17.1726 7.09473C18.4353 7.09473 19.4549 8.15227 19.4549 9.46199H17.1726V7.09473Z" fill="#464454"/>
</svg>
