<svg width="24" height="24" viewBox="0 0 24 24" fill="none" xmlns="http://www.w3.org/2000/svg">
<path d="M19.1 5.9001C18.7 5.5001 18.1 5.5001 17.7 5.9001C17.3 6.3001 17.3 6.9001 17.7 7.3001C20.8 10.4001 20.8 15.5001 17.7 18.6001C14.6 21.7001 9.49998 21.7001 6.39998 18.6001C3.29998 15.5001 3.29998 10.4001 6.39998 7.3001C6.79998 6.9001 6.79998 6.3001 6.39998 5.9001C5.99998 5.5001 5.39998 5.5001 4.99998 5.9001C0.999985 9.8001 0.999985 16.2001 4.89998 20.1001C6.89998 22.0001 9.39998 23.0001 12 23.0001C14.6 23.0001 17.1 22.0001 19.1 20.1001C23 16.2001 23 9.8001 19.1 5.9001Z" fill="#464454"/>
<path d="M12 13C12.6 13 13 12.6 13 12V2C13 1.4 12.6 1 12 1C11.4 1 11 1.4 11 2V12C11 12.6 11.4 13 12 13Z" fill="#464454"/>
</svg>
