<svg width="24" height="24" viewBox="0 0 24 24" fill="none" xmlns="http://www.w3.org/2000/svg">
<path fill-rule="evenodd" clip-rule="evenodd" d="M10 2.5C7.79086 2.5 6 4.29086 6 6.5C6 8.70914 7.79086 10.5 10 10.5C12.2091 10.5 14 8.70914 14 6.5C14 4.29086 12.2091 2.5 10 2.5ZM5 6.5C5 3.73858 7.23858 1.5 10 1.5C12.7614 1.5 15 3.73858 15 6.5C15 9.26142 12.7614 11.5 10 11.5C7.23858 11.5 5 9.26142 5 6.5Z" fill="#464454" stroke="#464454" stroke-linejoin="bevel"/>
<path fill-rule="evenodd" clip-rule="evenodd" d="M10 11.5C5.85786 11.5 2.5 14.8579 2.5 19H1.5C1.5 14.3056 5.30558 10.5 10 10.5V11.5Z" fill="#464454" stroke="#464454" stroke-linejoin="bevel"/>
<path fill-rule="evenodd" clip-rule="evenodd" d="M17 12.5C14.5147 12.5 12.5 14.5147 12.5 17C12.5 19.4853 14.5147 21.5 17 21.5C19.4853 21.5 21.5 19.4853 21.5 17C21.5 14.5147 19.4853 12.5 17 12.5ZM11.5 17C11.5 13.9624 13.9624 11.5 17 11.5C20.0376 11.5 22.5 13.9624 22.5 17C22.5 20.0376 20.0376 22.5 17 22.5C13.9624 22.5 11.5 20.0376 11.5 17Z" fill="#464454" stroke="#464454" stroke-linejoin="round"/>
<path fill-rule="evenodd" clip-rule="evenodd" d="M15.4672 15C15.303 15 15.1498 15.0756 15.0587 15.2014L14.052 16.5927C13.9904 16.6779 13.983 16.7869 14.0327 16.8785C14.5836 17.8937 15.3492 18.7971 16.2845 19.5357L16.7756 19.9235C16.9047 20.0255 17.0953 20.0255 17.2244 19.9235L17.7155 19.5357C18.6508 18.7971 19.4164 17.8937 19.9673 16.8785C20.017 16.7869 20.0096 16.6779 19.948 16.5927L18.9413 15.2014C18.8502 15.0756 18.697 15 18.5328 15H15.4672ZM15.4088 15.4164C15.4218 15.3984 15.4437 15.3876 15.4672 15.3876H16.1235L15.5863 16.5754C15.5739 16.6028 15.5646 16.631 15.5583 16.6597C15.3609 16.6461 15.1636 16.6298 14.9666 16.6107L14.5723 16.5725L15.4088 15.4164ZM14.5537 16.9604C15.0568 17.8106 15.721 18.5718 16.5157 19.2075L15.639 17.0536C15.3999 17.0385 15.1611 17.0193 14.9226 16.9962L14.5537 16.9604ZM16.0982 17.0778L17 19.2935L17.9018 17.0778C17.3009 17.103 16.6991 17.103 16.0982 17.0778ZM18.361 17.0536L17.4844 19.2075C18.279 18.5718 18.9432 17.8106 19.4463 16.9604L19.0774 16.9962C18.8389 17.0193 18.6001 17.0385 18.361 17.0536ZM19.4277 16.5725L19.0334 16.6107C18.8364 16.6298 18.6391 16.6461 18.4417 16.6597C18.4354 16.631 18.4261 16.6028 18.4137 16.5754L17.8765 15.3876H18.5328C18.5563 15.3876 18.5782 15.3984 18.5912 15.4164L19.4277 16.5725ZM18.0074 16.6849C17.3363 16.7171 16.6637 16.7171 15.9926 16.6849L16.5793 15.3876H17.4207L18.0074 16.6849Z" fill="#464454" stroke="#464454" stroke-width="0.3"/>
</svg>
