<svg width="24" height="24" viewBox="0 0 24 24" fill="none" xmlns="http://www.w3.org/2000/svg">
<path fill-rule="evenodd" clip-rule="evenodd" d="M10 2.5C7.79086 2.5 6 4.29086 6 6.5C6 8.70914 7.79086 10.5 10 10.5C12.2091 10.5 14 8.70914 14 6.5C14 4.29086 12.2091 2.5 10 2.5ZM5 6.5C5 3.73858 7.23858 1.5 10 1.5C12.7614 1.5 15 3.73858 15 6.5C15 9.26142 12.7614 11.5 10 11.5C7.23858 11.5 5 9.26142 5 6.5Z" fill="#464454" stroke="#464454" stroke-linejoin="bevel"/>
<path fill-rule="evenodd" clip-rule="evenodd" d="M10 11.5C5.85786 11.5 2.5 14.8579 2.5 19H1.5C1.5 14.3056 5.30558 10.5 10 10.5V11.5Z" fill="#464454" stroke="#464454" stroke-linejoin="bevel"/>
<path fill-rule="evenodd" clip-rule="evenodd" d="M17 12.5C14.5147 12.5 12.5 14.5147 12.5 17C12.5 19.4853 14.5147 21.5 17 21.5C19.4853 21.5 21.5 19.4853 21.5 17C21.5 14.5147 19.4853 12.5 17 12.5ZM11.5 17C11.5 13.9624 13.9624 11.5 17 11.5C20.0376 11.5 22.5 13.9624 22.5 17C22.5 20.0376 20.0376 22.5 17 22.5C13.9624 22.5 11.5 20.0376 11.5 17Z" fill="#464454" stroke="#464454" stroke-linejoin="round"/>
</svg>
