<svg width="24" height="24" viewBox="0 0 24 24" fill="none" xmlns="http://www.w3.org/2000/svg">
<path d="M20 8H19V2C19 1.4 18.6 1 18 1H6C5.4 1 5 1.4 5 2V8H4C2.3 8 1 9.3 1 11V16C1 17.7 2.3 19 4 19H5V22C5 22.6 5.4 23 6 23H18C18.6 23 19 22.6 19 22V19H20C21.7 19 23 17.7 23 16V11C23 9.3 21.7 8 20 8ZM7 3H17V8H7V3ZM17 21H7V15H17V21ZM21 16C21 16.6 20.6 17 20 17H19V14C19 13.4 18.6 13 18 13H6C5.4 13 5 13.4 5 14V17H4C3.4 17 3 16.6 3 16V11C3 10.4 3.4 10 4 10H20C20.6 10 21 10.4 21 11V16Z" fill="#464454"/>
</svg>
