<svg width="24" height="24" viewBox="0 0 24 24" fill="none" xmlns="http://www.w3.org/2000/svg">
<path d="M10.5605 19.2132C10.6041 19.1488 10.6345 19.0763 10.65 18.9999C10.6757 18.8834 10.666 18.7619 10.6222 18.6509C10.5785 18.5399 10.5026 18.4444 10.4044 18.3767C10.3061 18.3091 10.1899 18.2722 10.0706 18.2709C9.95124 18.2696 9.83425 18.3039 9.73453 18.3695C9.63481 18.435 9.5569 18.5288 9.51074 18.6388C9.46459 18.7488 9.45229 18.8701 9.47542 18.9872C9.49855 19.1042 9.55605 19.2118 9.64059 19.296C9.72512 19.3802 9.83285 19.4373 9.94999 19.4599C10.0262 19.476 10.1048 19.4769 10.1813 19.4624C10.2578 19.4479 10.3307 19.4185 10.3958 19.3757C10.4609 19.333 10.5168 19.2777 10.5605 19.2132Z" fill="#464454"/>
<path d="M7.57573 18.4357C7.68825 18.3232 7.84086 18.2599 7.99999 18.2599H8.51999C8.67912 18.2599 8.83174 18.3232 8.94426 18.4357C9.05678 18.5482 9.11999 18.7008 9.11999 18.8599C9.11999 19.0191 9.05678 19.1717 8.94426 19.2842C8.83174 19.3967 8.67912 19.4599 8.51999 19.4599H7.99999C7.84086 19.4599 7.68825 19.3967 7.57573 19.2842C7.46321 19.1717 7.39999 19.0191 7.39999 18.8599C7.39999 18.7008 7.46321 18.5482 7.57573 18.4357Z" fill="#464454"/>
<path fill-rule="evenodd" clip-rule="evenodd" d="M16.1371 9.69727C16.605 10.077 16.9389 10.5966 17.09 11.1799C17.2139 11.7109 17.2743 12.2547 17.27 12.7999C17.2619 13.601 17.168 14.3989 16.99 15.1799C16.9431 15.4208 16.821 15.6406 16.6413 15.8077C16.4617 15.9748 16.2336 16.0806 15.99 16.1099C15.1 16.2099 12.93 16.3399 11.9 16.3399C10.87 16.3399 8.71999 16.2299 7.80999 16.1399C7.55809 16.1203 7.31915 16.0203 7.12833 15.8547C6.93752 15.6891 6.8049 15.4666 6.74999 15.2199C6.56867 14.4392 6.47145 13.6413 6.45999 12.8399C6.47124 12.2894 6.54846 11.7421 6.68999 11.2099C6.83348 10.6245 7.16206 10.101 7.62688 9.71723C8.09171 9.33348 8.66797 9.10997 9.26999 9.07994C10.14 8.99994 10.97 8.99994 11.88 8.99994C12.79 8.99994 13.73 8.99994 14.49 9.06994C15.0919 9.0977 15.6692 9.31756 16.1371 9.69727ZM8.17302 12.4526C8.30974 12.5966 8.48622 12.6966 8.67999 12.7399C8.93575 12.7971 9.20374 12.7516 9.42629 12.6132C9.64884 12.4748 9.80817 12.2546 9.86999 11.9999C9.91683 11.807 9.90517 11.6045 9.83649 11.4182C9.76782 11.2319 9.64524 11.0702 9.48437 10.9538C9.3235 10.8375 9.13163 10.7716 8.93319 10.7647C8.73476 10.7577 8.53875 10.81 8.37014 10.9148C8.20153 11.0197 8.06795 11.1724 7.98641 11.3534C7.90488 11.5344 7.87909 11.7357 7.91232 11.9314C7.94555 12.1272 8.03631 12.3086 8.17302 12.4526ZM13.0867 15.0048C13.4469 14.7892 13.7418 14.4799 13.94 14.1099C14.0023 13.9919 14.0152 13.854 13.9758 13.7264C13.9364 13.5989 13.848 13.4923 13.73 13.4299C13.612 13.3676 13.474 13.3547 13.3465 13.3941C13.219 13.4335 13.1123 13.5219 13.05 13.6399C12.939 13.8515 12.7722 14.0287 12.5678 14.1523C12.3633 14.2759 12.1289 14.3413 11.89 14.3413C11.6511 14.3413 11.4167 14.2759 11.2122 14.1523C11.0078 14.0287 10.841 13.8515 10.73 13.6399C10.7019 13.5774 10.6613 13.5213 10.6106 13.4751C10.56 13.429 10.5003 13.3937 10.4355 13.3715C10.3706 13.3494 10.3019 13.3408 10.2335 13.3463C10.1652 13.3519 10.0988 13.3714 10.0383 13.4037C9.97782 13.436 9.92464 13.4803 9.88206 13.5341C9.83947 13.5878 9.80838 13.6497 9.79072 13.7159C9.77306 13.7821 9.76921 13.8513 9.77941 13.9191C9.7896 13.9869 9.81363 14.0518 9.84999 14.1099C10.0482 14.4799 10.3431 14.7892 10.7032 15.0048C11.0634 15.2204 11.4752 15.3343 11.895 15.3343C12.3147 15.3343 12.7266 15.2204 13.0867 15.0048ZM15.4386 12.6281C15.6597 12.4838 15.8147 12.258 15.87 11.9999C15.904 11.8692 15.9112 11.7328 15.8911 11.5992C15.871 11.4656 15.824 11.3374 15.7529 11.2225C15.6819 11.1075 15.5883 11.0081 15.4778 10.9304C15.3673 10.8526 15.2422 10.798 15.11 10.7699C14.9787 10.7424 14.8432 10.7409 14.7113 10.7657C14.5794 10.7905 14.4537 10.841 14.3414 10.9143C14.1145 11.0625 13.9557 11.2947 13.9 11.5599C13.8724 11.6913 13.871 11.8267 13.8957 11.9586C13.9205 12.0905 13.971 12.2162 14.0444 12.3286C14.1178 12.4409 14.2125 12.5377 14.3233 12.6135C14.4341 12.6892 14.5587 12.7424 14.69 12.7699C14.9485 12.8233 15.2176 12.7723 15.4386 12.6281Z" fill="#464454"/>
<path fill-rule="evenodd" clip-rule="evenodd" d="M18.2235 6.26792C16.7134 4.78283 14.7037 3.92059 12.5936 3.8453L12.31 2.89995C12.4678 2.83131 12.6053 2.7231 12.709 2.58578C12.8128 2.44846 12.8794 2.28669 12.9023 2.11611C12.9252 1.94553 12.9037 1.77192 12.8399 1.61207C12.7761 1.45223 12.6721 1.31157 12.538 1.2037C12.4039 1.09582 12.2442 1.02439 12.0744 0.996309C11.9046 0.968229 11.7304 0.984451 11.5687 1.04341C11.407 1.10236 11.2632 1.20205 11.1513 1.33284C11.0395 1.46362 10.9632 1.62107 10.93 1.78995C10.8851 2.01218 10.9171 2.24308 11.0206 2.44476C11.1242 2.64645 11.2932 2.80695 11.5 2.89995L11.2214 3.84438C9.09437 3.91424 7.06862 4.78467 5.55261 6.28625C3.98237 7.84154 3.08396 9.95012 3.05 12.16C3 13.1 3 16.84 3 20C3 20.7956 3.31607 21.5587 3.87868 22.1213C4.44129 22.6839 5.20435 23 6 23L17.82 22.97C18.6154 22.9693 19.3779 22.6527 19.94 22.09C20.218 21.8096 20.438 21.4772 20.5873 21.1117C20.7366 20.7462 20.8123 20.3548 20.81 19.96C20.8046 18.6135 20.7875 16.726 20.7729 15.1183C20.7605 13.7532 20.75 12.5891 20.75 12.13C20.7056 9.92101 19.7988 7.81706 18.2235 6.26792ZM11.47 5.87997H12.31C13.997 5.88985 15.6138 6.55622 16.8178 7.73785C18.0218 8.91947 18.7184 10.5235 18.76 12.21C18.81 13.21 18.81 17.52 18.81 20C18.81 20.2652 18.7046 20.5195 18.5171 20.7071C18.3296 20.8946 18.0752 21 17.81 21H6C5.73478 21 5.48043 20.8946 5.29289 20.7071C5.10536 20.5195 5 20.2652 5 20C5 18.2 5 13.3 5.05 12.25C5.07607 10.56 5.7624 8.94738 6.96217 7.75695C8.16194 6.56652 9.77991 5.89283 11.47 5.87997Z" fill="#464454"/>
</svg>
