<svg width="24" height="24" viewBox="0 0 24 24" fill="none" xmlns="http://www.w3.org/2000/svg">
<path fill-rule="evenodd" clip-rule="evenodd" d="M4.56789 21.4321C4.18011 21.0443 4 20.5272 4 20L4 8C4 7.47275 4.18011 6.95567 4.56789 6.56789C4.95567 6.18011 5.47275 6 6 6L8.53466 6C8.51199 5.83895 8.5 5.67222 8.5 5.5C8.5 3.54772 10.0477 2 12 2C13.9523 2 15.5 3.54772 15.5 5.5C15.5 5.67222 15.488 5.83895 15.4653 6L18 6C18.5272 6 19.0443 6.18011 19.4321 6.56789C19.8199 6.95567 20 7.47275 20 8L20 12C20 12.3788 19.786 12.725 19.4472 12.8944C19.1084 13.0638 18.703 13.0273 18.4 12.8C18.1559 12.617 17.8631 12.5 17.5 12.5C16.6523 12.5 16 13.1523 16 14C16 14.8477 16.6523 15.5 17.5 15.5C17.8631 15.5 18.1559 15.383 18.4 15.2C18.703 14.9727 19.1084 14.9362 19.4472 15.1056C19.786 15.275 20 15.6212 20 16L20 20C20 20.5272 19.8199 21.0443 19.4321 21.4321C19.0443 21.8199 18.5272 22 18 22L6 22C5.47275 22 4.95567 21.8199 4.56789 21.4321ZM6 8L6 20L18 20L18 17.4653C17.839 17.488 17.6722 17.5 17.5 17.5C15.5477 17.5 14 15.9523 14 14C14 12.0477 15.5477 10.5 17.5 10.5C17.6722 10.5 17.839 10.512 18 10.5347L18 8L14 8C13.6212 8 13.275 7.786 13.1056 7.44721C12.9362 7.10843 12.9727 6.70302 13.2 6.4C13.383 6.15594 13.5 5.86312 13.5 5.5C13.5 4.65228 12.8477 4 12 4C11.1523 4 10.5 4.65228 10.5 5.5C10.5 5.86312 10.617 6.15594 10.8 6.4C11.0273 6.70302 11.0638 7.10843 10.8944 7.44721C10.725 7.786 10.3788 8 10 8L6 8Z" fill="#464454"/>
</svg>
