<svg width="24" height="24" viewBox="0 0 24 24" fill="none" xmlns="http://www.w3.org/2000/svg">
<path fill-rule="evenodd" clip-rule="evenodd" d="M21.4321 19.4321C21.0443 19.8199 20.5272 20 20 20L8 20C7.47275 20 6.95567 19.8199 6.56789 19.4321C6.18011 19.0443 6 18.5272 6 18L6 15.4653C5.83895 15.488 5.67222 15.5 5.5 15.5C3.54772 15.5 2 13.9523 2 12C2 10.0477 3.54772 8.5 5.5 8.5C5.67222 8.5 5.83895 8.51199 6 8.53466L6 6C6 5.47275 6.18012 4.95567 6.56789 4.56789C6.95567 4.18011 7.47275 4 8 4L12 4C12.3788 4 12.725 4.214 12.8944 4.55279C13.0638 4.89157 13.0273 5.29698 12.8 5.6C12.617 5.84406 12.5 6.13687 12.5 6.5C12.5 7.34771 13.1523 8 14 8C14.8477 8 15.5 7.34771 15.5 6.5C15.5 6.13687 15.383 5.84406 15.2 5.6C14.9727 5.29698 14.9362 4.89157 15.1056 4.55279C15.275 4.214 15.6212 4 16 4L20 4C20.5272 4 21.0443 4.18011 21.4321 4.56789C21.8199 4.95567 22 5.47275 22 6L22 18C22 18.5272 21.8199 19.0443 21.4321 19.4321ZM8 18L20 18L20 6L17.4653 6C17.488 6.16105 17.5 6.32778 17.5 6.5C17.5 8.45228 15.9523 10 14 10C12.0477 10 10.5 8.45228 10.5 6.5C10.5 6.32778 10.512 6.16105 10.5347 6L8 6L8 10C8 10.3788 7.786 10.725 7.44721 10.8944C7.10843 11.0638 6.70302 11.0273 6.4 10.8C6.15594 10.617 5.86313 10.5 5.5 10.5C4.65229 10.5 4 11.1523 4 12C4 12.8477 4.65229 13.5 5.5 13.5C5.86313 13.5 6.15594 13.383 6.4 13.2C6.70302 12.9727 7.10843 12.9362 7.44721 13.1056C7.786 13.275 8 13.6212 8 14L8 18Z" fill="#464454"/>
</svg>
