<svg width="24" height="24" viewBox="0 0 24 24" fill="none" xmlns="http://www.w3.org/2000/svg">
<path fill-rule="evenodd" clip-rule="evenodd" d="M2.56789 4.56789C2.95567 4.18011 3.47275 4 4 4H16C16.5272 4 17.0443 4.18011 17.4321 4.56789C17.8199 4.95567 18 5.47275 18 6V8.53466C18.161 8.51199 18.3278 8.5 18.5 8.5C20.4523 8.5 22 10.0477 22 12C22 13.9523 20.4523 15.5 18.5 15.5C18.3278 15.5 18.161 15.488 18 15.4653V18C18 18.5272 17.8199 19.0443 17.4321 19.4321C17.0443 19.8199 16.5272 20 16 20H12C11.6212 20 11.275 19.786 11.1056 19.4472C10.9362 19.1084 10.9727 18.703 11.2 18.4C11.383 18.1559 11.5 17.8631 11.5 17.5C11.5 16.6523 10.8477 16 10 16C9.15228 16 8.5 16.6523 8.5 17.5C8.5 17.8631 8.61696 18.1559 8.8 18.4C9.02726 18.703 9.06382 19.1084 8.89443 19.4472C8.72504 19.786 8.37877 20 8 20H4C3.47275 20 2.95567 19.8199 2.56789 19.4321C2.18011 19.0443 2 18.5272 2 18V6C2 5.47275 2.18011 4.95567 2.56789 4.56789ZM16 6H4V18H6.53466C6.51199 17.839 6.5 17.6722 6.5 17.5C6.5 15.5477 8.04772 14 10 14C11.9523 14 13.5 15.5477 13.5 17.5C13.5 17.6722 13.488 17.839 13.4653 18H16V14C16 13.6212 16.214 13.275 16.5528 13.1056C16.8916 12.9362 17.297 12.9727 17.6 13.2C17.8441 13.383 18.1369 13.5 18.5 13.5C19.3477 13.5 20 12.8477 20 12C20 11.1523 19.3477 10.5 18.5 10.5C18.1369 10.5 17.8441 10.617 17.6 10.8C17.297 11.0273 16.8916 11.0638 16.5528 10.8944C16.214 10.725 16 10.3788 16 10V6Z" fill="#464454"/>
</svg>
