<svg width="24" height="24" viewBox="0 0 24 24" fill="none" xmlns="http://www.w3.org/2000/svg">
<path fill-rule="evenodd" clip-rule="evenodd" d="M19.4321 2.56789C19.8199 2.95567 20 3.47275 20 4L20 16C20 16.5272 19.8199 17.0443 19.4321 17.4321C19.0443 17.8199 18.5272 18 18 18L15.4653 18C15.488 18.161 15.5 18.3278 15.5 18.5C15.5 20.4523 13.9523 22 12 22C10.0477 22 8.5 20.4523 8.5 18.5C8.5 18.3278 8.51199 18.161 8.53466 18L6 18C5.47275 18 4.95567 17.8199 4.56789 17.4321C4.18011 17.0443 4 16.5272 4 16L4 12C4 11.6212 4.214 11.275 4.55279 11.1056C4.89157 10.9362 5.29698 10.9727 5.6 11.2C5.84406 11.383 6.13687 11.5 6.5 11.5C7.34771 11.5 8 10.8477 8 10C8 9.15228 7.34772 8.5 6.5 8.5C6.13687 8.5 5.84406 8.61696 5.6 8.8C5.29698 9.02726 4.89157 9.06382 4.55279 8.89443C4.214 8.72503 4 8.37877 4 8L4 4C4 3.47275 4.18011 2.95567 4.56789 2.56789C4.95567 2.18011 5.47275 2 6 2L18 2C18.5272 2 19.0443 2.18011 19.4321 2.56789ZM18 16L18 4L6 4L6 6.53466C6.16105 6.51199 6.32778 6.5 6.5 6.5C8.45228 6.5 10 8.04771 10 10C10 11.9523 8.45228 13.5 6.5 13.5C6.32778 13.5 6.16105 13.488 6 13.4653L6 16L10 16C10.3788 16 10.725 16.214 10.8944 16.5528C11.0638 16.8916 11.0273 17.297 10.8 17.6C10.617 17.8441 10.5 18.1369 10.5 18.5C10.5 19.3477 11.1523 20 12 20C12.8477 20 13.5 19.3477 13.5 18.5C13.5 18.1369 13.383 17.8441 13.2 17.6C12.9727 17.297 12.9362 16.8916 13.1056 16.5528C13.275 16.214 13.6212 16 14 16L18 16Z" fill="#464454"/>
</svg>
