<svg width="24" height="24" viewBox="0 0 24 24" fill="none" xmlns="http://www.w3.org/2000/svg">
<path d="M12 9C10.3 9 9 10.3 9 12C9 13.7 10.3 15 12 15C13.7 15 15 13.7 15 12C15 10.3 13.7 9 12 9ZM12 13C11.4 13 11 12.6 11 12C11 11.4 11.4 11 12 11C12.6 11 13 11.4 13 12C13 12.6 12.6 13 12 13Z" fill="#464454"/>
<path d="M6.99995 11.9998C6.99995 10.6998 7.49995 9.3998 8.49995 8.4998C8.89995 8.0998 8.79995 7.4998 8.49995 7.0998C8.09995 6.6998 7.49995 6.6998 7.09995 7.0998C4.39995 9.7998 4.39995 14.2998 7.09995 16.9998C7.29995 17.1998 7.59995 17.2998 7.79995 17.2998C7.99995 17.2998 8.29995 17.1998 8.49995 16.9998C8.89995 16.5998 8.89995 15.9998 8.49995 15.5998C7.49995 14.5998 6.99995 13.2998 6.99995 11.9998Z" fill="#464454"/>
<path d="M5.59998 5.5999C5.99998 5.1999 5.99998 4.5999 5.59998 4.1999C5.19998 3.7999 4.59998 3.7999 4.19998 4.1999C-0.100024 8.4999 -0.100024 15.4999 4.19998 19.7999C4.39998 19.9999 4.69998 20.0999 4.89998 20.0999C5.09998 20.0999 5.39998 19.9999 5.59998 19.7999C5.99998 19.3999 5.99998 18.7999 5.59998 18.3999C2.09998 14.8999 2.09998 9.0999 5.59998 5.5999Z" fill="#464454"/>
<path d="M19.8 4.1999C19.4 3.7999 18.8 3.7999 18.4 4.1999C18 4.5999 18 5.1999 18.4 5.5999C21.9 9.0999 21.9 14.7999 18.4 18.2999C18 18.6999 18 19.2999 18.4 19.6999C18.6 19.8999 18.9 19.9999 19.1 19.9999C19.3 19.9999 19.6 19.8999 19.8 19.6999C24.1 15.4999 24.1 8.4999 19.8 4.1999Z" fill="#464454"/>
<path d="M16.9 7.0998C16.5 6.6998 15.9 6.6998 15.5 7.0998C15.1 7.4998 15.1 8.0998 15.5 8.4998C17.5 10.3998 17.5 13.5998 15.6 15.4998C15.5 15.5998 15.4 15.6998 15.3 15.7998C15.1 16.2998 15.3 16.8998 15.7 17.0998C15.8 17.1998 16 17.1998 16.1 17.1998C16.4 17.1998 16.6 17.0998 16.8 16.8998C19.7 14.1998 19.7 9.7998 16.9 7.0998Z" fill="#464454"/>
</svg>
