<svg width="24" height="24" viewBox="0 0 24 24" fill="none" xmlns="http://www.w3.org/2000/svg">
<path d="M20.8 14.1C20.3 13.9 19.7 14.2 19.5 14.7C19.1 15.8 18.5 16.9 17.6 17.7C16.2 19.2 14.1 20 12 20C9.90001 20 7.90001 19.2 6.30001 17.6L3.50001 15H7.00001C7.60001 15 8.00001 14.6 8.00001 14C8.00001 13.4 7.60001 13 7.00001 13H1.00001C0.900012 13 0.800012 13 0.800012 13.1H0.700012C0.700012 13.1 0.600012 13.1 0.600012 13.2C0.500012 13.2 0.400012 13.3 0.400012 13.4C0.400012 13.4 0.400012 13.5 0.300012 13.5C0.300012 13.6 0.200012 13.6 0.200012 13.7C0.200012 13.8 0.200012 13.8 0.200012 13.9V14V20C0.200012 20.6 0.600012 21 1.20001 21C1.80001 21 2.20001 20.6 2.20001 20V16.3L5.10001 19.1C6.80001 21 9.30001 22 12 22C14.7 22 17.2 21 19.1 19.1C20.1 18.1 21 16.8 21.5 15.4C21.6 14.8 21.3 14.2 20.8 14.1Z" fill="#464454"/>
<path d="M24 10.0999V9.99987V3.99987C24 3.39987 23.6 2.99987 23 2.99987C22.4 2.99987 22 3.39987 22 3.99987V7.69987L19.1 4.89987C18.1 3.89987 16.8 2.99987 15.4 2.49987C12.8 1.69987 10.1 1.79987 7.7 2.99987C5.3 4.09987 3.5 6.09987 2.6 8.69987C2.4 9.19987 2.7 9.79987 3.2 9.89987C3.7 10.0999 4.3 9.79987 4.5 9.29987C5.2 7.29987 6.7 5.69987 8.6 4.69987C10.5 3.79987 12.7 3.69987 14.7 4.39987C15.8 4.79987 16.9 5.39987 17.7 6.29987L20.5 8.99987H17C16.4 8.99987 16 9.39987 16 9.99987C16 10.5999 16.4 10.9999 17 10.9999H23C23.1 10.9999 23.3 10.9999 23.4 10.8999C23.5 10.7999 23.6 10.7999 23.7 10.6999C23.7 10.6999 23.7 10.5999 23.8 10.5999C23.8 10.4999 23.9 10.4999 23.9 10.3999C24 10.2999 24 10.1999 24 10.0999Z" fill="#464454"/>
</svg>
