<svg width="25" height="24" viewBox="0 0 25 24" fill="none" xmlns="http://www.w3.org/2000/svg">
<path d="M1 11H7C7.6 11 8 10.6 8 10C8 9.40005 7.6 9.00005 7 9.00005H3.5L6.3 6.30005C7.1 5.50005 8.2 4.80005 9.3 4.40005C11.3 3.70005 13.5 3.80005 15.4 4.70005C17.3 5.60005 18.8 7.20005 19.5 9.30005C19.7 9.80005 20.3 10.1 20.8 9.90005C21.3 9.70005 21.6 9.10005 21.4 8.60005C20.5 6.10005 18.7 4.10005 16.3 2.90005C13.9 1.70005 11.2 1.60005 8.7 2.50005C7.3 3.10005 6 3.90005 5 4.90005L2 7.70005V4.00005C2 3.40005 1.6 3.00005 1 3.00005C0.4 3.00005 0 3.40005 0 4.00005V10V10.1C0 10.2 0 10.3 0 10.3C0 10.4 0.1 10.4 0.1 10.5C0.1 10.5 0.1 10.6 0.2 10.6C0.3 10.7 0.4 10.8 0.5 10.8C0.7 11 0.9 11 1 11Z" fill="#464454"/>
<path d="M24 13.8C24 13.7 24 13.7 24 13.6C24 13.5 23.9 13.5 23.9 13.4C23.9 13.4 23.9 13.3 23.8 13.3C23.7 13.2 23.7 13.2 23.6 13.2L23.5 13.1H23.4C23.3 13.1 23.2 13.1 23.1 13H17.1C16.5 13 16.1 13.4 16.1 14C16.1 14.6 16.5 15 17.1 15H20.6L17.8 17.7C14.7 20.8 9.59998 20.8 6.49998 17.7C5.69998 16.9 4.99998 15.8 4.59998 14.7C4.39998 14.2 3.79998 13.9 3.29998 14.1C2.79998 14.3 2.49998 14.9 2.69998 15.4C3.19998 16.8 3.99998 18.1 5.09998 19.1C7.09998 21.1 9.59998 22 12.2 22C14.8 22 17.3 21 19.2 19.1L22.2 16.3V20C22.2 20.6 22.6 21 23.2 21C23.8 21 24.2 20.6 24.2 20V14C24 13.9 24 13.9 24 13.8Z" fill="#464454"/>
</svg>
