<svg width="24" height="24" viewBox="0 0 24 24" fill="none" xmlns="http://www.w3.org/2000/svg">
<path d="M3 12C3.6 12 4 11.6 4 11V9C4 7.3 5.3 6 7 6H18.6L16.3 8.3C15.9 8.7 15.9 9.3 16.3 9.7C16.5 9.9 16.7 10 17 10C17.3 10 17.5 9.9 17.7 9.7L21.7 5.7C21.8 5.6 21.9 5.5 21.9 5.4C22 5.2 22 4.9 21.9 4.6C21.8 4.5 21.8 4.4 21.7 4.3L17.7 0.3C17.3 -0.1 16.7 -0.1 16.3 0.3C15.9 0.7 15.9 1.3 16.3 1.7L18.6 4H7C4.2 4 2 6.2 2 9V11C2 11.6 2.4 12 3 12Z" fill="#464454"/>
<path d="M21 12C20.4 12 20 12.4 20 13V15C20 16.7 18.7 18 17 18H5.40002L7.70002 15.7C8.10002 15.3 8.10002 14.7 7.70002 14.3C7.30002 13.9 6.70002 13.9 6.30002 14.3L2.30002 18.3C2.20002 18.4 2.10002 18.5 2.10002 18.6C2.00002 18.8 2.00002 19.1 2.10002 19.4C2.20002 19.5 2.20002 19.6 2.30002 19.7L6.30002 23.7C6.50002 23.9 6.70002 24 7.00002 24C7.30002 24 7.50002 23.9 7.70002 23.7C8.10002 23.3 8.10002 22.7 7.70002 22.3L5.40002 20H17C19.8 20 22 17.8 22 15V13C22 12.4 21.6 12 21 12Z" fill="#464454"/>
</svg>
