<svg width="24" height="24" viewBox="0 0 24 24" fill="none" xmlns="http://www.w3.org/2000/svg">
<path d="M11.4 4.10023C11.1 3.90023 10.6 4.00023 10.3 4.20023L1.3 11.2002C1.1 11.4002 1 11.7002 1 12.0002C1 12.3002 1.1 12.6002 1.4 12.8002L10.4 19.8002C10.6 19.9002 10.8 20.0002 11 20.0002C11.1 20.0002 11.3 20.0002 11.4 19.9002C11.7 19.7002 12 19.4002 12 19.0002V12.0002V5.00023C12 4.60023 11.8 4.30023 11.4 4.10023ZM10 17.0002L3.6 12.0002L10 7.00023V17.0002Z" fill="#464454"/>
<path d="M22.4 4.10023C22.1 3.90023 21.6 4.00023 21.3 4.20023L12.3 11.2002C12.1 11.4002 12 11.7002 12 12.0002C12 12.3002 12.1 12.6002 12.4 12.8002L21.4 19.8002C21.6 19.9002 21.8 20.0002 22 20.0002C22.1 20.0002 22.3 20.0002 22.4 19.9002C22.7 19.7002 23 19.4002 23 19.0002V5.00023C23 4.60023 22.8 4.30023 22.4 4.10023ZM21 17.0002L14.6 12.0002L21 7.00023V17.0002Z" fill="#464454"/>
</svg>
