<svg width="24" height="24" viewBox="0 0 24 24" fill="none" xmlns="http://www.w3.org/2000/svg">
<path d="M21.75 5V9C21.75 9.41406 21.4141 9.75 21 9.75C20.5859 9.75 20.25 9.41406 20.25 9V5C20.25 4.31055 19.6894 3.75 19 3.75H15C14.5859 3.75 14.25 3.41406 14.25 3C14.25 2.58594 14.5859 2.25 15 2.25H19C20.5166 2.25 21.75 3.4834 21.75 5ZM21 14.25C20.5859 14.25 20.25 14.5859 20.25 15V19C20.25 19.6894 19.6894 20.25 19 20.25H15C14.5859 20.25 14.25 20.5859 14.25 21C14.25 21.4141 14.5859 21.75 15 21.75H19C20.5166 21.75 21.75 20.5166 21.75 19V15C21.75 14.5859 21.4141 14.25 21 14.25ZM9 20.25H5C4.31055 20.25 3.75 19.6894 3.75 19V15C3.75 14.5859 3.41406 14.25 3 14.25C2.58594 14.25 2.25 14.5859 2.25 15V19C2.25 20.5166 3.4834 21.75 5 21.75H9C9.41406 21.75 9.75 21.4141 9.75 21C9.75 20.5859 9.41406 20.25 9 20.25ZM3 9.75C3.41406 9.75 3.75 9.41406 3.75 9V5C3.75 4.31055 4.31055 3.75 5 3.75H9C9.41406 3.75 9.75 3.41406 9.75 3C9.75 2.58594 9.41406 2.25 9 2.25H5C3.4834 2.25 2.25 3.4834 2.25 5V9C2.25 9.41406 2.58594 9.75 3 9.75ZM7.25 8V9C7.25 9.41406 7.58594 9.75 8 9.75C8.41406 9.75 8.75 9.41406 8.75 9V8C8.75 7.58594 8.41406 7.25 8 7.25C7.58594 7.25 7.25 7.58594 7.25 8ZM16 9.75C16.4141 9.75 16.75 9.41406 16.75 9V8C16.75 7.58594 16.4141 7.25 16 7.25C15.5859 7.25 15.25 7.58594 15.25 8V9C15.25 9.41406 15.5859 9.75 16 9.75ZM12.6846 11.0459C12.9253 11.5283 12.831 12.1074 12.4497 12.4893C12.1572 12.7822 12.1572 13.2568 12.4502 13.5498C12.5967 13.6963 12.7886 13.7695 12.9805 13.7695C13.1724 13.7695 13.3648 13.6963 13.5112 13.5498C14.3491 12.7109 14.5562 11.4356 14.0264 10.376L13.1709 8.66504C12.9863 8.29297 12.5357 8.14551 12.1645 8.3291C11.7939 8.51465 11.644 8.96484 11.8291 9.33496L12.6846 11.0459ZM16.6709 15.335C16.8545 14.9678 16.7065 14.5244 16.3408 14.3369C15.9761 14.1494 15.5249 14.2949 15.333 14.6572C15.2983 14.7226 14.4634 16.25 12 16.25C9.53662 16.25 8.70166 14.7226 8.6709 14.665C8.48535 14.293 8.03613 14.1455 7.66455 14.3291C7.29394 14.5146 7.14404 14.9648 7.3291 15.335C7.37842 15.4336 8.57568 17.75 12 17.75C15.4243 17.75 16.6216 15.4336 16.6709 15.335Z" fill="#464454" stroke="#464454" stroke-width="0.4"/>
</svg>
