<svg width="24" height="24" viewBox="0 0 24 24" fill="none" xmlns="http://www.w3.org/2000/svg">
<path d="M21.4 8.70015C20.5 6.20015 18.7 4.20015 16.3 3.00015C13.9 1.80015 11.2 1.70015 8.7 2.60015C7.3 3.10015 6 3.90015 5 4.90015L2 7.70015V4.00015C2 3.40015 1.6 3.00015 1 3.00015C0.4 3.00015 0 3.40015 0 4.00015V10.0001V10.1001C0 10.2001 0 10.3001 0 10.3001C0 10.4001 0.1 10.4001 0.1 10.5001C0.1 10.5001 0.1 10.6001 0.2 10.6001C0.3 10.7001 0.3 10.7001 0.4 10.7001L0.5 10.8001H0.6C0.7 10.8001 0.8 10.8001 0.8 10.8001H6.8C7.4 10.8001 7.8 10.4001 7.8 9.80015C7.8 9.20015 7.6 9.00015 7 9.00015H3.5L6.3 6.30015C7.1 5.50015 8.2 4.80015 9.3 4.40015C11.3 3.70015 13.5 3.80015 15.4 4.70015C17.3 5.60015 18.8 7.20015 19.5 9.30015C20.2 11.3001 20.1 13.5001 19.2 15.4001C18.3 17.3001 16.7 18.8001 14.6 19.5001C10.4 21.0001 5.9 18.8001 4.4 14.6001C4.2 14.1001 3.6 13.8001 3.1 14.0001C2.6 14.2001 2.3 14.8001 2.5 15.3001C4 19.4001 7.9 22.0001 12 22.0001C13.1 22.0001 14.2 21.8001 15.3 21.4001C20.5 19.6001 23.3 13.9001 21.4 8.70015Z" fill="#464454"/>
</svg>
