<svg width="24" height="24" viewBox="0 0 24 24" fill="none" xmlns="http://www.w3.org/2000/svg">
<path d="M24 10.1001V10.0001V4.00012C24 3.40012 23.6 3.00012 23 3.00012C22.4 3.00012 22 3.40012 22 4.00012V7.70012L19.1 4.90012C18.1 3.90012 16.8 3.00012 15.4 2.50012C10.1 0.700117 4.40002 3.50012 2.60002 8.70012C0.800019 13.9001 3.50002 19.6001 8.70002 21.5001C9.80002 21.8001 10.9 22.0001 12 22.0001C16.1 22.0001 20 19.4001 21.4 15.3001C21.6 14.8001 21.3 14.2001 20.8 14.0001C20.3 13.8001 19.7 14.1001 19.5 14.6001C18 18.8001 13.5 20.9001 9.30002 19.5001C5.10002 18.0001 3.00002 13.5001 4.40002 9.30012C5.90002 5.20012 10.5 3.00012 14.7 4.50012C15.8 4.90012 16.9 5.50012 17.7 6.40012L20.5 9.00012H17C16.4 9.00012 16 9.40012 16 10.0001C16 10.6001 16.4 11.0001 17 11.0001H23C23.1 11.0001 23.2 11.0001 23.2 10.9001H23.3L23.4 10.8001C23.5 10.8001 23.6 10.7001 23.6 10.6001C23.6 10.6001 23.6 10.5001 23.7 10.5001C23.7 10.4001 23.8 10.4001 23.8 10.3001C24 10.3001 24 10.2001 24 10.1001Z" fill="#464454"/>
</svg>
