<svg width="24" height="24" viewBox="0 0 24 24" fill="none" xmlns="http://www.w3.org/2000/svg">
<path d="M4 10C3.4 10 3 10.4 3 11C3 11.6 3.4 12 4 12C8.4 12 12 15.6 12 20C12 20.6 12.4 21 13 21C13.6 21 14 20.6 14 20C14 14.5 9.5 10 4 10Z" fill="#464454"/>
<path d="M4 3C3.4 3 3 3.4 3 4C3 4.6 3.4 5 4 5C12.3 5 19 11.7 19 20C19 20.6 19.4 21 20 21C20.6 21 21 20.6 21 20C21 10.6 13.4 3 4 3Z" fill="#464454"/>
<path d="M5 21C6.10457 21 7 20.1046 7 19C7 17.8954 6.10457 17 5 17C3.89543 17 3 17.8954 3 19C3 20.1046 3.89543 21 5 21Z" fill="#464454"/>
</svg>
