<svg width="24" height="24" viewBox="0 0 24 24" fill="none" xmlns="http://www.w3.org/2000/svg">
<path d="M19 3H5C4.46957 3 3.96086 3.21071 3.58579 3.58579C3.21071 3.96086 3 4.46957 3 5L3 17C3 17.5304 3.21071 18.0391 3.58579 18.4142C3.96086 18.7893 4.46957 19 5 19H6V20C6 20.2652 6.10536 20.5196 6.29289 20.7071C6.48043 20.8946 6.73478 21 7 21C7.26522 21 7.51957 20.8946 7.70711 20.7071C7.89464 20.5196 8 20.2652 8 20V19H16V20C16 20.2652 16.1054 20.5196 16.2929 20.7071C16.4804 20.8946 16.7348 21 17 21C17.2652 21 17.5196 20.8946 17.7071 20.7071C17.8946 20.5196 18 20.2652 18 20V19H19C19.5304 19 20.0391 18.7893 20.4142 18.4142C20.7893 18.0391 21 17.5304 21 17V5C21 4.46957 20.7893 3.96086 20.4142 3.58579C20.0391 3.21071 19.5304 3 19 3V3ZM5 17V5H19V17H5ZM16.6 10H16.25C16.0047 8.95389 15.3834 8.03445 14.5043 7.41658C13.6252 6.79872 12.5497 6.52554 11.4823 6.64902C10.415 6.77249 9.43023 7.28401 8.71544 8.08626C8.00065 8.8885 7.60568 9.92551 7.60568 11C7.60568 12.0745 8.00065 13.1115 8.71544 13.9137C9.43023 14.716 10.415 15.2275 11.4823 15.351C12.5497 15.4745 13.6252 15.2013 14.5043 14.5834C15.3834 13.9656 16.0047 13.0461 16.25 12H16.6C16.8652 12 17.1196 11.8946 17.3071 11.7071C17.4946 11.5196 17.6 11.2652 17.6 11C17.6 10.7348 17.4946 10.4804 17.3071 10.2929C17.1196 10.1054 16.8652 10 16.6 10ZM12 13.62C11.5254 13.6203 11.0595 13.4917 10.6523 13.2478C10.2451 13.004 9.91179 12.6541 9.68796 12.2355C9.46413 11.817 9.35821 11.3455 9.38151 10.8714C9.4048 10.3973 9.55644 9.9385 9.82023 9.54391C10.084 9.14932 10.45 8.8338 10.8792 8.63105C11.3084 8.42831 11.7845 8.34595 12.2569 8.39279C12.7292 8.43962 13.1799 8.61388 13.5609 8.89696C13.9419 9.18003 14.2388 9.56129 14.42 10H13.11C12.9075 9.77357 12.641 9.61397 12.3458 9.54232C12.0505 9.47067 11.7405 9.49034 11.4567 9.59874C11.1729 9.70714 10.9288 9.89915 10.7565 10.1494C10.5842 10.3996 10.492 10.6962 10.492 11C10.492 11.3038 10.5842 11.6004 10.7565 11.8506C10.9288 12.1008 11.1729 12.2929 11.4567 12.4013C11.7405 12.5097 12.0505 12.5293 12.3458 12.4577C12.641 12.386 12.9075 12.2264 13.11 12H14.42C14.2221 12.4791 13.8866 12.8888 13.4558 13.1772C13.025 13.4656 12.5184 13.6197 12 13.62Z" fill="#464454"/>
</svg>
