<svg width="24" height="24" viewBox="0 0 24 24" fill="none" xmlns="http://www.w3.org/2000/svg">
<path d="M20.7 4.7C21.1 4.3 21.1 3.7 20.7 3.3C20.3 2.9 19.7 2.9 19.3 3.3L12 10.6L9.4 8C9.8 7.4 10 6.7 10 6C10 3.8 8.2 2 6 2C3.8 2 2 3.8 2 6C2 8.2 3.8 10 6 10C6.7 10 7.4 9.8 8 9.4L10.6 12L8 14.6C7.4 14.2 6.7 14 6 14C3.8 14 2 15.8 2 18C2 20.2 3.8 22 6 22C8.2 22 10 20.2 10 18C10 17.3 9.8 16.6 9.4 16L20.7 4.7ZM4 6C4 4.9 4.9 4 6 4C7.1 4 8 4.9 8 6C8 6.6 7.8 7 7.4 7.4C7 7.8 6.6 8 6 8C4.9 8 4 7.1 4 6ZM6 20C4.9 20 4 19.1 4 18C4 16.9 4.9 16 6 16C6.6 16 7 16.2 7.4 16.6C7.8 17 8 17.4 8 18C8 19.1 7.1 20 6 20Z" fill="#464454"/>
<path d="M15.2 13.8C14.8 13.4 14.2 13.4 13.8 13.8C13.4 14.2 13.4 14.8 13.8 15.2L19.3 20.7C19.5 20.9 19.8 21 20 21C20.2 21 20.5 20.9 20.7 20.7C21.1 20.3 21.1 19.7 20.7 19.3L15.2 13.8Z" fill="#464454"/>
</svg>
