<svg width="24" height="24" viewBox="0 0 24 24" fill="none" xmlns="http://www.w3.org/2000/svg">
<path fill-rule="evenodd" clip-rule="evenodd" d="M17 10H19C19.5304 10 20.0391 10.2107 20.4142 10.5858C20.7893 10.9609 21 11.4696 21 12V19C21 19.5304 20.7893 20.0391 20.4142 20.4142C20.0391 20.7893 19.5304 21 19 21H5C4.46957 21 3.96086 20.7893 3.58579 20.4142C3.21071 20.0391 3 19.5304 3 19V12C3 11.4696 3.21071 10.9609 3.58579 10.5858C3.96086 10.2107 4.46957 10 5 10H7V8C7 6.67392 7.52678 5.40215 8.46447 4.46447C9.40215 3.52678 10.6739 3 12 3C13.3261 3 14.5979 3.52678 15.5355 4.46447C16.4732 5.40215 17 6.67392 17 8V10ZM9.87868 5.87868C9.31607 6.44129 9 7.20435 9 8V10H15V8C15 7.20435 14.6839 6.44129 14.1213 5.87868C13.5587 5.31607 12.7956 5 12 5C11.2044 5 10.4413 5.31607 9.87868 5.87868ZM5 12V19H19V12H5ZM8.85608 13.9694C8.97076 13.9694 9.02236 14.0209 9.01089 14.1238L8.87328 15.033L9.57856 14.647C9.63016 14.6184 9.6789 14.6127 9.72477 14.6299C9.77064 14.6413 9.80218 14.6756 9.81938 14.7328L10.0086 15.2989C10.0258 15.3561 10.0258 15.3989 10.0086 15.4275C9.99713 15.4561 9.957 15.4819 9.88819 15.5047L9.0539 15.7106L9.69897 16.2509C9.76204 16.3024 9.79071 16.3567 9.78498 16.4139C9.77924 16.4711 9.75057 16.5197 9.69897 16.5597L9.17431 16.9199C9.05963 16.9886 8.97362 16.9714 8.91628 16.8685L8.51204 16.1737L8.1078 16.8685C8.05046 16.9714 7.96445 16.9886 7.84977 16.9199L7.32511 16.5597C7.27351 16.5197 7.24484 16.4739 7.23911 16.4225C7.23337 16.3653 7.26204 16.3081 7.32511 16.2509L7.97018 15.7106L7.13589 15.5047C7.06709 15.4819 7.02408 15.4561 7.00688 15.4275C6.99541 15.3989 6.99828 15.3561 7.01548 15.2989L7.2047 14.7328C7.2219 14.6756 7.25344 14.6413 7.29931 14.6299C7.34518 14.6127 7.39392 14.6184 7.44553 14.647L8.1508 15.033L8.01319 14.1238C8.00172 14.0209 8.05333 13.9694 8.168 13.9694H8.85608ZM12.4846 13.9694C12.5993 13.9694 12.6509 14.0209 12.6394 14.1238L12.5018 15.033L13.2071 14.647C13.2587 14.6184 13.3074 14.6127 13.3533 14.6299C13.3992 14.6413 13.4307 14.6756 13.4479 14.7328L13.6371 15.2989C13.6543 15.3561 13.6543 15.3989 13.6371 15.4275C13.6256 15.4561 13.5855 15.4819 13.5167 15.5047L12.6824 15.7106L13.3275 16.2509C13.3906 16.3024 13.4192 16.3567 13.4135 16.4139C13.4078 16.4711 13.3791 16.5197 13.3275 16.5597L12.8028 16.9199C12.6881 16.9886 12.6021 16.9714 12.5448 16.8685L12.1406 16.1737L11.7363 16.8685C11.679 16.9714 11.593 16.9886 11.4783 16.9199L10.9536 16.5597C10.902 16.5197 10.8734 16.4739 10.8676 16.4225C10.8619 16.3653 10.8906 16.3081 10.9536 16.2509L11.5987 15.7106L10.7644 15.5047C10.6956 15.4819 10.6526 15.4561 10.6354 15.4275C10.6239 15.3989 10.6268 15.3561 10.644 15.2989L10.8332 14.7328C10.8504 14.6756 10.882 14.6413 10.9278 14.6299C10.9737 14.6127 11.0224 14.6184 11.074 14.647L11.7793 15.033L11.6417 14.1238C11.6302 14.0209 11.6818 13.9694 11.7965 13.9694H12.4846ZM16.2679 14.1238C16.2794 14.0209 16.2278 13.9694 16.1131 13.9694H15.425C15.3103 13.9694 15.2587 14.0209 15.2702 14.1238L15.4078 15.033L14.7026 14.647C14.6509 14.6184 14.6022 14.6127 14.5563 14.6299C14.5105 14.6413 14.4789 14.6756 14.4617 14.7328L14.2725 15.2989C14.2553 15.3561 14.2524 15.3989 14.2639 15.4275C14.2811 15.4561 14.3241 15.4819 14.3929 15.5047L15.2272 15.7106L14.5821 16.2509C14.5191 16.3081 14.4904 16.3653 14.4961 16.4225C14.5019 16.4739 14.5305 16.5197 14.5821 16.5597L15.1068 16.9199C15.2215 16.9886 15.3075 16.9714 15.3648 16.8685L15.7691 16.1737L16.1733 16.8685C16.2306 16.9714 16.3167 16.9886 16.4313 16.9199L16.956 16.5597C17.0076 16.5197 17.0363 16.4711 17.042 16.4139C17.0477 16.3567 17.0191 16.3024 16.956 16.2509L16.3109 15.7106L17.1452 15.5047C17.214 15.4819 17.2542 15.4561 17.2656 15.4275C17.2828 15.3989 17.2828 15.3561 17.2656 15.2989L17.0764 14.7328C17.0592 14.6756 17.0277 14.6413 16.9818 14.6299C16.9359 14.6127 16.8872 14.6184 16.8356 14.647L16.1303 15.033L16.2679 14.1238Z" fill="#464454"/>
</svg>
