<svg width="24" height="24" viewBox="0 0 24 24" fill="none" xmlns="http://www.w3.org/2000/svg">
<path d="M23 1.8999C23 1.7999 23 1.6999 22.9 1.5999V1.4999C22.9 1.3999 22.8 1.2999 22.7 1.1999C22.6 1.0999 22.5 1.0999 22.4 0.999902H22.3C22.2 0.999902 22.1 0.999902 22 0.899902C22 0.999902 22 0.999902 22 0.999902C21.9 0.999902 21.8 0.999902 21.7 1.0999L1.7 8.0999C1.3 8.1999 1 8.4999 1 8.9999C1 9.3999 1.2 9.7999 1.6 9.9999L10.2 13.7999L14 22.3999C14.2 22.7999 14.5 22.9999 14.9 22.9999C15.3 22.9999 15.7 22.6999 15.8 22.2999L22.8 2.2999C23 2.1999 23 2.0999 23 1.8999C23 1.9999 23 1.9999 23 1.8999ZM18.2 4.3999L10.8 11.7999L4.7 9.0999L18.2 4.3999ZM14.9 19.2999L12.2 13.1999L19.6 5.7999L14.9 19.2999Z" fill="#464454"/>
</svg>
