<svg width="24" height="24" viewBox="0 0 24 24" fill="none" xmlns="http://www.w3.org/2000/svg">
<path d="M20 1H4C2.3 1 1 2.3 1 4V8C1 9.7 2.3 11 4 11H20C21.7 11 23 9.7 23 8V4C23 2.3 21.7 1 20 1ZM21 8C21 8.6 20.6 9 20 9H4C3.4 9 3 8.6 3 8V4C3 3.4 3.4 3 4 3H20C20.6 3 21 3.4 21 4V8Z" fill="#464454"/>
<path d="M20 13H4C2.3 13 1 14.3 1 16V20C1 21.7 2.3 23 4 23H20C21.7 23 23 21.7 23 20V16C23 14.3 21.7 13 20 13ZM21 20C21 20.6 20.6 21 20 21H4C3.4 21 3 20.6 3 20V16C3 15.4 3.4 15 4 15H20C20.6 15 21 15.4 21 16V20Z" fill="#464454"/>
<path d="M6.7 5.30015C6.4 5.00015 6 4.90015 5.6 5.10015C5.5 5.10015 5.4 5.20015 5.3 5.30015C5.2 5.40015 5.1 5.50015 5.1 5.60015C5 5.70015 5 5.90015 5 6.00015C5 6.30015 5.1 6.50015 5.3 6.70015C5.4 6.80015 5.5 6.90015 5.6 6.90015C5.7 7.00015 5.9 7.00015 6 7.00015C6.1 7.00015 6.1 7.00015 6.2 7.00015C6.3 7.00015 6.3 7.00015 6.4 6.90015C6.5 6.90015 6.5 6.80015 6.6 6.80015L6.7 6.70015C6.7 6.60015 6.8 6.60015 6.8 6.60015C6.8 6.50015 6.9 6.50015 6.9 6.40015C6.9 6.30015 6.9 6.30015 7 6.20015C7 6.10015 7 6.10015 7 6.00015C7 5.90015 7 5.70015 6.9 5.60015C6.9 5.50015 6.8 5.40015 6.7 5.30015Z" fill="#464454"/>
<path d="M6.7 17.3C6.3 16.9 5.6 16.9 5.3 17.3C5.2 17.4 5.1 17.5 5.1 17.6C5 17.7 5 17.9 5 18C5 18.3 5.1 18.5 5.3 18.7C5.5 18.9 5.7 19 6 19C6.3 19 6.5 18.9 6.7 18.7C6.8 18.6 6.9 18.5 6.9 18.4C7 18.3 7 18.1 7 18C7 17.9 7 17.7 6.9 17.6C6.9 17.5 6.8 17.4 6.7 17.3Z" fill="#464454"/>
</svg>
