<svg width="24" height="24" viewBox="0 0 24 24" fill="none" xmlns="http://www.w3.org/2000/svg">
<path d="M18 15C16.9 15 15.9 15.5 15.2 16.2L9.9 13.1C9.9 12.7 10 12.4 10 12C10 11.6 9.9 11.3 9.8 10.9L15.1 7.8C15.9 8.5 16.9 9 18 9C20.2 9 22 7.2 22 5C22 2.8 20.2 1 18 1C15.8 1 14 2.8 14 5C14 5.4 14.1 5.7 14.2 6.1L8.8 9.2C8.1 8.5 7.1 8 6 8C3.8 8 2 9.8 2 12C2 14.2 3.8 16 6 16C7.1 16 8.1 15.5 8.8 14.8L14.1 17.9C14.1 18.3 14 18.6 14 19C14 21.2 15.8 23 18 23C20.2 23 22 21.2 22 19C22 16.8 20.2 15 18 15ZM18 3C19.1 3 20 3.9 20 5C20 6.1 19.1 7 18 7C16.9 7 16 6.1 16 5C16 3.9 16.9 3 18 3ZM6 14C4.9 14 4 13.1 4 12C4 10.9 4.9 10 6 10C7.1 10 8 10.9 8 12C8 13.1 7.1 14 6 14ZM18 21C16.9 21 16 20.1 16 19C16 18.6 16.1 18.3 16.3 18C16.6 17.4 17.3 17 18 17C19.1 17 20 17.9 20 19C20 20.1 19.1 21 18 21Z" fill="#464454"/>
</svg>
