<svg width="24" height="24" viewBox="0 0 24 24" fill="none" xmlns="http://www.w3.org/2000/svg">
<path d="M20 11C19.4 11 19 11.4 19 12V20C19 20.6 18.6 21 18 21H6C5.4 21 5 20.6 5 20V12C5 11.4 4.6 11 4 11C3.4 11 3 11.4 3 12V20C3 21.7 4.3 23 6 23H18C19.7 23 21 21.7 21 20V12C21 11.4 20.6 11 20 11Z" fill="#464454"/>
<path d="M8.7 6.6999L11 4.3999V14.9999C11 15.5999 11.4 15.9999 12 15.9999C12.6 15.9999 13 15.5999 13 14.9999V4.3999L15.3 6.6999C15.5 6.8999 15.7 6.9999 16 6.9999C16.3 6.9999 16.5 6.8999 16.7 6.6999C17.1 6.2999 17.1 5.6999 16.7 5.2999L12.7 1.2999C12.6 1.1999 12.5 1.0999 12.4 1.0999C12.2 0.999902 11.9 0.999902 11.6 1.0999C11.5 1.1999 11.4 1.1999 11.3 1.2999L7.3 5.2999C6.9 5.6999 6.9 6.2999 7.3 6.6999C7.7 7.0999 8.3 7.0999 8.7 6.6999Z" fill="#464454"/>
</svg>
