<svg width="24" height="24" viewBox="0 0 24 24" fill="none" xmlns="http://www.w3.org/2000/svg">
<path d="M20.4 4.0999L12.4 1.0999C12.2 0.999902 11.9 0.999902 11.7 1.0999L3.7 4.0999C3.3 4.1999 3 4.5999 3 4.9999V11.9999C3 18.4999 11.2 22.6999 11.6 22.8999C11.7 22.9999 11.8 22.9999 12 22.9999C12.2 22.9999 12.3 22.9999 12.4 22.8999C12.8 22.6999 21 18.4999 21 11.9999V4.9999C21 4.5999 20.7 4.1999 20.4 4.0999ZM19 11.9999C19 16.4999 13.6 19.8999 12 20.8999C10.4 19.9999 5 16.5999 5 11.9999V5.6999L12 3.0999L19 5.6999V11.9999Z" fill="#464454"/>
</svg>
