<svg width="25" height="25" viewBox="0 0 25 25" fill="none" xmlns="http://www.w3.org/2000/svg">
<path d="M9.19999 4.0999L12 3.0999L19 5.6999V11.9999C19 12.5999 18.9 13.1999 18.7 13.6999C18.5 14.1999 18.8 14.7999 19.4 14.8999C19.5 14.8999 19.6 14.8999 19.7 14.8999C20.1 14.8999 20.5 14.5999 20.7 14.1999C20.9 13.4999 21 12.6999 21.1 11.8999V4.9999C21.1 4.5999 20.8 4.1999 20.5 4.0999L12.5 1.0999C12.3 0.999902 12 0.999902 11.8 1.0999L8.49999 2.1999C7.99999 2.3999 7.69999 2.9999 7.89999 3.4999C8.09999 3.9999 8.69999 4.2999 9.19999 4.0999Z" fill="#464454"/>
<path d="M23.7 22.3L1.7 0.3C1.3 -0.1 0.7 -0.1 0.3 0.3C-0.1 0.7 -0.1 1.3 0.3 1.7L3.1 4.5C3.1 4.7 3 4.8 3 5V12C3 18.5 11.2 22.7 11.6 22.9C11.7 23 11.8 23 12 23C12.2 23 12.3 23 12.5 22.9C14.4 21.9 16.1 20.6 17.7 19.1L22.4 23.8C22.6 24 22.9 24.1 23.1 24.1C23.3 24.1 23.6 24 23.8 23.8C24.1 23.3 24.1 22.7 23.7 22.3ZM12 20.9C10.4 20 5 16.6 5 12V6.4L16.2 17.6C15 18.9 13.6 20 12 20.9Z" fill="#464454"/>
</svg>
