<svg width="24" height="24" viewBox="0 0 24 24" fill="none" xmlns="http://www.w3.org/2000/svg">
<path d="M21.9 5.6C21.9 5.6 21.9 5.5 21.8 5.5C21.8 5.5 21.8 5.4 21.7 5.4L18.7 1.4C18.6 1.1 18.3 1 18 1H6C5.7 1 5.4 1.1 5.2 1.4L2.2 5.4C2.2 5.4 2.2 5.5 2.1 5.5C2.1 5.5 2.1 5.6 2 5.6C2 5.8 2 5.9 2 6V20C2 21.7 3.3 23 5 23H19C20.7 23 22 21.7 22 20V6C22 5.9 22 5.8 21.9 5.6ZM6.5 3H17.5L19 5H5L6.5 3ZM19 21H5C4.4 21 4 20.6 4 20V7H20V20C20 20.6 19.6 21 19 21Z" fill="#464454"/>
<path d="M16 9C15.4 9 15 9.4 15 10C15 11.7 13.7 13 12 13C10.3 13 9 11.7 9 10C9 9.4 8.6 9 8 9C7.4 9 7 9.4 7 10C7 12.8 9.2 15 12 15C14.8 15 17 12.8 17 10C17 9.4 16.6 9 16 9Z" fill="#464454"/>
</svg>
