<svg width="24" height="24" viewBox="0 0 24 24" fill="none" xmlns="http://www.w3.org/2000/svg">
<path d="M9 23C10.1046 23 11 22.1046 11 21C11 19.8954 10.1046 19 9 19C7.89543 19 7 19.8954 7 21C7 22.1046 7.89543 23 9 23Z" fill="#464454"/>
<path d="M20 23C21.1046 23 22 22.1046 22 21C22 19.8954 21.1046 19 20 19C18.8954 19 18 19.8954 18 21C18 22.1046 18.8954 23 20 23Z" fill="#464454"/>
<path d="M23.8 5.4C23.6 5.1 23.3 5 23 5H6.8L6 0.8C5.9 0.3 5.5 0 5 0H1C0.4 0 0 0.4 0 1C0 1.6 0.4 2 1 2H4.2L5 6.2V6.3L6.7 14.6C7 16 8.2 17 9.6 17C9.6 17 9.6 17 9.7 17H19.4C20.9 17 22.1 16 22.4 14.6L24 6.2C24 5.9 24 5.6 23.8 5.4ZM20.4 14.2C20.3 14.7 19.9 15 19.4 15H9.7C9.2 15 8.8 14.7 8.7 14.2L7.2 7H21.8L20.4 14.2Z" fill="#464454"/>
</svg>
