<svg width="24" height="24" viewBox="0 0 24 24" fill="none" xmlns="http://www.w3.org/2000/svg">
<path fill-rule="evenodd" clip-rule="evenodd" d="M4.6 3.10023C4.9 2.90023 5.3 3.00023 5.6 3.20023L15.6 11.2002C15.9 11.4002 16 11.7002 16 12.0002C16 12.3002 15.8 12.6002 15.6 12.8002L5.6 20.8002C5.4 20.9002 5.2 21.0002 5 21.0002C4.9 21.0002 4.7 21.0002 4.6 20.9002C4.2 20.7002 4 20.4002 4 20.0002V4.00023C4 3.60023 4.2 3.30023 4.6 3.10023ZM13.4 12.0002L6 6.10023V17.9002L13.4 12.0002ZM18 5.00024C18 4.40024 18.4 4.00024 19 4.00024C19.6 4.00024 20 4.40024 20 5.00024V19.0002C20 19.6002 19.6 20.0002 19 20.0002C18.4 20.0002 18 19.6002 18 19.0002V5.00024Z" fill="#464454"/>
</svg>
