<svg width="24" height="24" viewBox="0 0 24 24" fill="none" xmlns="http://www.w3.org/2000/svg">
<path fill-rule="evenodd" clip-rule="evenodd" d="M18.3 3.20023C18.6 3.00023 19.1 2.90023 19.4 3.10023C19.8 3.30023 20 3.60023 20 4.00023V20.0002C20 20.4002 19.7 20.7002 19.4 20.9002C19.3 21.0002 19.1 21.0002 19 21.0002C18.8 21.0002 18.6 20.9002 18.4 20.8002L8.4 12.8002C8.1 12.6002 8 12.3002 8 12.0002C8 11.7002 8.1 11.4002 8.3 11.2002L18.3 3.20023ZM10.6 12.0002L18 17.9002V6.10023L10.6 12.0002ZM4 5.00024C4 4.40024 4.4 4.00024 5 4.00024C5.6 4.00024 6 4.40024 6 5.00024V19.0002C6 19.6002 5.6 20.0002 5 20.0002C4.4 20.0002 4 19.6002 4 19.0002V5.00024Z" fill="#464454"/>
</svg>
