<svg width="24" height="24" viewBox="0 0 24 24" fill="none" xmlns="http://www.w3.org/2000/svg">
<path fill-rule="evenodd" clip-rule="evenodd" d="M17.9 0.900082C20.2 2.10008 21.7 4.50008 23 8.70008C25.5 16.7001 23.3 20.6001 15.3 23.1001C13.2 23.7001 11.5 24.0001 9.89999 24.0001C5.39999 24.0001 2.79999 21.3001 0.999987 15.3001C-1.50001 7.30008 0.599986 3.40008 8.69999 1.00008C12.9 -0.299918 15.8 -0.299918 17.9 0.900082ZM2.89999 14.7001C4.99999 21.7001 7.69999 23.2001 14.7 21.1001C21.7 19.0001 23.2 16.2001 21.2 9.20008C20.1 5.60008 18.8 3.50008 17.1 2.60008C16.3 2.20008 15.3 2.00008 14.2 2.00008C12.9 2.00008 11.3 2.30008 9.29999 2.90008C2.29999 5.00008 0.799987 7.80008 2.89999 14.7001ZM15.8 12.2998L17.7 11.5998C18.2 11.3998 18.8 11.6998 18.7 11.9998C18.9 12.5998 18.6 13.0998 18.1 13.2998L16.2 13.9998L16.9 15.8998C17.1 16.4998 16.8 16.9998 16.3 17.1998C16.2 17.2998 16.1 17.2998 16 17.2998C15.6 17.2998 15.2 16.9998 15.1 16.5998L14.4 14.6998L11.6 15.6998L12.3 17.5998C12.5 18.1998 12.2 18.6998 11.7 18.8998C11.6 18.9998 11.5 18.9998 11.4 18.9998C11 18.9998 10.6 18.6998 10.5 18.2998L9.8 16.3998L7.9 17.0998C7.8 17.1998 7.7 17.1998 7.6 17.1998C7.2 17.1998 6.8 16.8998 6.7 16.4998C6.5 15.8998 6.8 15.3998 7.3 15.1998L9.2 14.4998L8.2 11.6998L6.3 12.3998C6.2 12.4998 6.1 12.4998 6 12.4998C5.6 12.4998 5.2 12.1998 5.1 11.7998C4.9 11.1998 5.2 10.6998 5.7 10.4998L7.6 9.79976L6.9 7.89976C6.7 7.39976 7 6.79976 7.5 6.69976C8 6.49976 8.6 6.79976 8.8 7.29976L9.4 9.29976L12.2 8.29976L11.5 6.39976C11.3 5.79976 11.6 5.29976 12.1 5.09976C12.7 4.89976 13.2 5.19976 13.4 5.69976L14.1 7.59976L16 6.89976C16.6 6.69976 17.1 6.99976 17.3 7.49976C17.5 8.09976 17.2 8.59976 16.7 8.79976L14.8 9.49976L15.8 12.2998ZM13.9 12.8998L12.9 10.0998L10.1 11.0998L11.1 13.8998L13.9 12.8998Z" fill="#464454"/>
</svg>
