<svg width="24" height="24" viewBox="0 0 24 24" fill="none" xmlns="http://www.w3.org/2000/svg">
<path fill-rule="evenodd" clip-rule="evenodd" d="M5 10C5 10.6 4.6 11 4 11C3.4 11 3 10.6 3 10V3C3 2.4 3.4 2 4 2C4.6 2 5 2.4 5 3V10ZM11 12C11 11.4 11.4 11 12 11C12.6 11 13 11.4 13 12V21C13 21.6 12.6 22 12 22C11.4 22 11 21.6 11 21V12ZM20 13C20.6 13 21 12.6 21 12V3C21 2.4 20.6 2 20 2C19.4 2 19 2.4 19 3V12C19 12.6 19.4 13 20 13ZM0 14C0 13.4 0.4 13 1 13H7C7.6 13 8 13.4 8 14C8 14.6 7.6 15 7 15H5V21C5 21.6 4.6 22 4 22C3.4 22 3 21.6 3 21V15H1C0.4 15 0 14.6 0 14ZM15 7H13V3C13 2.4 12.6 2 12 2C11.4 2 11 2.4 11 3V7H9C8.4 7 8 7.4 8 8C8 8.6 8.4 9 9 9H15C15.6 9 16 8.6 16 8C16 7.4 15.6 7 15 7ZM16 16C16 15.4 16.4 15 17 15H23C23.6 15 24 15.4 24 16C24 16.6 23.6 17 23 17H21V21C21 21.6 20.6 22 20 22C19.4 22 19 21.6 19 21V17H17C16.4 17 16 16.6 16 16Z" fill="#464454"/>
</svg>
