<svg width="24" height="24" viewBox="0 0 24 24" fill="none" xmlns="http://www.w3.org/2000/svg">
<path fill-rule="evenodd" clip-rule="evenodd" d="M7 1H17C18.7 1 20 2.3 20 4V20C20 21.7 18.7 23 17 23H7C5.3 23 4 21.7 4 20V4C4 2.3 5.3 1 7 1ZM17 21C17.6 21 18 20.6 18 20V4C18 3.4 17.6 3 17 3H7C6.4 3 6 3.4 6 4V20C6 20.6 6.4 21 7 21H17ZM11.8 17C12.1 17 12.5 17.1 12.7 17.3C12.8 17.4 12.9 17.5 12.9 17.6C13 17.7 13 17.9 13 18C13 18.3 12.9 18.5 12.7 18.7C12.5 18.9 12.3 19 12 19C11.7 19 11.5 18.9 11.3 18.7C11.1 18.5 11 18.3 11 18C11 17.8828 11.0343 17.8 11.0627 17.7314C11.0828 17.6828 11.1 17.6414 11.1 17.6C11.1 17.5 11.2 17.4 11.3 17.3C11.3 17.3 11.3 17.2 11.4 17.2C11.5 17.1 11.5 17.1 11.6 17.1C11.6575 17.0425 11.6819 17.0181 11.7113 17.0077C11.7331 17 11.7575 17 11.8 17Z" fill="#464454"/>
</svg>
