<svg width="24" height="24" viewBox="0 0 24 24" fill="none" xmlns="http://www.w3.org/2000/svg">
<path fill-rule="evenodd" clip-rule="evenodd" d="M18 1H6C4.3 1 3 2.3 3 4V20C3 21.7 4.3 23 6 23H18C19.7 23 21 21.7 21 20V4C21 2.3 19.7 1 18 1ZM19 20C19 20.6 18.6 21 18 21H6C5.4 21 5 20.6 5 20V4C5 3.4 5.4 3 6 3H18C18.6 3 19 3.4 19 4V20ZM12 9C9.2 9 7 11.2 7 14C7 16.8 9.2 19 12 19C14.8 19 17 16.8 17 14C17 11.2 14.8 9 12 9ZM12 17C10.3 17 9 15.7 9 14C9 12.3 10.3 11 12 11C13.7 11 15 12.3 15 14C15 15.7 13.7 17 12 17ZM12.2 6.9999H12C11.7 6.9999 11.5 6.8999 11.3 6.6999C11.1 6.4999 11 6.2999 11 5.9999C11 5.6999 11.1 5.4999 11.3 5.2999C11.5 4.9999 11.9 4.8999 12.2 4.9999C12.2575 5.05741 12.2819 5.08184 12.3113 5.09223C12.3331 5.0999 12.3575 5.0999 12.4 5.0999C12.45 5.0999 12.475 5.1249 12.5 5.1499C12.525 5.1749 12.55 5.1999 12.6 5.1999C12.6 5.1999 12.6 5.2999 12.7 5.2999C12.9 5.4999 13 5.6999 13 5.9999C13 6.0999 13 6.2999 12.9 6.3999C12.9 6.4999 12.8 6.5999 12.7 6.6999L12.6 6.7999C12.55 6.7999 12.525 6.8249 12.5 6.8499C12.475 6.8749 12.45 6.8999 12.4 6.8999C12.3425 6.95741 12.3181 6.98184 12.2887 6.99223C12.2669 6.9999 12.2425 6.9999 12.2 6.9999Z" fill="#464454"/>
</svg>
