<svg width="24" height="24" viewBox="0 0 24 24" fill="none" xmlns="http://www.w3.org/2000/svg">
<path d="M23 9.0002C22.9 8.6002 22.6 8.4002 22.2 8.3002L15.8 7.4002L12.9 1.6002C12.6 0.900195 11.4 0.900195 11.1 1.6002L8.20002 7.3002L1.90002 8.3002C1.50002 8.3002 1.20002 8.6002 1.00002 9.0002C0.900024 9.4002 1.00002 9.8002 1.30002 10.0002L5.90002 14.5002L4.80002 20.9002C4.70002 21.3002 4.90002 21.7002 5.20002 21.9002C5.50002 22.1002 5.90002 22.2002 6.30002 22.0002L12 19.0002L17.7 22.0002C17.9 22.0002 18 22.0002 18.2 22.0002C18.4 22.0002 18.6 21.9002 18.8 21.8002C19.1 21.6002 19.3 21.2002 19.2 20.8002L18.1 14.4002L22.7 9.9002C23 9.7002 23.1 9.3002 23 9.0002ZM16.3 13.4002C16.1 13.7002 16 14.0002 16 14.3002L16.8 19.2002L12.4 16.9002C12.1 16.7002 11.8 16.7002 11.5 16.9002L7.10002 19.2002L8.00002 14.3002C8.00002 14.0002 7.90002 13.7002 7.70002 13.4002L4.10002 10.0002L9.00002 9.3002C9.30002 9.3002 9.60003 9.0002 9.80002 8.8002L12 4.3002L14.2 8.7002C14.3 9.0002 14.6 9.2002 15 9.2002L19.9 9.9002L16.3 13.4002Z" fill="#464454"/>
</svg>
