<svg width="24" height="24" viewBox="0 0 24 24" fill="none" xmlns="http://www.w3.org/2000/svg">
<path d="M21.7248 11.3098L19.4427 8.91775L19.3638 5.61175C19.3518 5.07775 18.9217 4.64775 18.3877 4.63475L15.0827 4.55775L12.6907 2.27675C12.3047 1.90775 11.6967 1.90775 11.3108 2.27675L8.91875 4.55875L5.61375 4.63575C5.07975 4.64875 4.64975 5.07875 4.63775 5.61275L4.55875 8.91775L2.27675 11.3098C1.90775 11.6968 1.90775 12.3038 2.27675 12.6908L4.55875 15.0828L4.63775 18.3888C4.64975 18.9228 5.07975 19.3527 5.61375 19.3657L8.91875 19.4428L11.3117 21.7248C11.5037 21.9088 11.7527 21.9998 12.0007 21.9998C12.2487 21.9998 12.4977 21.9078 12.6907 21.7238L15.0837 19.4417L18.3888 19.3647C18.9228 19.3517 19.3528 18.9228 19.3647 18.3878L19.4438 15.0817L21.7257 12.6897C22.0928 12.3038 22.0928 11.6968 21.7248 11.3098ZM17.7287 13.9818C17.5567 14.1618 17.4587 14.3988 17.4527 14.6477L17.3877 17.3877L14.6507 17.4517C14.4017 17.4577 14.1637 17.5557 13.9837 17.7277L12.0007 19.6187L10.0187 17.7277C9.83875 17.5557 9.60075 17.4567 9.35175 17.4517L6.61475 17.3877L6.54975 14.6477C6.54375 14.3997 6.44575 14.1618 6.27375 13.9818L4.38275 11.9998L6.27275 10.0188C6.44475 9.83875 6.54375 9.59975 6.54975 9.35075L6.61475 6.61275L9.35275 6.54875C9.60075 6.54275 9.83775 6.44475 10.0177 6.27375L12.0007 4.38175L13.9837 6.27275C14.1637 6.44475 14.4008 6.54275 14.6497 6.54875L17.3877 6.61275L17.4527 9.35075C17.4587 9.59975 17.5577 9.83775 17.7297 10.0188L19.6187 11.9998L17.7287 13.9818ZM16.5897 12.0037C16.5897 14.4917 14.5658 16.5168 12.0767 16.5168C10.4307 16.5168 8.91475 15.6198 8.12075 14.1748C8.06975 14.0828 8.08275 13.9688 8.15175 13.8898C8.22175 13.8118 8.33275 13.7847 8.43075 13.8228C8.86575 13.9928 9.30975 14.0798 9.75075 14.0798C11.7498 14.0798 13.3757 12.4528 13.3757 10.4538C13.3757 9.51475 13.0127 8.62275 12.3547 7.94075C12.2817 7.86475 12.2638 7.75175 12.3097 7.65775C12.3557 7.56275 12.4598 7.50875 12.5608 7.51775C14.8588 7.76375 16.5897 9.69275 16.5897 12.0037Z" fill="#464454"/>
</svg>
