<svg width="24" height="24" viewBox="0 0 24 24" fill="none" xmlns="http://www.w3.org/2000/svg">
<path fill-rule="evenodd" clip-rule="evenodd" d="M12 4C12.6 4 13 3.6 13 3V1C13 0.4 12.6 0 12 0C11.4 0 11 0.4 11 1V3C11 3.6 11.4 4 12 4ZM12 6C8.7 6 6 8.7 6 12C6 15.3 8.7 18 12 18C15.3 18 18 15.3 18 12C18 8.7 15.3 6 12 6ZM12 16C9.8 16 8 14.2 8 12C8 9.8 9.8 8 12 8C14.2 8 16 9.8 16 12C16 14.2 14.2 16 12 16ZM11 21C11 20.4 11.4 20 12 20C12.6 20 13 20.4 13 21V23C13 23.6 12.6 24 12 24C11.4 24 11 23.6 11 23V21ZM4.90001 6.3002C5.10001 6.5002 5.40001 6.60019 5.60001 6.60019C5.80001 6.60019 6.10001 6.5002 6.30001 6.3002C6.70001 5.9002 6.70001 5.3002 6.30001 4.9002L4.90001 3.5002C4.50001 3.1002 3.90001 3.1002 3.50001 3.5002C3.10001 3.9002 3.10001 4.5002 3.50001 4.9002L4.90001 6.3002ZM17.7 17.6999C18.1 17.2999 18.7 17.2999 19.1 17.6999L20.5 19.0999C20.9 19.4999 20.9 20.0999 20.5 20.4999C20.3 20.6999 20 20.7999 19.8 20.7999C19.6 20.7999 19.3 20.6999 19.1 20.4999L17.7 19.0999C17.3 18.6999 17.3 18.0999 17.7 17.6999ZM4 12C4 11.4 3.6 11 3 11H1C0.4 11 0 11.4 0 12C0 12.6 0.4 13 1 13H3C3.6 13 4 12.6 4 12ZM21 11H23C23.6 11 24 11.4 24 12C24 12.6 23.6 13 23 13H21C20.4 13 20 12.6 20 12C20 11.4 20.4 11 21 11ZM4.9 17.6999L3.5 19.0999C3.1 19.4999 3.1 20.0999 3.5 20.4999C3.7 20.6999 4 20.7999 4.2 20.7999C4.4 20.7999 4.7 20.6999 4.9 20.4999L6.3 19.0999C6.7 18.6999 6.7 18.0999 6.3 17.6999C5.9 17.2999 5.3 17.2999 4.9 17.6999ZM19.1 6.3002C18.9 6.5002 18.7 6.60019 18.4 6.60019C18.1 6.60019 17.8 6.5002 17.7 6.3002C17.3 5.9002 17.3 5.3002 17.7 4.9002L19.1 3.5002C19.5 3.1002 20.1 3.1002 20.5 3.5002C20.9 3.9002 20.9 4.5002 20.5 4.9002L19.1 6.3002Z" fill="#464454"/>
</svg>
