<svg width="24" height="24" viewBox="0 0 24 24" fill="none" xmlns="http://www.w3.org/2000/svg">
<path fill-rule="evenodd" clip-rule="evenodd" d="M11 4.3999L8.7 6.6999C8.3 7.0999 7.7 7.0999 7.3 6.6999C6.9 6.2999 6.9 5.6999 7.3 5.2999L11.3 1.2999C11.35 1.2499 11.4 1.2249 11.45 1.1999C11.5 1.1749 11.55 1.1499 11.6 1.0999C11.9 0.999902 12.2 0.999902 12.4 1.0999C12.5 1.0999 12.6 1.1999 12.7 1.2999L16.7 5.2999C17.1 5.6999 17.1 6.2999 16.7 6.6999C16.5 6.8999 16.3 6.9999 16 6.9999C15.7 6.9999 15.5 6.8999 15.3 6.6999L13 4.3999V8.9999C13 9.5999 12.6 9.9999 12 9.9999C11.4 9.9999 11 9.5999 11 8.9999V4.3999ZM4.89995 12.3002C5.09995 12.5002 5.39995 12.6002 5.59995 12.6002C5.79995 12.6002 6.09995 12.5002 6.29995 12.3002C6.69995 11.9002 6.69995 11.3002 6.29995 10.9002L4.89995 9.5002C4.49995 9.10019 3.89995 9.10019 3.49995 9.5002C3.09995 9.9002 3.09995 10.5002 3.49995 10.9002L4.89995 12.3002ZM12 12C8.7 12 6 14.7 6 18C6 18.6 6.4 19 7 19C7.6 19 8 18.6 8 18C8 15.8 9.8 14 12 14C14.2 14 16 15.8 16 18C16 18.6 16.4 19 17 19C17.6 19 18 18.6 18 18C18 14.7 15.3 12 12 12ZM3 19H1C0.4 19 0 18.6 0 18C0 17.4 0.4 17 1 17H3C3.6 17 4 17.4 4 18C4 18.6 3.6 19 3 19ZM20 18C20 18.6 20.4 19 21 19H23C23.6 19 24 18.6 24 18C24 17.4 23.6 17 23 17H21C20.4 17 20 17.4 20 18ZM19.1 12.3002C18.9 12.5002 18.7 12.6002 18.4 12.6002C18.1 12.6002 17.8 12.5002 17.7 12.3002C17.3 11.9002 17.3 11.3002 17.7 10.9002L19.1 9.5002C19.5 9.10019 20.1 9.10019 20.5 9.5002C20.9 9.9002 20.9 10.5002 20.5 10.9002L19.1 12.3002ZM1 21C0.4 21 0 21.4 0 22C0 22.6 0.4 23 1 23H23C23.6 23 24 22.6 24 22C24 21.4 23.6 21 23 21H1Z" fill="#464454"/>
</svg>
