<svg width="24" height="24" viewBox="0 0 24 24" fill="none" xmlns="http://www.w3.org/2000/svg">
<path fill-rule="evenodd" clip-rule="evenodd" d="M12.7 1.3L21.3 9.9C22.5 11.1 22.5 12.9 21.3 14.1L14.1 21.3C13.5 21.9 12.8 22.2 12 22.2C11.3 22.2 10.5 21.9 9.9 21.3L1.3 12.7C1.1 12.5 1 12.3 1 12V2C1 1.4 1.4 1 2 1H12C12.3 1 12.5 1.1 12.7 1.3ZM12.7 19.9L19.9 12.7C20.3 12.3 20.3 11.7 19.9 11.3L11.6 3H3V11.6L11.3 19.9C11.7 20.3 12.3 20.3 12.7 19.9ZM6.6 6.0999C6.9 5.9999 7.1 5.9999 7.4 6.0999C7.5 6.0999 7.6 6.1999 7.7 6.2999C7.9 6.4999 8 6.6999 8 6.9999C8 7.2999 7.9 7.4999 7.7 7.6999C7.5 7.8999 7.3 7.9999 7 7.9999C6.7 7.9999 6.5 7.8999 6.3 7.6999C6.25 7.6499 6.225 7.5999 6.2 7.5499C6.175 7.4999 6.15 7.4499 6.1 7.3999C6 7.2999 6 7.0999 6 6.9999C6 6.8999 6 6.6999 6.1 6.5999C6.1 6.4999 6.2 6.39991 6.3 6.29991L6.3 6.2999C6.4 6.1999 6.5 6.0999 6.6 6.0999Z" fill="#464454"/>
</svg>
