<svg width="24" height="24" viewBox="0 0 24 24" fill="none" xmlns="http://www.w3.org/2000/svg">
<path fill-rule="evenodd" clip-rule="evenodd" d="M12 1C5.9 1 1 5.9 1 12C1 18.1 5.9 23 12 23C18.1 23 23 18.1 23 12C23 5.9 18.1 1 12 1ZM12 21C7 21 3 17 3 12C3 7 7 3 12 3C17 3 21 7 21 12C21 17 17 21 12 21ZM12 5C8.1 5 5 8.1 5 12C5 15.9 8.1 19 12 19C15.9 19 19 15.9 19 12C19 8.1 15.9 5 12 5ZM12 17C9.2 17 7 14.8 7 12C7 9.2 9.2 7 12 7C14.8 7 17 9.2 17 12C17 14.8 14.8 17 12 17ZM9 12C9 10.3 10.3 9 12 9C13.7 9 15 10.3 15 12C15 13.7 13.7 15 12 15C10.3 15 9 13.7 9 12ZM11 12C11 12.6 11.4 13 12 13C12.6 13 13 12.6 13 12C13 11.4 12.6 11 12 11C11.4 11 11 11.4 11 12Z" fill="#464454"/>
</svg>
