<svg width="24" height="24" viewBox="0 0 24 24" fill="none" xmlns="http://www.w3.org/2000/svg">
<path d="M22 15.1L21.6 13C21.4 11.6 20.3 10.6 18.9 10.5L18.2 8.2C17.9 6.9 16.7 6 15.4 6H14.2V5C14.2 4.4 13.7 4 13.2 4H10.9C10.3 4 9.90002 4.5 9.90002 5V6H8.60002C7.30002 6 6.10002 6.9 5.70002 8.2L5.00002 10.4C3.70002 10.6 2.60002 11.6 2.40002 13L2.00002 15.1C1.90002 16 2.10002 16.9 2.70002 17.5C3.30002 18.2 4.10002 18.6 5.00002 18.6H5.20002V20C5.20002 20.5 5.60002 21 6.20002 21H6.60002C7.10002 21 7.60002 20.6 7.60002 20V18.6H16.4V20C16.4 20.5 16.8 21 17.4 21H17.8C18.3 21 18.8 20.6 18.8 20V18.6H19C19.9 18.6 20.7 18.2 21.3 17.5C21.8 16.9 22.1 16 22 15.1ZM8.60002 8H15.3C15.7 8 16.1 8.3 16.3 8.7L16.8 10.4H7.20002L7.70002 8.7C7.80002 8.3 8.20002 8 8.60002 8ZM19.7 16.2C19.5 16.4 19.2 16.5 18.9 16.5H14.9V15.5C14.9 14.9 14.4 14.5 13.9 14.5H10C9.40002 14.5 9.00002 15 9.00002 15.5V16.5H5.00002C4.70002 16.5 4.40002 16.4 4.20002 16.2C4.10002 16 4.00002 15.7 4.00002 15.4L4.30002 13.3C4.40002 12.8 4.80002 12.4 5.30002 12.4H18.6C19.1 12.4 19.5 12.8 19.6 13.3L19.9 15.4C20 15.7 19.9 16 19.7 16.2ZM7.60002 14.5C7.60002 15.1 7.10002 15.5 6.60002 15.5C6.00002 15.5 5.60002 15 5.60002 14.5C5.60002 14 6.10002 13.5 6.60002 13.5C7.20002 13.5 7.60002 13.9 7.60002 14.5ZM18.4 14.5C18.4 15.1 17.9 15.5 17.4 15.5C16.8 15.5 16.4 15 16.4 14.5C16.4 14 16.9 13.5 17.4 13.5C17.9 13.5 18.4 13.9 18.4 14.5Z" fill="#464454"/>
</svg>
