<svg width="24" height="24" viewBox="0 0 24 24" fill="none" xmlns="http://www.w3.org/2000/svg">
<path d="M21.999 5.004C21.999 5.005 22 5.006 22 5.007V7.007C22 7.559 21.552 8.007 21 8.007C20.448 8.007 20 7.559 20 7.007V6H16V18H17C17.552 18 18 18.448 18 19C18 19.552 17.552 20 17 20H13C12.448 20 12 19.552 12 19C12 18.448 12.448 18 13 18H14V6H10V7.007C10 7.559 9.552 8.007 9 8.007C8.448 8.007 8 7.559 8 7.007V5.007C8 5.006 8.001 5.005 8.001 5.003C8.001 5.002 8 5.001 8 5C8 4.448 8.448 4 9 4H21C21.552 4 22 4.448 22 5C22 5.001 21.999 5.002 21.999 5.004ZM12 10.972C12 10.42 11.552 9.972 11 9.972H3C2.448 9.972 2 10.42 2 10.972V12.613C2 13.165 2.448 13.613 3 13.613C3.552 13.613 4 13.165 4 12.613V11.972H6V18H5.5C4.948 18 4.5 18.448 4.5 19C4.5 19.552 4.948 20 5.5 20H8.5C9.052 20 9.5 19.552 9.5 19C9.5 18.448 9.052 18 8.5 18H8V11.972H10V12.972C10 13.524 10.448 13.972 11 13.972C11.552 13.972 12 13.524 12 12.972V10.972Z" fill="#464454"/>
</svg>
