<svg width="24" height="24" viewBox="0 0 24 24" fill="none" xmlns="http://www.w3.org/2000/svg">
<path d="M16.1 15.4C15.8 14.9 15.4 14.6 15 14.2V3.5C15 1.6 13.4 0 11.5 0C9.59998 0 7.99998 1.6 7.99998 3.5V14.3C5.79998 16.1 5.29998 19.2 6.89998 21.6C7.69998 22.8 8.99998 23.7 10.4 23.9C10.8 24 11.1 24 11.5 24C12.6 24 13.6 23.7 14.5 23.1C17.1 21.4 17.8 18 16.1 15.4ZM13.4 21.4C11.8 22.5 9.59998 22 8.49998 20.4C7.99998 19.6 7.79998 18.7 7.99998 17.8C8.19998 16.9 8.69998 16.1 9.49998 15.6C9.79998 15.4 9.89998 15.1 9.89998 14.8V3.5C9.99998 2.7 10.7 2 11.5 2C12.3 2 13 2.7 13 3.5V14.8C13 15.1 13.2 15.4 13.4 15.6C13.8 15.9 14.1 16.2 14.4 16.6C15.5 18.2 15 20.3 13.4 21.4Z" fill="#464454"/>
</svg>
