<svg width="24" height="24" viewBox="0 0 24 24" fill="none" xmlns="http://www.w3.org/2000/svg">
<path d="M22.1 9.2C21.6 8.6 20.9 8.1 20.1 8C19.9 8 19.8 8 19.6 8H15V5C15 2.8 13.2 1 11 1C10.6 1 10.2 1.2 10.1 1.6L6.4 10H4C2.3 10 1 11.3 1 13V20C1 21.7 2.3 23 4 23H18.3C19.8 23 21 21.9 21.3 20.5L22.7 11.5C22.8 10.7 22.6 9.9 22.1 9.2ZM6 21H4C3.4 21 3 20.6 3 20V13C3 12.4 3.4 12 4 12H6V21ZM19.3 20.2C19.2 20.7 18.8 21 18.3 21H8V11.2L11.6 3.1C12.4 3.4 13 4.1 13 5V9C13 9.6 13.4 10 14 10H19.7C19.8 10 19.8 10 19.9 10C20.2 10 20.4 10.2 20.6 10.4C20.8 10.6 20.8 10.9 20.8 11.1L19.3 20.2Z" fill="#464454"/>
</svg>
