<svg width="24" height="24" viewBox="0 0 24 24" fill="none" xmlns="http://www.w3.org/2000/svg">
<path d="M23 3.9C22.8 2.2 21.4 1 19.7 1C19.7 1 19.7 1 19.6 1H5.7C4.2 1 3.00001 2.1 2.70001 3.5L1.3 12.5C1.1 14.1 2.2 15.7 3.8 15.9C4.00001 15.9 4.10001 15.9 4.30001 15.9H9V18.9C9 21.1 10.8 22.9 13 22.9C13.4 22.9 13.8 22.7 13.9 22.3L17.6 13.9H19.6C21.3 13.9 22.7 12.7 22.9 11V10.9V4C23 4 23 3.9 23 3.9ZM16 12.8L12.4 20.9C11.6 20.6 11 19.9 11 19V15C11 14.4 10.6 14 10 14H4.30001C4.30001 14 4.2 14 4.1 14C3.6 13.9 3.2 13.4 3.3 12.9L4.7 3.9C4.8 3.4 5.2 3 5.7 3H16V12.8ZM21 10.9C20.9 11.5 20.3 12 19.7 12H18V3H19.7C20.3 2.9 20.9 3.4 21 4.1V10.9Z" fill="#464454"/>
</svg>
