<svg width="24" height="24" viewBox="0 0 24 24" fill="none" xmlns="http://www.w3.org/2000/svg">
<path fill-rule="evenodd" clip-rule="evenodd" d="M8 4H16C20.4 4 24 7.6 24 12C24 16.4 20.4 20 16 20H8C3.6 20 0 16.4 0 12C0 7.6 3.6 4 8 4ZM2 12C2 15.3 4.7 18 8 18H16C19.3 18 22 15.3 22 12C22 8.7 19.3 6 16 6H8C4.7 6 2 8.7 2 12ZM4 12C4 9.8 5.8 8 8 8C10.2 8 12 9.8 12 12C12 14.2 10.2 16 8 16C5.8 16 4 14.2 4 12ZM6 12C6 13.1 6.9 14 8 14C9.1 14 10 13.1 10 12C10 10.9 9.1 10 8 10C6.9 10 6 10.9 6 12Z" fill="#464454"/>
</svg>
