<svg width="24" height="24" viewBox="0 0 24 24" fill="none" xmlns="http://www.w3.org/2000/svg">
<path fill-rule="evenodd" clip-rule="evenodd" d="M8 4H16C20.4 4 24 7.6 24 12C24 16.4 20.4 20 16 20H8C3.6 20 0 16.4 0 12C0 7.6 3.6 4 8 4ZM2 12C2 15.3 4.7 18 8 18H16C19.3 18 22 15.3 22 12C22 8.7 19.3 6 16 6H8C4.7 6 2 8.7 2 12ZM12 12C12 9.8 13.8 8 16 8C18.2 8 20 9.8 20 12C20 14.2 18.2 16 16 16C13.8 16 12 14.2 12 12ZM14 12C14 13.1 14.9 14 16 14C17.1 14 18 13.1 18 12C18 10.9 17.1 10 16 10C14.9 10 14 10.9 14 12Z" fill="#464454"/>
</svg>
