<svg width="24" height="24" viewBox="0 0 24 24" fill="none" xmlns="http://www.w3.org/2000/svg">
<path d="M14 7H4C3.4 7 3 7.4 3 8C3 8.6 3.4 9 4 9H9.1C8.5 9.6 8 10.3 7.7 11H4C3.4 11 3 11.4 3 12C3 12.6 3.4 13 4 13H7.1C7 13.3 7 13.7 7 14C7 14.3 7 14.7 7.1 15H4C3.4 15 3 15.4 3 16C3 16.6 3.4 17 4 17H7.7C8.1 17.7 8.5 18.4 9.1 19H4C3.4 19 3 19.4 3 20C3 20.6 3.4 21 4 21H14C17.9 21 21 17.9 21 14C21 10.1 17.9 7 14 7ZM14 19C11.2 19 9 16.8 9 14C9 11.2 11.2 9 14 9C16.8 9 19 11.2 19 14C19 16.8 16.8 19 14 19ZM14.8 13.4H14.6V12.7H15.5C15.8 12.7 16.1 12.4 16.1 12.1C16.1 11.8 15.8 11.5 15.5 11.5H14.6V11.1C14.6 10.8 14.3 10.5 14 10.5C13.7 10.5 13.4 10.8 13.4 11.1V11.6H13.2C12.4 11.6 11.7 12.3 11.7 13.1C11.7 13.9 12.4 14.6 13.2 14.6H13.4V15.3H12.3C12 15.3 11.7 15.6 11.7 15.9C11.7 16.2 12 16.5 12.3 16.5H13.4V17C13.4 17.3 13.7 17.6 14 17.6C14.3 17.6 14.6 17.3 14.6 17V16.5H14.8C15.6 16.5 16.3 15.8 16.3 15C16.3 14.2 15.7 13.4 14.8 13.4ZM13.4 13.4H13.2C13 13.4 12.9 13.3 12.9 13.1C12.9 12.9 13 12.8 13.2 12.8H13.4V13.4ZM14.8 15.3H14.6V14.6H14.8C15 14.6 15.1 14.7 15.1 14.9C15.1 15.1 15 15.3 14.8 15.3ZM3 4C3 3.4 3.4 3 4 3H14C14.6 3 15 3.4 15 4C15 4.6 14.6 5 14 5H4C3.4 5 3 4.6 3 4Z" fill="#464454"/>
</svg>
