<svg width="24" height="24" viewBox="0 0 24 24" fill="none" xmlns="http://www.w3.org/2000/svg">
<path fill-rule="evenodd" clip-rule="evenodd" d="M1.43015 10.5534C1.43015 5.27755 5.54172 1 10.6165 1C10.846 1 11.0886 1.08842 11.2668 1.28422C11.4221 1.45477 11.5217 1.69063 11.5217 1.94186V10.5502C11.5279 10.7993 11.4355 11.0492 11.2578 11.2341C11.0464 11.4541 10.7646 11.5308 10.5071 11.4954L6.51537 11.5042L6.44254 11.5042L2.34066 11.5131C2.3111 11.5131 2.28181 11.5104 2.25315 11.5049C2.04543 11.4858 1.84797 11.3942 1.69405 11.2341C1.51994 11.0529 1.43015 10.8138 1.43015 10.5668V10.5534ZM7.03753 3.86516C6.70217 4.05981 6.38472 4.27897 6.0857 4.52262L9.71551 8.29924V6.65146L7.03753 3.86516ZM9.71551 3.98678V2.95826C9.43078 2.9937 9.15147 3.04644 8.87805 3.11545L9.71551 3.98678ZM4.80248 5.85217C4.56937 6.16379 4.35873 6.49439 4.17355 6.84078L6.84465 9.61603H8.42003L4.80248 5.85217ZM13.1858 4.15384C13.3498 3.99226 13.5765 3.88864 13.8179 3.88864C14.1054 3.88864 14.3848 3.90753 14.658 3.93494C14.6941 3.93796 14.7274 3.94213 14.7514 3.94513L14.7543 3.94548C14.7824 3.94899 14.7991 3.95101 14.815 3.95229C14.8215 3.9528 14.8279 3.95345 14.8343 3.95423C15.2877 4.00973 15.7467 4.09365 16.2007 4.22118L16.21 4.22378C16.267 4.24109 16.322 4.25945 16.3707 4.27561L16.373 4.27639C16.4241 4.29334 16.4685 4.30808 16.513 4.32159C16.5232 4.32466 16.5332 4.32809 16.5431 4.33185C16.5453 4.33253 16.5474 4.33321 16.5495 4.33392C16.9272 4.45873 17.3008 4.60362 17.6641 4.77846L17.6667 4.77969C17.9431 4.91476 18.1937 5.06784 18.4336 5.21991C18.4621 5.2307 18.4898 5.24437 18.5162 5.26086C18.5422 5.27711 18.5664 5.293 18.5858 5.30572L18.5874 5.30681C18.6083 5.32055 18.6241 5.33087 18.64 5.3408L18.6433 5.34288C18.8106 5.44922 18.9701 5.56328 19.1237 5.67738C19.4358 5.908 19.732 6.16045 20.0125 6.42445L20.0153 6.42706C20.6267 7.01175 21.158 7.6722 21.6037 8.41235C22.0495 9.15257 22.3961 9.95343 22.6346 10.7915C22.8784 11.6512 23 12.5519 23 13.4465C23 18.691 18.8631 23 13.8179 23C12.1872 23 10.5887 22.5454 9.18448 21.6931C8.75098 21.43 8.60621 20.8541 8.85863 20.4039L12.9127 13.1874V4.8305C12.9127 4.58352 13.0025 4.34438 13.1766 4.16322L13.1858 4.15384ZM14.7189 10.1555L14.9371 9.78217C15.0737 9.54856 15.3658 9.4733 15.5913 9.61359C16.2262 10.0085 16.3834 10.8576 16.0617 11.4801C16.0569 11.4895 16.0517 11.4988 16.0462 11.5079L14.5903 13.9348L10.9039 20.4998C11.8187 20.9114 12.8087 21.1252 13.8137 21.1252C15.8316 21.1252 17.6753 20.2632 19.016 18.8682C20.3568 17.4733 21.1852 15.555 21.1852 13.4554C21.1852 11.3558 20.3568 9.43758 19.016 8.04262C18.7874 7.80472 18.5433 7.58235 18.286 7.37673L17.3133 9.27093C17.2534 9.38751 17.1514 9.47453 17.0298 9.51279C16.9082 9.55105 16.777 9.53742 16.665 9.4749C16.034 9.12243 15.7876 8.3255 16.0868 7.6615C16.0903 7.65379 16.0939 7.64617 16.0978 7.63865L16.7254 6.41347C16.4931 6.30644 16.2565 6.21185 16.0136 6.13118C16.0039 6.12871 15.9943 6.12594 15.9848 6.12285C15.578 5.99081 15.1551 5.89815 14.7189 5.84218V10.1555ZM16.1272 6.14542C16.1272 6.14542 16.1255 6.14555 16.1181 6.14533L16.1272 6.14542ZM16.592 4.35369L16.593 4.35423L16.5952 4.35535M3.45736 8.76066C3.39218 9.04335 3.34208 9.33169 3.30824 9.62491H4.28802L3.45736 8.76066ZM1.26817 12.9347C1.44229 12.7536 1.67213 12.6602 1.90951 12.6602H1.91354L3.43718 12.6735C3.44335 12.6736 3.44953 12.6737 3.4557 12.674C4.16619 12.7089 4.71831 13.3215 4.71831 14.055C4.71831 14.3299 4.50413 14.5528 4.23992 14.5528H3.38228L2.86572 14.5483C3.08023 16.4119 3.94511 18.1343 5.2943 19.3785L8.46948 14.57L6.92689 14.5616C6.91871 14.5616 6.91053 14.5613 6.90236 14.5608C6.21544 14.5204 5.61863 13.9296 5.61863 13.1757C5.61863 12.9008 5.83281 12.6779 6.09702 12.6779H6.91054L10.1993 12.6958C10.5197 12.7048 10.8295 12.8867 10.9873 13.2053C11.001 13.233 11.012 13.2617 11.0204 13.2909C11.1299 13.5781 11.1001 13.9058 10.9282 14.1699L10.9264 14.1726L6.24043 21.2682L6.23971 21.2693C6.10402 21.4758 5.8962 21.6164 5.66232 21.6632C5.42074 21.7115 5.17676 21.6525 4.98234 21.5146L4.98091 21.5135C2.4903 19.7329 1 16.7813 1 13.6375V13.602C1 13.5959 1.00011 13.5897 1.00033 13.5836C1.00864 13.3501 1.0939 13.1161 1.26817 12.9347Z" fill="#464454"/>
</svg>
