<svg width="24" height="24" viewBox="0 0 24 24" fill="none" xmlns="http://www.w3.org/2000/svg">
<path fill-rule="evenodd" clip-rule="evenodd" d="M21 5H17V4C17 2.3 15.7 1 14 1H10C8.3 1 7 2.3 7 4V5H3C2.4 5 2 5.4 2 6C2 6.6 2.4 7 3 7H4V20C4 21.7 5.3 23 7 23H17C18.7 23 20 21.7 20 20V7H21C21.6 7 22 6.6 22 6C22 5.4 21.6 5 21 5ZM9 4C9 3.4 9.4 3 10 3H14C14.6 3 15 3.4 15 4V5H9V4ZM18 20C18 20.6 17.6 21 17 21H7C6.4 21 6 20.6 6 20V7H18V20ZM10 10C9.4 10 9 10.4 9 11V17C9 17.6 9.4 18 10 18C10.6 18 11 17.6 11 17V11C11 10.4 10.6 10 10 10ZM13 11C13 10.4 13.4 10 14 10C14.6 10 15 10.4 15 11V17C15 17.6 14.6 18 14 18C13.4 18 13 17.6 13 17V11Z" fill="#464454"/>
</svg>
