<svg width="24" height="24" viewBox="0 0 24 24" fill="none" xmlns="http://www.w3.org/2000/svg">
<path d="M23 17.4998L14.6 3.2998C14.2 2.5998 13.5 2.0998 12.7 1.8998C11.9 1.6998 11.1 1.7998 10.4 2.1998C10 2.3998 9.60002 2.7998 9.40002 3.1998L1.00002 17.4998C0.200024 18.8998 0.700024 20.7998 2.10002 21.5998C2.50002 21.8998 3.00002 21.9998 3.50002 21.9998H20.5C21.3 21.9998 22.1 21.6998 22.6 21.0998C23.2 20.4998 23.5 19.7998 23.5 18.9998C23.4 18.4998 23.3 17.8998 23 17.4998ZM21.2 19.6998C21 19.8998 20.7 19.9998 20.5 19.9998H3.50002C3.30002 19.9998 3.20002 19.9998 3.00002 19.8998C2.50002 19.5998 2.40002 18.9998 2.60002 18.4998L11.1 4.3998C11.2 4.2998 11.3 4.0998 11.4 4.0998C11.9 3.7998 12.5 3.9998 12.8 4.3998L21.3 18.4998C21.4 18.5998 21.4 18.7998 21.4 18.9998C21.5 19.2998 21.3 19.4998 21.2 19.6998Z" fill="#464454"/>
</svg>
