<svg width="24" height="24" viewBox="0 0 24 24" fill="none" xmlns="http://www.w3.org/2000/svg">
<path fill-rule="evenodd" clip-rule="evenodd" d="M20.9626 11.6192C20.9176 11.761 20.8416 11.8911 20.7399 11.9998C20.6413 12.0926 20.5248 12.1643 20.3976 12.2107C20.2704 12.2571 20.1351 12.2772 19.9999 12.2698H12.9999V17.8198C12.9999 18.6632 12.6649 19.472 12.0685 20.0684C11.4722 20.6648 10.6633 20.9998 9.81993 20.9998C8.97654 20.9998 8.16769 20.6648 7.57133 20.0684C6.97496 19.472 6.63993 18.6632 6.63993 17.8198C6.63993 17.5546 6.74528 17.3002 6.93282 17.1127C7.12036 16.9251 7.37471 16.8198 7.63993 16.8198C7.90514 16.8198 8.1595 16.9251 8.34703 17.1127C8.53457 17.3002 8.63993 17.5546 8.63993 17.8198C8.63993 18.1327 8.76425 18.4329 8.98554 18.6542C9.20683 18.8755 9.50697 18.9998 9.81993 18.9998C10.1329 18.9998 10.433 18.8755 10.6543 18.6542C10.8756 18.4329 10.9999 18.1327 10.9999 17.8198V12.2698H3.99993C3.86473 12.2772 3.72942 12.2571 3.60222 12.2107C3.47502 12.1643 3.35857 12.0926 3.25993 11.9998C3.1583 11.8911 3.08223 11.761 3.03725 11.6192C2.99227 11.4773 2.97952 11.3272 2.99993 11.1798C3.10909 9.99483 3.45087 8.84302 4.00571 7.79031C4.56055 6.73759 5.31756 5.80463 6.2334 5.04484C7.14925 4.28504 8.20594 3.71332 9.34301 3.36241C10.4801 3.01149 11.6752 2.88827 12.8599 2.99979C14.9553 3.2065 16.9135 4.13578 18.3986 5.62826C19.8838 7.12074 20.8035 9.08344 20.9999 11.1798C21.0203 11.3272 21.0076 11.4773 20.9626 11.6192ZM5.18993 10.2698H11.9999H18.8099C18.5214 9.11873 17.945 8.0599 17.1349 7.1928C16.3247 6.32569 15.3075 5.67877 14.1786 5.31283C13.0498 4.94688 11.8465 4.87391 10.6817 5.10079C9.51688 5.32766 8.4289 5.84693 7.51993 6.60979C6.37206 7.54942 5.55548 8.83213 5.18993 10.2698ZM18.7799 17.6898L19.3199 17.1798L19.2799 17.2398C19.4749 17.0594 19.7335 16.9639 19.9988 16.9742C20.2642 16.9845 20.5146 17.0998 20.6949 17.2948C20.8753 17.4897 20.9708 17.7483 20.9605 18.0137C20.9502 18.279 20.8349 18.5294 20.6399 18.7098L18.4399 20.7098C18.3972 20.7455 18.3502 20.7757 18.2999 20.7998C18.2504 20.8389 18.1968 20.8724 18.1399 20.8998C18.0258 20.947 17.9034 20.9708 17.7799 20.9698C17.6499 20.9714 17.5208 20.9476 17.3999 20.8998C17.3544 20.8768 17.3109 20.85 17.2699 20.8198C17.2097 20.789 17.1527 20.7521 17.0999 20.7098L14.8499 18.6598C14.6537 18.4808 14.5366 18.2311 14.5244 17.9657C14.5122 17.7004 14.6059 17.441 14.7849 17.2448C14.9639 17.0485 15.2136 16.9314 15.479 16.9192C15.6104 16.9132 15.7417 16.9331 15.8654 16.9778C15.9891 17.0225 16.1027 17.0911 16.1999 17.1798L16.7799 17.7098V14.8298C16.7799 14.5646 16.8853 14.3102 17.0728 14.1227C17.2604 13.9351 17.5147 13.8298 17.7799 13.8298C18.0451 13.8298 18.2995 13.9351 18.487 14.1227C18.6746 14.3102 18.7799 14.5646 18.7799 14.8298V17.6898Z" fill="#464454"/>
</svg>
