<svg width="24" height="24" viewBox="0 0 24 24" fill="none" xmlns="http://www.w3.org/2000/svg">
<path d="M10.9 1.09981C5.1 1.59981 0.6 6.19981 0 11.8998C0 12.1998 0.1 12.4998 0.3 12.6998C0.4 12.8998 0.7 12.9998 1 12.9998H11V18.9998C11 21.1998 12.8 22.9998 15 22.9998C17.2 22.9998 19 21.1998 19 18.9998C19 18.3998 18.6 17.9998 18 17.9998C17.4 17.9998 17 18.3998 17 18.9998C17 20.0998 16.1 20.9998 15 20.9998C13.9 20.9998 13 20.0998 13 18.9998V12.9998H23C23.3 12.9998 23.6 12.8998 23.7 12.6998C23.8 12.4998 24 12.1998 24 11.8998C23.4 5.29981 17.5 0.399813 10.9 1.09981ZM12 10.9998H2.2C3 6.69981 6.6 3.49981 11 2.99981C16.1 2.49981 20.8 5.99981 21.8 10.9998H12Z" fill="#464454"/>
</svg>
