<svg width="24" height="24" viewBox="0 0 24 24" fill="none" xmlns="http://www.w3.org/2000/svg">
<path d="M19.2267 16.9191H19.0069V16.2505H19.886C19.9634 16.2505 20.04 16.2353 20.1115 16.2057C20.183 16.1761 20.248 16.1328 20.3027 16.0781C20.3575 16.0234 20.4009 15.9585 20.4305 15.8871C20.4601 15.8157 20.4754 15.7391 20.4754 15.6618C20.4754 15.5845 20.4601 15.508 20.4305 15.4366C20.4009 15.3651 20.3575 15.3002 20.3027 15.2456C20.248 15.1909 20.183 15.1475 20.1115 15.1179C20.04 15.0884 19.9634 15.0731 19.886 15.0731H19.0069V14.6042C19.0069 14.448 18.9448 14.2983 18.8343 14.1879C18.7237 14.0775 18.5738 14.0155 18.4175 14.0155C18.2612 14.0155 18.1113 14.0775 18.0008 14.1879C17.8902 14.2983 17.8281 14.448 17.8281 14.6042V15.0731H17.6084C17.3911 15.0376 17.1687 15.0496 16.9565 15.1085C16.7444 15.1673 16.5476 15.2716 16.3798 15.4139C16.212 15.5563 16.0772 15.7334 15.9848 15.933C15.8923 16.1326 15.8445 16.3499 15.8445 16.5698C15.8445 16.7897 15.8923 17.007 15.9848 17.2066C16.0772 17.4062 16.212 17.5833 16.3798 17.7257C16.5476 17.8681 16.7444 17.9723 16.9565 18.0312C17.1687 18.09 17.3911 18.1021 17.6084 18.0665H17.8281V18.735H16.6793C16.523 18.735 16.3731 18.7971 16.2626 18.9075C16.1521 19.0179 16.09 19.1676 16.09 19.3237C16.09 19.4799 16.1521 19.6296 16.2626 19.74C16.3731 19.8504 16.523 19.9124 16.6793 19.9124H17.8281V20.3814C17.8281 20.5375 17.8902 20.6873 18.0008 20.7977C18.1113 20.9081 18.2612 20.9701 18.4175 20.9701C18.5738 20.9701 18.7237 20.9081 18.8343 20.7977C18.9448 20.6873 19.0069 20.5375 19.0069 20.3814V19.9124H19.2267C19.2267 19.9124 19.6664 19.9359 19.8785 19.8771C20.0906 19.8182 20.2874 19.714 20.4552 19.5716C20.623 19.4292 20.7578 19.2521 20.8503 19.0525C20.9427 18.8529 20.9906 18.6357 20.9906 18.4157C20.9906 18.1958 20.9427 17.9785 20.8503 17.779C20.7578 17.5794 20.623 17.4022 20.4552 17.2599C20.2874 17.1175 20.0906 17.0133 19.8785 16.9544C19.6664 16.8956 19.4439 16.8835 19.2267 16.9191ZM17.8281 16.9191H17.6084C17.5596 16.9275 17.5095 16.9252 17.4617 16.9123C17.4139 16.8994 17.3695 16.8762 17.3317 16.8444C17.2938 16.8125 17.2633 16.7728 17.2424 16.7279C17.2215 16.6831 17.2107 16.6342 17.2107 16.5848C17.2107 16.5353 17.2215 16.4865 17.2424 16.4416C17.2633 16.3968 17.2938 16.3571 17.3317 16.3252C17.3695 16.2934 17.4139 16.2702 17.4617 16.2573C17.5095 16.2444 17.5596 16.2421 17.6084 16.2505H17.8281V16.9191ZM19.2267 18.765H19.0069V18.0964H19.2267C19.2755 18.088 19.3255 18.0903 19.3733 18.1032C19.4211 18.1161 19.4655 18.1393 19.5034 18.1711C19.5413 18.203 19.5717 18.2427 19.5926 18.2876C19.6135 18.3324 19.6243 18.3813 19.6243 18.4307C19.6243 18.4802 19.6135 18.529 19.5926 18.5739C19.5717 18.6187 19.5413 18.6584 19.5034 18.6903C19.4655 18.7221 19.4211 18.7453 19.3733 18.7582C19.3255 18.7711 19.2755 18.7734 19.2267 18.765ZM20.7308 12.0199C20.8324 11.9114 20.9084 11.7817 20.9533 11.6401C20.9982 11.4986 21.011 11.3488 20.9906 11.2017C20.7943 9.10998 19.8756 7.15162 18.392 5.66243C16.9084 4.17324 14.9523 3.24602 12.8591 3.03977C11.6756 2.92849 10.4818 3.05144 9.34588 3.40158C8.21 3.75172 7.15442 4.32218 6.23953 5.0803C5.32465 5.83841 4.56844 6.76931 4.01418 7.8197C3.45992 8.87009 3.11849 10.0194 3.00945 11.2017C2.98906 11.3488 3.0018 11.4986 3.04673 11.6401C3.09167 11.7817 3.16766 11.9114 3.26918 12.0199C3.36772 12.1124 3.48404 12.1841 3.61111 12.2304C3.73818 12.2767 3.87334 12.2967 4.0084 12.2893H11.0011V17.827C11.0011 18.1393 10.8769 18.4388 10.6558 18.6596C10.4347 18.8804 10.1349 19.0044 9.8223 19.0044C9.50967 19.0044 9.20985 18.8804 8.98879 18.6596C8.76773 18.4388 8.64354 18.1393 8.64354 17.827C8.64354 17.5624 8.53829 17.3086 8.35095 17.1215C8.16361 16.9344 7.90952 16.8293 7.64458 16.8293C7.37965 16.8293 7.12556 16.9344 6.93822 17.1215C6.75088 17.3086 6.64563 17.5624 6.64563 17.827C6.64563 18.6686 6.98032 19.4756 7.57606 20.0707C8.1718 20.6657 8.97979 21 9.8223 21C10.6648 21 11.4728 20.6657 12.0685 20.0707C12.6643 19.4756 12.999 18.6686 12.999 17.827V12.2893H19.9916C20.1267 12.2967 20.2618 12.2767 20.3889 12.2304C20.516 12.1841 20.6323 12.1124 20.7308 12.0199ZM12 10.2937H5.19715C5.56232 8.85923 6.37805 7.57935 7.52471 6.6418C8.43273 5.88061 9.51957 5.3625 10.6831 5.13612C11.8467 4.90975 13.0488 4.98255 14.1764 5.34769C15.3041 5.71283 16.3203 6.35832 17.1296 7.22351C17.9389 8.0887 18.5147 9.14519 18.8029 10.2937H12Z" fill="#464454"/>
</svg>
