<svg width="24" height="24" viewBox="0 0 24 24" fill="none" xmlns="http://www.w3.org/2000/svg">
<path fill-rule="evenodd" clip-rule="evenodd" d="M8 9H18C19.7 9 21 10.3 21 12V20C21 21.7 19.7 23 18 23H6C4.3 23 3 21.7 3 20V12C3 10.3 4.3 9 6 9V7C6 5.4 6.6 3.9 7.8 2.8C8.9 1.6 10.4 1 12 1C14.8 1 17.3 3 17.9 5.8C18 6.4 17.6 6.9 17.1 7C16.6 7.1 16 6.7 15.9 6.2C15.5 4.3 13.9 3 12 3C10.9 3 9.9 3.4 9.2 4.2C8.4 4.9 8 5.9 8 7V9ZM18 21C18.6 21 19 20.6 19 20V12C19 11.4 18.6 11 18 11H6C5.4 11 5 11.4 5 12V20C5 20.6 5.4 21 6 21H18ZM10.5 15C10.5 14.2 11.2 13.5 12 13.5C12.8 13.5 13.5 14.2 13.5 15C13.5 15.4 13.3 15.8 13 16.1V17.5C13 18.1 12.6 18.5 12 18.5C11.4 18.5 11 18.1 11 17.5V16.1C10.7 15.8 10.5 15.4 10.5 15Z" fill="#464454"/>
</svg>
