<svg width="25" height="24" viewBox="0 0 25 24" fill="none" xmlns="http://www.w3.org/2000/svg">
<path fill-rule="evenodd" clip-rule="evenodd" d="M19 8.00006C21.2 8.00006 23.2 9.20006 24.3 11.1001C25 12.5001 25.2 14.2001 24.8 15.6001C24.3 17.2001 23.3 18.4001 21.9 19.2001C21.7 19.3001 21.6 19.3001 21.4 19.3001C21 19.3001 20.7 19.1001 20.5 18.8001C20.2 18.3001 20.4 17.7001 20.9 17.4001C21.8 16.9001 22.5 16.0001 22.8 15.0001C23.1 14.0001 23 12.9001 22.5 12.0001C21.8 10.7001 20.5 9.90006 19 9.90006H17.8C17.3 9.90006 16.9 9.60006 16.8 9.20006C15.9 5.50006 12 3.20006 8.29996 4.20006C6.49996 4.60006 4.89996 5.80006 3.99996 7.40006C2.99996 9.10006 2.69996 10.9001 3.19996 12.7001C3.39996 13.8001 3.99996 14.8001 4.69996 15.6001C5.09996 16.0001 4.99996 16.6001 4.59996 17.0001C4.19996 17.4001 3.59996 17.3001 3.19996 16.9001C2.19996 15.8001 1.59996 14.6001 1.19996 13.2001C0.59996 10.9001 0.89996 8.40006 2.19996 6.40006C3.49996 4.40006 5.39996 2.90006 7.79996 2.30006C12.3 1.10006 17 3.60006 18.5 8.00006H19ZM13.4 11.0999C13.5 11.0999 13.6 11.1999 13.7 11.2999L17.7 15.2999C18.1 15.6999 18.1 16.2999 17.7 16.6999C17.5 16.8999 17.2 16.9999 17 16.9999C16.8 16.9999 16.5 16.8999 16.3 16.6999L14 14.3999V20.9999C14 21.5999 13.6 21.9999 13 21.9999C12.4 21.9999 12 21.5999 12 20.9999V14.3999L9.69997 16.6999C9.29997 17.0999 8.69997 17.0999 8.29997 16.6999C7.89997 16.2999 7.89997 15.6999 8.29997 15.2999L12.3 11.2999C12.35 11.2499 12.4 11.2249 12.45 11.1999C12.5 11.1749 12.55 11.1499 12.6 11.0999C12.9 10.9999 13.2 10.9999 13.4 11.0999Z" fill="#464454"/>
</svg>
