<svg width="24" height="24" viewBox="0 0 24 24" fill="none" xmlns="http://www.w3.org/2000/svg">
<path fill-rule="evenodd" clip-rule="evenodd" d="M11 5.3999L7.7 8.6999C7.3 9.0999 6.7 9.0999 6.3 8.6999C5.9 8.2999 5.9 7.6999 6.3 7.2999L11.3 2.2999C11.35 2.2499 11.4 2.2249 11.45 2.1999C11.5 2.1749 11.55 2.1499 11.6 2.0999C11.9 1.9999 12.2 1.9999 12.4 2.0999C12.5 2.0999 12.6 2.1999 12.7 2.2999L17.7 7.2999C18.1 7.6999 18.1 8.2999 17.7 8.6999C17.5 8.8999 17.3 8.9999 17 8.9999C16.7 8.9999 16.5 8.8999 16.3 8.6999L13 5.3999V14.9999C13 15.5999 12.6 15.9999 12 15.9999C11.4 15.9999 11 15.5999 11 14.9999V5.3999ZM20 15C20 14.4 20.4 14 21 14C21.6 14 22 14.4 22 15V19C22 20.7 20.7 22 19 22H5C3.3 22 2 20.7 2 19V15C2 14.4 2.4 14 3 14C3.6 14 4 14.4 4 15V19C4 19.6 4.4 20 5 20H19C19.6 20 20 19.6 20 19V15Z" fill="#464454"/>
</svg>
