<svg width="24" height="24" viewBox="0 0 24 24" fill="none" xmlns="http://www.w3.org/2000/svg">
<path fill-rule="evenodd" clip-rule="evenodd" d="M16.5758 6.52261C16.5758 9.03518 14.5637 11.0452 12.0485 11.0452C9.53334 11.0452 7.52122 9.03518 7.52122 6.52261C7.52122 4.01005 9.53334 2 12.0485 2C14.5637 2 16.5758 4.01005 16.5758 6.52261ZM14.5637 6.52261C14.5637 5.11558 13.457 4.01005 12.0485 4.01005C10.64 4.01005 9.53334 5.11558 9.53334 6.52261C9.53334 7.92965 10.64 9.03518 12.0485 9.03518C13.457 9.03518 14.5637 7.92965 14.5637 6.52261ZM8.52728 12.5528H15.5697C18.0849 12.5528 20.097 14.5628 19.9964 17.0754V20.995C19.9964 21.598 19.594 22 18.9903 22C18.3867 22 17.9843 21.598 17.9843 20.995V17.0754C17.9843 15.6683 16.8776 14.5628 15.4691 14.5628H12.7527L13.3564 15.1658C13.5576 15.3668 13.5576 15.6683 13.3564 15.8693L12.5515 16.6734L13.7588 22H10.2376L11.4449 16.6734L10.64 15.8693C10.4388 15.6683 10.4388 15.3668 10.64 15.1658L11.2436 14.5628H8.52728C7.11879 14.5628 6.01212 15.6683 6.01212 17.0754V20.995C6.01212 21.598 5.6097 22 5.00606 22C4.40242 22 4 21.598 4 20.995V17.0754C4 14.5628 6.01212 12.5528 8.52728 12.5528Z" fill="#464454"/>
</svg>
