<svg width="24" height="24" viewBox="0 0 24 24" fill="none" xmlns="http://www.w3.org/2000/svg">
<path d="M14.49 10.8598C14.8249 10.3988 15.0258 9.85411 15.0705 9.28602C15.1152 8.71793 15.0019 8.14854 14.7432 7.64082C14.4844 7.13309 14.0904 6.7068 13.6045 6.40906C13.1186 6.11133 12.5598 5.95375 11.99 5.95375C11.4202 5.95375 10.8614 6.11133 10.3755 6.40906C9.88965 6.7068 9.49557 7.13309 9.23685 7.64082C8.97812 8.14854 8.86484 8.71793 8.90951 9.28602C8.95419 9.85411 9.15509 10.3988 9.49 10.8598C9.06518 11.1306 8.68696 11.4683 8.37 11.8598C8.28727 11.9668 8.22643 12.0891 8.19095 12.2197C8.15547 12.3502 8.14606 12.4865 8.16323 12.6206C8.18041 12.7548 8.22385 12.8843 8.29107 13.0017C8.35829 13.1191 8.44798 13.2221 8.555 13.3048C8.66203 13.3876 8.78431 13.4484 8.91485 13.4839C9.04539 13.5194 9.18164 13.5288 9.31582 13.5116C9.45 13.4944 9.57948 13.451 9.69687 13.3838C9.81427 13.3165 9.91727 13.2268 10 13.1198C10.2442 12.8094 10.5555 12.5582 10.9105 12.385C11.2655 12.2119 11.655 12.1212 12.05 12.1198C12.445 12.1212 12.8345 12.2119 13.1895 12.385C13.5445 12.5582 13.8558 12.8094 14.1 13.1198C14.1941 13.2358 14.313 13.3293 14.448 13.3933C14.583 13.4574 14.7306 13.4903 14.88 13.4898C15.0675 13.489 15.2509 13.4354 15.4094 13.3353C15.5679 13.2352 15.6951 13.0926 15.7764 12.9236C15.8577 12.7547 15.8899 12.5664 15.8694 12.38C15.8488 12.1937 15.7762 12.0169 15.66 11.8698C15.3288 11.4705 14.9334 11.1292 14.49 10.8598ZM12 10.1298C11.7862 10.1297 11.5771 10.0666 11.3988 9.94854C11.2205 9.83044 11.0809 9.66251 10.9974 9.46566C10.9138 9.26881 10.89 9.05173 10.9289 8.84146C10.9679 8.63118 11.0678 8.437 11.2162 8.28308C11.3647 8.12917 11.5552 8.02233 11.7639 7.97586C11.9726 7.9294 12.1904 7.94536 12.3902 8.02176C12.5899 8.09816 12.7627 8.23162 12.8872 8.40553C13.0116 8.57944 13.0822 8.78612 13.09 8.99982C13.0954 9.14629 13.0712 9.29234 13.0188 9.42924C12.9664 9.56614 12.887 9.69107 12.7852 9.79656C12.6835 9.90205 12.5615 9.98593 12.4266 10.0432C12.2917 10.1005 12.1466 10.1299 12 10.1298ZM20.46 9.62982C20.3196 8.16873 19.8032 6.7689 18.9612 5.56664C18.1191 4.36437 16.9801 3.40065 15.655 2.76931C14.3299 2.13798 12.8639 1.86054 11.3997 1.96402C9.93555 2.06751 8.52314 2.54838 7.3 3.35982C6.2492 4.06247 5.36706 4.98912 4.71695 6.07321C4.06684 7.1573 3.6649 8.37193 3.54 9.62982C3.41749 10.8795 3.57468 12.1407 4.00017 13.3221C4.42567 14.5035 5.1088 15.5753 6 16.4598L11.3 21.7698C11.393 21.8636 11.5036 21.9379 11.6254 21.9887C11.7473 22.0395 11.878 22.0656 12.01 22.0656C12.142 22.0656 12.2727 22.0395 12.3946 21.9887C12.5164 21.9379 12.627 21.8636 12.72 21.7698L18 16.4598C18.8912 15.5753 19.5743 14.5035 19.9998 13.3221C20.4253 12.1407 20.5825 10.8795 20.46 9.62982ZM16.6 15.0498L12 19.6498L7.4 15.0498C6.72209 14.3719 6.20281 13.5521 5.87947 12.6496C5.55614 11.747 5.43679 10.784 5.53 9.82982C5.62382 8.86092 5.93177 7.92498 6.43157 7.08966C6.93138 6.25435 7.61056 5.54053 8.42 4.99982C9.48095 4.29506 10.7263 3.91912 12 3.91912C13.2737 3.91912 14.5191 4.29506 15.58 4.99982C16.387 5.53844 17.0647 6.2491 17.5644 7.08076C18.064 7.91242 18.3733 8.84442 18.47 9.80982C18.5663 10.7672 18.4484 11.7341 18.125 12.6404C17.8016 13.5466 17.2807 14.3697 16.6 15.0498Z" fill="#464454"/>
</svg>
