<svg width="24" height="24" viewBox="0 0 24 24" fill="none" xmlns="http://www.w3.org/2000/svg">
<path d="M8.8 12.3C11.1 12.3 12.9 10.4 12.9 8.2C12.9 6 11.1 4 8.8 4C6.5 4 4.6 5.9 4.6 8.1C4.6 10.3 6.5 12.3 8.8 12.3ZM8.8 6C10 6 10.9 7 10.9 8.1C10.9 9.2 10 10.3 8.8 10.3C7.6 10.3 6.7 9.3 6.7 8.2C6.7 7.1 7.6 6 8.8 6ZM22 18V19C22 19.6 21.6 20 21 20C20.4 20 20 19.6 20 19V18C20 17.4 19.5 17 19 17H15C14.4 17 14 17.5 14 18V19C14 19.6 13.6 20 13 20C12.4 20 12 19.6 12 19V18C12 17.1 12.4 16.4 12.9 15.8C12.5 15.5 12 15.3 11.5 15.3H6.1C4.9 15.3 4 16.3 4 17.4V19C4 19.6 3.6 20 3 20C2.4 20 2 19.6 2 19V17.4C2 15.1 3.9 13.3 6.1 13.3H11.4C12.7 13.3 14 13.9 14.7 15H14.8H18.8C20.6 14.9 22 16.3 22 18ZM17 14.1C18.7 14.1 20 12.7 20 11.1C20 9.5 18.6 8.1 17 8.1C15.4 8.1 14 9.5 14 11.1C14 12.7 15.3 14.1 17 14.1ZM17 10C17.6 10 18 10.5 18 11C18 11.5 17.5 12 17 12C16.5 12 16 11.5 16 11C16 10.5 16.4 10 17 10Z" fill="#464454"/>
</svg>
