<svg width="21" height="20" viewBox="0 0 21 20" fill="none" xmlns="http://www.w3.org/2000/svg">
<path d="M19.9173 8.05051L18.2387 2.33725C17.9979 1.52214 17.2826 0.996264 16.5062 1.00002C16.3301 1.00002 16.1504 1.02631 15.9743 1.08266L13.5516 1.8602L13.5157 1.87147C13.1598 2.01045 12.9586 2.41613 13.0736 2.79927L16.1863 1.8001C16.2942 1.7663 16.402 1.74751 16.5098 1.74751C16.9771 1.74751 17.412 2.06304 17.5558 2.55511L17.8685 3.61813L9.13052 6.4203H5.62239L5.61161 6.38649C5.57926 6.2738 5.56129 6.16112 5.56129 6.04843C5.56129 5.56012 5.86322 5.10561 6.33408 4.95536L10.5 3.5L10.5359 3.48873C10.8918 3.34975 11.0931 2.94407 10.9781 2.56094L10.3239 2.77129L6.12201 4.23791C5.34203 4.48958 4.83882 5.23708 4.83882 6.04843C4.83882 6.17239 4.85319 6.29258 4.87835 6.41654H3.94381C3.2429 6.41654 2.67499 7.01003 2.67499 7.7425V10.3118H2.67858C2.68577 10.4395 2.72172 10.5597 2.78282 10.6649C1.78717 10.7437 1 11.6039 1 12.6632C1 13.6849 1.72966 14.5188 2.67499 14.6503V17.6703C2.67499 18.4028 3.2429 18.9962 3.94381 18.9962H9C9.38101 18.9737 9.68294 18.6469 9.68294 18.245H3.94741C3.64548 18.245 3.39746 17.9896 3.39746 17.6703V14.8493H3.39387C3.39387 14.7892 3.37949 14.7329 3.36511 14.6765H5.05088C6.11483 14.6765 6.97748 13.775 6.97748 12.6632C6.97748 11.5513 6.11483 10.6498 5.05088 10.6498H3.39746V7.7425C3.39746 7.42697 3.64188 7.16779 3.94741 7.16779H16.6824C16.9843 7.16779 17.2323 7.42322 17.2323 7.7425V17.674C17.2323 17.9896 16.9879 18.2487 16.6824 18.2487H12.8975C12.5164 18.2713 12.2145 18.5981 12.2145 19H16.6824C17.3833 19 17.9512 18.4065 17.9512 17.674V10.6611L18.3502 10.5334L18.7204 10.4132C19.5004 10.1615 20.0036 9.41403 20 8.60268C20 8.41863 19.9748 8.23081 19.9209 8.04676L19.9173 8.05051ZM6.2586 12.6707C6.2586 13.3694 5.71585 13.9328 5.05088 13.9328H2.93379C2.26523 13.9328 1.72607 13.3656 1.72607 12.6707C1.72607 11.972 2.26882 11.4086 2.93379 11.4086H5.05088C5.71944 11.4086 6.2586 11.9758 6.2586 12.6707ZM18.5047 9.69951L18.1345 9.81971C18.0662 9.84976 18.0015 9.88732 17.9476 9.92864V7.74626C17.9476 7.01379 17.3797 6.4203 16.6788 6.4203H11.5747L18.0734 4.33558L19.2308 8.26838C19.2631 8.38106 19.2811 8.49375 19.2811 8.60644C19.2811 9.09475 18.9792 9.54926 18.5083 9.69951H18.5047Z" fill="#464454" stroke="#464454" stroke-linejoin="round"/>
</svg>
