<svg width="24" height="24" viewBox="0 0 24 24" fill="none" xmlns="http://www.w3.org/2000/svg">
<g clip-path="url(#clip0_336_6772)">
<path fill-rule="evenodd" clip-rule="evenodd" d="M19.789 8.91608L20.3921 7.83916H20.8946C21.4976 7.83916 21.8996 7.44755 21.8996 6.86014C21.8996 6.27273 21.4976 5.88112 20.8946 5.88112H19.789C19.387 5.88112 19.0855 6.07692 18.8845 6.37063L18.181 7.64336L17.4775 6.37063C17.2765 6.07692 16.975 5.88112 16.573 5.88112H16.171C15.8694 5.29371 15.1659 5 14.4624 5H7.72874C6.52271 5 5.51769 5.78322 5.21618 6.86014L4.61317 9.30769C3.50764 9.5035 2.60312 10.2867 2.40211 11.4615L2.0001 14.007C1.8996 14.6923 2.1006 15.4755 2.60312 15.965C3.10563 16.5524 3.80915 16.8462 4.51266 16.8462H4.81417V18.021C4.81417 18.5105 5.21618 19 5.8192 19C6.42221 19 6.82422 18.6084 6.82422 18.021V16.8462H14.1609V18.021C14.1609 18.5105 14.5629 19 15.1659 19C15.7689 19 16.171 18.6084 16.171 18.021V16.8462H16.4725C16.6735 16.9441 16.975 17.0419 17.2764 17.1398L17.2765 17.1399V18.021C17.2765 18.6084 17.6785 19 18.2815 19C18.8845 19 19.2865 18.6084 19.2865 18.021V17.1399C20.7941 16.7483 22.0001 15.2797 22.0001 13.7133V12.1469C22.0001 10.6783 21.0956 9.5035 19.789 8.91608ZM7.12573 7.34965C7.22623 7.15385 7.42724 6.95804 7.72874 6.95804H14.4624H14.6634C14.7639 7.44755 15.1659 7.74126 15.6684 7.74126H16.0705L16.774 8.91608C16.573 9.01399 16.372 9.11189 16.171 9.30769H6.62322L7.12573 7.34965ZM4.61317 14.8881C4.41216 14.8881 4.21116 14.7902 4.21116 14.6923C4.11065 14.5944 4.01015 14.4965 4.01015 14.2028L4.41216 11.6573C4.41216 11.3636 4.71367 11.1678 5.01518 11.1678H14.8644C14.7639 11.4615 14.7639 11.7552 14.7639 12.1469V13.6154C14.7639 14.007 14.8644 14.4965 14.9649 14.8881H4.61317ZM19.9901 13.6154C19.9901 14.2028 19.6885 14.6923 19.186 14.986C18.985 14.5944 18.6835 14.3986 18.2815 14.3986C17.8795 14.3986 17.4775 14.6923 17.377 14.986C16.8745 14.6923 16.573 14.2028 16.573 13.6154V12.1469C16.573 11.2657 17.377 10.4825 18.2815 10.4825C19.186 10.4825 19.9901 11.2657 19.9901 12.1469V13.6154ZM5.31659 13.1259C5.31659 12.7343 5.7186 12.3427 6.12061 12.3427C6.52262 12.3427 6.92463 12.7343 6.92463 13.1259C6.92463 13.5175 6.52262 13.9091 6.12061 13.9091C5.6181 13.9091 5.31659 13.5175 5.31659 13.1259ZM8.9347 12.3427H13.0553C13.4573 12.3427 13.8593 12.5385 13.8593 13.028C13.8593 13.5175 13.4573 13.8112 13.0553 13.8112H8.9347C8.53269 13.8112 8.13068 13.6154 8.13068 13.1259C8.13068 12.6364 8.53269 12.3427 8.9347 12.3427ZM17.2764 13.028C17.2764 12.4406 17.6784 12.049 18.2814 12.049C18.8844 12.049 19.2864 12.4406 19.2864 13.028C19.2864 13.6154 18.8844 14.007 18.2814 14.007C17.6784 14.007 17.2764 13.6154 17.2764 13.028Z" fill="#464454"/>
</g>
<defs>
<clipPath id="clip0_336_6772">
<rect width="20" height="14" fill="white" transform="translate(2 5)"/>
</clipPath>
</defs>
</svg>
