<svg width="24" height="24" viewBox="0 0 24 24" fill="none" xmlns="http://www.w3.org/2000/svg">
<path fill-rule="evenodd" clip-rule="evenodd" d="M5.7 4.3L16.7 15.3L23.7 22.3C24.1 22.7 24.1 23.3 23.7 23.7C23.5 23.9 23.2 24 23 24C22.8 24 22.5 23.9 22.3 23.7L16.8 18.2C16.3 19.2 15.2 20 14 20H3C1.3 20 0 18.7 0 17V7C0 5.5 1.1 4.2 2.6 4L0.3 1.7C-0.1 1.3 -0.1 0.7 0.3 0.3C0.7 -0.1 1.3 -0.1 1.7 0.3L5.7 4.3ZM14 18C14.6 18 15 17.6 15 17V16.4L4.6 6H3C2.4 6 2 6.4 2 7V17C2 17.6 2.4 18 3 18H14ZM22.5 6.2C22.8 6 23.2 5.9 23.5 6.1C23.8 6.3 24 6.6 24 7V17C24 17.6 23.6 18 23 18C22.4 18 22 17.6 22 17V9L17.6 12.1C17.2 12.4 16.6 12.3 16.3 12L15.3 11C15.1 10.8 15 10.6 15 10.3V7C15 6.4 14.6 6 14 6H10.7C10.1 6 9.70001 5.6 9.70001 5C9.70001 4.4 10.1 4 10.7 4H14C15.7 4 17 5.3 17 7V9.9L17.1 10L22.5 6.2Z" fill="#464454"/>
</svg>
