<svg width="24" height="24" viewBox="0 0 24 24" fill="none" xmlns="http://www.w3.org/2000/svg">
<path d="M18.5 6C15.5 6 13 8.5 13 11.5C13 12.8 13.5 14 14.3 15H9.7C10.5 14 11 12.8 11 11.5C11 8.5 8.5 6 5.5 6C2.5 6 0 8.5 0 11.5C0 14.5 2.5 17 5.5 17H18.5C21.5 17 24 14.5 24 11.5C24 8.5 21.5 6 18.5 6ZM2 11.5C2 9.6 3.6 8 5.5 8C7.4 8 9 9.6 9 11.5C9 13.4 7.4 15 5.5 15C3.6 15 2 13.4 2 11.5ZM18.5 15C16.6 15 15 13.4 15 11.5C15 9.6 16.6 8 18.5 8C20.4 8 22 9.6 22 11.5C22 13.4 20.4 15 18.5 15Z" fill="#464454"/>
</svg>
