<svg width="24" height="24" viewBox="0 0 24 24" fill="none" xmlns="http://www.w3.org/2000/svg">
<path fill-rule="evenodd" clip-rule="evenodd" d="M10.3 4.20023C10.6 4.00023 11.1 3.90023 11.4 4.10023C11.8 4.30023 12 4.60023 11.9 5.00023V19.0002C11.9 19.4002 11.6 19.7002 11.3 19.9002C11.2 20.0002 11 20.0002 10.9 20.0002C10.7 20.0002 10.5 19.9002 10.3 19.8002L5.6 16.0002H2C1.4 16.0002 1 15.6002 1 15.0002V9.00023C1 8.40023 1.4 8.00023 2 8.00023H5.6L10.3 4.20023ZM6.6 14.2002L10 16.9002V7.10023L6.6 9.80023C6.4 9.90023 6.2 10.0002 6 10.0002H3V14.0002H6C6.2 14.0002 6.4 14.1002 6.6 14.2002ZM14.8 7.8C15.2 7.4 15.8 7.4 16.2 7.8C18.6 10.1 18.6 13.9 16.2 16.3C16 16.5 15.7 16.6 15.5 16.6C15.3 16.6 15 16.5 14.8 16.3C14.4 15.9 14.4 15.3 14.8 14.9C16.4 13.3 16.4 10.8 14.8 9.2C14.4 8.8 14.4 8.2 14.8 7.8Z" fill="#464454"/>
</svg>
