<svg width="24" height="24" viewBox="0 0 24 24" fill="none" xmlns="http://www.w3.org/2000/svg">
<path d="M11.4 4.10023C11.1 3.90023 10.6 4.00023 10.3 4.20023L5.6 8.00023H2C1.4 8.00023 1 8.40023 1 9.00023V15.0002C1 15.6002 1.4 16.0002 2 16.0002H5.6L10.3 19.8002C10.5 19.9002 10.7 20.0002 10.9 20.0002C11 20.0002 11.2 20.0002 11.3 19.9002C11.6 19.7002 11.9 19.4002 11.9 19.0002V5.00023C12 4.60023 11.8 4.30023 11.4 4.10023ZM10 16.9002L6.6 14.2002C6.4 14.1002 6.2 14.0002 6 14.0002H3V10.0002H6C6.2 10.0002 6.4 9.90023 6.6 9.80023L10 7.10023V16.9002Z" fill="#464454"/>
</svg>
