<svg width="24" height="24" viewBox="0 0 24 24" fill="none" xmlns="http://www.w3.org/2000/svg">
<path fill-rule="evenodd" clip-rule="evenodd" d="M19.8 4.1999C19.4 3.7999 18.8 3.7999 18.4 4.1999C18 4.5999 18 5.1999 18.4 5.5999C21.9 9.0999 21.9 14.7999 18.4 18.2999C18 18.6999 18 19.2999 18.4 19.6999C18.6 19.8999 18.9 19.9999 19.1 19.9999C19.3 19.9999 19.6 19.8999 19.8 19.6999C24.1 15.4999 24.1 8.4999 19.8 4.1999ZM11.4 4.09998C11.1 3.89998 10.6 3.99998 10.3 4.19998L5.6 7.99998H2C1.4 7.99998 1 8.39998 1 8.99998V15C1 15.6 1.4 16 2 16H5.6L10.3 19.8L10.3 19.8L10.3 19.8C10.5 19.9 10.7 20 10.9 20C11 20 11.2 20 11.3 19.9C11.6 19.7 11.9 19.4 11.9 19V4.99998C12 4.59998 11.8 4.29998 11.4 4.09998ZM10 16.9L6.6 14.2C6.4 14.1 6.2 14 6 14H3V9.99998H6C6.2 9.99998 6.4 9.89998 6.6 9.79998L10 7.09998V16.9ZM14.8 9.2C14.4 8.8 14.4 8.2 14.8 7.8C15.2 7.4 15.9 7.4 16.2 7.8C18.5 10.2 18.5 14 16.2 16.3C16 16.5 15.7 16.6 15.5 16.6C15.3 16.6 15 16.5 14.8 16.3C14.4 15.9 14.4 15.3 14.8 14.9C16.4 13.3 16.4 10.8 14.8 9.2Z" fill="#464454"/>
</svg>
