<svg width="24" height="24" viewBox="0 0 24 24" fill="none" xmlns="http://www.w3.org/2000/svg">
<path d="M16.4845 17.9799H14.5698V11.1457L15.5775 10.4422C17.0891 9.33668 17.593 7.32663 16.7868 5.71859C16.0814 4.41206 14.6705 3.60804 13.2597 3.60804H12.4535C12.2519 2.60302 11.4457 2 10.5388 2H7.5155C6.40698 2 5.5 2.90452 5.5 4.01005V5.01508C5.5 6.1206 6.40698 7.02513 7.5155 7.02513H10.5388C11.4457 7.02513 12.2519 6.42211 12.4535 5.51759H13.1589C13.8643 5.51759 14.5698 5.9196 14.9729 6.62312C15.376 7.32663 15.0736 8.23116 14.469 8.73367L12.5543 10.1407V17.9799H10.6395C9.53101 17.9799 8.62403 18.8844 8.62403 19.99V20.995C8.62403 21.598 9.02713 22 9.63178 22C10.2364 22 10.6395 21.598 10.6395 20.995V19.99H16.4845V20.995C16.4845 21.598 16.8876 22 17.4922 22C18.0969 22 18.5 21.598 18.5 20.995V19.99C18.5 18.8844 17.593 17.9799 16.4845 17.9799ZM10.5388 5.01508H7.5155V4.01005H10.5388V5.01508Z" fill="#464454"/>
</svg>
