<svg width="24" height="24" viewBox="0 0 24 24" fill="none" xmlns="http://www.w3.org/2000/svg">
<path fill-rule="evenodd" clip-rule="evenodd" d="M21 7.21002V9.00002C21.3082 9.17791 21.5633 9.43479 21.7391 9.74417C21.9149 10.0535 22.005 10.4042 22 10.76V14.34C21.9979 14.6891 21.9045 15.0314 21.7291 15.3332C21.5536 15.6349 21.3023 15.8855 21 16.06V17.9C20.9974 18.1784 20.94 18.4536 20.831 18.7098C20.7221 18.966 20.5637 19.1983 20.365 19.3933C20.1663 19.5883 19.9311 19.7422 19.6728 19.8463C19.4146 19.9504 19.1384 20.0027 18.86 20H4.11002C3.83209 20 3.5569 19.9451 3.30025 19.8385C3.04359 19.7318 2.81054 19.5755 2.61448 19.3785C2.41842 19.1815 2.26321 18.9477 2.15776 18.6906C2.05231 18.4334 1.99871 18.158 2.00002 17.88V6.15002C2.00002 5.86684 2.05596 5.58644 2.16463 5.32494C2.27331 5.06343 2.43257 4.82597 2.63328 4.6262C2.83398 4.42642 3.07218 4.26826 3.33418 4.1608C3.59619 4.05335 3.87684 3.99871 4.16002 4.00002H13.82C14.1958 4.00233 14.5642 4.10447 14.8875 4.296C15.2109 4.48753 15.4775 4.76156 15.66 5.09002H18.89C19.4505 5.09267 19.9872 5.31719 20.3826 5.71448C20.778 6.11177 21 6.64949 21 7.21002ZM16.1 14.12H20V10.89H16.1C15.6936 10.922 15.3143 11.1061 15.0376 11.4054C14.7609 11.7047 14.6072 12.0974 14.6072 12.505C14.6072 12.9127 14.7609 13.3053 15.0376 13.6047C15.3143 13.904 15.6936 14.088 16.1 14.12ZM4.15002 7.23002V17.85L18.84 17.87V16.32H16.1C15.135 16.2703 14.226 15.8519 13.5606 15.1513C12.8951 14.4507 12.5241 13.5213 12.5241 12.555C12.5241 11.5888 12.8951 10.6594 13.5606 9.95876C14.226 9.25814 15.135 8.83977 16.1 8.79002H18.84V7.23002H4.15002ZM16.62 11.4697H16.63C17.221 11.4697 17.7 11.9488 17.7 12.5397V12.5497C17.7 13.1407 17.221 13.6197 16.63 13.6197H16.62C16.0291 13.6197 15.55 13.1407 15.55 12.5497V12.5397C15.55 11.9488 16.0291 11.4697 16.62 11.4697Z" fill="#464454"/>
</svg>
