<svg width="24" height="24" viewBox="0 0 24 24" fill="none" xmlns="http://www.w3.org/2000/svg">
<path fill-rule="evenodd" clip-rule="evenodd" d="M17.5 6.2C19 7.7 20 9.7 20 12C20 14.3 19 16.4 17.4 17.9L17.1 21.3C16.9 22.8 15.7 24 14.1 24H9.8C8.3 24 7 22.8 6.8 21.3L6.5 17.8C5 16.4 4 14.3 4 12C4 9.7 5 7.6 6.5 6.2L6.8 2.7C7 1.2 8.3 0 9.8 0H14.2C15.8 0 17 1.2 17.2 2.7L17.5 6.2ZM9.8 2C9.3 2 8.8 2.4 8.8 2.9L8.7 4.7C9.7 4.3 10.8 4 12 4C13.2 4 14.3 4.3 15.4 4.7L15.2 2.9C15.2 2.4 14.7 2 14.2 2H9.8ZM12 6C8.7 6 6 8.7 6 12C6 15.3 8.7 18 12 18C15.3 18 18 15.3 18 12C18 8.7 15.3 6 12 6ZM14.2 22C14.7 22 15.2 21.6 15.2 21.1V19.3C14.2 19.7 13.1 20 11.9 20C10.7 20 9.6 19.8 8.6 19.3L8.8 21.1C8.9 21.6 9.3 22 9.8 22H14.2ZM13.5 14.5C13.3 14.5 13 14.4 12.8 14.2L11.3 12.7C11.1 12.5 11 12.3 11 12V9C11 8.4 11.4 8 12 8C12.6 8 13 8.4 13 9V11.6L14.2 12.8C14.6 13.2 14.6 13.8 14.2 14.2C14 14.4 13.7 14.5 13.5 14.5Z" fill="#464454"/>
</svg>
