<svg width="24" height="24" viewBox="0 0 24 24" fill="none" xmlns="http://www.w3.org/2000/svg">
<path fill-rule="evenodd" clip-rule="evenodd" d="M12 3C14.3929 3 16.6802 3.97137 18.3635 5.65265C20.0515 7.3385 21 9.62529 21 12.01C21 14.3947 20.0515 16.6815 18.3635 18.3673C16.6756 20.0531 14.3866 21 12 21C10.5587 20.9992 9.14072 20.6488 7.86817 19.9817L4.25814 20.9461C3.91272 21.0384 3.54431 20.9393 3.29187 20.6861C3.03943 20.4329 2.94137 20.0642 3.03468 19.7191L4.00987 16.1117C3.35427 14.8424 3.0099 13.4332 3.00818 12.0007C3.00628 10.426 3.4185 8.87853 4.20348 7.51308C4.98845 6.14763 6.11862 5.01217 7.48077 4.22021C8.84291 3.42825 10.4241 3.00751 12 3ZM12 5C10.7746 5.00624 9.54491 5.33357 8.48602 5.94922C7.42649 6.56524 6.54766 7.44829 5.93738 8.50987C5.32709 9.57144 5.00671 10.7744 5.00818 11.9983C5.00965 13.2223 5.33293 14.4244 5.94577 15.4845C6.07899 15.715 6.11483 15.989 6.04537 16.246L5.41816 18.5661L7.74191 17.9452C8.00037 17.8762 8.27573 17.9136 8.50642 18.0491C9.56551 18.671 10.7718 18.9993 12.0006 19C13.8573 18.9999 15.6377 18.2631 16.9502 16.9522C18.2628 15.6413 19 13.8635 19 12.01C19 10.1565 18.2628 8.37872 16.9502 7.06774C15.633 5.75219 13.8506 5 12 5Z" fill="#464454"/>
<path fill-rule="evenodd" clip-rule="evenodd" d="M9.54341 8.38001H9.90234L9.91868 8.3815C9.91868 8.3815 9.92207 8.38167 9.93444 8.38188L9.93795 8.38194C9.9507 8.38215 9.97367 8.38252 9.99768 8.3841C10.0551 8.3879 10.1383 8.39929 10.2291 8.4421C10.4172 8.53086 10.5362 8.70364 10.6221 8.91223L10.6227 8.91379L11.1169 10.1295C11.1634 10.2245 11.1877 10.329 11.1877 10.435C11.1877 10.5398 11.164 10.6431 11.1185 10.7372C11.0647 10.8734 10.9894 11.0001 10.8955 11.1126C10.8242 11.2017 10.7298 11.3158 10.6431 11.4067C10.8834 11.786 11.1788 12.1278 11.5197 12.4205L11.5279 12.4276C11.8963 12.763 12.3241 13.0267 12.7894 13.2048L12.8235 13.2178C12.9604 13.0618 13.1866 12.7955 13.2605 12.6813C13.352 12.5399 13.4902 12.4112 13.6958 12.3824C13.8586 12.3596 14.009 12.4127 14.0866 12.4401L14.0901 12.4414C14.2002 12.4802 14.4741 12.61 14.714 12.7263C14.9606 12.846 15.2119 12.9715 15.3066 13.0214C15.3228 13.0294 15.3408 13.0382 15.3598 13.0474C15.4209 13.0772 15.4926 13.1121 15.547 13.1447C15.6337 13.1967 15.7409 13.2777 15.8107 13.4173L15.8431 13.5116C15.914 13.8673 15.869 14.2364 15.7147 14.5646L15.706 14.5829L15.6955 14.6002C15.5417 14.8525 15.3372 15.07 15.095 15.2392C14.8528 15.4083 14.5781 15.5253 14.2883 15.5828L14.2754 15.5854C13.859 15.6529 13.4326 15.6251 13.0284 15.5044C12.6748 15.3996 12.3275 15.2746 11.9883 15.13L11.9777 15.1255L11.9674 15.1203C10.726 14.4987 9.66644 13.5668 8.8914 12.4151C8.45288 11.8501 8.18572 11.171 8.12183 10.4585L8.12064 10.4452L8.12039 10.4319C8.11451 10.1128 8.17525 9.79597 8.29874 9.50165C8.41907 9.21486 8.5964 8.95561 8.81988 8.73956C8.90503 8.63854 9.00916 8.55504 9.12646 8.49383C9.2521 8.42828 9.39009 8.38976 9.53152 8.38077L9.54341 8.38001Z" fill="#464454"/>
</svg>
