<svg width="24" height="24" viewBox="0 0 24 24" fill="none" xmlns="http://www.w3.org/2000/svg">
<path fill-rule="evenodd" clip-rule="evenodd" d="M0.699977 8.2C7.09998 2.6 16.8 2.6 23.2 8.2C23.7 8.6 23.7 9.2 23.3 9.7C22.9 10.1 22.3 10.2 21.9 9.8C16.3 4.8 7.79998 4.8 2.09998 9.8C1.89998 9.9 1.59998 10 1.39998 10C1.09998 10 0.899977 9.9 0.599977 9.6C0.199977 9.2 0.299977 8.6 0.699977 8.2ZM4.29999 13.1997C3.89999 12.7997 3.99999 12.1997 4.39999 11.7997C8.79999 8.09973 15.3 8.09973 19.8 11.8997C20.2 12.1997 20.3 12.8997 19.9 13.2997C19.6 13.6997 18.9 13.7997 18.5 13.3997C14.8 10.2997 9.39999 10.2997 5.69999 13.3997C5.59999 13.4997 5.29999 13.5997 5.09999 13.5997C4.79999 13.5997 4.49999 13.3997 4.29999 13.1997ZM7.99996 15.2999C7.49996 15.5999 7.39996 16.1999 7.79996 16.6999C8.09996 17.0999 8.69996 17.2999 9.19996 16.8999C10.9 15.6999 13.3 15.6999 15 16.8999L15 16.8999C15.2 16.9999 15.4 17.0999 15.6 17.0999C15.9 17.0999 16.2 16.9999 16.4 16.6999C16.7 16.1999 16.6 15.5999 16.2 15.2999C13.6 13.5999 10.4 13.5999 7.99996 15.2999ZM12.5 19.1499C12.525 19.1749 12.55 19.1999 12.6 19.1999C12.6 19.1999 12.7 19.1999 12.7 19.2999C12.9 19.4999 13 19.6999 13 19.9999C13 20.1171 12.9657 20.1999 12.9372 20.2685C12.9171 20.3171 12.9 20.3585 12.9 20.3999C12.9 20.4999 12.8 20.5999 12.7 20.6999C12.5 20.8999 12.3 20.9999 12 20.9999C11.7 20.9999 11.5 20.8999 11.3 20.6999C11.25 20.6499 11.225 20.5999 11.2 20.5499C11.175 20.4999 11.15 20.4499 11.1 20.3999C11 20.2999 11 20.0999 11 19.9999C11 19.6999 11.1 19.4999 11.3 19.2999C11.5 18.9999 11.9 18.8999 12.2 18.9999L12.2 18.9999C12.3 19.0999 12.3 19.0999 12.4 19.0999C12.45 19.0999 12.475 19.1249 12.5 19.1499Z" fill="#464454"/>
</svg>
