<svg width="25" height="24" viewBox="0 0 25 24" fill="none" xmlns="http://www.w3.org/2000/svg">
<path fill-rule="evenodd" clip-rule="evenodd" d="M6.8 5.4L23.7 22.3C24.1 22.7 24.1 23.3 23.8 23.7C23.6 23.9 23.3 24 23.1 24C22.9 24 22.6 23.9 22.4 23.7L15.8 17.1H15.6C15.4 17.1 15.2 17 15 16.9C13.3 15.7 10.9 15.7 9.2 16.9C8.7 17.3 8.1 17.1 7.8 16.7C7.4 16.2 7.5 15.6 8 15.3C9.3 14.3 11 13.9 12.6 14L9.8 11.2C8.3 11.6 6.8 12.3 5.6 13.3C5.5 13.4 5.2 13.5 5 13.5C4.7 13.5 4.4 13.3 4.2 13.1C3.8 12.7 3.9 12.1 4.3 11.7C5.5 10.8 6.8 10.1 8.2 9.6L5.9 7.3C4.5 7.9 3.2 8.7 2.1 9.7C1.9 9.9 1.6 10 1.4 10C1.1 10 0.9 9.9 0.7 9.7C0.3 9.3 0.4 8.7 0.8 8.3C1.9 7.3 3.1 6.5 4.4 5.8L0.3 1.7C-0.1 1.3 -0.1 0.7 0.3 0.3C0.7 -0.1 1.3 -0.1 1.7 0.3L6.8 5.4ZM16.3 11.9001C15.8 11.7001 15.6 11.1001 15.8 10.6001C16.1 10.1001 16.7 9.90008 17.2 10.1001C18.1 10.5001 18.9 11.1001 19.7 11.7001C20.1 12.0001 20.2 12.7001 19.8 13.1001C19.6 13.4001 19.3 13.5001 19 13.5001C18.8 13.5001 18.6 13.5001 18.4 13.3001C17.7 12.7001 17 12.3001 16.3 11.9001ZM10.8 6.00007C14.8 5.70007 18.9 7.00007 21.9 9.70007C22.1 9.90007 22.3 9.90007 22.6 9.90007C22.9 9.90007 23.2 9.80007 23.4 9.60007C23.8 9.20007 23.7 8.60007 23.3 8.20007C19.9 5.20007 15.3 3.60007 10.7 4.00007C10.1 4.00007 9.7 4.50007 9.8 5.10007C9.8 5.70007 10.2 6.10007 10.8 6.00007ZM12.5 19.1499C12.525 19.1749 12.55 19.1999 12.6 19.1999C12.6 19.1999 12.7 19.1999 12.7 19.2999C12.9 19.4999 13 19.6999 13 19.9999C13 20.1171 12.9657 20.1999 12.9373 20.2685C12.9172 20.3171 12.9 20.3585 12.9 20.3999C12.9 20.4999 12.8 20.5999 12.7 20.6999C12.5 20.8999 12.3 20.9999 12 20.9999C11.7 20.9999 11.5 20.8999 11.3 20.6999C11.25 20.6499 11.225 20.5999 11.2 20.5499C11.175 20.4999 11.15 20.4499 11.1 20.3999C11 20.2999 11 20.0999 11 19.9999C11 19.6999 11.1 19.4999 11.3 19.2999C11.5 18.9999 11.9 18.8999 12.2 18.9999C12.2575 19.0574 12.2819 19.0818 12.3113 19.0922C12.3331 19.0999 12.3575 19.0999 12.4 19.0999C12.45 19.0999 12.475 19.1249 12.5 19.1499Z" fill="#464454"/>
</svg>
