<svg width="24" height="24" viewBox="0 0 24 24" fill="none" xmlns="http://www.w3.org/2000/svg">
<path fill-rule="evenodd" clip-rule="evenodd" d="M2 9H11C11.8 9 12.6 8.7 13.1 8.1C14.3 6.9 14.3 5 13.1 3.9C12.6 3.3 11.8 3 11 3C10.2 3 9.4 3.3 8.9 3.9C8.5 4.3 8.5 4.9 8.9 5.3C9.3 5.7 9.9 5.7 10.3 5.3C10.5 5.1 10.7 5 11 5C11.3 5 11.5 5.1 11.7 5.3C12.1 5.7 12.1 6.3 11.7 6.7C11.5 6.9 11.3 7 11 7H2C1.4 7 1 7.4 1 8C1 8.6 1.4 9 2 9ZM22 7.0002C20.6 5.6002 18.4 5.6002 17.1 7.0002C16.7 7.4002 16.7 8.00019 17.1 8.4002C17.5 8.80019 18.1 8.80019 18.5 8.4002C19.1 7.80019 20 7.80019 20.6 8.4002C21.2 9.0002 21.2 9.9002 20.6 10.5002C20.3 10.8002 19.9 10.9002 19.5 10.9002H2C1.4 10.9002 1 11.3002 1 11.9002C1 12.5002 1.4 12.9002 2 12.9002H19.5C20.4 12.9002 21.3 12.5002 22 11.9002C23.3 10.6002 23.3 8.4002 22 7.0002ZM2 15H14C14.8 15 15.6 15.3 16.1 15.9C16.7 16.4 17 17.2 17 18C17 18.8 16.7 19.5 16.1 20.1C15.5 20.7 14.8 21 14 21C13.2 21 12.5 20.7 11.9 20.1C11.5 19.7 11.5 19.1 11.9 18.7C12.3 18.3 12.9 18.3 13.3 18.7C13.5 18.9 13.7 19 14 19C14.3 19 14.5 18.9 14.7 18.7C14.9 18.5 15 18.3 15 18C15 17.7 14.9 17.5 14.7 17.3C14.5 17.1 14.3 17 14 17H2C1.4 17 1 16.6 1 16C1 15.4 1.4 15 2 15Z" fill="#464454"/>
</svg>
