<svg width="24" height="24" viewBox="0 0 24 24" fill="none" xmlns="http://www.w3.org/2000/svg">
<path d="M3 4.80874V19.1343C3 19.1913 3.03922 19.2401 3.09412 19.2482L13.0152 20.9972C13.0858 21.0135 13.1486 20.9565 13.1486 20.8833V3.11668C13.1486 3.04347 13.0858 2.98653 13.0152 3.0028L3.09412 4.69486C3.03922 4.70299 3 4.7518 3 4.80874Z" stroke="#464454" stroke-width="1.7" stroke-miterlimit="10"/>
<path d="M13.2898 18.5568L20.8894 18.5324C20.9522 18.5324 20.9992 18.4755 20.9992 18.4104V4.72749C20.9992 4.66241 20.9443 4.60547 20.8816 4.60547L13.1407 4.62987" stroke="#464454" stroke-width="1.7" stroke-miterlimit="10"/>
<path d="M20.3907 8.53027H14.2028" stroke="#464454" stroke-width="1.7" stroke-miterlimit="10" stroke-linecap="round" stroke-linejoin="round"/>
<path d="M20.3907 11.5571H14.2028" stroke="#464454" stroke-width="1.7" stroke-miterlimit="10" stroke-linecap="round" stroke-linejoin="round"/>
<path d="M20.3907 14.5835H14.2028" stroke="#464454" stroke-width="1.7" stroke-miterlimit="10" stroke-linecap="round" stroke-linejoin="round"/>
<path d="M4.51355 8.68103L6.0429 14.3348L7.68203 8.68103L10.0113 15.254L11.5956 7.93262" stroke="#464454" stroke-width="1.7" stroke-miterlimit="10" stroke-linecap="round" stroke-linejoin="round"/>
</svg>
