<svg width="24" height="24" viewBox="0 0 24 24" fill="none" xmlns="http://www.w3.org/2000/svg">
<path fill-rule="evenodd" clip-rule="evenodd" d="M5 2H19C20.7 2 22 3.3 22 5V19C22 20.7 20.7 22 19 22H5C3.3 22 2 20.7 2 19V5C2 3.3 3.3 2 5 2ZM19 20C19.6 20 20 19.6 20 19V5C20 4.4 19.6 4 19 4H5C4.4 4 4 4.4 4 5V19C4 19.6 4.4 20 5 20H19ZM14.3 8.3C14.7 7.9 15.3 7.9 15.7 8.3C16.1 8.7 16.1 9.3 15.7 9.7L13.4 12L15.7 14.3C16.1 14.7 16.1 15.3 15.7 15.7C15.5 15.9 15.2 16 15 16C14.8 16 14.5 15.9 14.3 15.7L12 13.4L9.7 15.7C9.5 15.9 9.3 16 9 16C8.7 16 8.5 15.9 8.3 15.7C7.9 15.3 7.9 14.7 8.3 14.3L10.6 12L8.3 9.7C7.9 9.3 7.9 8.7 8.3 8.3C8.7 7.9 9.3 7.9 9.7 8.3L12 10.6L14.3 8.3Z" fill="#464454"/>
</svg>
