<svg width="24" height="24" viewBox="0 0 24 24" fill="none" xmlns="http://www.w3.org/2000/svg">
<path fill-rule="evenodd" clip-rule="evenodd" d="M1.7 0.3L23.7 22.3C24.1 22.7 24.1 23.3 23.7 23.6C23.5 23.8 23.2 23.9 23 23.9C22.8 23.9 22.5 23.8 22.3 23.6L16.1 17.4L11.8 22.6C11.6 22.9 11.3 23 11 23C10.9 23 10.7 23 10.6 22.9C10.2 22.8 9.9 22.3 10 21.9L10.9 15H3C2.6 15 2.3 14.8 2.2 14.5C2 14.1 2.1 13.7 2.3 13.4L6.7 8.1L0.3 1.7C-0.1 1.3 -0.1 0.7 0.3 0.3C0.7 -0.1 1.3 -0.1 1.7 0.3ZM8 9.5L5.1 13H11.5L8 9.5ZM12.9 14.3L12.4 18.7L14.6 16L12.9 14.3ZM11.3 5.6L11.5 5.3L11.3 6.7C11.2 7.2 11.6 7.7 12.2 7.8H12.3C12.8 7.8 13.2 7.4 13.3 6.9L14 2.1C14.1 1.7 13.8 1.2 13.4 1.1C13 0.9 12.5 1 12.2 1.4L9.8 4.3C9.4 4.7 9.5 5.3 9.9 5.7C10.4 6 11 6 11.3 5.6ZM15.7 11H18.9L17.8 12.3C17.4 12.7 17.5 13.4 17.9 13.7C18.1 13.9 18.3 13.9 18.5 13.9C18.8 13.9 19.1 13.8 19.3 13.5L21.7 10.6C21.9 10.3 22 9.9 21.8 9.5C21.7 9.2 21.4 9 21 9H15.7C15.1 9 14.7 9.4 14.7 10C14.7 10.6 15.1 11 15.7 11Z" fill="#464454"/>
</svg>
