<svg width="24" height="24" viewBox="0 0 24 24" fill="none" xmlns="http://www.w3.org/2000/svg">
<path d="M21.9 9.6C21.7 9.2 21.4 9 21 9H13.1L14 2.1C14.1 1.7 13.8 1.2 13.4 1.1C13 0.9 12.5 1 12.2 1.4L2.19998 13.4C1.99998 13.7 1.89998 14.1 2.09998 14.5C2.29998 14.8 2.59998 15 2.99998 15H10.9L9.99998 21.9C9.89998 22.3 10.2 22.8 10.6 22.9C10.7 23 10.9 23 11 23C11.3 23 11.6 22.9 11.8 22.6L21.8 10.6C22 10.3 22.1 9.9 21.9 9.6ZM12.4 18.7L13 14.1C13 13.8 12.9 13.5 12.8 13.3C12.6 13.1 12.3 13 12 13H5.09998L11.5 5.3L11 9.9C11 10.2 11.1 10.5 11.2 10.7C11.4 10.9 11.7 11 11.9 11H18.8L12.4 18.7Z" fill="#464454"/>
</svg>
