<svg width="24" height="24" viewBox="0 0 24 24" fill="none" xmlns="http://www.w3.org/2000/svg">
<path fill-rule="evenodd" clip-rule="evenodd" d="M18 16.6L21.7 20.3C22.1 20.7 22.1 21.3 21.7 21.7C21.5 21.9 21.2 22 21 22C20.8 22 20.5 21.9 20.3 21.7L16.6 18C15.1 19.3 13.1 20 11 20C6 20 2 16 2 11C2 6 6 2 11 2C16 2 20 6 20 11C20 13.1 19.2 15.1 18 16.6ZM11 4C7.1 4 4 7.1 4 11C4 14.9 7.1 18 11.1 17.9C13 17.9 14.7 17.2 16 15.9C17.2 14.7 18 12.9 18 11C18 7.1 14.9 4 11 4ZM12 10H14C14.6 10 15 10.4 15 11C15 11.6 14.6 12 14 12H12V14C12 14.6 11.6 15 11 15C10.4 15 10 14.6 10 14V12H8C7.4 12 7 11.6 7 11C7 10.4 7.4 10 8 10H10V8C10 7.4 10.4 7 11 7C11.6 7 12 7.4 12 8V10Z" fill="#464454"/>
</svg>
