<svg width="24" height="24" viewBox="0 0 24 24" fill="none" xmlns="http://www.w3.org/2000/svg">
<path d="M21.2943 9.61485C21.2289 9.54922 21.1429 9.51468 21.05 9.51468H19.2847V7.43523L14.8665 3H7.34095C6.56673 3 5.9439 3.62867 5.9439 4.40242V6.58549C5.96111 6.95164 6.26048 7.2418 6.62866 7.2418V4.40242C6.62866 4.00864 6.94524 3.69085 7.33751 3.69085H14.3744V6.51986C14.3744 7.29706 15.0007 7.92228 15.7714 7.92228H18.5896V9.51123H14.5533C14.4639 9.51123 14.3744 9.54922 14.309 9.6114C14.2436 9.67703 14.2092 9.76338 14.2092 9.85665V18.3264C14.2092 18.4162 14.2471 18.506 14.309 18.5717C14.3744 18.6373 14.4604 18.6718 14.5533 18.6718H18.5896V19.2211C18.5896 19.6149 18.2731 19.9326 17.8808 19.9326H11.4495C11.5631 19.7185 11.6422 19.4801 11.6732 19.2245C11.6835 19.1416 11.6904 19.0553 11.6904 18.9724C11.6904 17.9637 10.9437 17.0933 9.92172 16.9655C9.83913 16.9551 9.75311 16.9482 9.67052 16.9482C9.32642 16.9482 9.00296 17.0415 8.71392 17.2003C8.55907 16.9102 8.25971 16.7098 7.90872 16.7098H6.62866V13.1174C6.61146 12.7513 6.31209 12.4611 5.9439 12.4611V16.7098H5.21096C4.70514 16.7098 4.29565 17.1209 4.29565 17.6287V18.0915C4.29565 18.3092 4.3748 18.5095 4.50212 18.6649C4.3748 18.8238 4.29565 19.0207 4.29565 19.2383V19.7012C4.29565 20.209 4.70514 20.62 5.21096 20.62H7.91216C8.07389 20.62 8.22874 20.5751 8.35949 20.4991C8.65198 20.7547 9.01329 20.9309 9.42621 20.9827C9.50879 20.9931 9.59482 21 9.6774 21C10.1041 21 10.5032 20.8584 10.8336 20.6235H17.8842C18.6585 20.6235 19.2813 19.9948 19.2813 19.2211V18.6718H21.0465C21.136 18.6718 21.2255 18.6339 21.2908 18.5717C21.3562 18.506 21.3906 18.4197 21.3906 18.3264V13.8912C21.0224 13.8912 20.7231 14.1813 20.7059 14.5475V17.981H14.9043V10.2021H20.7059V12.582V13.2383C21.0741 13.2383 21.3734 12.9482 21.3906 12.582V9.85665C21.3906 9.76684 21.3562 9.67703 21.2908 9.6114L21.2943 9.61485ZM15.0695 6.51986V4.17789L18.1113 7.23143H15.7783C15.3861 7.23143 15.0695 6.91364 15.0695 6.51986ZM4.98386 17.6321C4.98386 17.5043 5.08709 17.4041 5.21096 17.4041H7.91216C8.03948 17.4041 8.13927 17.5078 8.13927 17.6321V17.6736C7.98098 17.8636 7.85367 18.0812 7.77108 18.323H5.21096C5.08365 18.323 4.98386 18.2193 4.98386 18.095V17.6321ZM4.98386 19.7081V19.2453C4.98386 19.1174 5.08709 19.0173 5.21096 19.0173H7.66441C7.67129 19.3489 7.75732 19.6598 7.90872 19.9396H5.21441C5.08709 19.9396 4.9873 19.8359 4.9873 19.7116L4.98386 19.7081ZM9.68085 20.3126C9.62579 20.3126 9.57073 20.3126 9.51568 20.3022C8.84124 20.2193 8.34917 19.6425 8.34917 18.9793C8.34917 18.924 8.34917 18.8687 8.35949 18.8135C8.44208 18.1399 9.01673 17.6425 9.6774 17.6425C9.73246 17.6425 9.78752 17.6425 9.84257 17.6529C10.5136 17.7358 11.0091 18.3126 11.0091 18.9758C11.0091 19.0311 11.0091 19.0864 10.9988 19.1416C10.9162 19.8187 10.3415 20.3126 9.68085 20.3126Z" fill="#F9423A"/>
<path d="M9.18608 14.2366C9.21361 14.2643 9.25146 14.2885 9.28587 14.3057L11.409 15.2695C11.5397 15.3282 11.6911 15.3005 11.7944 15.2004C11.8942 15.1002 11.9251 14.9448 11.8632 14.8135L10.9031 12.6822C10.8859 12.6442 10.8619 12.6097 10.8343 12.5821L4.59232 6.31609C4.36522 6.08811 4.06585 5.97412 3.76648 5.97412C3.47055 5.97412 3.16774 6.08811 2.94064 6.31609C2.71353 6.54407 2.59998 6.84459 2.59998 7.14511C2.59998 7.44217 2.71353 7.74614 2.94064 7.97412L9.18264 14.2401L9.18608 14.2366ZM10.8653 14.2643L9.62997 13.7012L5.19106 9.24528L5.86894 8.5648L10.3079 13.0208L10.8687 14.2608L10.8653 14.2643ZM3.29162 7.14165C3.29162 7.0173 3.33635 6.8964 3.4327 6.80314C3.52561 6.70987 3.64604 6.66151 3.76992 6.66151C3.8938 6.66151 4.01423 6.70642 4.10714 6.80314L5.38032 8.0812L4.70244 8.76169L3.42926 7.48362C3.33635 7.39036 3.28818 7.26946 3.28818 7.14511L3.29162 7.14165Z" fill="#F9423A"/>
<path d="M16.7527 13.4835C16.6873 13.4178 16.6013 13.3833 16.5084 13.3833C16.4155 13.3833 16.3295 13.4213 16.2641 13.4835C16.1987 13.5491 16.1643 13.6355 16.1643 13.7287C16.1643 13.822 16.2022 13.9083 16.2641 13.974C16.3295 14.0396 16.4155 14.0741 16.5084 14.0741C16.6013 14.0741 16.6873 14.0362 16.7527 13.974C16.8181 13.9083 16.8525 13.822 16.8525 13.7287C16.8525 13.6355 16.8147 13.5491 16.7527 13.4835Z" fill="#F9423A"/>
<path d="M18.0501 13.4835C17.9847 13.4178 17.8987 13.3833 17.8058 13.3833C17.7129 13.3833 17.6268 13.4213 17.5615 13.4835C17.4961 13.5491 17.4617 13.6355 17.4617 13.7287C17.4617 13.822 17.4995 13.9083 17.5615 13.974C17.6268 14.0396 17.7129 14.0741 17.8058 14.0741C17.8987 14.0741 17.9847 14.0362 18.0501 13.974C18.1155 13.9083 18.1499 13.822 18.1499 13.7287C18.1499 13.6355 18.112 13.5491 18.0501 13.4835Z" fill="#F9423A"/>
<path d="M19.347 13.4835C19.2816 13.4178 19.1956 13.3833 19.1026 13.3833C19.0097 13.3833 18.9237 13.4213 18.8583 13.4835C18.793 13.5491 18.7585 13.6355 18.7585 13.7287C18.7585 13.822 18.7964 13.9083 18.8583 13.974C18.9237 14.0396 19.0097 14.0741 19.1026 14.0741C19.1956 14.0741 19.2816 14.0362 19.347 13.974C19.4123 13.9083 19.4467 13.822 19.4467 13.7287C19.4467 13.6355 19.4089 13.5491 19.347 13.4835Z" fill="#F9423A"/>
<path d="M16.7527 14.8375C16.6873 14.7718 16.6013 14.7373 16.5084 14.7373C16.4155 14.7373 16.3295 14.7753 16.2641 14.8375C16.1987 14.9031 16.1643 14.9895 16.1643 15.0827C16.1643 15.176 16.2022 15.2623 16.2641 15.328C16.3295 15.3936 16.4155 15.4282 16.5084 15.4282C16.6013 15.4282 16.6873 15.3902 16.7527 15.328C16.8181 15.2623 16.8525 15.176 16.8525 15.0827C16.8525 14.9895 16.8147 14.9031 16.7527 14.8375Z" fill="#F9423A"/>
<path d="M18.0501 14.8375C17.9847 14.7718 17.8987 14.7373 17.8058 14.7373C17.7129 14.7373 17.6268 14.7753 17.5615 14.8375C17.4961 14.9031 17.4617 14.9895 17.4617 15.0827C17.4617 15.176 17.4995 15.2623 17.5615 15.328C17.6268 15.3936 17.7129 15.4282 17.8058 15.4282C17.8987 15.4282 17.9847 15.3902 18.0501 15.328C18.1155 15.2623 18.1499 15.176 18.1499 15.0827C18.1499 14.9895 18.112 14.9031 18.0501 14.8375Z" fill="#F9423A"/>
<path d="M19.347 14.8375C19.2816 14.7718 19.1956 14.7373 19.1026 14.7373C19.0097 14.7373 18.9237 14.7753 18.8583 14.8375C18.793 14.9031 18.7585 14.9895 18.7585 15.0827C18.7585 15.176 18.7964 15.2623 18.8583 15.328C18.9237 15.3936 19.0097 15.4282 19.1026 15.4282C19.1956 15.4282 19.2816 15.3902 19.347 15.328C19.4123 15.2623 19.4467 15.176 19.4467 15.0827C19.4467 14.9895 19.4089 14.9031 19.347 14.8375Z" fill="#F9423A"/>
<path d="M16.5084 16.0913C16.4189 16.0913 16.3295 16.1293 16.2641 16.1915C16.1987 16.2571 16.1643 16.3435 16.1643 16.4367C16.1643 16.53 16.2022 16.6164 16.2641 16.682C16.3295 16.7476 16.4155 16.7822 16.5084 16.7822C16.6013 16.7822 16.6873 16.7442 16.7527 16.682C16.8181 16.6164 16.8525 16.53 16.8525 16.4367C16.8525 16.3435 16.8147 16.2571 16.7527 16.1915C16.6873 16.1259 16.6013 16.0913 16.5084 16.0913Z" fill="#F9423A"/>
<path d="M17.8058 16.0913C17.7163 16.0913 17.6268 16.1293 17.5615 16.1915C17.4961 16.2571 17.4617 16.3435 17.4617 16.4367C17.4617 16.53 17.4995 16.6164 17.5615 16.682C17.6268 16.7476 17.7129 16.7822 17.8058 16.7822C17.8987 16.7822 17.9847 16.7442 18.0501 16.682C18.1155 16.6164 18.1499 16.53 18.1499 16.4367C18.1499 16.3435 18.112 16.2571 18.0501 16.1915C17.9847 16.1259 17.8987 16.0913 17.8058 16.0913Z" fill="#F9423A"/>
<path d="M19.1026 16.0913C19.0132 16.0913 18.9237 16.1293 18.8583 16.1915C18.793 16.2571 18.7585 16.3435 18.7585 16.4367C18.7585 16.53 18.7964 16.6164 18.8583 16.682C18.9237 16.7476 19.0097 16.7822 19.1026 16.7822C19.1956 16.7822 19.2816 16.7442 19.347 16.682C19.4123 16.6164 19.4467 16.53 19.4467 16.4367C19.4467 16.3435 19.4089 16.2571 19.347 16.1915C19.2816 16.1259 19.1956 16.0913 19.1026 16.0913Z" fill="#F9423A"/>
<path d="M10.8654 9.11078C10.7484 9.15223 10.6383 9.1695 10.5316 9.1695C10.3355 9.1695 10.1497 9.11078 9.97075 8.99679C9.79182 8.88625 9.62665 8.72045 9.48901 8.52356L8.92468 8.9208C9.10706 9.18332 9.33416 9.41475 9.606 9.58401C9.80558 9.70836 10.0292 9.80163 10.2736 9.83962V10.4959H10.9618V9.80163C11.0031 9.79126 11.0478 9.78435 11.0891 9.77054C11.354 9.67727 11.5984 9.51493 11.791 9.30076C11.9803 9.0866 12.1248 8.80681 12.1248 8.48211C12.1248 8.28522 12.0663 8.07796 11.9459 7.89144C11.7979 7.66691 11.588 7.52529 11.3816 7.42857C11.1717 7.33531 10.9618 7.28349 10.7725 7.2524C10.5385 7.21441 10.3045 7.17986 10.1462 7.11423C10.0671 7.07969 10.0052 7.04169 9.96387 7.00024C9.92258 6.95879 9.89161 6.91389 9.86752 6.8379C9.8572 6.80335 9.85032 6.75499 9.85032 6.70663C9.85032 6.58228 9.89849 6.44411 9.95699 6.37848C10.1187 6.18505 10.3665 6.08833 10.6486 6.08487C10.8413 6.08487 11.0443 6.13323 11.213 6.22304C11.385 6.31285 11.5227 6.4372 11.6087 6.58574L12.204 6.24031C12.0422 5.96052 11.8014 5.74981 11.5295 5.60819C11.3609 5.52183 11.182 5.46311 10.9996 5.42857V4.65137H10.3114V5.42511C9.98107 5.48729 9.6645 5.64964 9.43051 5.93289C9.2447 6.15741 9.16555 6.43375 9.16211 6.70663C9.16211 6.81717 9.17588 6.92771 9.21029 7.03824C9.26534 7.22132 9.36513 7.38021 9.48557 7.49765C9.67138 7.67727 9.88817 7.76708 10.0946 7.82235C10.3011 7.88107 10.5007 7.90525 10.6658 7.93289C10.8138 7.95707 10.9721 7.99852 11.0994 8.05724C11.2302 8.11596 11.3196 8.1885 11.3678 8.26449C11.4194 8.34739 11.4366 8.41303 11.4366 8.47866C11.4366 8.58574 11.385 8.717 11.2749 8.8379C11.1682 8.95879 11.0099 9.06588 10.8654 9.11423V9.11078Z" fill="#F9423A"/>
<path d="M19.7534 11.4697H15.8582V12.1606H19.7534V11.4697Z" fill="#F9423A"/>
</svg>
