<svg width="24" height="24" viewBox="0 0 24 24" fill="none" xmlns="http://www.w3.org/2000/svg">
<path d="M16.334 17.1486H14.6026V16.7149C14.6026 16.0731 14.1653 15.5371 13.5765 15.3714V15.0575C13.5765 14.3099 13.0546 13.6858 12.3528 13.5271V8.18123L14.3487 5.02167H17.3214L15.6781 10.7272L15.4842 11.4043C15.8474 11.5101 16.2318 11.2879 16.3516 10.9353L17.7904 5.94203L19.2362 10.9564C19.3561 11.3091 19.7334 11.5101 20.0966 11.4043L19.9097 10.759L18.1254 4.5703C18.0831 4.41867 17.9455 4.31641 17.7869 4.31641H6.21001C6.05133 4.31641 5.9138 4.41867 5.87148 4.5703L4.09776 10.7272L3.90381 11.4043C4.26702 11.5101 4.65138 11.2879 4.77128 10.9353L6.21001 5.94203L7.65579 10.9564C7.77569 11.3091 8.153 11.5101 8.51621 11.4043L8.32932 10.759L6.67548 5.01814H9.64815L11.6476 8.17771V13.5236C10.9494 13.6858 10.4239 14.3064 10.4239 15.054V15.3678C9.83505 15.53 9.39778 16.066 9.39778 16.7078V17.1416H7.66637C6.76364 17.1416 6.03369 17.8715 6.03369 18.7742V19.3279C6.03369 19.4196 6.07248 19.5112 6.13596 19.5782C6.20296 19.6452 6.29111 19.6805 6.38632 19.6805H13.7739C14.1477 19.6593 14.4439 19.3526 14.4439 18.9752H6.73895V18.7742C6.73895 18.2629 7.15506 17.8468 7.66637 17.8468H16.334C16.8453 17.8468 17.2614 18.2629 17.2614 18.7742V18.9752H15.7275C15.3537 18.9964 15.0575 19.3032 15.0575 19.6805H17.6141C17.7057 19.6805 17.7974 19.6417 17.8644 19.5782C17.9314 19.5112 17.9667 19.4231 17.9667 19.3279V18.7742C17.9667 17.8715 17.2368 17.1416 16.334 17.1416V17.1486ZM13.5165 5.01814L12.0002 7.41602L10.4839 5.01814H13.5165ZM11.1292 15.0575C11.1292 14.5779 11.5171 14.19 12.0002 14.1865C12.4798 14.1865 12.8677 14.5744 12.8712 15.0575V15.3149H11.1327V15.0575H11.1292ZM10.103 16.7149C10.103 16.334 10.4134 16.0237 10.7977 16.0202H13.2027C13.5835 16.0202 13.8938 16.3305 13.8973 16.7149V17.1486H10.1066V16.7149H10.103Z" fill="#F9423A"/>
<path d="M6.20974 14.6557C7.47568 14.6557 8.51947 13.7177 8.69225 12.5012H9.5562V11.7959H2.83154V12.5012H3.73075C3.90354 13.7177 4.94732 14.6557 6.21327 14.6557H6.20974ZM6.20974 13.9505C5.709 13.9505 5.26116 13.7495 4.93322 13.4215C4.68638 13.1747 4.51006 12.8538 4.43954 12.4976H7.97642C7.90589 12.8538 7.7331 13.1712 7.48273 13.4215C7.15479 13.7495 6.70695 13.9505 6.20621 13.9505H6.20974Z" fill="#F9423A"/>
<path d="M21.1685 11.792H14.4438V12.4973H15.3078C15.4806 13.7138 16.5244 14.6518 17.7903 14.6518C19.0562 14.6518 20.1 13.7138 20.2728 12.4973H21.172V11.792H21.1685ZM17.7903 13.9466C17.2896 13.9466 16.8417 13.7456 16.5138 13.4176C16.2669 13.1708 16.0906 12.8499 16.0201 12.4937H19.557C19.4865 12.8499 19.3137 13.1672 19.0633 13.4176C18.7354 13.7456 18.2875 13.9466 17.7868 13.9466H17.7903Z" fill="#F9423A"/>
</svg>
