<svg width="24" height="24" viewBox="0 0 24 24" fill="none" xmlns="http://www.w3.org/2000/svg">
<path d="M19.3558 13.0791C19.4475 13.0791 19.5392 13.0403 19.6062 12.9768C19.6732 12.9098 19.7084 12.8216 19.7084 12.7264V10.8892V9.40464H20.6676C20.8192 9.40464 20.9567 9.30591 21.0026 9.16133C21.0484 9.01675 20.9955 8.85454 20.8721 8.76638L17.4128 6.2874L17.3846 6.26624C17.0708 6.06876 16.6511 6.14282 16.4325 6.44961L16.9755 6.84102L19.5709 8.70291H4.42897L11.9999 3.27241L15.1419 5.52571L15.1701 5.54687C15.4839 5.74434 15.9036 5.67029 16.1222 5.3635L15.5791 4.97209L12.2009 2.54952C12.0775 2.46136 11.9118 2.46136 11.7884 2.54952L3.12776 8.76286C3.00434 8.85102 2.95145 9.0097 2.99729 9.1578C3.04313 9.30238 3.18066 9.40112 3.33229 9.40112H4.29144V10.8857V12.7229C4.29144 12.8146 4.33023 12.9063 4.39371 12.9733C4.46071 13.0403 4.54886 13.0755 4.64407 13.0755H5.5186V17.1378H4.64407C4.55239 17.1378 4.46071 17.1766 4.39371 17.2401C4.32671 17.3071 4.29144 17.3952 4.29144 17.4905V18.975H3.41692C3.32524 18.975 3.23355 19.0138 3.16655 19.0773C3.09955 19.1443 3.06429 19.2324 3.06429 19.3277V21.1649C3.06429 21.2565 3.10308 21.3482 3.16655 21.4152C3.23355 21.4822 3.32171 21.5175 3.41692 21.5175H8.23737C8.61116 21.4963 8.90737 21.1895 8.90737 20.8122H3.76955V19.6803H4.64407C4.73576 19.6803 4.82744 19.6415 4.89444 19.578C4.96144 19.511 4.9967 19.4229 4.9967 19.3277V17.8431H8.58295V19.3277C8.58295 19.4193 8.62174 19.511 8.68521 19.578C8.75221 19.645 8.84037 19.6803 8.93558 19.6803H15.0643C15.156 19.6803 15.2477 19.6415 15.3147 19.578C15.3817 19.511 15.4169 19.4229 15.4169 19.3277V17.8431H19.0032V19.3277C19.0032 19.4193 19.042 19.511 19.1054 19.578C19.1724 19.645 19.2606 19.6803 19.3558 19.6803H20.2303V20.8122H10.6705C10.2967 20.8334 10.0005 21.1402 10.0005 21.5175H20.583C20.6746 21.5175 20.7663 21.4787 20.8333 21.4152C20.9003 21.3482 20.9356 21.2601 20.9356 21.1649V19.3277C20.9356 19.236 20.8968 19.1443 20.8333 19.0773C20.7663 19.0103 20.6782 18.975 20.583 18.975H19.7084V17.4905C19.7084 17.3988 19.6696 17.3071 19.6062 17.2401C19.5392 17.1731 19.451 17.1378 19.3558 17.1378H18.4813V13.0755H19.3558V13.0791ZM5.00023 12.3738V10.8892V9.40464H19.0032V10.8892V12.3738H18.1322H16.295H15.4204V10.8892C15.4204 10.7975 15.3817 10.7058 15.3182 10.6389C15.2512 10.5719 15.163 10.5366 15.0678 10.5366H8.93911C8.84742 10.5366 8.75574 10.5754 8.68874 10.6389C8.62174 10.7058 8.58648 10.794 8.58648 10.8892V12.3738H8.06459H5.52212H5.00023ZM6.22738 17.1413V13.0791H7.35932V17.1413H6.22738ZM15.0678 17.1413C14.9761 17.1413 14.8844 17.1801 14.8174 17.2436C14.7505 17.3106 14.7152 17.3988 14.7152 17.494V18.9785H9.29174V17.494C9.29174 17.4023 9.25295 17.3106 9.18947 17.2436C9.12247 17.1766 9.03432 17.1413 8.93911 17.1413H8.06459V13.0791H8.93911C9.03079 13.0791 9.12247 13.0403 9.18947 12.9768C9.25647 12.9098 9.29174 12.8216 9.29174 12.7264V11.2418H14.7152V12.7264C14.7152 12.8181 14.754 12.9098 14.8174 12.9768C14.8844 13.0438 14.9726 13.0791 15.0678 13.0791H15.9423V17.1413H15.0678ZM17.7795 17.1413H16.6476V13.0791H17.7795V17.1413Z" fill="#F9423A"/>
<path d="M10.5649 6.31216C10.5649 7.10557 11.2103 7.74736 12.0001 7.74736C12.79 7.74736 13.4353 7.10205 13.4353 6.31216C13.4353 5.52227 12.79 4.87695 12.0001 4.87695C11.2103 4.87695 10.5649 5.52227 10.5649 6.31216ZM12.7336 6.31216C12.7336 6.71768 12.4057 7.0421 12.0037 7.0421C11.6017 7.0421 11.2737 6.71416 11.2737 6.31216C11.2737 5.91016 11.6017 5.58221 12.0037 5.58221C12.4057 5.58221 12.7336 5.91016 12.7336 6.31216Z" fill="#F9423A"/>
<path d="M12.1272 13.4777C12.3388 13.4777 12.5609 13.5306 12.7513 13.6293C12.9418 13.728 13.0934 13.8656 13.1886 14.0313L13.7987 13.6787C13.6259 13.3789 13.3684 13.1533 13.0758 13.0016C12.8924 12.9064 12.6914 12.8429 12.4869 12.8077V11.9473H11.7816V12.8006C11.4219 12.8676 11.0763 13.0404 10.8189 13.3472C10.6215 13.587 10.5368 13.8797 10.5333 14.1724C10.5333 14.2887 10.5474 14.4086 10.5827 14.525C10.6391 14.7225 10.7484 14.8882 10.8789 15.0151C11.0763 15.2056 11.3091 15.3008 11.5312 15.3643C11.7534 15.4277 11.9685 15.4559 12.1519 15.4841C12.3141 15.5088 12.4869 15.5547 12.6279 15.6181C12.7725 15.6816 12.8748 15.7662 12.9312 15.8509C12.9911 15.9426 13.0088 16.0201 13.0088 16.0942C13.0088 16.2176 12.9488 16.3622 12.8289 16.4997C12.709 16.6337 12.5362 16.7501 12.374 16.803C12.2436 16.8488 12.1237 16.8665 12.0038 16.8665C11.7851 16.8665 11.5806 16.7995 11.3831 16.6796C11.1857 16.5561 11.0023 16.3763 10.8542 16.1612L10.2759 16.5667C10.4734 16.8488 10.7202 17.0957 11.0093 17.279C11.228 17.4166 11.4783 17.5153 11.7428 17.5541V18.2805H12.4481V17.5118C12.4974 17.4977 12.5503 17.4906 12.5997 17.473C12.8818 17.3742 13.1463 17.2015 13.3508 16.9687C13.5553 16.7395 13.707 16.4398 13.7105 16.0977C13.7105 15.8861 13.647 15.6675 13.5201 15.47C13.3649 15.2303 13.1392 15.0786 12.9171 14.9764C12.6914 14.8741 12.4622 14.8212 12.2612 14.7859C12.0073 14.7471 11.7534 14.7084 11.5736 14.6343C11.4854 14.599 11.4184 14.5567 11.369 14.5074C11.3197 14.458 11.2844 14.4086 11.2597 14.3205C11.2456 14.2782 11.2386 14.2288 11.2386 14.1724C11.2386 14.0348 11.2915 13.8797 11.3585 13.8021C11.5383 13.587 11.8133 13.4777 12.1272 13.4777Z" fill="#F9423A"/>
</svg>
