<svg width="24" height="24" viewBox="0 0 24 24" fill="none" xmlns="http://www.w3.org/2000/svg">
<path d="M19.2629 17.4448C19.2629 16.912 18.8296 16.4822 18.2968 16.4822H15.4235C14.8907 16.4822 14.461 16.912 14.461 17.4448V17.9384C14.461 18.1693 14.5462 18.3788 14.6812 18.5458C14.564 18.6878 14.4894 18.8619 14.4681 19.0537L14.461 19.114V19.1318V19.6432C14.461 19.732 14.4752 19.8173 14.5001 19.899H12.6141C12.742 19.6681 12.8272 19.4124 12.8627 19.1354C12.8734 19.0466 12.8805 18.9578 12.8805 18.869C12.8805 17.807 12.092 16.8871 11.0087 16.7522C10.9199 16.7415 10.8347 16.7344 10.7459 16.7344C10.4689 16.7344 10.2025 16.7912 9.95743 16.8907C9.77985 16.8197 9.58806 16.7699 9.38916 16.7486C9.48506 16.5994 9.54544 16.4219 9.54544 16.2265V15.7364C9.54544 15.502 9.4602 15.2924 9.32168 15.1255C9.45664 14.9586 9.54544 14.749 9.54544 14.5182V14.028C9.54544 13.7616 9.43533 13.5201 9.2613 13.3461C9.08727 13.1721 8.84575 13.0655 8.57937 13.0655H6.83194V12.3907C6.83194 11.2897 7.2759 10.2952 7.9969 9.57419C8.71434 8.85675 9.69816 8.41634 10.7921 8.40923H13.2712C14.3615 8.41634 15.3489 8.85675 16.0628 9.57419C16.7838 10.2952 17.2278 11.2897 17.2278 12.3907V15.1894C17.2455 15.5659 17.5545 15.8642 17.9345 15.8642V15.1717V12.3907C17.9345 10.3769 16.6666 8.66851 14.8907 8.00079C15.0293 7.8232 15.1145 7.603 15.1145 7.36148C15.1145 6.9779 14.9049 6.64759 14.596 6.4629L16.1125 3.51855C16.1694 3.40845 16.1658 3.27703 16.1019 3.17048C16.0379 3.06393 15.9207 3 15.8 3H11.9819C11.6054 3.02131 11.3071 3.33031 11.3071 3.71034H15.2175L13.875 6.31373H10.1244L8.78182 3.71034H9.94323C10.3197 3.68903 10.618 3.38003 10.618 3H8.19934C8.07503 3 7.96138 3.06393 7.89745 3.17048C7.83352 3.27703 7.82997 3.40845 7.88679 3.51855L9.40337 6.45935C9.32523 6.50552 9.25065 6.55525 9.19027 6.61918C9.00203 6.80742 8.88482 7.07024 8.88482 7.35793C8.88482 7.60655 8.97716 7.83386 9.12278 8.015C7.36825 8.69337 6.12515 10.3946 6.12515 12.3871V13.062H5.70605C5.44323 13.062 5.19816 13.1685 5.02413 13.3425C4.85009 13.5166 4.73999 13.7581 4.73999 14.0245V14.5146C4.73999 14.7455 4.82523 14.955 4.96375 15.1219C4.82523 15.2889 4.73999 15.4984 4.73999 15.7328V16.223C4.73999 16.4538 4.82523 16.6634 4.96375 16.8303C4.82878 16.9972 4.74354 17.2068 4.73999 17.4376V17.9313C4.73999 18.1622 4.82523 18.3717 4.96375 18.5387C4.82878 18.7056 4.74354 18.9152 4.73999 19.146V19.6361C4.73999 20.1689 5.16975 20.6022 5.7025 20.6022H7.91166C8.26327 20.8508 8.68948 21 9.1512 21C9.43533 21 9.70881 20.9432 9.95743 20.8402C10.1244 20.9077 10.2948 20.9574 10.4795 20.9787C10.5683 20.9893 10.6571 20.9964 10.7459 20.9964C11.197 20.9964 11.6196 20.8473 11.9677 20.5987H18.2933C18.5596 20.5987 18.8047 20.4921 18.9787 20.3145C19.1528 20.1405 19.2629 19.8954 19.2629 19.629V19.1389C19.2629 18.908 19.1776 18.6985 19.0391 18.5316C19.1776 18.3646 19.2629 18.1551 19.2629 17.9242V17.4305V17.4448ZM9.92547 7.69889C9.74078 7.69889 9.59161 7.54972 9.59161 7.36148C9.59161 7.27269 9.63068 7.18745 9.69106 7.12707C9.75499 7.06669 9.82957 7.03118 9.91481 7.02762H14.081C14.2621 7.03118 14.4077 7.1839 14.4077 7.36148C14.4077 7.45738 14.3686 7.53907 14.3083 7.59945C14.2479 7.65983 14.1626 7.69889 14.0703 7.69889H13.2712C13.2712 7.69889 13.257 7.69889 13.2499 7.69889H10.8098C10.8098 7.69889 10.7956 7.69889 10.7885 7.69889H9.92192H9.92547ZM15.1713 17.4448C15.1713 17.3062 15.285 17.1926 15.4235 17.1926H18.2968C18.4389 17.1926 18.5525 17.3062 18.5525 17.4448V17.9384C18.5525 18.077 18.4389 18.1906 18.2968 18.1906H15.4235C15.285 18.1906 15.1713 18.077 15.1713 17.9384V17.4448ZM7.12673 18.1906H5.7025C5.56398 18.1906 5.45033 18.077 5.45033 17.9384V17.4448C5.45033 17.3062 5.56398 17.1926 5.7025 17.1926H7.83707C7.51387 17.4483 7.26525 17.7928 7.13028 18.1906H7.12673ZM5.44678 16.2301V15.7399C5.44678 15.5979 5.56043 15.4842 5.69895 15.4842H8.57582C8.71434 15.4842 8.82799 15.5979 8.82799 15.7399V16.2301C8.82799 16.3686 8.71434 16.4822 8.57582 16.4822H5.69895C5.56043 16.4822 5.44678 16.3686 5.44678 16.2301ZM5.44678 14.0316C5.44678 13.8895 5.56043 13.7794 5.69895 13.7794H8.57582C8.71789 13.7794 8.82799 13.8895 8.82799 14.0316V14.5217C8.82799 14.6602 8.71434 14.7739 8.57582 14.7739H5.69895C5.56043 14.7739 5.44678 14.6602 5.44678 14.5217V14.0316ZM5.44678 19.6468V19.1567C5.44678 19.0182 5.56043 18.9045 5.69895 18.9045H7.01308C7.01663 19.2668 7.11252 19.6077 7.2759 19.9025H5.69895C5.56043 19.9025 5.44678 19.7889 5.44678 19.6468ZM8.13896 19.8848C7.87969 19.6255 7.71986 19.2703 7.71986 18.8761C7.71986 18.4818 7.87969 18.1267 8.13896 17.8674C8.39824 17.6081 8.75341 17.4483 9.14765 17.4483C9.54188 17.4483 9.89705 17.6081 10.1563 17.8674C10.4156 18.1267 10.5754 18.4818 10.5754 18.8761C10.5754 19.2703 10.4156 19.6255 10.1563 19.8848C9.89705 20.144 9.54188 20.3039 9.14765 20.3039C8.75341 20.3039 8.39824 20.144 8.13896 19.8848ZM10.7459 20.3003H10.7388C11.0798 19.9203 11.2858 19.423 11.2858 18.8761C11.2858 18.3291 11.0762 17.8283 10.7388 17.4519C10.7956 17.4519 10.856 17.4519 10.9128 17.4625C11.6338 17.5513 12.163 18.1693 12.163 18.8761C12.163 18.9329 12.1595 18.9933 12.1524 19.0537C12.0636 19.7747 11.4527 20.3039 10.7459 20.3039V20.3003ZM18.549 19.6468C18.549 19.7889 18.4353 19.9025 18.2933 19.9025H15.4199C15.2814 19.9025 15.1678 19.7889 15.1678 19.6468V19.1318L15.1713 19.1283C15.182 19.0039 15.2885 18.9045 15.4199 18.9045H18.2933C18.4353 18.9045 18.549 19.0182 18.549 19.1567V19.6468Z" fill="#F9423A"/>
<path d="M12.1276 11.1049C12.3407 11.1049 12.5644 11.1582 12.7562 11.2576C12.948 11.3571 13.1007 11.4956 13.1966 11.6625L13.8111 11.3074C13.6371 11.0055 13.3778 10.7782 13.083 10.6254C12.8983 10.5295 12.6959 10.4656 12.4899 10.4301V9.56348H11.7795V10.423C11.4172 10.4905 11.0692 10.6645 10.8099 10.9735C10.611 11.215 10.5258 11.5098 10.5222 11.8046C10.5222 11.9218 10.5364 12.0426 10.5719 12.1598C10.6323 12.3587 10.7389 12.5256 10.8703 12.6535C11.0692 12.8452 11.3036 12.9411 11.5273 13.0051C11.7511 13.069 11.9678 13.0974 12.1524 13.1258C12.3158 13.1507 12.4899 13.1969 12.6319 13.2608C12.7775 13.3247 12.8805 13.41 12.9374 13.4952C12.9977 13.5875 13.0155 13.6657 13.0155 13.7403C13.0155 13.8646 12.9551 14.0102 12.8344 14.1487C12.7136 14.2837 12.5396 14.4009 12.3762 14.4542C12.2448 14.5003 12.124 14.5181 12.0033 14.5181C11.7831 14.5181 11.5771 14.4506 11.3782 14.3299C11.1793 14.2055 10.9946 14.0244 10.8454 13.8078L10.2629 14.2162C10.4618 14.5003 10.7069 14.749 11.0017 14.9336C11.2219 15.0722 11.4741 15.1716 11.7404 15.2107V15.9423H12.4508V15.1681C12.5005 15.1538 12.5538 15.1467 12.6035 15.129C12.8876 15.0295 13.154 14.8555 13.36 14.6211C13.566 14.3902 13.7187 14.0883 13.7223 13.7438C13.7223 13.5307 13.6584 13.3105 13.5305 13.1116C13.3742 12.8701 13.1469 12.7174 12.9232 12.6144C12.6959 12.5114 12.465 12.4581 12.2625 12.4226C12.0068 12.3835 11.7511 12.3445 11.57 12.2699C11.4812 12.2344 11.4137 12.1917 11.364 12.142C11.3142 12.0923 11.2787 12.0426 11.2539 11.9538C11.2397 11.9111 11.2326 11.8614 11.2326 11.8046C11.2326 11.6661 11.2858 11.5098 11.3533 11.4317C11.5344 11.215 11.8115 11.1049 12.1276 11.1049Z" fill="#F9423A"/>
</svg>
