<svg width="24" height="24" viewBox="0 0 24 24" fill="none" xmlns="http://www.w3.org/2000/svg">
<path d="M7.34727 10.197H9.43818C9.64651 10.1932 9.81696 10.0227 9.81696 9.81439V7.91667C9.81696 7.91667 9.81696 7.91288 9.81696 7.90909V3.37879C9.81696 3.2803 9.77909 3.18182 9.70712 3.10985C9.63515 3.03788 9.54045 3 9.43818 3C7.01772 3 4.9003 4.26136 3.68818 6.16288C3.64651 6.20455 3.62 6.25379 3.60106 6.30682C2.98363 7.33333 2.62 8.5303 2.62 9.81818V9.82576C2.62 9.93182 2.65787 10.0265 2.72984 10.0985C2.80181 10.1705 2.89651 10.2083 2.99878 10.2083L7.34348 10.2008L7.34727 10.197ZM9.05939 6.99621L6.54803 4.48485C7.30181 4.07576 8.15409 3.82955 9.05939 3.77273V6.99621ZM5.15409 5.5303C5.38515 5.30303 5.63515 5.0947 5.89651 4.9053L9.05939 8.06818V9.43561H7.50257L4.44575 6.37879C4.65409 6.07576 4.89272 5.78788 5.15409 5.52652V5.5303ZM4.04803 7.05682L6.43439 9.44318H3.39651C3.44954 8.59091 3.67681 7.7803 4.04803 7.05682Z" fill="#F9423A"/>
<path d="M21.0136 20.2538H19.4984V18.6212C19.4795 18.2197 19.15 17.9015 18.7447 17.9015V20.2538H17.2295V11.9205H18.7447V16.4243C18.7636 16.8258 19.0931 17.144 19.4984 17.144V11.5417C19.4984 11.4432 19.4568 11.3447 19.3886 11.2728C19.3166 11.2008 19.2219 11.1629 19.1197 11.1629H17.9643C17.9037 10.1288 17.6197 9.15533 17.1462 8.2917L19.3734 6.06442V8.00003C19.3924 8.40154 19.7219 8.71973 20.1272 8.71973V5.14776C20.1272 5.04927 20.0856 4.95079 20.0174 4.87882C19.9454 4.80685 19.8507 4.76897 19.7484 4.76897H16.1765C16.1765 5.17427 16.4947 5.50382 16.8962 5.52276H18.8356L16.7295 7.62882C15.4947 5.87882 13.4606 4.7273 11.1727 4.71973C11.0742 4.71973 10.9757 4.76139 10.9037 4.82958C10.8318 4.90154 10.7939 4.99624 10.7939 5.09851V7.50382C10.8128 7.90533 11.1424 8.24624 11.5515 8.24624V7.52654V5.49624C13.4757 5.62124 15.1651 6.65154 16.1916 8.1667L13.6272 10.7311L14.1613 11.2652L16.5818 8.84473C16.934 9.54927 17.1537 10.3296 17.2068 11.1515H16.8469C16.7484 11.1515 16.65 11.1932 16.578 11.2614C16.506 11.3334 16.4681 11.4281 16.4681 11.5303V20.2425H15.7106V13.8031C15.7106 13.7046 15.6689 13.6061 15.6007 13.5341C15.5287 13.4622 15.434 13.4243 15.3318 13.4243H13.059C12.9606 13.4243 12.8621 13.4659 12.7901 13.5341C12.7181 13.6061 12.6803 13.7008 12.6803 13.8031V20.2425H11.9227V16.0758C11.9227 15.9773 11.881 15.8788 11.8128 15.8068C11.7409 15.7349 11.6462 15.697 11.5439 15.697H9.27117C9.17268 15.697 9.0742 15.7387 9.00223 15.8068C8.93026 15.8788 8.89238 15.9735 8.89238 16.0758V17.144C6.79389 16.2803 5.26738 14.269 5.11965 11.9129H11.1651C11.3734 11.9129 11.5439 11.7425 11.5439 11.5341L11.5515 9.75003C11.5325 9.34851 11.1954 9.00382 10.7901 9.00382V9.72351V11.1553H4.72571C4.62723 11.1553 4.52874 11.197 4.45677 11.2652C4.3848 11.3371 4.34692 11.4318 4.34692 11.5341C4.34692 14.4811 6.25602 17.0076 8.89238 17.9508V20.2425H7.37723V21H16.8431H19.1159H21.0098V20.2425L21.0136 20.2538ZM13.4378 14.1932H14.953V20.2538H13.4378V14.1932ZM11.1651 16.4659V20.2538H9.64995V16.4659H11.1651Z" fill="#F9423A"/>
<path d="M21.0138 13.4358C21.1123 13.4358 21.2108 13.3941 21.2827 13.326C21.3547 13.254 21.3926 13.1593 21.3926 13.057C21.3926 12.9547 21.3509 12.86 21.2827 12.7881C21.2108 12.7161 21.1161 12.6782 21.0138 12.6782C20.9115 12.6782 20.8168 12.7199 20.7449 12.7881C20.6729 12.86 20.635 12.9547 20.635 13.057C20.635 13.1593 20.6767 13.254 20.7449 13.326C20.8168 13.3979 20.9115 13.4358 21.0138 13.4358Z" fill="#F9423A"/>
<path d="M21.0137 14.9512C20.9152 14.9512 20.8167 14.9928 20.7447 15.061C20.6728 15.133 20.6349 15.2277 20.6349 15.33C20.6349 15.4322 20.6766 15.5269 20.7447 15.5989C20.8167 15.6709 20.9114 15.7087 21.0137 15.7087C21.1159 15.7087 21.2106 15.6671 21.2826 15.5989C21.3546 15.5269 21.3925 15.4322 21.3925 15.33C21.3925 15.2277 21.3508 15.133 21.2826 15.061C21.2106 14.9891 21.1159 14.9512 21.0137 14.9512Z" fill="#F9423A"/>
<path d="M21.0137 17.2236C20.9152 17.2236 20.8167 17.2653 20.7447 17.3335C20.6728 17.4055 20.6349 17.5001 20.6349 17.6024C20.6349 17.7047 20.6766 17.7994 20.7447 17.8714C20.8167 17.9433 20.9114 17.9812 21.0137 17.9812C21.1159 17.9812 21.2106 17.9395 21.2826 17.8714C21.3546 17.7994 21.3925 17.7047 21.3925 17.6024C21.3925 17.5001 21.3508 17.4055 21.2826 17.3335C21.2106 17.2615 21.1159 17.2236 21.0137 17.2236Z" fill="#F9423A"/>
</svg>
